<?xml version="1.0" encoding="UTF-8"?>
<svg id="Layer_2" data-name="Layer 2" xmlns="http://www.w3.org/2000/svg" width="52.96" height="12.71" viewBox="0 0 52.96 12.71">
  <g id="Layer_1-2" data-name="Layer 1">
    <g>
      <rect width="52.96" height="12.71" rx="2.93" ry="2.93" style="fill: #e4424f; stroke-width: 0px;"/>
      <g>
        <path d="M24.9,9.73h-1v-4.67l-1.42.48v-.83l2.3-.84h.12v5.87Z" style="fill: #892129; stroke-width: 0px;"/>
        <path d="M30.74,7.28c0,.61-.08,1.09-.24,1.46-.16.37-.38.64-.67.81-.29.17-.62.25-1.01.25s-.72-.08-1.01-.25c-.29-.17-.52-.44-.68-.81-.16-.37-.24-.86-.24-1.46v-.97c0-.61.08-1.09.24-1.46.16-.37.38-.63.67-.8.29-.17.62-.25,1.01-.25s.73.08,1.01.25c.29.17.51.43.67.8.16.37.24.85.24,1.46v.97ZM29.74,6.17c0-.38-.04-.69-.11-.92-.07-.23-.18-.39-.31-.49s-.31-.15-.51-.15-.36.05-.5.15c-.14.1-.24.26-.32.49-.07.23-.11.53-.11.92v1.26c0,.38.04.69.11.92.07.23.18.4.32.51.14.11.31.16.5.16s.37-.05.5-.16c.14-.11.24-.28.31-.51.07-.23.1-.54.1-.92v-1.26Z" style="fill: #892129; stroke-width: 0px;"/>
      </g>
      <rect x="5.56" y="5.16" width="8.38" height="2.38" style="fill: #a4833a; stroke-width: 0px;"/>
      <rect x="39.91" y="5.08" width="8.38" height="2.38" style="fill: #a4833a; stroke-width: 0px;"/>
    </g>
  </g>
</svg>