<?xml version="1.0" encoding="UTF-8"?>
<svg id="Layer_2" data-name="Layer 2" xmlns="http://www.w3.org/2000/svg" width="83.74" height="40.18" viewBox="0 0 83.74 40.18">
  <g id="Layer_1-2" data-name="Layer 1">
    <g>
      <rect width="83.74" height="40.18" rx="6.83" ry="6.83" style="fill: #c64e5f; stroke-width: 0px;"/>
      <g>
        <path d="M23.45,25.24h-1.58v-7.38l-2.25.76v-1.32l3.64-1.33h.2v9.27Z" style="fill: #8e464f; stroke-width: 0px;"/>
        <path d="M32.86,25.24h-6.23v-1.09l3.01-3.27c.33-.36.59-.68.78-.95.19-.27.32-.51.4-.72s.11-.42.11-.63c0-.43-.12-.78-.35-1.05-.24-.27-.57-.41-1.01-.41-.34,0-.62.07-.85.22-.23.15-.4.35-.52.6s-.17.55-.17.88h-1.57c0-.54.12-1.04.37-1.49.25-.45.6-.81,1.07-1.07s1.03-.4,1.69-.4c.93,0,1.65.23,2.16.69.51.46.76,1.08.76,1.87,0,.39-.08.77-.25,1.15-.17.38-.39.75-.68,1.13s-.62.76-.99,1.15l-1.97,2.12h4.24v1.26Z" style="fill: #8e464f; stroke-width: 0px;"/>
        <path d="M37.63,23.49l.33,1.75h-1.22l-3.29-9.24h1.8l2.39,7.5ZM39.85,16h1.81l-3.3,9.24h-1.23l.31-1.75,2.41-7.5Z" style="fill: #8e464f; stroke-width: 0px;"/>
        <path d="M46.66,25.24h-1.58v-7.38l-2.25.76v-1.32l3.64-1.33h.2v9.27Z" style="fill: #8e464f; stroke-width: 0px;"/>
        <path d="M55.89,21.37c0,.96-.12,1.73-.38,2.31-.25.59-.6,1.01-1.05,1.28-.45.27-.99.4-1.6.4s-1.14-.13-1.6-.4c-.46-.27-.82-.7-1.07-1.28-.25-.59-.38-1.36-.38-2.31v-1.53c0-.96.13-1.73.38-2.31.25-.58.61-1,1.06-1.26.46-.26.99-.39,1.59-.39s1.15.13,1.6.39c.46.26.81.68,1.06,1.26.25.58.38,1.35.38,2.31v1.53ZM54.31,19.6c0-.61-.06-1.09-.17-1.45-.11-.36-.28-.62-.5-.78-.22-.16-.49-.24-.8-.24s-.57.08-.79.24-.38.42-.5.78c-.11.36-.17.84-.17,1.45v1.99c0,.6.06,1.09.17,1.46s.28.64.5.8c.22.17.48.25.79.25s.58-.08.8-.25c.22-.17.38-.43.49-.8.11-.37.17-.85.17-1.46v-1.99Z" style="fill: #8e464f; stroke-width: 0px;"/>
        <path d="M58.37,25.24h-1.72l3.48-9.24h1.09l-.11,1.31-2.74,7.93ZM63.27,23.13h-5.03v-1.32h5.03v1.32ZM60.63,17.31l-.12-1.31h1.1l3.49,9.24h-1.72l-2.75-7.93Z" style="fill: #8e464f; stroke-width: 0px;"/>
      </g>
    </g>
  </g>
</svg>