<?xml version="1.0" encoding="UTF-8"?>
<svg id="Layer_2" data-name="Layer 2" xmlns="http://www.w3.org/2000/svg" width="84.18" height="40.39" viewBox="0 0 84.18 40.39">
  <g id="Layer_1-2" data-name="Layer 1">
    <g>
      <rect width="84.18" height="40.39" rx="6.83" ry="6.83" style="fill: #d79528; stroke-width: 0px;"/>
      <g>
        <path d="M23.57,25.37h-1.59v-7.42l-2.27.76v-1.33l3.66-1.33h.2v9.32Z" style="fill: #835d25; stroke-width: 0px;"/>
        <path d="M33.02,25.37h-6.26v-1.09l3.02-3.29c.33-.37.59-.68.78-.95.19-.27.32-.51.4-.72.08-.21.12-.42.12-.63,0-.43-.12-.78-.35-1.06-.24-.27-.57-.41-1.01-.41-.34,0-.63.07-.86.22-.23.15-.41.35-.52.6-.12.26-.17.55-.17.88h-1.58c0-.54.12-1.04.37-1.49.25-.45.61-.81,1.08-1.08.47-.27,1.04-.4,1.7-.4.94,0,1.66.23,2.17.7.51.46.77,1.09.77,1.88,0,.39-.08.78-.25,1.16-.17.38-.39.76-.68,1.13s-.62.76-1,1.16l-1.98,2.13h4.26v1.27Z" style="fill: #835d25; stroke-width: 0px;"/>
        <path d="M37.82,23.62l.33,1.75h-1.23l-3.31-9.29h1.81l2.4,7.54ZM40.06,16.08h1.82l-3.32,9.29h-1.23l.31-1.75,2.42-7.54Z" style="fill: #835d25; stroke-width: 0px;"/>
        <path d="M49.08,23.3h-6.71l-.05-.97,3.99-6.25h1.27l-1.35,2.37-2.27,3.58h5.12v1.27ZM47.93,25.37h-1.58v-9.29h1.58v9.29Z" style="fill: #835d25; stroke-width: 0px;"/>
        <path d="M56.17,21.48c0,.96-.12,1.74-.38,2.33s-.6,1.02-1.06,1.29c-.46.27-.99.4-1.61.4s-1.14-.13-1.6-.4c-.46-.27-.82-.7-1.08-1.29-.26-.59-.38-1.36-.38-2.33v-1.54c0-.97.13-1.74.38-2.32.25-.58.61-1.01,1.07-1.27.46-.26.99-.4,1.6-.4s1.15.13,1.61.4c.46.26.81.69,1.07,1.27.25.58.38,1.36.38,2.32v1.54ZM54.59,19.71c0-.61-.06-1.09-.17-1.46-.11-.36-.28-.62-.5-.78-.22-.16-.49-.24-.81-.24s-.58.08-.79.24c-.22.16-.39.42-.5.78-.11.36-.17.85-.17,1.46v2c0,.61.06,1.1.18,1.47.12.37.29.64.51.81.22.17.49.25.8.25s.59-.08.8-.25.38-.44.49-.81.17-.86.17-1.47v-2Z" style="fill: #835d25; stroke-width: 0px;"/>
        <path d="M58.67,25.37h-1.73l3.5-9.29h1.1l-.11,1.32-2.76,7.97ZM63.6,23.25h-5.06v-1.33h5.06v1.33ZM60.95,17.4l-.12-1.32h1.1l3.51,9.29h-1.73l-2.76-7.97Z" style="fill: #835d25; stroke-width: 0px;"/>
      </g>
    </g>
  </g>
</svg>