<?xml version="1.0" encoding="UTF-8"?>
<svg id="Layer_2" data-name="Layer 2" xmlns="http://www.w3.org/2000/svg" width="289.83" height="178.6" viewBox="0 0 289.83 178.6">
  <g id="Layer_1-2" data-name="Layer 1">
    <g>
      <rect x=".78" y="78.27" width="40.02" height="22.44" style="fill: #bababa; stroke: #414142; stroke-miterlimit: 10;"/>
      <polygon points="198.26 .6 49.92 .57 48.41 2.08 48.41 61.21 48.41 176.3 49.92 178.3 197.92 178.23 198.26 .6" style="fill: #1c1c1c; stroke-width: 0px;"/>
      <polyline points="37.91 61.21 36.61 62.51 36.61 77.88 36.61 116.09 37.91 117.39 48.48 117.48 48.48 61.21" style="fill: #141414; stroke-width: 0px;"/>
      <polygon points="212.78 21.03 198.19 .6 197.85 178.23 212.78 157.57 212.78 21.03" style="fill: #141414; stroke-width: 0px;"/>
      <polygon points="261.51 21.14 212.78 21.03 212.78 157.57 261.18 157.56 265.84 153.09 265.91 25.77 261.51 21.14" style="fill: #0d0d0d; stroke-width: 0px;"/>
      <line x1="192.07" y1="61.82" x2="48.41" y2="62.07" style="fill: #1c1c1c; stroke-width: 0px;"/>
      <path d="M212.58,63.2l.27,49.7,17.42-.44c2.61-.39,4.9-1.92,6.94-4.33l3.09-5.35,1.19-4.45v-21.05l-1.67-4.22-3.01-5.42c-1.44-2.3-3.55-3.73-6.52-4.06l-17.72-.38Z" style="fill: #231f20; stroke-width: 0px;"/>
      <rect x="265.89" y="70.46" width="22.67" height="34.72" style="fill: #0d0d0d; stroke-width: 0px;"/>
      <rect x="261.16" y="70.93" width="27.46" height="3.69" style="fill: #1c1c1c; stroke-width: 0px;"/>
      <rect x="261.45" y="86.2" width="27.46" height="3.69" style="fill: #1c1c1c; stroke-width: 0px;"/>
      <rect x="261.19" y="101.07" width="27.46" height="3.69" style="fill: #1c1c1c; stroke-width: 0px;"/>
      <path d="M36.54,78.24h-.58s-1.31.03-1.31.03M36.54,100.33h-.58s-1.31-.02-1.31-.02M36.54,79.57h-.58s-1.31.02-1.31.02M34.65,81.14v-1.55M34.65,98.79v-1.7M36.54,98.81h-.58s-1.31-.02-1.31-.02M36.54,92.28h-.58s-1.31-.01-1.31-.01M34.65,92.58h0v-.31M34.65,95.4v-2.81h0M36.54,95.41h-.58s-1.31-.01-1.31-.01M36.54,82.82h-.58s-1.31.01-1.31.01M34.65,85.31h0v-2.47M36.54,85.89h-.58s-1.31.01-1.31.01M36.54,87.36h-1.89M36.54,90.8h-1.89M59.68,29.7V.26M276.98,41.45v-.47M266.89,40.81v.5M276.98,69.28v-.03M274.28,69.25v.08M276.98,56.81v.26s.02.24.02.24v.19s0,.13,0,.13v.06s0,0,0,0M266.86,57.94h0s0-.05,0-.05v-.13s.01-.2.01-.2v-.24s0-.27,0-.27M274.28,56.93v.26s.02.24.02.24v.19s0,.13,0,.13v.06s0,0,0,0M268.1,57.06v.27s0,.24,0,.24v.19s0,.13,0,.13v.05s0,0,0,0M206.78,162.83l1.57.03M200.49,171.63l1.57.03M208.61,162.49l-1.84.03M202.17,171.51l-.9.02h-.77M206.89,16.27h1.15M207.84,16.01l-.95.02M200.49,8.68h.76s1.61.03,1.61.03M207.84,16.01l-.32-.33-.53-.52-.37-.32-.12-.08M202.76,8.56l-2.27.04M202.76,8.56l-.82-.92-.69-.73-.53-.53-.37-.33-.24-.16M210.59,19.41l-3.7-.05M206.78,160.3l3.82-.06M210.59,152.43h-.59M210.01,26.16h.58M210.35,26.4l.16-.02.08-.2M210.59,152.43v-.1s-.15-.13-.15-.13h-.05s-.03,0-.03,0M204.15,10.44l-2.9-.04h-.76M200.49,169.32l1.97-.03,1.69-.03M206.78,26.55h1.84M208.61,152.04h-1.73M204.15,160.3h-.6M203.56,18.29h.59M203.91,18.53l.16-.02.08-.21M204.15,160.3v-.11s-.15-.13-.15-.13h-.06s-.03,0-.03,0M208.35,26.25l-1.57.04M206.89,152.32l1.46.04M206.85,153.39l.68-.36.82-.67M208.35,26.25l-.14-.13-.69-.55-.53-.3-.18-.04M200.49,18.8h.77s.9.01.9.01M202.17,159.79h-.9s-.77,0-.77,0M202.06,18.68l-1.57.04M200.49,159.88l1.57.04M200.57,160.95l.68-.36.81-.67M202.06,18.68l-.13-.13-.69-.55-.53-.3-.18-.04M206.89,149.06l3.7-.02M218.56,63.01l-.09.12-.17.1-.1.02M210.59,135.16l-1.96.05M217.06,63.01v.22h0M217.54,63.01l.03.06.05.06.06.05.06.04.07.02h.07M213.43,63.17h0v-.05s0-.04,0-.04v-.11s0-.02,0-.02M208.51,135.23v.08s-.01.06-.01.06l-.02.03M210.59,135.16v-.12s-.12-.37-.12-.37l-.29-.23-.38-.03M218.2,112.34l.21.07.12.12.03.05M217.06,112.36h0v.22M217.89,112.34h-.07s-.07.03-.07.03l-.06.04-.06.05-.05.06-.03.05M213.43,112.64v-.06s0-.05,0-.05v-.08s0-.02,0-.02h0M210.59,29.56l-3.82-.02M207.95,50.84l2.64.06M209.55,51.88h.36s.37-.17.37-.17l.23-.32.08-.48M208.95,51.61h0l.06.05.04.07.03.08v.1M200.49,156.81h1.97s1.69-.02,1.69-.02M204.15,140.54l-2.03.04M204.15,140.54v-.18s-.14-.34-.14-.34l-.05-.06-.35-.18-.25.03M203.33,139.51l-.02.09-.04.08-.05.07-.06.05-.07.04M206.95,53.84h1.66M208.68,51.42h0l.06.06.04.07.03.09v.09M204.15,21.81l-3.66-.02M208.35,53.65l-1.16.03M203.24,139.56l-.03.09-.04.08-.05.07-.06.05-.07.04h0M208.35,53.65l-.14-.07-.69-.2h-.09M208.03,116.26h-.45M201.59,46.23l.87.02,1.69.04M202.5,47h0l.06.06.04.07.03.09v.09M203.11,47.27h.36l.37-.18.23-.33.08-.48M200.7,49.43h.57s.9-.01.9-.01M202.4,46.93h0l.06.06.04.07.03.09v.09M202.06,49.35l-1.15.03M202.06,49.35l-.13-.07-.69-.2h-.09M202.86,119.32h-1.61s-.57-.01-.57-.01M210.59,56.76l-3.82.03M206.9,85.85l3.69.06M210.59,92.69l-3.68.06M206.78,113.27l3.82.05M200.71,119.37l2.06.06M201.34,119.96l.61-.07.82-.46M218.79,63.01h0M212.85,62.57v.05s.04.05.04.05l.05.04.07.04.09.03.06.02M212.85,113.01v-.04s.04-.04.04-.04l.05-.04.07-.03.09-.03h.02M204.15,52.36l-3.66.03M200.62,85.73l1.84.03,1.69.03M204.15,92.81l-3.53.06M200.49,116.91h.76s2.9.02,2.9.02M205.46,119.85l1.12-.66M200.66,174.6l-.15.18h-.01M206.95,165.79l-.16.19h-.01M198.26.6v44.35M198.26,44.95v133.05M197.78,178.25V44.83M197.78,44.83V.35M220.19,87.82l-2.11.49-1.3.72M224.08,88.76l-.89-.45-2.11-.49M224.08,75.42l-.89-.45-2.55-.51-2.56.51-1.32.73M234.67,88.58l-.69-.45-.85-.17-.85.17-.72.48-.15.16M232.93,92.42l-.66.16-.72.48-.15.16M234.67,93.03l-.69-.45-.66-.16M232.93,83.12l-.66.16-.72.48-.15.16M234.67,83.73l-.69-.45-.66-.16M234.67,79.28l-.69-.45-.85-.17-.85.17-.72.48-.15.16M268.07,62.35v-4.47M266.86,57.94v4.41M265.64,43.44l.08-.05.11-.1.08-.12.05-.12.02-.13M265.72,42.45v-17.23M261.79,21.29h0v18.48M261.16,39.58v-18.55M259.28,40.7l-.03-.03-.05-.08-.03-.08v-.08M260.04,21.03h0v18.53M265.4,43.26l.04-.05.1-.15.08-.16.06-.16.03-.15v-.14M261.46,40.6l.05-.07.1-.15.08-.16.06-.16.03-.15v-.14M261.16,39.58v.14s0,.16,0,.16v.18s0,.18,0,.18v.18s0,.1,0,.1M259.15,40.41v.08s.04.08.04.08l.05.07.05.04M260.04,39.57h0s-.1.24-.1.24l-.1.34-.06.28v.06M265.58,50.35l.04.04.06.09.03.11v.13M261.65,47.77l.04.03.06.09.03.11v.13M261.15,47.62h0s0,.04,0,.04v.07s0,.1,0,.1v.13M260.04,47.99h0s-.1-.21-.1-.21l-.1-.12h-.03M266.33,100.68h.12s.15,0,.15,0M265.72,153.38v-47.53M261.79,105v52.31M261.16,157.57v-52.5M260.04,47.99v109.58M265.72,43.61v-.08s-.03-.06-.03-.06l-.04-.05h-.01M259.76,40.65v-.07s0-.05,0-.05v-.03h0M261.7,40.87v-.07s-.04-.06-.04-.06l-.04-.05h-.01M261.09,40.68v-.07s0-.05,0-.05v-.03h0M259.76,47.41v.24M235.99,109.33v.25M219.39,112.58v-.08s0-.04,0-.04M218.81,63.01v.03s-.03.05-.03.05M219.38,63.18v-.03s0-.1,0-.1v-.04M229.35,63.18h0v-.05s0-.04,0-.04v-.08M235.41,110.33h0s-.01-.01-.01-.01h0M232.84,111.74h.02s.02.01.02.01l.03.03.03.04.03.05h0M234.51,110.83h.01s.04.03.04.03l.04.03.05.04h0M235.25,95.31v.94M235.25,90.86v3.12M235.25,86.01v3.51M235.25,81.56v3.12M235.25,79.27v.95M241.2,100.61h-.04s-.28.15-.28.15M241.28,100.21l-.19.32-.07.08M241.49,98.14h-.05s-.05.03-.05.03h-.03s-.01.03-.01.03M226.12,98.32l-.23,1.01M225.88,89.62l.25,1.06M226.11,84.98l-.23.99M225.88,76.26l.25,1.08M231.07,96.94l-.03-.14v-.25M231.03,80.12v-1.09M231.03,84.58v-2.92M231.03,89.42v-3.31M231.03,93.87v-2.92M231.03,96.55v-1.14M231.03,79.04l.03-.38.02-.08M220.82,101.87h0M34.65,78.27v-.76M34.65,101.09v-.78M34.65,78.27H.78M.78,100.31h33.87M.78,78.96h33.87M34.65,99.47H.78M34.65,79.59v-.9M34.65,99.7v-.9M34.65,79.59H.78M.78,98.79h33.87M.78,81.68h33.87M34.65,96.6H.78M34.65,96.25v-.85M34.65,82.84v-.86M.78,95.4h33.87M34.65,82.84H.78M.78,85.9h33.87M34.65,92.27H.78M34.65,86.17v-.27M34.65,87.36H.78M.78,90.8h33.87M34.65,92.27v-.31M34.65,87.36v-.65M34.65,91.42v-.62M34.65,85.9v-.25h0M34.65,90.8v-3.43M36.54,77.51h-1.89M34.65,78.46l1.89-.04M34.65,78.69v-.23M36.54,78.74l-1.89-.05M34.65,81.55l1.89-.09M34.65,81.98v-.43M36.54,82.07l-1.89-.09M34.65,86.17l1.89-.11M34.65,86.71v-.54M36.54,86.83l-1.89-.11M34.65,91.42l1.89-.12M34.65,91.96v-.55M36.54,92.08l-1.89-.11M34.65,96.25l1.89-.1M34.65,96.69v-.44M36.54,96.75l-1.89-.06M34.65,99.7l1.89-.06M34.65,99.95v-.25M36.54,100l-1.89-.05M34.65,101.09h1.89M34.65,101.1h0M192.07,29.69V.25M60.28,29.69V.25M60.28,61.82V29.69M120.19,45.76l.46,1.99,1.3,1.68,1.95,1.12,2.29.4,2.29-.4,1.95-1.12,1.3-1.68.46-1.99-.46-1.99-1.3-1.68-1.95-1.12-2.29-.4-2.29.4-1.95,1.12-1.3,1.68-.46,1.99M60.28,29.69h131.79M60.28,176.39V61.82M60.28,176.39h131.79M192.07,176.39V61.82M60.28,61.82h131.79M36.54,116.09h0v-13.39M36.54,102.7v-40.18M37.84,61.21v56.18M48.41,30.69V1.95M49.92.44v29.36M48.41,62.51v-31.82M49.92,29.8l-1.51.89M59.68,29.7l-9.76.1M49.92,29.8v32.1M60.28,30.05h0s-.02-.09-.02-.09l-.08-.11-.14-.09-.17-.06-.2-.02M59.68,61.82V29.7M48.41,174.7V62.51M49.92,61.89l-1.51.62M49.92,176.21l-1.51-1.51M59.68,61.82l-9.76.07M49.92,61.89v114.32M59.68,176.38l-9.76-.17M60.28,62.07h0s-.02-.06-.02-.06l-.08-.08-.14-.06-.17-.04h-.2M59.68,176.38V61.82M60.28,175.79v.02l-.02.13-.08.18-.14.14-.17.09-.2.03M266.72,106.09h0v10.8M266.72,116.89v6.09M270.88,34.39v6.49M266.72,30.4v10.42M202.16,123.81v5.03M202.16,128.84v3.87M277.85,41.87v.32M277.85,69.28l-.02.17-.05.17-.08.15-.11.13-.13.11-.15.08-.17.05-.17.02M277.85,69.25v.03M277.85,69.28h-.88M276.98,70.17l-2.7.05M276.98,69.28v.17s0,.17,0,.17v.29s0,.11,0,.11v.13s0,.02,0,.02M274.28,69.33l2.7-.05M269.25,70.31h.09s.22,0,.22,0h.16s.1,0,.1,0h.03M272.53,70.25h.13s.16,0,.16,0h.22s.27,0,.27,0h.3s.33-.01.33-.01h.34M274.28,69.33v.17s0,.17,0,.17v.15s0,.13,0,.13v.19s0,.05,0,.05v.02M274.28,69.33h-.17s-.16.01-.16.01h-.15s-.13.01-.13.01h-.11s-.08,0-.08,0h-.05s-.02,0-.02,0M277.85,42.19v12.05M276.98,41.45h.17s.17.06.17.06l.15.07.13.09.11.11.08.13.05.14.02.14M276.98,53.5v-12.05M276.98,41.45l-10.09-.15M266.89,41.31v12.05M265.98,42.04l.02-.15.05-.14.08-.13.11-.11.14-.09.16-.07.17-.04h.18M277.85,54.24v.48M276.98,53.5l.17.02.17.04.15.07.13.09.11.11.08.13.05.14.02.14M276.98,54.03v-.53M276.98,53.5l-10.09-.15M266.89,53.36v.59M265.98,54.09l.02-.15.05-.14.08-.13.11-.11.14-.09.16-.07.17-.04h.18M277.85,56.81h-.88M277.85,54.73v2.08M277.85,54.73l-.02-.13-.05-.13-.08-.12-.11-.1-.13-.09-.15-.06-.17-.04-.17-.02M277.85,54.73h-.88M273.4,69.36l-.02.17-.05.17-.08.15-.11.13-.13.11-.15.08-.17.05-.17.02M273.4,69.36h-.88M273.4,64.35v5M272.53,70.25l-2.67.05M272.53,69.36v.17s0,.17,0,.17v.29s0,.11,0,.11v.13s0,.02,0,.02M268.95,69.41l.02.17.05.17.08.15.11.14.14.11.16.08.17.05h.18M269.86,69.41v.17s0,.17,0,.17v.15s0,.13,0,.13v.19s0,.05,0,.05v.02M268.95,61.73v-.94M269.86,69.41h-.91M276.98,54.03v.07s0,.08,0,.08v.55M266.89,53.95h1.78s7.12.07,7.12.07h1.19M265.98,57.05h.91M266.89,53.95h-.18s-.17.05-.17.05l-.16.06-.14.09-.11.1-.08.12-.05.13-.02.14M265.98,54.64h.91M266.89,53.95v.69M272.53,60.61h.88M269.86,60.79h-.91M274.28,56.93h-.13s-.4.15-.4.15l-.4.31-.4.6-.27.84-.14,1.79M274.28,56.93l1.09-.05,1.61-.07M276.98,56.81v-2.08M276.98,54.73l-10.09-.09M266.89,54.64v2.41M266.89,57.05h.59s.62,0,.62,0M269.86,60.79l-.19-2.08-.36-.88-.4-.46-.37-.22-.43-.09M269.86,60.79v8.62M269.86,69.41l2.67-.05M272.53,69.36v-8.74M273.4,64.35v-4.21M281.84,56.29v12.11M273.82,58.21v11.04M281,69.25h0v-13.8M129.71,47.96l-.03-.4-.09-.39-.15-.38-.21-.36-.26-.33-.31-.3-.35-.26-.38-.22M127.95,45.31l-.41-.18-.44-.13-.45-.08-.46-.03-.46.03-.45.08-.44.13-.41.18M124.41,45.31l-.38.22-.35.26-.31.3-.26.33-.21.36-.15.38-.09.39-.03.4M124.41,45.31l-1.77.88M126.18,44.43l-1.77.88M126.18,42.22l-1.55,1.04-1.14.5-.85.23M129.71,43.99l-1.55-.5-1.14-.64-.85-.62M126.18,44.43v-2.21M127.95,45.31l-1.77-.88M129.71,46.2l-1.77-.88M122.65,43.99v3.53M129.71,47.52v-3.53M122.65,47.52l1.54,1.04,1.14.5.85.23M126.18,49.29l1.55-.5,1.14-.64.85-.62M126.18,42.22l-.53.03-.52.09-.51.15-.48.21-.44.26-.4.3-.35.35-.3.39M129.71,43.99l-.3-.39-.35-.35-.4-.3-.44-.26-.48-.21-.51-.15-.52-.09-.53-.03M129.71,47.52l.23-.41.17-.44.1-.45.04-.46-.04-.46-.1-.45-.17-.44-.23-.41M126.18,49.29l.53-.03.52-.09.51-.15.48-.21.44-.26.4-.3.35-.35.3-.39M122.65,47.52l.3.39.35.35.4.3.44.26.48.21.51.15.52.09.53.03M122.65,43.99l-.24.41-.17.44-.1.45-.04.46.04.46.1.45.17.44.24.41M126.18,50.72l2.19-.38,1.86-1.08,1.24-1.61.44-1.9-.44-1.9-1.24-1.61-1.86-1.08-2.19-.38-2.19.38-1.86,1.08-1.24,1.61-.44,1.9.44,1.9,1.24,1.61,1.86,1.08,2.19.38M208.35,162.86l.26-.37M202.06,171.66l.1-.14M208.61,162.49l.09.06.09.06.08.06.07.05.06.04.04.03.03.02h.01M208.61,162.49l.76-.85.53-.6.37-.42.23-.28.08-.12M202.17,171.51l.09.07.09.06.08.06.07.05.06.04.04.03.03.02h0M202.17,171.51l.77-.85.53-.59.37-.41.23-.27.08-.12M208.35,162.86l.09.06.09.06.08.06.07.05.06.04.04.03.03.02h.01M206.3,165.04h.01s.14-.13.14-.13l.04-.05.35-.37.68-.74.82-.9M202.06,171.66l.09.07.09.06.08.06.07.05.06.04.04.03.03.02h0M200.02,173.84h.01s.15-.14.15-.14l.03-.03.35-.37.68-.74.81-.9M208.03,16.28l-.2-.28M202.86,8.71l-.1-.15M208.51,15.7v.05s-.01.06-.01.06l-.04.07-.06.08-.08.08-.09.08-.1.08-.1.07M210.59,19.41v-.03s-.12-.23-.12-.23l-.29-.41-.5-.62-.82-.94-.83-.9M203.33,8.5h-.02s-.04,0-.04,0h-.05s-.06.04-.06.04l-.07.03-.08.04-.08.05-.08.05M204.15,10.44v-.05s-.14-.24-.14-.24l-.05-.08-.35-.47-.74-.89M208.31,15.44v.05s-.01.06-.01.06l-.04.07-.06.08-.07.08-.09.08-.1.08-.1.07M203.24,8.36h-.03s-.04,0-.04,0h-.05s-.06.04-.06.04l-.07.03-.08.04-.08.05-.08.05M210.59,160.24h.07s.07-.02.07-.02l.06-.02.06-.03.06-.04.05-.04.05-.05.04-.05M210.59,19.41h.07s.07.02.07.02l.06.02.06.03.06.04.05.04.05.05.04.05M210.59,26.18v-6.77M210.59,160.24v-7.81M206.78,165.98l.08-.14.03-.16v-.16s-.06-.15-.06-.15l-.05-.08M206.78,13.78l.08.14.03.15v.05M209.06,25.18v.03s.03.05.03.05M210.59,26.18h.07s.07.01.07.01l.06.02.06.03.06.03.05.04.05.04.04.05M209.08,153.34v.05s-.03.03-.03.03M210.59,152.43h.07s.07-.02.07-.02l.06-.02.06-.03.06-.03.05-.04.05-.04.04-.05M204.15,169.26h.07s.07-.02.07-.02l.07-.02.06-.03.06-.04.05-.04.05-.05.04-.05M204.15,169.26v-8.96M204.15,10.44h.07s.07.02.07.02l.07.02.06.03.06.04.05.04.05.05.04.05M204.15,18.3v-7.87M208.8,24.87v.03s.03.05.03.05M208.82,153.66v.05s-.03.03-.03.03M208.35,152.35l.26-.31M208.61,26.56l-.26-.32M209.08,25.97v.06s-.04.07-.04.07l-.04.08-.06.08-.07.08-.08.08-.09.07-.09.06M200.49,174.78l.07-.14.04-.16v-.16s-.06-.15-.06-.15l-.05-.08M210.59,29.56v-.15s-.15-.43-.15-.43l-.05-.12-.36-.63-.59-.79-.82-.88M200.49,4.99l.07.14.04.15v.16s-.06.15-.06.15l-.05.08M208.61,152.04l.09.06.09.07.08.08.07.08.06.08.04.08.03.07v.06M208.61,152.04l.76-.81.53-.69.37-.58.23-.51.08-.41M202.62,17.32v.03s.02.05.02.05M204.15,18.3h.07s.07.02.07.02l.07.02.06.03.06.03.05.04.05.04.04.05M202.64,161.21v.05s-.02.03-.02.03M204.15,160.3h.07s.07-.01.07-.01l.07-.02.06-.03.06-.03.05-.04.05-.04.04-.05M208.35,152.35l.09.06.09.07.08.08.07.08.06.08.04.08.03.07v.06M208.82,25.66v.06s-.04.07-.04.07l-.04.08-.06.08-.07.08-.08.08-.09.07-.09.06M202.51,17.19v.03s.02.05.02.05M202.54,161.34v.05s-.02.03-.02.03M202.17,18.81l-.1-.12M202.06,159.92l.1-.12M202.64,18.21v.06s-.04.07-.04.07l-.04.08-.06.08-.07.08-.08.08-.09.07-.09.06M204.15,21.81v-.15s-.15-.43-.15-.43l-.06-.12-.36-.63-.59-.79-.82-.88M202.17,159.79l.09.06.09.07.08.08.07.08.06.08.04.08.03.07v.06M202.17,159.79l.77-.82.53-.69.37-.58.23-.5.08-.41M202.06,159.92l.09.06.09.07.08.08.07.08.06.08.04.08.03.07v.06M202.54,18.09v.06s-.04.07-.04.07l-.04.08-.06.08-.07.08-.08.08-.09.07-.09.06M210.59,149.04h.07s.07-.01.07-.01l.06-.02.06-.02.06-.03.05-.04.05-.04.04-.05M210.59,149.04v-13.88M208.48,135.39h0M210.59,135.16h.07s.07-.01.07-.01h.06s.06-.03.06-.03l.06-.02.05-.03.05-.03.04-.04M218.79,112.6v-.86M210.59,29.56h.07s.07.01.07.01l.06.02.06.03.06.03.05.04.05.04.04.04M210.59,50.9v-21.34M208.31,135.46v.08s-.01.06-.01.06l-.04.05M206.78,139.01l.08-.09.03-.1v-.04M220.27,72.97v.11s-.04.1-.04.1l-.05.1-.06.09-.08.08-.09.06-.1.04-.11.02M220.27,102.61v-.11s-.04-.1-.04-.1l-.05-.1-.06-.09-.08-.07-.09-.06-.1-.04-.11-.02M217.01,86.84l.15.21.11.23.07.25.02.26-.02.26-.07.25-.11.23-.15.21M212.85,62.57v.11s.04.11.04.11l.05.1.07.09.09.07.1.06.11.04h.11M218.2,63.25h.12s.11.05.11.05l.1.05.09.07.07.09.05.1.03.11v.12M218.2,63.25h0s0,.03,0,.03v.08s0,.05,0,.05v.14s0,.08,0,.08M213.43,63.17l4.77.08M213.43,63.17v.03M212.89,62.82l.1.16.15.12.18.08.1.02h0M213.43,63.2h0s-.15.08-.15.08l-.09.11-.03.1v.05M210.59,50.9h.07s.07.01.07.01h.06s.06.03.06.03l.06.02.05.02.05.03.04.03M204.15,156.79h.07s.07-.02.07-.02l.07-.02.06-.03.06-.03.05-.04.05-.04.04-.04M218.21,74.21l.17-.13.18-.11.19-.1.19-.09.2-.07.2-.06.21-.05.21-.03M204.15,156.79v-16.25M212.85,113.01v-.12s.04-.11.04-.11l.05-.1.07-.09.09-.08.1-.05.11-.04h.11M204.15,140.54h.07s.07-.01.07-.01h.07s.06-.03.06-.03l.06-.02.05-.03.05-.03.04-.04M218.2,112.34h.12s.11-.05.11-.05l.1-.05.09-.08.07-.09.05-.1.03-.11v-.11M213.43,112.38h0s0,.04,0,.04M218.2,112.34l-4.77.08M218.19,111.94v.08s0,.08,0,.08v.13s0,.05,0,.05v.06s0,0,0,0M203.1,139.84h-.02M206.78,24.75l.08.12.03.13v.05M214.5,98.98v.57s-.02.55-.02.55v.5s0,.45,0,.45v.65s.01.18.01.18v.07M208.61,53.83l-.26-.18M218.21,101.38l.17.13.18.12.19.1.19.09.2.08.2.06.21.05.21.03M215.11,99.36l.02.52.04.49.06.45.08.39.1.32.11.23.12.15.12.05M212.89,112.76l.1-.16.15-.12.18-.08.1-.02h0M213.16,112.03l.02.12v.03s.11.12.11.12l.15.08M216.19,75.5l.09-.4.13-.37.15-.33.18-.28.2-.23.21-.17.23-.1.23-.04M214.54,76.52v-.51s-.01-.5-.01-.5v-.47s0-.42,0-.42v-.66s0-.22,0-.22v-.14M213.43,98.96v1.49s0,.76,0,.76v.51s0,.2,0,.2M213.43,73.62v.4s0,.66,0,.66v1.85M219.69,69.26h.11s.11.05.11.05l.1.06.09.07.07.09.05.1.03.11v.11M219.68,69.68v-.09s0-.08,0-.08v-.07s0-.06,0-.06v-.09s0-.02,0-.02h0M219.37,69.25h.32M209.08,53.15v.1s-.04.1-.04.1l-.04.1-.06.1-.07.09-.08.08-.09.06-.09.04M210.59,56.76v-.23s-.15-.57-.15-.57l-.05-.15-.36-.67-.59-.7-.82-.61M219.36,69.67v-.09s0-.08,0-.08v-.14s0-.05,0-.05v-.06s0,0,0,0M219.37,69.25l-.19-.03-.17-.09-.13-.14-.08-.18-.02-.14M218.79,63.84v4.81M218.19,68.48h.12s.11.01.11.01l.1.02.09.02.08.03.05.03.03.03v.04M218.19,63.62h.12s.11.02.11.02l.1.02.09.03.08.03.05.04.03.04v.04M220.27,69.85v1.03M219.68,69.68h.12s.11.01.11.01l.1.02.09.02.07.03.06.03.03.03v.03M220.27,105.73v.12s-.04.11-.04.11l-.05.1-.07.09-.09.07-.1.06-.11.03h-.11M219.69,106.33h-.32M219.69,106.33h0v-.07s0-.05,0-.05v-.07s0-.08,0-.08v-.18M208.46,51.37h.07l.08.02.07.04M213.43,73.62h-.11s-.11.05-.11.05l-.1.05-.09.07-.07.09-.05.1-.03.11v.11M213.44,72.04h-.01s-.2.05-.2.05l-.17.05-.13.06M219.69,73.55h.11s.11-.05.11-.05l.1-.05.09-.08.07-.09.05-.1.03-.11v-.11M220.27,70.88v2M219.68,70.72h.12s.11.01.11.01h.1s.09.03.09.03l.07.03.06.03.03.03v.03M219.69,73.55l-2.07.04M219.69,73.55v-.73s0-.63,0-.63v-.73s0-.62,0-.62v-.12M213.16,70.83l.08.64.21.57M213.44,72.04v.21s0,.64,0,.64v.48s0,.24,0,.24v.02M213.43,73.62l1.11-.02M214.54,73.6h.98s2.1-.02,2.1-.02M218.79,106.93l.03-.2.1-.18.16-.13.19-.07h.1M219.36,105.89v.09s0,.09,0,.09v.08s0,.07,0,.07v.05s0,.04,0,.04v.02s0,0,0,0M218.21,74.21l-1.12,1.09-.33.4M218.21,74.21h-.02s-.06.05-.06.05l-.25.15-1.15.73-.54.36M216.19,75.5l-1.18.74-.47.28M217.01,86.84l-.02.02-.06.06-.1.09-.14.12-.17.14-.19.16-.21.18-.22.18M220.27,105.73v.03s-.04.03-.04.03l-.06.02-.07.02-.09.02h-.1s-.11.02-.11.02h-.12M220.27,104.63v1.1M213.16,70.83l6.52-.12M219.68,70.72v-1.04M219.68,69.68h-.32M218.19,68.48l.04.29.16.36.26.28.34.19.38.07M218.19,68.48v-4.86M218.19,63.62l-5.04-.09M220.27,102.63v-.12s-.04-.11-.04-.11l-.05-.1-.07-.09-.09-.07-.1-.06-.11-.03h-.11M220.27,104.63v.03s-.04.03-.04.03l-.06.02-.07.02-.09.02h-.1s-.11.02-.11.02h-.12M220.27,102.63v2M214.5,98.98l.61.38M215.11,99.36l.53.35,1.12.76.93.59.44.26.06.04.03.02h0M216.83,99.97l.26.32,1.12,1.09M215.9,87.79l.22.18.21.18.19.16.17.14.14.12.1.09.06.06.02.02M213.43,101.93h-.11s-.11-.05-.11-.05l-.1-.05-.09-.08-.07-.09-.05-.1-.03-.11v-.11M219.68,104.77v-.99s0-.69,0-.69v-.56s0-.36,0-.36v-.13M215.76,101.97l3.93.07M215.76,101.97l-1.26-.02M214.5,101.95l-1.07-.02M213.43,101.93v.53s0,.57,0,.57v.41M212.67,70.77h.04s.05.03.05.03h.06s.06.02.06.02h.06s.07.01.07.01h.07s.07,0,.07,0M213.16,63.53v7.3M212.67,63.44l.04.02.05.02.06.02h.06s.06.02.06.02h.07s.07.01.07.01h.07M213.44,103.44h-.01s-.2-.05-.2-.05l-.17-.06-.13-.07M213.44,103.44l-.21.57-.08.64M204.15,21.81h.07s.07.01.07.01l.07.02.06.02.06.03.05.04.05.04.04.05M204.15,46.29v-24.48M218.79,106.93v4.81M218.19,111.94h.12s.11-.02.11-.02l.1-.02.09-.03.08-.03.05-.03.03-.04v-.04M218.19,107.08h.12s.11-.01.11-.01h.1s.09-.03.09-.03l.08-.02.05-.03.03-.03v-.03M202.99,139.89h-.03M208.82,52.97v.1s-.04.11-.04.11l-.04.1-.06.1-.07.09-.08.08-.09.06-.09.05M219.36,105.89h.32M219.68,105.88v-1.11M219.68,104.77l-6.52-.12M213.16,112.03l5.04-.09M218.19,111.94v-4.86M219.36,105.89l-.2.02-.37.14-.31.27-.21.36-.07.41M208.03,116.26l.65-.18.7-.43.53-.54.36-.57.23-.6.08-.61M213.16,104.65h-.07s-.07,0-.07,0h-.07s-.06.01-.06.01h-.06s-.06.02-.06.02h-.05s-.04.02-.04.02M213.16,112.03h-.07s-.07,0-.07,0h-.07s-.06.01-.06.01h-.06s-.06.03-.06.03l-.05.02-.04.02M213.16,104.65v7.38M208.03,116.26l.1.02.1.05.09.07.08.09.06.11.04.12.02.13v.13M207.84,116.29l.2-.03M214.54,76.52h-.05s-1.06.02-1.06.02M213.43,98.96l1.07.02M214.5,98.98l-.69-1.86-.32-1.96.06-1.98.43-1.94.79-1.82,1.12-1.63M215.9,87.79l-1.13-1.65-.8-1.83-.43-1.95-.05-2,.34-1.97.71-1.87M204.15,46.29h.07s.07.01.07.01h.07s.06.03.06.03l.06.02.05.02.05.03.04.03M207.58,116.28h.26M213.43,76.54h-.58M213.43,98.96h-.58M213.43,76.54v22.42M200.49,17.18l.07.12.04.13v.05M202.17,49.42l-.1-.07M207.84,116.29l.1.02.1.05.09.07.07.09.06.11.04.12.02.12v.13M207.61,116.26l.23.03M202.64,48.73v.1s-.04.1-.04.1l-.04.1-.06.1-.07.09-.08.08-.09.06-.09.04M204.15,52.36v-.24s-.15-.57-.15-.57l-.06-.15-.36-.67-.59-.71-.82-.61M208.61,88l.76-.15.53-.34.37-.44.23-.54.08-.62M202.18,46.87h.07l.08.02.07.04M208.61,88h.09s.09.05.09.05l.08.05.07.07.06.09.04.1.03.11v.11M208.35,88h.26M208.61,90.6h-.26M209.08,90.01v.12s-.04.11-.04.11l-.04.1-.06.09-.07.07-.08.06-.09.03h-.09M210.59,92.69v-.26s-.15-.56-.15-.56l-.05-.13-.36-.54-.59-.43-.82-.17M202.76,119.43l.1-.1M202.54,48.66v.1s-.04.1-.04.1l-.04.1-.06.1-.07.09-.08.08-.09.06-.09.04M202.86,119.32l.08.05.08.05.08.07.07.07.06.08.05.08.04.08.02.08M202.86,119.32l.07-.05.54-.55.37-.57.23-.6.08-.62M208.82,90.01v.12s-.04.11-.04.11l-.04.1-.06.09-.07.08-.08.05-.09.03h-.09M210.59,85.92h.2s.06,0,.06,0h.06s.05,0,.05,0h.05s.04,0,.04,0M210.59,56.76h.07s.07,0,.07,0h.06s.06.02.06.02l.06.02.05.02.05.02.04.03M208.35,88h.09s.09.05.09.05l.08.05.07.07.06.09.04.1.03.11v.11M210.59,85.92v-29.15M210.59,113.33h.14s.06-.01.06-.01h.06s.06-.02.06-.02h.05s.05-.03.05-.03l.04-.02M210.59,92.69h.14s.06,0,.06,0h.06s.06,0,.06,0h.05s.05,0,.05,0h.04M210.59,113.33v-20.64M202.76,119.43l.08.04.08.06.08.06.07.07.06.08.05.08.04.08.03.08M201.53,137.2l2.01-.33,2.97-2.01,2.25-2.46,1.94-3.06,1-2.37.52-2.26-.02-2.22-.61-1.72-1.29-1.26-2.59-.39-1.6.49M202.17,87.89l.77-.15.53-.34.37-.44.23-.54.08-.62M202.17,87.89h.09s.09.05.09.05l.08.06.07.07.06.09.04.1.03.11v.12M202.06,87.89h.1M202.17,90.71h-.1M202.64,90.12v.12s-.04.11-.04.11l-.04.1-.06.09-.07.07-.08.05-.09.04h-.09M204.15,92.81v-.26s-.15-.56-.15-.56l-.06-.13-.36-.54-.59-.43-.82-.17M202.54,90.12v.12s-.04.11-.04.11l-.04.1-.06.09-.07.07-.08.05-.09.04h-.09M202.06,87.89h.09s.09.05.09.05l.08.05.07.07.06.09.04.1.03.11v.12M204.15,85.8h.2s.06,0,.06,0h.11s.05,0,.05,0h.04M204.15,52.36h.07s.07,0,.07,0h.07s.06.02.06.02l.06.02.05.02.05.02.04.03M204.15,85.8v-33.44M204.15,116.92h.07s.07,0,.07,0h.07s.06-.02.06-.02h.06s.05-.03.05-.03l.05-.02.04-.02M204.15,92.81h.07s.07,0,.07,0h.13s.06,0,.06,0h.1s.04,0,.04,0M204.15,116.92v-24.12M212.85,62.86l.04-.04M212.89,62.82l-.03-.11v-.11s-.01-.02-.01-.02M212.85,21.03v41.55M212.85,112.99v44.58M212.85,112.99v-.11s.04-.1.04-.1v-.03M212.89,112.76l-.04-.05M212.85,112.71l-.05-.06-.1-.23-.04-.3M212.67,112.11v-7.4M212.67,104.71l.08-.81.1-.39.08-.24M212.93,103.27l-.03-.04-.03-.08-.02-.16v-.05M212.85,72.53v30.41M212.85,72.53v-.16s.03-.09.03-.09l.03-.05.02-.02M212.93,72.21l-.08-.25-.1-.39-.08-.8M212.67,70.77v-7.33M212.67,63.44l.04-.29.1-.22.05-.06M208.31,15.44l.2.26M208.51,15.7l.83,1.14.81,1.19.5.79.29.52.12.29v.04M211.06,19.66v6.74M211.06,26.4l-.08.26-.23.04-.37-.17-.53-.43-.76-.83M209.08,25.26l-.26-.32M208.82,24.94l-.82-1.12-.68-1.18-.35-.79-.18-.65v-.17M206.78,21.03v-7.26M206.78,13.78l.08-.03.23.2.37.41.53.66.32.42M203.24,8.36l.1.14M203.33,8.5l.63.95.1.17.35.59.18.4v.07M204.62,10.68v7.84M204.62,18.52l-.09.26-.23.04-.37-.17-.53-.43-.77-.84M202.64,17.39l-.1-.13M202.54,17.27l-.82-1.12-.68-1.18-.35-.79-.18-.65v-.17M200.49,13.36V4.99M200.49,4.99l.08-.02.23.21.37.42.54.67.7.93.82,1.16M212.69,20.82l.03.03-.48-.59-.95-1.19-1.87-2.41-2.19-2.94-2.71-3.79-2.66-3.9-1.62-2.46-1.08-1.68-.08-.13M199.06,1.77l-.21-.33M208.82,25.66l.26.31M209.08,25.97l.82,1.11.59,1,.36.8.19.7v.19M211.06,29.77v21.27M211.06,51.04l-.08.61-.23.42-.37.23h-.53s-.76-.36-.76-.36M209.08,51.92l-.26-.19M208.82,51.73l-.82-.8-.68-1.1-.35-.89-.18-.91v-.29M206.78,47.74v-22.99M206.78,24.75l.08-.35.23-.12.37.12.53.38.69.7.14.17M202.54,18.09l.1.12M202.64,18.21l.82,1.11.59,1,.36.8.19.7v.2M204.62,22.02v24.4M204.62,46.42l-.09.61-.23.42-.37.23h-.53s-.77-.36-.77-.36M202.64,47.31l-.1-.07M202.54,47.24l-.82-.8-.68-1.1-.35-.89-.18-.91v-.28M200.49,43.26v-26.08M200.49,17.18l.08-.34.23-.11.37.12.53.39.69.71.13.16M202.54,48.66l.1.07M202.64,48.73l.82.77.59.9.36.86.19.91v.31M204.62,52.47v33.33M204.62,85.81l-.09.79-.23.68-.37.57-.53.44-.77.2M202.64,88.48h-.1M202.54,88.48l-.82-.27-.68-.72-.35-.76-.18-.92v-.32M200.49,85.49v-35.62M200.49,49.86l.08-.68.23-.5.37-.3.53-.07.69.26.13.09M208.82,52.97l.26.18M209.08,53.15l.82.77.59.89.36.86.19.91v.3M211.06,56.88v29.05M211.06,85.93l-.08.78-.23.68-.37.57-.53.44-.76.19M209.08,88.59h-.26M208.82,88.59l-.82-.26-.68-.72-.35-.76-.18-.93v-.33M206.78,85.58v-31.4M206.78,54.18l.08-.68.23-.5.37-.3.53-.07.69.25.14.09M202.54,90.12h.1M202.64,90.12l.82.23.59.55.36.69.19.88v.33M204.62,92.79v24.04M204.62,116.84l-.09.79-.23.77-.37.73-.53.7-.07.07M203.33,119.89l-.1.1M203.24,119.99l-.83.59-.77.12-.66-.35-.32-.55-.15-.78v-.21M200.49,118.82v-25.7M200.49,93.12l.08-.83.23-.75.37-.64.53-.51.69-.26h.13M208.82,90.01h.26M209.08,90.01l.82.23.59.55.36.69.19.88v.32M211.06,92.67v20.57M211.06,113.24l-.08.78-.23.76-.37.72-.53.69-.7.55-.64.23M208.51,116.98l-.2.03M208.31,117.01l-.77-.12-.44-.44-.27-.74-.05-.59M206.78,115.12v-22.1M206.78,93.02l.08-.83.23-.75.37-.64.53-.51.69-.26h.14M206.57,119.19l1.6-.52,2.59.43,1.29,1.35.61,1.84.02,2.37-.52,2.41-1,2.53-1.94,3.26-2.25,2.62-2.97,2.15-2.55.45-1.47-.86-.93-1.97-.2-2.49.35-2.63.8-2.71,1.28-2.75,1.81-2.63,2.35-2.19h.02M203.24,139.56l.1-.04M203.33,139.51l.63-.13.1.02.35.24.18.52v.23M204.62,140.38v16.2M204.62,156.58l-.09.52-.23.64-.37.74-.53.87-.77,1.03M202.64,160.39l-.1.13M202.54,160.51l-.82.86-.68.46-.35.03-.18-.27v-.16M200.49,161.42v-17.32M200.49,144.1l.08-.72.23-.78.37-.82.54-.86.7-.8.82-.57M202.54,161.34l.1-.13M202.64,161.21l.82-.88.59-.45.36-.11.19.18v.14M204.62,160.08v8.93M204.62,169.01l-.09.15-.23.35-.37.52-.53.75-.77,1.08M202.64,171.86l-.1.14M202.54,172l-.82,1.14-.68.94-.35.47-.03.04M200.49,174.78v-9.55M200.49,165.24l.08-.49.23-.64.37-.76.53-.89.69-.97.13-.17M208.31,135.46l.2-.23M208.51,135.23l.83-.8.81-.4.5.05.29.3.12.47v.15M211.06,135v13.83M211.06,148.83l-.08.53-.23.64-.37.74-.53.87-.76,1.02M209.08,152.63l-.26.31M208.82,152.95l-.82.86-.68.46-.35.03-.18-.27v-.16M206.78,153.85v-14.84M206.78,139.01l.08-.71.23-.77.37-.81.53-.85.32-.41M208.82,153.66l.26-.32M209.08,153.34l.82-.88.59-.45.36-.11.19.18v.13M211.06,152.21v7.78M211.06,159.99l-.08.15-.23.35-.37.53-.53.75-.76,1.07M209.08,162.84l-.26.37M208.82,163.2l-.82,1.15-.68.94-.35.47-.02.02M206.78,165.98v-8.41M206.78,157.57l.08-.49.23-.63.37-.76.53-.89.69-.97.14-.17M192.07,178.35V44.78M192.07,44.78V.25M220.64,101.18l2.55-.51,2.17-1.45,1.45-2.17.51-2.56-.51-2.55-1.45-2.17-2.17-1.45-2.55-.51-2.56.51-2.17,1.45-1.45,2.17-.51,2.55.51,2.56,1.45,2.17,2.17,1.45,2.56.51M220.64,87.84l2.55-.51,2.17-1.45,1.45-2.17.51-2.55-.51-2.56-1.45-2.17-2.17-1.45-2.55-.51-2.56.51-2.17,1.45-1.45,2.17-.51,2.56.51,2.55,1.45,2.17,2.17,1.45,2.56.51M233.12,92.43l.85-.17.72-.48.48-.72.17-.85-.17-.85-.48-.72-.72-.48-.85-.17-.85.17-.72.48-.48.72-.17.85.17.85.48.72.72.48.85.17M233.12,96.88l.85-.17.72-.48.48-.72.17-.85-.17-.85-.48-.72-.72-.48-.85-.17-.85.17-.72.48-.48.72-.17.85.17.85.48.72.72.48.85.17M233.12,87.58l.85-.17.72-.48.48-.72.17-.85-.17-.85-.48-.72-.72-.48-.85-.17-.85.17-.72.48-.48.72-.17.85.17.85.48.72.72.48.85.17M233.12,83.13l.85-.17.72-.48.48-.72.17-.85-.17-.85-.48-.72-.72-.48-.85-.17-.85.17-.72.48-.48.72-.17.85.17.85.48.72.72.48.85.17M241.2,75.71h0M240.73,74.2h.08M240.69,74.12h.09M289.58,82.76h-.74M289.58,82.76h-.74M269.82,70.53l-.17-.02-.16-.05-.15-.08-.09-.07M269.82,70.53l-.17-.02-.16-.05-.15-.08-.09-.07M289.58,93.87h-.74M289.58,82.79h-.74M269.82,70.53l-.17-.02-.16-.05-.15-.08-.13-.11-.11-.13-.08-.15-.05-.17-.02-.17M268.95,62.35v7.29M268.95,62.35h-.88M268.95,61.73v.62M268.95,60.26v.46M268.07,69.61v-7.26M268.07,62.35h-1.22M269.82,70.53l-.17-.02-.16-.05-.15-.08-.13-.11-.11-.13-.08-.15-.05-.17-.02-.17M268.95,69.64h-.02s-.05,0-.05,0h-.08s-.11,0-.11,0h-.13s-.15-.01-.15-.01h-.17s-.17-.01-.17-.01M268.07,70.5v-.02s0-.05,0-.05v-.19s0-.14,0-.14v-.32s0-.17,0-.17M266.86,69.59l1.22.02M266.86,70.48v-.02s0-.05,0-.05v-.65s0-.17,0-.17M266.86,69.59h-.88M266.86,62.35v7.24M266.86,62.35h-.88M289.58,82.79h-.74M265.98,25.85v17.06M265.98,42.91v1.06M265.72,42.45l.06.05.05.05.05.06.04.06.03.06.02.06v.06s.02.06.02.06M259.15,40.43v-.02M261.79,39.77l1.26.86,2.67,1.82M261.16,39.58h.09s.09.01.09.01h.08s.08.04.08.04l.08.03.08.03.07.04.06.04M260.04,39.57h1.12M259.15,40.41l.03-.18.08-.17.18-.2.3-.2.29-.1h0M289.58,85.34v8.46M289.58,93.8h-.74M288.84,98.99v2.86M288.84,73.64v2.96M266.86,100.69v-.03s-.01-.1-.01-.1v-.16s0-.21,0-.21v-.24s0-.25,0-.25v-.24s.01-.21.01-.21M287.96,99.58v.26s.02.29.02.29v.3s0,.27,0,.27v.21s-.01.13-.01.13v.03M287.96,76.01v-.2s.02-.29.02-.29v-.3s0-.28,0-.28v-.22s-.01-.14-.01-.14v-.05M266.86,76.35v-.21s-.01-.24-.01-.24v-.25s0-.24,0-.24v-.21s0-.16,0-.16v-.1s.01-.03.01-.03M289.58,82.82h0M289.58,82.82h-.74M266.01,69.8h0s0-.03,0-.03M266.86,70.48l-.17-.02-.17-.05-.15-.08-.13-.11-.11-.13-.08-.15-.05-.17-.02-.17M289.58,85.34h-.74M289.58,82.82v2.51M289.58,82.82h-.74M288.84,71.73h0M288.84,71.73l-.02-.17-.05-.17-.08-.15-.11-.13-.13-.11-.15-.08-.17-.05-.17-.02M265.98,51.1v18.49M265.98,51.1v-.05s-.02-.05-.02-.05l-.02-.05-.03-.05-.04-.05-.05-.05-.05-.04-.06-.04M288.84,71.73l-.02-.17-.05-.17-.08-.15-.11-.13-.13-.11-.15-.08-.17-.05-.17-.02M265.98,69.59l.02.17.05.17.08.15.11.13.13.11.15.08.17.05.17.02M265.98,69.59l-.05.09-.16.08h-.05M288.84,71.73v1.91M288.63,71.58l.05.02.04.02.04.02.03.02.02.02.02.02v.02s.01.02.01.02M287.96,74.53l.17-.02.17-.05.15-.08.13-.11.11-.13.08-.15.05-.17.02-.17M288.63,73.5h.05s.04.03.04.03l.04.02.03.02.02.02.02.02v.02s.01.02.01.02M265.98,106v46.75M287.96,101.06l.17.02.17.05.15.08.13.11.11.14.08.15.05.17.02.17M265.98,75.79l.02-.17.05-.17.08-.15.11-.13.13-.11.15-.08.17-.05.17-.02M287.96,104.74l.17-.02.17-.05.15-.08.13-.11.11-.13.08-.15.05-.17.02-.17M288.84,90.27v8.72M287.96,99.58h.17s.17-.05.17-.05l.15-.06.13-.07.11-.09.08-.1.05-.11.02-.12M288.84,76.6v8.72M287.96,76.01h.17s.17.05.17.05l.15.06.13.07.11.09.08.1.05.11.02.12M266.86,99.24l10.64.17,10.47.17M287.96,99.58v-9.18M288.84,101.95v1.91M288.63,103.98h.05s.04-.03.04-.03l.04-.02.03-.02.02-.02.02-.02v-.02s.01-.02.01-.02M288.63,102.06h.05s.04-.03.04-.03h.04s.03-.03.03-.03l.02-.02h.02s.01-.03.01-.03v-.02M287.96,101.06l.17.02.17.05.15.08.13.11.11.14.08.15.05.17.02.17M266.86,105.11h-.17s-.35,0-.35,0M265.98,106l.02-.17.05-.17.08-.15.11-.13.13-.11.15-.08.17-.05.17-.02M265.72,105.85l.18.06.08.07v.03M266.86,100.69l-.17-.02-.17-.05-.15-.08-.13-.11-.11-.13-.08-.15-.05-.17-.02-.17M287.96,85.19v-9.18M287.96,76.01l-10.47.17-10.64.17M288.63,71.58l-.03-.15-.05-.14-.07-.13-.08-.11-.1-.09-.11-.06-.12-.04h-.12M288.84,90.27v-1.17M287.96,90.4h.17s.17-.01.17-.01h.15s.13-.03.13-.03l.11-.02.08-.02.05-.02.02-.03M288.84,86.37h0v-1.05M288.84,85.32l-.02-.03-.05-.02-.08-.02-.11-.02-.13-.02h-.15s-.17-.02-.17-.02h-.17M287.96,85.95l.17.02.17.05.15.08.13.11.11.13.08.15.05.17.02.17M265.98,75.79l.02.11.05.1.08.1.11.08.13.07.15.05.17.03h.17M266.86,76.35v7.23M287.3,71.56l-.03-.15-.05-.14-.07-.13-.08-.11-.1-.09-.11-.07-.11-.04h-.12M266.86,83.58l-.34-.02-.28-.05-.19-.07-.07-.08M266.86,83.58l.08.44.24.37M266.86,74.9h-.17s-.35,0-.35,0M265.98,75.79l.02-.17.05-.17.08-.15.11-.13.13-.11.15-.08.17-.05.17-.02M265.98,99.8l.02-.11.05-.1.08-.1.11-.08.13-.07.15-.05.17-.03h.17M266.86,90.75v8.49M265.98,90.89l.02-.03.05-.03.08-.03.11-.02.13-.02h.15s.17-.02.17-.02h.17M266.86,90l21.11-.37M266.86,90.75v-.15s0-.14,0-.14v-.24s0-.09,0-.09v-.11s0-.01,0-.01M287.96,90.4l-1.78.03-7.12.12-12.2.21M287.96,89.64v.05s0,.14,0,.14v.22s0,.28,0,.28v.06M265.98,90.89l.02-.17.05-.17.08-.15.11-.13.13-.11.15-.08.17-.05.17-.02M288.63,73.5v-1.92M288.63,71.58h-.58s-.75-.02-.75-.02M287.96,74.53h-.81s-.52.02-.52.02M287.96,74.53l.15-.02.14-.06.13-.1.11-.13.08-.16.05-.18.02-.19v-.19M287.3,73.53h.52s.81-.03.81-.03M287.96,85.95h0s0-.07,0-.07v-.17s0-.24,0-.24v-.28M268.45,84.86h.19s7.12.12,7.12.12l12.2.2M287.96,104.74h-.6s-.73.02-.73.02M288.63,103.98l-.03.15-.05.14-.07.13-.08.11-.1.09-.11.07-.12.04-.12.02M287.96,85.95l.17.02.17.05.15.08.13.11.11.13.08.15.05.17.02.17M287.3,71.56v1.97M286.69,71.47h.09s.09,0,.09,0h.08s.08.02.08.02h.08s.07.03.07.03l.06.02.06.02M286.63,74.55l.15-.02.14-.06.13-.1.11-.13.08-.16.05-.18.02-.19v-.19M286.69,73.45h.09s.09,0,.09,0h.08s.08.02.08.02h.08s.07.02.07.02h.06s.06.03.06.03M287.96,89.64l.17-.02.17-.05.15-.08.13-.11.11-.13.08-.15.05-.17.02-.17M288.63,88.74h.05s.04,0,.04,0h.09s.02,0,.02,0h.01M288.84,86.84v1.91M288.63,86.82h.05s.04,0,.04,0h.04s.03,0,.03,0h.02s.02,0,.02,0h.01s0,0,0,0M266.86,100.69l-.17-.02-.17-.05-.15-.08-.13-.11-.11-.13-.08-.15-.05-.17-.02-.17M268.45,85.61v-.06s0-.16,0-.16v-.24s0-.3,0-.3M267.17,84.39l.25.2.3.15.74.13M267.05,85.59l.02-.08.03-.23.03-.38.04-.51M267.17,84.39h-.45s-.39-.05-.39-.05l-.29-.05-.05-.03h0v-.02h0M286.63,104.76l.12-.02.12-.04.11-.07.1-.09.08-.12.07-.13.05-.14.03-.15M265.72,99.69h.06s.15.06.15.06l.05.05M265.98,90.89v8.9M265.72,84.73l.13-.13.09-.1.03-.05v-.06s.01-.07.01-.07v-.08M265.98,75.79v8.45M265.72,75.93l.18-.06.08-.06v-.02M287.3,104l1.13-.02h.2M288.63,103.98v-1.92M288.63,102.06h-.78s-.55-.03-.55-.03M287.96,101.06l.14.02.14.06.12.1.11.13.08.15.05.17.03.18v.19M269.82,70.53h0M269.82,70.53h0M268.07,70.5h.34s.33.01.33.01h.3s.26.01.26.01h.22s.16,0,.16,0h.1s.03,0,.03,0M268.07,70.5l-1.22-.02M266.86,70.48h0M266.33,70.47h.1s.32,0,.32,0h.11M286.63,70.82h.75s.58.02.58.02M287.96,70.84h0M287.96,70.84h-.58s-.75-.02-.75-.02M286.63,70.82l-12.18-.21-4.63-.08M266.33,70.47l-1.86-.03h-.74M265.72,69.77l.03.14.05.13.06.12.08.1.09.08.1.06.1.04h.11M286.69,104.07h.09s.09,0,.09,0h.08s.08-.01.08-.01h.08s.07-.02.07-.02h.06s.06-.03.06-.03M287.3,102.04v1.97M286.69,102.1h.09s.09,0,.09,0h.08s.08-.01.08-.01h.08s.07-.02.07-.02h.06s.06-.02.06-.02M287.3,102.04v-.19s-.02-.18-.02-.18l-.05-.17-.08-.15-.11-.13-.12-.1-.14-.06-.14-.02M266.86,90h-.18s-.35,0-.35,0M265.98,90.89l.02-.17.05-.17.08-.15.11-.13.13-.11.15-.08.17-.05.17-.02M265.72,90.89h.26s0,0,0,0M264.71,74.94l1.63-.03M265.72,75.93v-.19s.01-.19.01-.19l.05-.18.08-.15.1-.13.12-.1.13-.06.14-.02M263.83,105.16h.67s1.84-.04,1.84-.04M265.72,105.85l.03-.15.05-.14.06-.12.08-.11.09-.09.1-.06.11-.04h.11M265.72,84.73l.22.32.31.27.38.2.42.06M287.96,85.95l.13.02.13.05.11.08.1.11.08.13.06.15.04.16v.17M287.96,89.64h-.69s-.64.02-.64.02M288.63,88.74v.17s-.05.17-.05.17l-.06.15-.08.13-.1.11-.12.08-.13.05-.13.02M288.63,88.74v-1.92M288.63,86.82l-1.15-.02h-.18M287.3,88.76l1.15-.02h.18M265.72,50.72l-1.26-.83-2.67-1.76M263.13,69.72l.74.02,1.85.04M265.72,69.77v-19.05M286.69,71.47v-.13s0-.13,0-.13v-.11s-.01-.09-.01-.09v-.08s-.02-.06-.02-.06v-.03s-.02-.01-.02-.01M263.74,70.42l10.71.19,12.18.21M263.13,69.72h-.18s-.65.2-.65.2l-.35.33-.15.3M262.27,71.05l.02-.12.04-.09.17-.16.37-.16.68-.09h.19M263.13,69.72l.03.14.05.13.06.12.08.1.09.08.1.06.1.04h.11M286.63,101.03h.55s.78.02.78.02M287.96,101.06l-10.47-.18-10.64-.19M266.61,100.68h.14s.1,0,.1,0M266.33,100.68l-1.71-.03M265.72,99.69v.19s.02.18.02.18l.05.17.08.15.1.13.11.09.13.06.13.02M261.79,48.13v22.41M261.16,47.98h.09s.09.01.09.01h.08s.08.03.08.03l.08.02.08.03.07.03.06.04M287.3,86.8v-.17s-.05-.16-.05-.16l-.06-.15-.08-.13-.1-.11-.12-.08-.12-.05-.13-.02M287.3,86.8v1.97M286.69,86.78h.17s.08,0,.08,0h.08s.08,0,.08,0h.07s.06,0,.06,0h.06M286.63,89.66l.13-.02.13-.05.12-.08.1-.11.08-.14.06-.15.04-.17v-.17M286.69,88.76h.25s.08,0,.08,0h.27M261.79,70.54l-.03.45M261.16,70.47h.09s.09,0,.09,0h.08s.08.01.08.01h.08s.08.02.08.02h.07s.06.03.06.03M286.69,73.45v-1.98M286.69,71.47l-1.77-.03-7.1-.12-15.55-.27M286.63,74.55l.02-.02.02-.07v-.11s.03-.14.03-.14v-.17s0-.19,0-.19v-.4M262.27,73.89l1.77-.03,7.09-.13,15.56-.28M286.63,74.55l-12.23.21-9.69.17M286.63,104.76h.01s.01-.05.01-.05v-.06s.02-.08.02-.08v-.1s.01-.12.01-.12v-.13s0-.14,0-.14M286.63,104.76l-12.19.21-10.62.18M261.76,70.99h.05s.06.02.06.02h.06s.06.02.06.02h.07s.07.01.07.01h.07s.07,0,.07,0M262.27,71.05v2.84M265.72,105.85l-1.84.04h-.67M261.79,105l.02.06.21.36.36.29.82.18M263.21,105.9l.03-.15.05-.14.06-.13.08-.11.09-.09.1-.06.1-.04h.11M263.83,105.16l-.86-.09-.38-.14-.22-.18-.07-.12-.02-.07v-.07M261.76,70.99v2.85M261.16,70.93h.08s.08,0,.08,0h.08s.08.01.08.01h.08s.07.02.07.02h.07s.06.03.06.03M261.79,105h-.06s-.07.03-.07.03h-.08s-.08.02-.08.02h-.08s-.08.01-.08.01h-.09s-.09,0-.09,0M261.76,104.55l.03.45M261.76,73.84h.05s.06.02.06.02h.06s.06.01.06.01h.07s.07.01.07.01h.07s.07,0,.07,0M264.1,75.95v-.19s.02-.19.02-.19l.05-.18.08-.16.1-.13.11-.1.13-.06.13-.02M264.71,74.94l-1.06-.1-.69-.22-.39-.23-.21-.22-.06-.12-.02-.08v-.08M261.76,73.84l.03.47M261.16,73.78h.08s.08,0,.08,0h.08s.08.01.08.01h.08s.07.01.07.01h.07s.06.02.06.02M286.69,104.07v-1.98M262.27,104.5l1.77-.03,7.1-.12,15.55-.27M286.63,85.93h.66s.67.02.67.02M287.96,85.95l-19.51-.34M268.45,85.61h-.31s-.34-.01-.34-.01h-.75M267.05,85.59l-1.35-.02M265.7,85.56l-1.15-.02h-.38M265.09,84.72l.05.32.13.27.2.18.23.07M264.27,90.05h.31s1.76-.04,1.76-.04M265.72,90.89v-.17s.05-.16.05-.16l.06-.15.08-.13.09-.11.1-.08.12-.05.12-.02M286.69,102.1v-.19s0-.19,0-.19v-.18s0-.16,0-.16v-.14s-.03-.1-.03-.1l-.02-.06-.02-.02M264.62,100.65l9.79.17,12.22.21M286.69,102.1l-1.77-.03-7.09-.13-15.56-.28M261.76,104.55h.05s.06-.02.06-.02h.06s.06-.01.06-.01h.07s.07-.01.07-.01h.07s.07,0,.07,0M262.27,101.66v2.84M261.76,104.55h-.06s-.07.02-.07.02h-.07s-.08.02-.08.02h-.08s-.08.01-.08.01h-.08s-.08,0-.08,0M261.76,101.7v2.85M261.76,101.7h.05s.06-.01.06-.01h.06s.06-.01.06-.01h.07s.07,0,.07,0h.07s.07,0,.07,0M262.27,101.66v-.12s.05-.1.05-.1l.16-.2.34-.23.63-.23.98-.13h.18M264.01,99.66v.19s.02.18.02.18l.05.17.08.15.1.13.11.09.12.06.13.02M261.16,101.74h.16s.08,0,.08,0h.08s.08-.01.08-.01h.07s.07-.01.07-.01h.06M261.79,101.23l-.03.47M286.69,88.76v-1.98M286.69,86.78v-.33s0-.15,0-.15v-.13s-.02-.1-.02-.1v-.08s-.03-.05-.03-.05v-.02M264.18,85.54l10.25.18,12.2.21M286.69,86.78l-1.77-.03-7.1-.13-15.55-.27M286.63,89.66v-.02s.03-.05.03-.05v-.08s.02-.11.02-.11v-.14s.01-.15.01-.15v-.17s0-.18,0-.18M262.27,89.19l1.77-.03,7.1-.13,15.55-.28M286.63,89.66l-12.21.21-10.16.18M262.27,86.35v2.84M261.76,86.34h.05s.06,0,.06,0h.13s.07,0,.07,0h.07s.07,0,.07,0h.07M262.27,86.35l.02-.13.04-.09.16-.19.36-.2.66-.17.67-.04M263.56,84.69l.02.17.04.16.06.14.08.13.09.1.1.08.11.05.12.02M264.1,75.95l-1.02-.22-.67-.45-.38-.46-.21-.43-.03-.09M261.79,85.87l.15-.34.35-.41.63-.35.65-.09M263.56,84.69l1.26.02h.27M265.09,84.72h.63M265.72,84.73v-8.8M265.72,75.93l-1.24.02h-.38M261.79,74.3v11.57M261.16,74.25h.17s.08,0,.08,0h.08s.08.01.08.01h.08s.07.02.07.02h.06M261.79,85.87l-.03.47M261.16,85.86h.34s.08,0,.08,0h.08s.07,0,.07,0h.06M261.79,101.23l.15-.36.34-.47.62-.47.95-.27h.17M264.01,99.66l1.25.02h.46M265.72,99.69v-8.8M265.72,90.89l-1.26.02h-.5s-.31.01-.31.01M261.76,89.19h.52M263.65,90.92l-.97-.22-.49-.36-.3-.41-.11-.27M263.65,90.92v-.17s.05-.16.05-.16l.06-.15.08-.13.09-.11.1-.08.12-.05.12-.02M264.27,90.05l-1-.1-.51-.18-.31-.21-.1-.12-.04-.08-.03-.12v-.05M261.16,101.28h.09s.09,0,.09,0h.08s.08,0,.08,0h.08s.08-.01.08-.01h.07s.06-.02.06-.02M261.79,89.67v11.56M261.76,86.34v2.85M261.16,86.33h.24s.08,0,.08,0h.08s.07,0,.07,0h.07s.06,0,.06,0M261.16,89.67h.57s.06,0,.06,0M261.76,89.19l.03.47M261.16,89.19h.59M261.16,47.98h-1.12M261.16,105.06v-.46M261.16,104.6v-2.86M261.16,101.74v-.46M261.16,101.28v-11.61M261.16,89.67v-.48M261.16,89.19v-2.86M261.16,86.33v-.47M261.16,85.86v-11.61M261.16,74.25v-.46M261.16,73.78v-2.86M261.16,70.93v-.46M261.16,70.47v-22.49M260.04,47.99h0s-.3-.05-.3-.05l-.3.03-.17.09-.08.1-.03.13M214.33,112.58h-.59M229.5,112.58h-15.16M213.74,112.58h0M212.85,113.47l.02-.2.07-.2.1-.16.17-.17.27-.13.25-.04M229.5,112.58l2.81-.46,2.49-1.3,2-2.06.41-.64M229.5,112.58h0M237.21,108.13l1.02-1.77,1.03-1.78,1.04-1.8M237.21,108.13h0M240.3,102.77l1.05-2.83.15-1.62M240.3,102.77h0M259.15,21.03v68.27M259.15,89.3v68.27M212.85,21.03v41.09M212.85,113.47v44.1M212.85,62.12l.06.32.17.28.25.2.29.09h.12M213.74,63.01h15.76M229.5,63.01l2.79.45,2.48,1.28,2,2.03.45.7M237.21,67.46l1.02,1.77,1.03,1.78,1.04,1.8M240.3,72.82l1.05,2.85.14,1.6M241.49,77.27v21.05M241.49,98.32l-.51,2.98-.68,1.48M240.3,102.77l-1.04,1.8-1.03,1.78-1.02,1.77M237.21,108.13l-1.93,2.32-2.63,1.56-3.15.57M229.5,112.58h-15.76M213.74,112.58l-.28.04-.25.13-.2.2-.13.27-.04.25M265.98,49.8v1.3M265.98,44.05v5.75M265.98,44.05l-.05-.21-.14-.18-.07-.05M265.4,50.24h.12s.11-.04.11-.04l.1-.04.09-.05.07-.07.05-.08.03-.08v-.09M265.72,49.4l.17.15.08.18v.06M265.72,49.4v-5.79M265.72,43.61l-.84-.57-3.18-2.17M265.4,50.24v-.02l-.03-.06-.06-.05M261.09,40.68l-1.19-.03h-.15M259.76,40.65v5.95M259.15,41.08v-.08s.05-.08.05-.08l.06-.08.08-.06.09-.05.1-.04.11-.02h.12M261.09,46.6v-5.91M261.7,40.87v5.89M261.7,40.87l-.24-.12-.29-.06h-.08M265.31,50.1l.08-.06.08-.08.07-.09.06-.09.05-.1.04-.1.03-.1v-.09M261.7,46.76l.84.55,3.18,2.09M265.31,50.1l-4.02-2.64M259.76,46.6h1.19s.14,0,.14,0M261.09,47.41h-1.33M259.15,46.97v.09s.05.08.05.08l.06.08.08.07.09.05.1.04.11.03h.12M259.76,47.41v-.08s0-.1,0-.1v-.54s0-.09,0-.09M259.15,46.97v-.07s.05-.07.05-.07l.06-.06.08-.06.09-.05.1-.03.11-.02h.12M261.29,47.46l.08-.06.08-.08.07-.09.06-.09.05-.1.04-.1.03-.1v-.09M261.09,46.6l.29.03.26.09.06.04M261.09,47.41v-.08s0-.09,0-.09v-.54s0-.09,0-.09M261.29,47.46h-.02s-.09-.04-.09-.04h-.1M234.67,79.25h0M234.67,96.27v.12s-.04.11-.04.11l-.05.1-.07.09-.09.07-.1.05-.11.04h-.11M234.08,96.86h0M234.08,96.86h-.22s-.36.01-.36.01M233.11,96.88l-1.51.03M233.5,96.87h-.37M233.25,96.87h.85M231.52,96.91l1.56-.03M218.79,63.08v.63M230.27,112.45h-.92M229.35,112.45h.03l1.36-.11,1.05-.3M235,110.43l.22-.19.19-.17M232.84,111.74l1.63-.91M241.06,100.75h-.21s-.05,0-.05,0M234.08,96.86h.11s.11-.05.11-.05l.1-.05.09-.07.07-.09.05-.1.03-.11v-.12M235.41,109.8v.27M234.67,79.28v-.03M234.67,83.73v-1.23M234.67,88.58v-1.62M234.67,93.03v-1.23M234.67,96.27h0M235.59,109.9l1.47-1.9M235.25,96.25h-.12s-.11,0-.11,0h-.1s-.09,0-.09,0h-.07s-.05,0-.05,0h-.03s-.01,0-.01,0M234.08,96.86h.11s.11-.05.11-.05l.1-.05.09-.07.07-.09.05-.1.03-.11v-.12M234.67,79.25v-.11s-.04-.11-.04-.11l-.05-.1-.07-.09-.09-.08-.1-.05-.11-.04h-.11M235.25,79.27h-.12s-.11,0-.11,0h-.1s-.09,0-.09,0h-.07s-.05,0-.05,0h-.04M235.25,96.25l1.06-.02M235.25,96.84h0v-.1s0-.07,0-.07v-.19s0-.11,0-.11v-.12M236.31,96.82h0v-.1s0-.07,0-.07v-.19s0-.11,0-.11v-.12M236.31,96.23v-16.94M236.89,96.23h-.58M236.89,79.29h-.58M235.25,78.68l1.06.02M236.31,79.29v-.12s0-.11,0-.11v-.1s0-.09,0-.09v-.13s0-.03,0-.03h0M235.25,79.27v-.12s0-.11,0-.11v-.1s0-.09,0-.09v-.13s0-.03,0-.03h0M236.31,79.29l-1.06-.02M219.38,63.18h-.12s-.11.04-.11.04l-.1.05-.09.08-.08.09-.05.1-.03.11v.12M219.38,63.18h0M229.35,63.18h-9.97M240.95,100.8h-.05s-.04-.03-.04-.03M241.01,100.61l-.14.15M219.38,63.18h-.12s-.11.04-.11.04l-.1.05-.09.08-.08.09-.05.1-.03.11v.12M219.38,63.18h9.97M219.38,63.55v-.36h0M229.35,112.45h-9.97M218.79,111.86v.12s.04.11.04.11l.05.1.08.09.09.07.1.06.11.03h.12M219.38,112.45h0v-.4M237.06,67.63l-1.86-2.26M218.79,68.22v-4.44M219.38,63.55h-.12s-.11.02-.11.02l-.1.02-.09.03-.08.04-.05.04-.03.04v.04M219.38,68.03h-.12s-.11.01-.11.01l-.1.02-.09.02-.08.03-.05.03-.03.04v.04M218.79,68.22v.11s.04.11.04.11l.05.1.07.09.09.08.1.05.11.04h.12M219.38,68.03v.14s0,.14,0,.14v.13s0,.12,0,.12v.1s0,.08,0,.08v.06M230.08,69l-10.71-.19M218.79,107.42h0M219.37,106.82h-.12s-.11.05-.11.05l-.1.06-.09.07-.07.09-.05.1-.03.11v.12M230.08,106.63l-2.97.05-7.73.13M219.37,106.82h0M229.35,63.18l3.12.57,2.66,1.56,1.93,2.32M229.35,63.55v-.36h0M230.09,68.22v.14s0,.14,0,.14v.13s0,.12,0,.12v.1s0,.08,0,.08v.05h0M230.66,69.59l-.02-.15-.08-.18-.13-.14-.17-.09-.19-.04M230.08,106.63h0M240.15,72.99l-1.04-1.8-1.03-1.78-1.02-1.77M218.79,111.86v.04s.04.04.04.04l.05.03.08.03.09.02.1.02h.11s.12.01.12.01M218.79,111.86v-4.44M219.37,106.82h-.12s-.11.05-.11.05l-.1.05-.09.07-.07.09-.05.1-.03.11v.12M218.79,107.42v.03s.04.03.04.03l.05.03.08.03.09.02h.1s.11.02.11.02h.12M219.37,106.82h0v.23s0,.12,0,.12v.13s0,.14,0,.14v.13M219.37,106.82l10.71-.19M229.35,112.45h0v-.4M237.06,108l-.37.58-2,2.09-2.51,1.32-2.83.46M230.08,106.63v.14s0,.1,0,.1v.12s0,.13,0,.13v.14s0,.13,0,.13M230.66,106.04l-.04.2-.1.18-.16.13-.19.07h-.1M237.06,67.63l-.02-.02h-.04s-.05-.01-.05-.01h-.06s-.07.03-.07.03l-.08.03-.09.04-.09.04M237.06,67.63l1.02,1.77,1.03,1.78,1.04,1.8M240.15,102.65l-1.04,1.79-1.03,1.79-1.02,1.77M241.34,77.44l-.14-1.6-.19-.84M241.01,75l-.25-.75M240.76,74.25l-.61-1.27M230.66,97.5v-.12s.04-.11.04-.11l.05-.1.07-.09.09-.07.1-.06.11-.04h.11M233.08,96.88l-1.84.03M234.08,96.86h-.84M231.24,96.91h0M236.31,96.82l-1.06.02M234.08,96.86h.19s.14,0,.14,0h.18s.2,0,.2,0h.22s.23,0,.23,0M234.08,96.86h0M231.25,69.42h-.12s-.11.01-.11.01h-.1s-.09.04-.09.04l-.07.03-.06.03-.03.03v.03M230.66,78.01v-8.42M231.25,77.91h-.23s-.1.02-.1.02h-.09s-.07.03-.07.03l-.06.02-.03.02v.02M231.24,78.61h-.11s-.11-.05-.11-.05l-.1-.05-.09-.07-.07-.09-.05-.1-.03-.11v-.12M231.25,77.91v.13s0,.13,0,.13v.12s0,.11,0,.11v.15s0,.04,0,.04h0M236.31,78.7l-5.07-.09M236.32,78v.13s0,.13,0,.13v.23s0,.09,0,.09v.11h0M236.31,78.7l.19.04.17.1.13.15.08.18v.13M240.15,72.99h-.02s-.04-.02-.04-.02h-.05s-.06.02-.06.02l-.08.03-.08.03-.09.04-.09.05M240.15,72.99l.67,1.45.52,3M230.66,106.04v.03s.04.03.04.03l.06.03.07.02.09.02h.1s.11.02.11.02h.12M230.66,106.04v-8.54M230.66,97.5h.01s.03.03.03.03h.06s.07.02.07.02h.09s.1.01.1.01h.11s.12,0,.12,0M230.66,97.5v-.12s.04-.11.04-.11l.05-.1.07-.09.09-.07.1-.06.11-.04h.11M231.24,96.91l5.07-.09M231.25,97.58v-.13s0-.12,0-.12v-.12s0-.1,0-.1v-.09s0-.06,0-.06v-.04s0-.01,0-.01M236.89,96.23l-.03.2-.1.17-.15.13-.19.07h-.12M236.32,97.49v-.12s0-.12,0-.12v-.12s0-.1,0-.1v-.08s0-.06,0-.06v-.04h0M240.15,102.65h-.02s-.04.01-.04.01h-.05s-.06-.03-.06-.03l-.08-.03-.09-.04-.09-.04-.09-.05M241.34,98.2l-.15,1.62-1.05,2.83M237.49,79.2h-.12s-.11,0-.11,0h-.1s-.09.02-.09.02h-.07s-.05.03-.05.03l-.03.02v.02M236.89,96.23v-16.94M237.49,96.29h-.23s-.1,0-.1,0h-.09s-.07-.02-.07-.02h-.05s-.03-.02-.03-.02h-.01M241.34,77.44v-.02s-.04-.02-.04-.02l-.06-.02-.07-.02h-.09s-.1-.02-.1-.02h-.11s-.12,0-.12,0M241.34,98.2h-.01s-.03.03-.03.03h-.06s-.07.03-.07.03h-.09s-.1.02-.1.02h-.11s-.12,0-.12,0M241.34,77.44v20.76M236.32,97.49l.23-.03.37-.15.3-.27.19-.35.07-.4M236.32,97.49l-5.07.09M231.25,97.58v8.61M230.09,107.39l.2-.02.38-.14.31-.27.21-.36.07-.41M230.09,107.39l-10.71.19M219.38,107.58v4.48M219.38,112.06h9.97M229.35,112.06l2.65-.44,2.35-1.24,1.86-1.96.34-.55M236.55,107.87l1.02-1.79,1.03-1.8,1.04-1.81M239.64,102.46l.97-2.66.14-1.53M240.75,98.27v-20.94M240.75,77.34l-.49-2.83-.63-1.37M239.64,73.14l-1.04-1.82-1.03-1.8-1.02-1.79M236.55,67.74l-1.81-2.19-2.48-1.47-2.92-.53M229.35,63.55h-9.97M219.38,63.55v4.48M219.38,68.03l10.71.19M231.25,69.42l-.04-.29-.16-.36-.26-.28-.33-.18-.38-.07M231.25,69.42v8.5M231.25,77.91l5.07.09M237.49,79.2l-.03-.26-.15-.37-.26-.3-.34-.2-.39-.07M237.49,79.2v17.09M224.07,100.21l-.29.8M223.78,87.65v.04s-.01.03-.01.03v.03s0,.04,0,.04M224.05,86.89l-.28.76M223.78,87.65v.04s-.01.03-.01.03v.03s0,.04,0,.04v.07s0,.03,0,.03v.04M223.95,87.56l-.03.11v.12s0,.12,0,.12l.03.11M231.4,96.06v.49M231.4,91.61v1.61M231.4,86.76v2.01M231.4,82.31v1.61M231.4,79.04v.43M231.4,79.04h-.37M231.4,96.55h-.37M231.4,96.55v.13s.09.18.09.18l.04.05M223.78,87.93l.06.03.11.06M224.08,88.76l-.3-.83M223.78,101.01l.28-.78M224.08,75.42l-.31-.85M223.78,87.65l.28-.76M223.95,87.56l-.13.07-.04.02M224.37,87.3l-.27.17-.15.09M220.27,69.67h0M220.88,69.07h-.12s-.11.04-.11.04l-.1.05-.09.07-.08.09-.06.1-.03.11v.12M230.66,69.82v-.11s-.04-.11-.04-.11l-.05-.1-.07-.09-.09-.08-.1-.05-.11-.04h-.12M230.08,69.23h.09s.11,0,.11,0h.14s.13,0,.13,0M230.08,69.23h0M230.08,69.23l-9.2-.16M220.88,69.07h0M230.08,69.23h0M230.52,69.24h-.1s-.14,0-.14,0h-.11s-.06,0-.06,0h-.02M220.88,69.07h-.12s-.11.04-.11.04l-.1.05-.09.07-.08.09-.06.1-.03.11v.12M230.66,69.82v-.11s-.04-.11-.04-.11l-.05-.1-.07-.09-.09-.08-.1-.05-.11-.04h-.12M220.88,69.07h0v.07s0,.05,0,.05v.06s0,.07,0,.07v.08s0,.09,0,.09M230.08,69.23h0v.07s0,.05,0,.05v.14s0,.08,0,.08v.09M220.88,69.07l9.2.16M220.27,69.67v-.03s.05-.03.05-.03l.05-.03.07-.03.09-.02h.1s.11-.03.11-.03h.12M220.27,72v-2.34M220.27,73.12v.11s.04.1.04.1l.05.1.07.09.08.07.1.06.1.04.11.02M220.27,72v-.03s.05-.03.05-.03l.05-.03.07-.02.09-.02h.1s.11-.02.11-.02h.12M220.27,73.12h0v-1.12M220.27,105.92v.12s.05.11.05.11l.06.1.08.09.09.07.1.05.11.03h.12M220.88,106.52h0v-.07s0-.05,0-.05v-.07s0-.08,0-.08v-.09s0-.09,0-.09M230.08,106.35l-9.2.16M230.08,106.35h.12s.11-.05.11-.05l.1-.05.09-.08.07-.09.05-.1.03-.11v-.11M230.08,106.35h0v-.07s0-.05,0-.05v-.14s0-.09,0-.09v-.09M220.27,105.92v-2.38M220.27,105.92v.03s.05.03.05.03l.05.03.07.02.09.02h.1s.11.02.11.02h.12M224.37,87.3l-.11.09-.08.12-.05.14-.02.14.02.14.05.14.08.12.11.09M220.82,101.87l-.11.02-.1.04-.1.06-.08.07-.07.09-.05.1-.03.11v.11M220.27,103.54v-1.08M220.86,103.67h-.12s-.11-.01-.11-.01h-.1s-.09-.03-.09-.03l-.07-.02-.05-.02-.03-.02v-.03M225.88,99.33l.77-1.07.57-1.19.35-1.28.12-1.32M225.88,99.33l-1.08,1.02-.44.32-.39.24-.15.08-.04.03M225.88,85.97l.77-1.07.57-1.19.35-1.28.12-1.32M225.88,85.97l-1.08,1.02-.43.31M224.37,87.3h0M230.66,69.82v-.03s-.05-.03-.05-.03l-.05-.03-.07-.03-.09-.02-.1-.02h-.11s-.12-.01-.12-.01M230.66,105.76v.03s-.05.03-.05.03l-.05.03-.07.02-.09.02h-.1s-.11.02-.11.02h-.12M230.66,69.82v35.94M220.86,103.67v2.4M220.86,106.07l9.2-.16M230.06,105.91v-36.25M230.06,69.66l-9.2-.16M220.86,69.49v2.36M220.82,101.87l1.96-.42,2.12-1.19,1.65-1.84.98-2.42.1-2.47-.72-2.37-1.46-2-1.08-.87M220.82,101.87v.08s0,.24,0,.24v.37s.02.46.02.46v.5s.02.14.02.14M226.16,87.76l.33.31,1.75,2.45.86,2.91-.12,3.03-1.18,2.97-1.97,2.26-2.55,1.46-2.41.52M224.37,88.29h0M226.16,87.76h-.01s-.01,0-.01,0h-.03s-.07.03-.07.03l-.15.04-.36.09-.66.19-.32.1-.14.05-.04.02M224.37,87.3l-.11.09-.08.12-.05.14-.02.14.02.14.05.14.08.12.11.1M220.86,71.85l2.33.49,2.54,1.41,1.99,2.21,1.25,3.05.13,3.04-.86,2.93-1.75,2.46-.33.31M220.86,71.85v.5s-.03.48-.03.48v.42s-.02.3-.02.3v.15h0M224.37,87.3l1.08-.88,1.46-2.01.72-2.39-.11-2.48-1.04-2.49-1.66-1.8-2.11-1.15-1.89-.39M224.37,87.3h.04s.14.04.14.04l.32.08.66.18.36.09.15.04.07.02h.03s.01.01.01.01h.01M34.65,78.25H.78M.78,100.35h33.87M.25,92.59h34.39M34.65,85.64H.28M34.65,101.1h1.89M36.54,77.5h-1.89M192.07.25H60.28M36.54,116.09l1.3,1.3M37.84,61.21l-1.3,1.3M37.84,117.39l10.57.18M48.41,61.03l-10.57.18M49.92.44l-1.51,1.51M59.68.26l-9.76.17M60.28.86v-.12s-.05-.11-.05-.11l-.05-.1-.08-.09-.09-.07-.1-.05-.11-.03h-.12M235.41,110.08h-.15M265.98,122.97h.74M266.72,106.09h-.74M268.56,107.27l-.58-.44-.62-.4-.65-.35M266.72,106.09h-.74M266.72,30.4h-.74M270.88,34.39l-.37-.63-.42-.6-.47-.57-.51-.53-.55-.49-.58-.44-.62-.4-.65-.35M199.77,135.59l.08-.06.55-.49.51-.53.46-.57.42-.6.37-.63M277.85,41.87l-.02-.17-.05-.17-.08-.15-.11-.13-.13-.11-.15-.08-.17-.05-.17-.02M276.98,40.98l-6.1-.11M277.85,41.87l-.02-.17-.05-.17-.08-.15-.11-.13-.13-.11-.15-.08-.17-.05-.17-.02M276.98,40.98l-10.09-.18M266.89,40.81h-.18s-.17.06-.17.06l-.16.08-.14.11-.11.13-.08.16-.05.17-.02.18M277,57.7l.17-.02.16-.06.15-.08.13-.11.11-.13.08-.15.05-.16.02-.17M274.3,57.84l2.7-.12M266.86,57.94h1.22M265.98,57.05l.02.17.05.17.08.15.11.13.13.11.15.08.17.05.17.02M273.41,60.61v-.86s.25-1.21.25-1.21l.31-.53.19-.15.13-.04h.12s.09.05.09.05M268.08,57.95h.06s.12.06.12.06l.16.15.2.32.2.63.13,1.23v.45M281.84,56.29l-.84-.84M281,55.45h-3.15M273.4,68.83l.42.42M281.84,56.29l-.84-.84M281,69.25l.84-.84M281,55.45h-3.15M273.82,69.25h7.18M206.89,21.34v-7.22M208.8,153.74l.18-.22.08-.1M209.06,25.18l-.18-.22-.08-.1M210.38,26.42h.01l-.08-.04-.22-.15-.42-.37-.65-.73-.12-.16M209.06,153.43l.26-.31.65-.65.32-.23.11-.05h-.03s0,0,0,0M202.51,161.41l.07-.09.03-.04M202.62,17.32l-.07-.09-.03-.04M203.94,18.55h0l-.09-.04-.22-.15-.43-.38-.66-.74-.1-.13M202.62,161.3l.26-.32.65-.64.32-.24.11-.05h-.03M206.85,153.54l.04.08v-.08M206.89,25.05v-.07s0,0,0,0M200.61,161.19v-.07M200.61,17.48v-.07s0,0,0,0M208.28,135.63l.14-.17.06-.07M208.48,135.41l.16-.2.72-.62.42-.18h.03M206.89,138.78v-.05s.06-.48.06-.48l.18-.62.05-.11M207.17,137.52l.27-.62.48-.8.36-.44M206.89,153.56v-14.78M209.55,51.86l-.21-.03-.41-.27M208.95,51.61l-.18-.13-.08-.06M203.08,139.86l.21-.09h.05M202.99,139.89l.07-.03h.03M200.62,143.72l.02-.22.13-.57.27-.71.43-.8.59-.8.68-.6.23-.11M206.89,54.34v-.07s.06-.47.06-.47l.12-.27.14-.12h.23M202.5,47l-.07-.05-.03-.02M203.11,47.26l-.21-.03-.41-.27M207.61,116.3h-.04s-.38-.19-.38-.19l-.21-.41-.09-.5v-.32M200.61,50.03v-.07s.06-.46.06-.46l.12-.27.14-.12h.23M206.9,92.78l.06-.53.2-.61.31-.52.4-.37.48-.15.06.02M208.34,87.98h-.13s-.54-.28-.54-.28l-.4-.51-.26-.62-.12-.66v-.32M201.34,119.96l-.12.02-.39-.3-.16-.42-.06-.53.05-.63.02-.09M205.29,120.21l.18-.1M200.62,92.91l.07-.56.2-.61.31-.52.4-.37.48-.14.06.02M202.06,87.87h-.13s-.54-.28-.54-.28l-.4-.51-.26-.62-.12-.66v-.32M212.85,21.03l-.16-.22M198.85,1.44l-.59-.83M198.26,178l14.59-20.43M198.26.6l-.04-.05-.05-.05-.05-.04-.06-.04-.06-.03-.06-.02h-.07s-.07-.02-.07-.02M197.78,178.25h.07s.07-.02.07-.02l.06-.02.06-.03.06-.04.05-.04.05-.05.04-.05M197.78.35l-5.71-.1M192.07,178.35l5.71-.1M227.32,106.89v-.49M220.19,87.82l-2.11.49-1.3.72M224.08,88.76l-.89-.45-2.11-.49M213.96,94.48v.02M227.32,94.5v-.02M227.32,69.18v-.53M213.96,81.14v.02M227.32,81.16v-.02M234.67,88.58l-.69-.45-.85-.17-.85.17-.72.48-.15.16M230.9,90.18v.02M235.35,90.2v-.02M232.93,92.42l-.66.16-.72.48-.15.16M234.67,93.03l-.69-.45-.66-.16M230.9,94.63v.02M235.35,94.65v-.02M230.9,85.33v.02M235.35,85.35v-.02M230.9,80.88v.02M235.35,80.9v-.02M265.98,25.85v-.09s-.02-.09-.02-.09l-.02-.09-.03-.08-.04-.08-.05-.08-.05-.07-.06-.06M265.72,25.22l-3.93-3.93M261.79,21.29l-.06-.06-.07-.05-.08-.04-.08-.04-.08-.03-.08-.02h-.09s-.09-.02-.09-.02M261.16,21.03h-1.12M260.04,21.03l-.17.02-.17.05-.15.08-.13.11-.11.13-.08.15-.05.17-.02.17M265.98,51.1v-.11s-.03-.11-.03-.11l-.03-.1-.05-.1-.06-.09-.07-.09-.08-.08-.09-.07M265.58,50.35l-3.93-2.58M261.65,47.77l-.06-.03-.06-.03-.06-.03-.06-.02-.06-.02h-.06s-.06-.02-.06-.02h-.07M261.15,47.62h-.35s-1.06.02-1.06.02M259.81,47.65h-.1s-.21.07-.21.07l-.18.15-.12.21-.04.19v.02M265.72,153.38l.06-.06.05-.07.05-.07.04-.08.03-.08.02-.09v-.09s.02-.09.02-.09M261.79,157.31l3.93-3.93M261.16,157.57h.09s.09-.02.09-.02l.08-.02.08-.03.08-.04.08-.04.07-.05.06-.06M260.04,157.57h1.12M259.15,156.68l.02.17.05.17.08.15.11.14.13.11.15.08.17.05.17.02M259.15,21.03h-46.3M212.85,157.57h46.3M265.97,44.04v-.14s-.1-.25-.1-.25l-.17-.19-.07-.04M265.64,43.42l-2.81-1.92-1.2-.82M261.09,40.51l-1.33-.03M259.76,40.48h-.12s-.11.04-.11.04l-.1.05-.09.07-.08.09-.06.1-.03.11v.12M261.61,40.68l-.13-.08-.29-.08h-.11M238.62,105.68h-.22M224.11,87.79h0" style="fill: none; stroke: #010101; stroke-linecap: round; stroke-linejoin: round; stroke-width: .51px;"/>
      <path d="M266.03,30.31c2.51.99,4.12,2.35,4.85,4.08v6.49s6.1.11,6.1.11c.51.05.81.32.88.89v13.58h3.15l.84.84v12.11l-.84.84h-3.15l-.87.91-7.37.28-3.72.03.14-40.16Z" style="fill: #0d0d0d; stroke-width: 0px;"/>
    </g>
  </g>
</svg>