<?xml version="1.0" encoding="UTF-8"?>
<svg id="Layer_2" data-name="Layer 2" xmlns="http://www.w3.org/2000/svg" width="152.14" height="124.57" viewBox="0 0 152.14 124.57">
  <g id="Layer_1-2" data-name="Layer 1">
    <g>
      <path d="M103.16,124.57h-54.19C21.93,124.57,0,102.64,0,75.59v-26.62C0,21.93,21.93,0,48.97,0h54.01c27.05,0,49.16,21.93,49.16,48.98v26.62c0,27.05-21.93,48.98-48.98,48.98" style="fill: #2b2929; stroke-width: 0px;"/>
      <path d="M116.94,99.93H34.57c-13.48,0-24.41-10.93-24.41-24.41v-26.48c0-13.48,10.93-24.41,24.41-24.41h82.19c13.48,0,24.59,10.92,24.59,24.41v26.48c0,13.48-10.93,24.41-24.41,24.41" style="fill: #404042; stroke-width: 0px;"/>
      <path d="M116.94,99.93H34.57c-13.48,0-24.41-10.93-24.41-24.41v-26.48c0-13.48,10.93-24.41,24.41-24.41h82.19c13.48,0,24.59,10.92,24.59,24.41v26.48c0,13.48-10.93,24.41-24.41,24.41Z" style="fill: none; stroke: #211e1e; stroke-miterlimit: 10; stroke-width: .27px;"/>
      <path d="M113.94,92.66H38.68c-11.42,0-20.68-9.26-20.68-20.69v-19.47c0-11.42,9.26-20.69,20.68-20.69h75.26c11.42,0,20.69,9.26,20.69,20.69v19.47c0,11.42-9.26,20.69-20.69,20.69" style="fill: #211e1e; stroke-width: 0px;"/>
      <path d="M38.69,31.81h75.26c11.42,0,20.68,9.27,20.68,20.68v19.48c0,11.42-9.27,20.69-20.69,20.69H38.69c-11.42,0-20.69-9.27-20.69-20.69v-19.47c0-11.42,9.27-20.69,20.69-20.69Z" style="fill: none; stroke: #fff; stroke-miterlimit: 10; stroke-width: .38px;"/>
      <path d="M116.28,89.16H35.65c-7.89,0-14.29-6.4-14.29-14.29v-25.31c0-7.89,6.4-14.29,14.29-14.29h80.64c7.89,0,14.29,6.4,14.29,14.29v25.31c0,7.89-6.4,14.29-14.29,14.29" style="fill: #323130; stroke-width: 0px;"/>
      <rect x="21.36" y="35.27" width="109.21" height="53.89" rx="14.29" ry="14.29" style="fill: none; stroke: #7f8081; stroke-miterlimit: 10; stroke-width: .07px;"/>
      <path d="M112.66,85.77H39.83c-6.26,0-11.33-5.07-11.33-11.33v-24.44c0-6.26,5.07-11.33,11.33-11.33h72.83c6.26,0,11.33,5.07,11.33,11.33v24.44c0,6.26-5.08,11.33-11.33,11.33" style="fill: #323130; stroke-width: 0px;"/>
      <path d="M39.83,38.66h72.83c6.25,0,11.33,5.08,11.33,11.33v24.45c0,6.25-5.08,11.33-11.33,11.33H39.83c-6.25,0-11.33-5.08-11.33-11.33v-24.44c0-6.26,5.08-11.33,11.33-11.33Z" style="fill: none; stroke: #7f8081; stroke-miterlimit: 10; stroke-width: .07px;"/>
      <path d="M107.48,83.84h-63.03c-5.56,0-10.07-4.51-10.07-10.08v-22.61c0-5.57,4.51-10.08,10.07-10.08h63.03c5.56,0,10.08,4.51,10.08,10.08v22.61c0,5.57-4.51,10.08-10.08,10.08" style="fill: #323130; stroke-width: 0px;"/>
      <path d="M44.45,41.08h63.03c5.56,0,10.07,4.51,10.07,10.07v22.61c0,5.56-4.52,10.08-10.08,10.08h-63.03c-5.56,0-10.08-4.52-10.08-10.08v-22.61c0-5.56,4.52-10.08,10.08-10.08Z" style="fill: none; stroke: #7f8081; stroke-miterlimit: 10; stroke-width: .07px;"/>
      <path d="M105.32,80.62h-58.86c-3.13,0-5.66-2.53-5.66-5.66v-25.78c0-3.13,2.53-5.66,5.66-5.66h58.86c3.12,0,5.65,2.53,5.65,5.66v25.78c0,3.13-2.53,5.66-5.65,5.66" style="fill: #323130; stroke-width: 0px;"/>
      <path d="M46.47,43.53h58.85c3.12,0,5.66,2.54,5.66,5.66v25.77c0,3.12-2.54,5.66-5.66,5.66h-58.86c-3.12,0-5.65-2.53-5.65-5.65v-25.78c0-3.12,2.54-5.66,5.66-5.66Z" style="fill: none; stroke: #7f8081; stroke-miterlimit: 10; stroke-width: .07px;"/>
      <path d="M98.58,78.38h-45.01c-3.17,0-5.74-2.57-5.74-5.73v-20.89c0-3.17,2.57-5.73,5.74-5.73h45.01c3.17,0,5.91,2.57,5.91,5.73v20.89c0,3.17-2.75,5.73-5.91,5.73" style="fill: #323130; stroke-width: 0px;"/>
      <path d="M98.58,78.38h-45.01c-3.17,0-5.74-2.57-5.74-5.73v-20.89c0-3.17,2.57-5.73,5.74-5.73h45.01c3.17,0,5.91,2.57,5.91,5.73v20.89c0,3.17-2.75,5.73-5.91,5.73Z" style="fill: none; stroke: #7f8081; stroke-miterlimit: 10; stroke-width: .07px;"/>
      <path d="M93.27,75.86h-34.37c-2.54,0-4.6-2.06-4.6-4.6v-17.77c0-2.53,2.06-4.6,4.6-4.6h34.37c2.54,0,4.6,2.06,4.6,4.6v17.77c0,2.54-2.06,4.6-4.6,4.6" style="fill: #323130; stroke-width: 0px;"/>
      <rect x="54.31" y="48.89" width="43.56" height="26.97" rx="4.6" ry="4.6" style="fill: none; stroke: #7f8081; stroke-miterlimit: 10; stroke-width: .07px;"/>
      <path d="M88.01,73.06h-23.84c-1.89,0-3.43-1.53-3.43-3.42v-14.38c0-1.89,1.53-3.42,3.43-3.42h23.84c1.89,0,3.42,1.53,3.42,3.42v14.38c0,1.89-1.53,3.42-3.42,3.42" style="fill: #323130; stroke-width: 0px;"/>
      <path d="M64.17,51.83h23.84c1.89,0,3.43,1.54,3.43,3.43v14.38c0,1.89-1.53,3.42-3.42,3.42h-23.84c-1.89,0-3.42-1.53-3.42-3.42v-14.38c0-1.89,1.53-3.42,3.42-3.42Z" style="fill: none; stroke: #7f8081; stroke-miterlimit: 10; stroke-width: .07px;"/>
      <path d="M85.75,62.38c0,5.33-4.32,9.66-9.66,9.66s-9.66-4.32-9.66-9.66,4.32-9.66,9.66-9.66,9.66,4.32,9.66,9.66" style="fill: #211e1e; stroke-width: 0px;"/>
      <path d="M81.3,62.46c0,2.94-2.38,5.32-5.32,5.32s-5.32-2.38-5.32-5.32,2.38-5.32,5.32-5.32,5.32,2.38,5.32,5.32" style="fill: #cfd2d3; stroke-width: 0px;"/>
      <path d="M75.98,63.12c0,.94-.76,1.7-1.7,1.7s-1.7-.76-1.7-1.7.76-1.7,1.7-1.7,1.7.76,1.7,1.7" style="fill: #fff; stroke-width: 0px;"/>
      <path d="M44.19,20.71h-10.51c-2.01,0-3.64-1.63-3.64-3.64s1.63-3.64,3.64-3.64h10.51c2.01,0,3.64,1.63,3.64,3.64s-1.63,3.64-3.64,3.64" style="fill: #018fb9; stroke-width: 0px;"/>
      <path d="M44.19,20.71h-10.51c-2.01,0-3.64-1.63-3.64-3.64s1.63-3.64,3.64-3.64h10.51c2.01,0,3.64,1.63,3.64,3.64s-1.63,3.64-3.64,3.64Z" style="fill: none; stroke: #211e1e; stroke-miterlimit: 10; stroke-width: .38px;"/>
      <path d="M117.68,17.08h-9.33c-1.58,0-2.87-1.29-2.87-2.87s1.29-2.87,2.87-2.87h9.33c1.58,0,2.87,1.28,2.87,2.87s-1.28,2.87-2.87,2.87" style="fill: #323130; stroke-width: 0px;"/>
      <path d="M117.68,23.58h-9.33c-1.58,0-2.87-1.29-2.87-2.87s1.29-2.87,2.87-2.87h9.33c1.58,0,2.87,1.28,2.87,2.87s-1.28,2.87-2.87,2.87" style="fill: #323130; stroke-width: 0px;"/>
      <path d="M62.89,115.88h-1.21c0-1.04-.05-2.03-.05-3.07-.27,1.01-.53,2.04-.77,3.07h-1.71c.43-1.91.84-3.85,1.28-5.76h2.32c.04,1.05.07,2.1.12,3.14.51-1.04,1.02-2.09,1.51-3.14h2.3c-.43,1.92-.85,3.84-1.28,5.76h-1.63c.21-1.02.45-2.01.66-3.03,0-.01.02-.01.02-.03-.53,1-1.02,2.04-1.54,3.06" style="fill: #010101; fill-rule: evenodd; stroke-width: 0px;"/>
      <path d="M68.48,110.13c-.05.29-.12.57-.16.88h-1.54c.07-.3.11-.61.21-.88h1.49Z" style="fill: #010101; fill-rule: evenodd; stroke-width: 0px;"/>
      <path d="M91.38,110.23c-.04.28-.11.53-.16.8-.42-.04-.51.26-.55.6.16.03.39,0,.58.01.09-.33.16-.67.24-1.01h1.5c-.08.34-.14.69-.22,1.01h.54c-.08.33-.16.66-.24.99h-.52c-.11.34-.17.68-.25,1.03-.08.34-.19.7-.2,1.06.12.14.41.1.61.09-.09.36-.15.72-.25,1.08-.5,0-1.08.11-1.48-.04-.27-.11-.47-.44-.46-.78,0-.2.07-.41.12-.62.13-.57.28-1.29.4-1.84-.15-.04-.36,0-.53-.01-.29,1.07-.5,2.21-.76,3.3h-1.55c.24-1.11.53-2.18.78-3.28-.16-.04-.39,0-.58-.01.31.91-.05,1.87-.5,2.4-.47.58-1.18.99-2.16.99-1.17,0-1.92-.61-1.99-1.7-.07-1.2.69-2.21,1.61-2.61,1.05-.46,2.54-.21,2.97.8.09-.26.15-.57.23-.85h.61c.11-.51.24-.91.55-1.17.35-.28,1.03-.24,1.67-.22M85.6,113.23c-.2.49-.42,1.65.27,1.69.64.03,1.03-1.11,1.03-1.73,0-.43-.19-.79-.57-.73-.35.05-.58.42-.73.78" style="fill: #010101; fill-rule: evenodd; stroke-width: 0px;"/>
      <path d="M79.49,113.92c-.45.14-.88.3-1.33.43.84.03,1.74,0,2.6.01-.05.18-.04.39.06.5.27.31,1.12.17,1.12-.22,0-.47-.8-.49-1.18-.61-.51-.17-1.03-.5-1.06-1.14-.04-.8.66-1.26,1.5-1.41,1.18-.19,2.74,0,2.49,1.36h-1.49c.26-.67-.98-.7-1-.24-.02.43.89.44,1.29.54.61.15,1.13.49,1.09,1.26-.04.78-.7,1.36-1.48,1.54-.87.2-1.92.12-2.51-.31-.3-.22-.47-.54-.46-.99-.41.77-1.13,1.37-2.25,1.37-1.07,0-1.91-.57-1.98-1.61-.05-.62.11-1.04.3-1.46-1.54,0-1.37,1.72-1.7,2.93h-1.59c.3-1.42.66-2.8.97-4.23.5-.02,1-.04,1.5-.05-.03.15-.06.3-.1.43.29-.26.72-.52,1.34-.51-.08.38-.16.76-.25,1.14.46-.61,1.09-1.16,2.1-1.22,1.32-.09,2.19.65,2.12,1.95-.01.19-.05.32-.09.52M77.15,112.63c-.3.26-.66.92-.64,1.57,0,.22.07.48.24.61.29.22.65,0,.82-.19.28-.33.51-.91.49-1.48-.01-.4-.19-.75-.58-.68-.12.03-.24.09-.33.16" style="fill: #010101; fill-rule: evenodd; stroke-width: 0px;"/>
      <path d="M72.34,113.22h-1.42c.03-.32-.05-.64-.31-.69-.19-.03-.4.09-.5.18-.39.33-.89,1.44-.56,1.99.29.47,1.01.02,1.14-.4h1.39c-.25,1.2-1.28,1.83-2.58,1.74-.92-.06-1.53-.72-1.6-1.65-.05-.8.26-1.51.66-1.98.41-.48,1.01-.85,1.79-.91,1.33-.09,1.93.54,2,1.73" style="fill: #010101; fill-rule: evenodd; stroke-width: 0px;"/>
      <path d="M66.64,111.57h1.52c-.27,1.42-.61,2.89-.91,4.33h-1.59c.32-1.45.63-2.9.97-4.33" style="fill: #010101; fill-rule: evenodd; stroke-width: 0px;"/>
      <path d="M86.33,112.45c.38-.05.56.3.57.73,0,.62-.39,1.77-1.03,1.73-.69-.04-.47-1.2-.27-1.69.15-.36.38-.72.73-.78" style="fill: #fff; fill-rule: evenodd; stroke-width: 0px;"/>
      <path d="M77.48,112.47c.39-.07.57.27.58.68.02.56-.21,1.14-.49,1.48-.16.2-.53.42-.82.19-.17-.14-.23-.39-.24-.61-.01-.65.34-1.31.64-1.57.09-.07.21-.14.33-.16" style="fill: #fff; fill-rule: evenodd; stroke-width: 0px;"/>
      <path d="M64.42,112.83s-.01.02-.02.03c-.21,1.02-.45,2.01-.65,3.03h1.63c.43-1.91.85-3.84,1.29-5.76h-2.3c-.5,1.06-1,2.1-1.51,3.14-.04-1.04-.08-2.1-.12-3.14h-2.31c-.44,1.91-.85,3.85-1.28,5.76h1.72c.24-1.03.5-2.06.77-3.07,0,1.04.04,2.03.04,3.07h1.21c.51-1.02,1.02-2.05,1.54-3.06M66.99,110.13c-.09.27-.14.58-.2.88h1.54c.04-.3.11-.58.16-.88h-1.5ZM89.71,110.46c-.31.25-.44.65-.55,1.16h-.61c-.08.28-.13.58-.23.85-.43-1.02-1.92-1.26-2.97-.8-.92.4-1.68,1.41-1.61,2.61.07,1.09.82,1.7,1.99,1.7.98,0,1.69-.42,2.16-.99.45-.53.81-1.49.5-2.4.19.01.42-.02.58.01-.25,1.1-.53,2.17-.78,3.28h1.55c.26-1.09.47-2.23.76-3.29.17.01.38-.02.53.01-.12.54-.27,1.26-.4,1.84-.05.21-.11.43-.12.62,0,.34.19.67.46.77.4.15.98.01,1.48.08.1-.36.16-.75.25-1.12-.2.01-.49.06-.61-.08,0-.36.12-.72.2-1.06.08-.35.15-.7.25-1.03h.52c.08-.32.16-.65.24-.98h-.54c.08-.33.15-.68.22-1.01h-1.5c-.07.34-.15.68-.24,1.01-.19,0-.42.02-.58-.01.04-.34.12-.64.55-.6.05-.27.12-.53.16-.81-.64-.02-1.32-.06-1.67.23M79.58,113.39c.07-1.3-.8-2.05-2.12-1.95-1.02.07-1.64.62-2.11,1.22.09-.37.17-.76.26-1.13-.62-.01-1.05.24-1.34.5.04-.14.07-.28.1-.43-.51.01-1.01.04-1.5.06-.31,1.42-.66,2.8-.97,4.22h1.6c.33-1.21.16-2.93,1.7-2.92-.18.42-.34.84-.3,1.46.08,1.04.91,1.61,1.98,1.61,1.12,0,1.84-.61,2.26-1.37-.01.44.16.77.46.99.59.43,1.64.51,2.51.31.77-.18,1.44-.76,1.48-1.53.04-.78-.48-1.12-1.09-1.27-.39-.09-1.3-.11-1.28-.54.02-.46,1.26-.43,1,.24h1.49c.24-1.36-1.32-1.56-2.49-1.36-.85.14-1.54.61-1.5,1.4.03.64.54.96,1.06,1.13.37.12,1.18.14,1.18.61,0,.4-.84.54-1.12.23-.1-.12-.11-.32-.05-.51-.86-.01-1.76.02-2.6-.01.45-.14.88-.3,1.33-.43.04-.2.08-.33.09-.52M70.35,111.48c-.79.06-1.38.43-1.79.91-.4.47-.71,1.18-.66,1.98.07.93.68,1.6,1.6,1.65,1.3.09,2.34-.54,2.58-1.74h-1.39c-.13.42-.84.88-1.14.4-.34-.55.16-1.66.56-1.99.1-.08.31-.21.51-.18.26.05.34.37.31.69h1.42c-.07-1.19-.67-1.83-2-1.73M65.67,115.9h1.58c.3-1.44.64-2.91.91-4.33h-1.52c-.34,1.43-.65,2.88-.97,4.33" style="fill: #fff; fill-rule: evenodd; stroke-width: 0px;"/>
      <path d="M86.25,112.53c.37-.06.56.3.57.73,0,.62-.39,1.76-1.03,1.73-.69-.04-.47-1.2-.27-1.69.15-.36.38-.72.73-.77" style="fill: #211e1e; fill-rule: evenodd; stroke-width: 0px;"/>
      <path d="M77.4,112.55c.39-.08.57.27.58.67.02.56-.21,1.15-.49,1.48-.16.2-.53.42-.82.2-.17-.14-.23-.39-.24-.61-.01-.65.34-1.3.64-1.57.09-.08.21-.14.33-.16" style="fill: #211e1e; fill-rule: evenodd; stroke-width: 0px;"/>
    </g>
  </g>
</svg>