<?xml version="1.0" encoding="UTF-8"?>
<svg id="Layer_2" data-name="Layer 2" xmlns="http://www.w3.org/2000/svg" width="103.96" height="183.77" viewBox="0 0 103.96 183.77">
  <g id="Layer_1-2" data-name="Layer 1">
    <g>
      <line x1="50.62" y1="46.67" x2="50.52" y2="0" style="fill: none; stroke: #808083; stroke-miterlimit: 10;"/>
      <line x1="29.74" y1="46.72" x2="29.64" y2=".05" style="fill: none; stroke: #808083; stroke-miterlimit: 10;"/>
      <path d="M13,52.98l.17,82.25c.01,5.87,4.66,10.63,10.38,10.62l41-.09c5.72-.01,10.35-4.79,10.34-10.66l-.17-82.25c-.01-5.88-4.66-10.63-10.38-10.62l-41,.09c-5.72.01-10.35,4.78-10.34,10.66" style="fill: #191919; stroke-width: 0px;"/>
      <path d="M12.92,124.73l.02,10.49c.01,5.87,4.66,10.62,10.38,10.61l11.61-.02-.02-10.49c-.01-5.87-4.66-10.62-10.38-10.61l-11.61.02Z" style="fill: #333; stroke-width: 0px;"/>
      <path d="M74.74,63.34l-.02-10.49c-.01-5.88-4.66-10.62-10.38-10.61l-11.61.02.02,10.49c.01,5.87,4.66,10.62,10.38,10.61l11.61-.02Z" style="fill: #333; stroke-width: 0px;"/>
      <path d="M23.91,129.5c-3.32,0-6,2.6-5.99,5.79,0,3.19,2.7,5.77,6.02,5.76,3.32,0,6-2.6,5.99-5.79,0-3.19-2.7-5.77-6.02-5.76" style="fill: #fff; stroke-width: 0px;"/>
      <path d="M85.2,124.23v6.41c.02.98-.75,1.77-1.7,1.77l-8.62.02-.02-9.94,8.62-.02c.95,0,1.72.79,1.72,1.76" style="fill: #f15b2d; stroke-width: 0px;"/>
      <path d="M74.78,83.73h3.34c2.94-1.12,4.36.24,4.72,3.35l6.23,72.22c18.1,3.77,19.81,21.01,1.12,23.98" style="fill: none; stroke: #808083; stroke-miterlimit: 10;"/>
      <polyline points="13.07 88.1 2.43 88.13 .5 38.27" style="fill: none; stroke: #808083; stroke-miterlimit: 10;"/>
    </g>
  </g>
</svg>