<?xml version="1.0" encoding="UTF-8"?>
<svg id="Layer_2" data-name="Layer 2" xmlns="http://www.w3.org/2000/svg" width="372.41" height="236.82" viewBox="0 0 372.41 236.82">
  <g id="Layer_1-2" data-name="Layer 1">
    <path d="M356.97,236.82H15.43c-8.53,0-15.43-6.91-15.43-15.44V15.44C0,6.91,6.91,0,15.43,0h341.54c8.52,0,15.44,6.91,15.44,15.44v205.94c0,8.53-6.91,15.44-15.44,15.44" style="fill: #cfd2d3; stroke-width: 0px;"/>
    <path d="M40.96,84.71c0,1.69-1.38,3.07-3.07,3.07s-3.07-1.38-3.07-3.07,1.38-3.07,3.07-3.07,3.07,1.38,3.07,3.07" style="fill: #434342; stroke-width: 0px;"/>
    <path d="M40.96,154.59c0,1.7-1.38,3.07-3.07,3.07s-3.07-1.37-3.07-3.07,1.38-3.07,3.07-3.07,3.07,1.37,3.07,3.07" style="fill: #434342; stroke-width: 0px;"/>
    <path d="M40.96,131.3c0,1.7-1.38,3.07-3.07,3.07s-3.07-1.37-3.07-3.07,1.38-3.07,3.07-3.07,3.07,1.37,3.07,3.07" style="fill: #434342; stroke-width: 0px;"/>
    <path d="M40.96,108c0,1.7-1.38,3.07-3.07,3.07s-3.07-1.37-3.07-3.07,1.38-3.07,3.07-3.07,3.07,1.37,3.07,3.07" style="fill: #434342; stroke-width: 0px;"/>
  </g>
</svg>