<?xml version="1.0" encoding="UTF-8"?>
<svg id="Layer_2" data-name="Layer 2" xmlns="http://www.w3.org/2000/svg" width="264.82" height="135.78" viewBox="0 0 264.82 135.78">
  <g id="Layer_1-2" data-name="Layer 1">
    <g>
      <polygon points=".09 29.13 13.55 38.74 13.55 98.73 .09 106.64 .09 127.6 6.82 135.69 256.45 135.69 264.73 127.6 264.73 106.64 251.28 98.73 251.96 37.22 264.73 29.13 264.73 7.78 256.45 .09 8.02 1.47 .09 10.1 .09 29.13" style="fill: #e5e5e5; stroke-width: 0px;"/>
      <polygon points=".09 29.13 13.55 38.74 13.55 98.73 .09 106.64 .09 127.6 6.82 135.69 256.45 135.69 264.73 127.6 264.73 106.64 251.28 98.73 251.96 37.22 264.73 29.13 264.73 7.78 256.45 .09 8.02 1.47 .09 10.1 .09 29.13" style="fill: none; stroke: #211e1e; stroke-miterlimit: 10; stroke-width: .18px;"/>
      <rect x="102.05" y="13.31" width="70.39" height="108.47" style="fill: #211e1e; stroke-width: 0px;"/>
      <path d="M76,32.11c0,2.82-2.29,5.11-5.11,5.11s-5.11-2.28-5.11-5.11,2.29-5.11,5.11-5.11,5.11,2.29,5.11,5.11Z" style="fill: none; stroke: #211e1e; stroke-miterlimit: 10; stroke-width: .16px;"/>
      <path d="M73.87,32.11c0,1.65-1.34,2.99-2.99,2.99s-2.98-1.34-2.98-2.99,1.34-2.99,2.98-2.99,2.99,1.34,2.99,2.99" style="fill: #211e1e; stroke-width: 0px;"/>
      <path d="M73.87,32.11c0,1.65-1.34,2.99-2.99,2.99s-2.98-1.34-2.98-2.99,1.34-2.99,2.98-2.99,2.99,1.34,2.99,2.99Z" style="fill: none; stroke: #211e1e; stroke-miterlimit: 10; stroke-width: .09px;"/>
      <path d="M79.77,95.43c0,4.93-4,8.94-8.93,8.94s-8.94-4-8.94-8.94,4-8.93,8.94-8.93,8.93,4,8.93,8.93Z" style="fill: none; stroke: #211e1e; stroke-miterlimit: 10; stroke-width: .28px;"/>
      <path d="M76.06,95.43c0,2.88-2.34,5.22-5.22,5.22s-5.23-2.34-5.23-5.22,2.34-5.22,5.23-5.22,5.22,2.34,5.22,5.22" style="fill: #bc2031; stroke-width: 0px;"/>
      <path d="M76.06,95.43c0,2.88-2.34,5.22-5.22,5.22s-5.23-2.34-5.23-5.22,2.34-5.22,5.23-5.22,5.22,2.34,5.22,5.22Z" style="fill: none; stroke: #211e1e; stroke-miterlimit: 10; stroke-width: .17px;"/>
      <rect x="177.27" y="40.29" width="24.67" height="55.14" style="fill: #2b2929; stroke-width: 0px;"/>
      <rect x="179.34" y="42.71" width="20.53" height="49.68" style="fill: #323130; stroke-width: 0px;"/>
      <rect x="184.85" y="54.61" width="4.27" height="4.27" style="fill: #6a5f27; stroke-width: 0px;"/>
      <rect x="190.49" y="54.61" width="4.27" height="4.27" style="fill: #6a5f27; stroke-width: 0px;"/>
      <rect x="184.85" y="60.09" width="4.27" height="4.27" style="fill: #6a5f27; stroke-width: 0px;"/>
      <rect x="190.49" y="60.09" width="4.27" height="4.27" style="fill: #6a5f27; stroke-width: 0px;"/>
      <rect x="184.85" y="65.57" width="4.27" height="4.27" style="fill: #6a5f27; stroke-width: 0px;"/>
      <rect x="190.49" y="65.57" width="4.27" height="4.27" style="fill: #6a5f27; stroke-width: 0px;"/>
      <rect x="184.85" y="71.06" width="4.27" height="4.27" style="fill: #6a5f27; stroke-width: 0px;"/>
      <rect x="190.49" y="71.06" width="4.27" height="4.27" style="fill: #6a5f27; stroke-width: 0px;"/>
      <rect x="184.65" y="76.96" width="4.27" height="4.27" style="fill: #6a5f27; stroke-width: 0px;"/>
      <rect x="190.28" y="76.96" width="4.27" height="4.27" style="fill: #6a5f27; stroke-width: 0px;"/>
      <polyline points="205.99 3.46 205.99 23.21 229.19 23.21 229.19 3.46" style="fill: none; stroke: #211e1e; stroke-miterlimit: 10; stroke-width: .18px;"/>
      <polyline points="36.3 5.01 36.3 24.76 59.5 24.76 59.5 5.01" style="fill: none; stroke: #211e1e; stroke-miterlimit: 10; stroke-width: .18px;"/>
      <polyline points="205.3 130.87 205.3 111.11 228.5 111.11 228.5 130.87" style="fill: none; stroke: #211e1e; stroke-miterlimit: 10; stroke-width: .18px;"/>
      <polyline points="36.3 132.37 36.3 112.61 59.5 112.61 59.5 132.37" style="fill: none; stroke: #211e1e; stroke-miterlimit: 10; stroke-width: .18px;"/>
      <line x1="59.5" y1="10.1" x2="205.99" y2="10.1" style="fill: none; stroke: #211e1e; stroke-miterlimit: 10; stroke-width: .18px;"/>
      <line x1="205.3" y1="125.95" x2="59.5" y2="125.95" style="fill: none; stroke: #211e1e; stroke-miterlimit: 10; stroke-width: .21px;"/>
      <polyline points="228.5 125.95 252.88 125.95 256.45 123.04 255.99 111.11 242.99 103.49 242.76 31.49 256.45 23.21 256.45 12.4 254.15 10.1 229.19 10.1" style="fill: none; stroke: #211e1e; stroke-miterlimit: 10; stroke-width: .18px;"/>
      <polyline points="36.3 10.79 11.13 10.79 8.02 13.43 8.02 19.99 21.48 19.99 21.37 117.17 8.02 117.17 8.02 123.39 10.67 125.95 36.3 125.95" style="fill: none; stroke: #211e1e; stroke-miterlimit: 10; stroke-width: .18px;"/>
      <rect x="118.09" y="18.03" width="4.14" height="51.81" style="fill: #fff; stroke-width: 0px;"/>
      <rect x="151.21" y="18.03" width="4.49" height="99.98" style="fill: #fff; stroke-width: 0px;"/>
      <g>
        <path d="M94.88,17.14c0,.23.05.42.14.58.1.16.27.3.51.43s.6.26,1.05.39c.36.1.68.22.96.35.29.13.53.28.73.45.2.17.36.36.47.58.11.22.16.47.16.75,0,.38-.1.71-.3,1.01-.2.29-.49.53-.85.7-.37.17-.79.25-1.29.25-.54,0-1-.1-1.38-.31-.38-.21-.67-.47-.87-.81s-.3-.68-.3-1.06h.96c0,.27.06.51.17.72.11.21.29.38.52.5.23.12.53.18.89.18.34,0,.61-.05.83-.15.22-.1.38-.24.49-.42.11-.17.16-.37.16-.6,0-.2-.06-.38-.17-.54-.12-.16-.3-.3-.54-.42-.25-.12-.57-.24-.96-.36-.54-.15-.99-.33-1.34-.53-.35-.2-.61-.44-.77-.71-.17-.27-.25-.6-.25-.97s.1-.73.31-1.02c.21-.29.5-.51.88-.67.38-.16.82-.24,1.32-.24.33,0,.66.05.98.14s.61.23.88.42.47.41.63.68c.16.27.23.59.23.95h-.96c0-.25-.05-.46-.14-.64-.1-.18-.23-.32-.39-.44-.17-.12-.35-.2-.56-.25-.21-.05-.43-.08-.66-.08-.33,0-.61.05-.84.14-.23.09-.4.23-.52.4-.12.17-.18.37-.18.61Z" style="fill: #211e1e; stroke-width: 0px;"/>
        <path d="M87.73,21.74h5.56v.78h-5.56v-.78ZM90.04,15.32h.95v7.2h-.95v-7.2Z" style="fill: #211e1e; stroke-width: 0px;"/>
        <path d="M84.95,21.89v.63s-.62,0-.62,0l-2.75-7.2h.98l2.39,6.56ZM82.69,17.21h4.05v.78h-4.05v-.78ZM86.94,15.32h.99l-2.75,7.2h-.63v-.63s2.39-6.56,2.39-6.56Z" style="fill: #211e1e; stroke-width: 0px;"/>
        <path d="M76.24,21.74h5.56v.78h-5.56v-.78ZM78.55,15.32h.95v7.2h-.95v-7.2Z" style="fill: #211e1e; stroke-width: 0px;"/>
        <path d="M70.1,22.52v-4.87c0-.54.12-.99.36-1.35.24-.36.56-.63.96-.81.4-.18.83-.27,1.29-.27s.93.09,1.32.27c.39.18.71.45.93.81.23.36.34.81.34,1.35v4.87h-.95v-4.87c0-.38-.07-.69-.21-.93-.14-.24-.33-.43-.58-.55-.25-.12-.54-.18-.86-.18s-.62.06-.87.18c-.25.12-.44.3-.58.55s-.21.55-.21.93v4.87h-.96Z" style="fill: #211e1e; stroke-width: 0px;"/>
        <path d="M64.78,17.14c0,.23.05.42.14.58.1.16.27.3.51.43s.6.26,1.05.39c.36.1.68.22.96.35.29.13.53.28.73.45.2.17.36.36.47.58.11.22.16.47.16.75,0,.38-.1.71-.3,1.01-.2.29-.49.53-.85.7-.37.17-.79.25-1.29.25-.54,0-1-.1-1.38-.31-.38-.21-.67-.47-.87-.81s-.3-.68-.3-1.06h.96c0,.27.06.51.17.72.11.21.29.38.52.5.23.12.53.18.89.18.34,0,.61-.05.83-.15.22-.1.38-.24.49-.42.11-.17.16-.37.16-.6,0-.2-.06-.38-.17-.54-.12-.16-.3-.3-.54-.42-.25-.12-.57-.24-.96-.36-.54-.15-.99-.33-1.34-.53-.35-.2-.61-.44-.77-.71-.17-.27-.25-.6-.25-.97s.1-.73.31-1.02c.21-.29.5-.51.88-.67.38-.16.82-.24,1.32-.24.33,0,.66.05.98.14s.61.23.88.42.47.41.63.68c.16.27.23.59.23.95h-.96c0-.25-.05-.46-.14-.64-.1-.18-.23-.32-.39-.44-.17-.12-.35-.2-.56-.25-.21-.05-.43-.08-.66-.08-.33,0-.61.05-.84.14-.23.09-.4.23-.52.4-.12.17-.18.37-.18.61Z" style="fill: #211e1e; stroke-width: 0px;"/>
      </g>
      <g>
        <path d="M65.34,108.83l.13,4.38v2.81h-.95v-7.2h.82ZM65.75,108.83l2.35,5.88,2.35-5.88h.93l-2.92,7.2h-.73l-2.92-7.2h.93ZM71.68,108.83v7.2h-.95v-2.81l.13-4.38h.82Z" style="fill: #211e1e; stroke-width: 0px;"/>
        <path d="M78.9,112.66c0,.72-.12,1.34-.36,1.85-.24.52-.57.92-1,1.19s-.94.42-1.53.42-1.07-.14-1.51-.42c-.44-.28-.78-.68-1.03-1.19s-.37-1.13-.37-1.85v-.46c0-.72.12-1.34.37-1.86s.59-.92,1.02-1.2.94-.42,1.5-.42,1.1.14,1.53.42c.43.28.77.68,1.01,1.2s.36,1.14.36,1.86v.46ZM77.95,112.19c0-.57-.08-1.06-.23-1.45-.15-.39-.38-.69-.67-.9s-.64-.31-1.05-.31-.73.1-1.03.31c-.29.2-.52.5-.68.9-.16.39-.24.88-.24,1.45v.47c0,.58.08,1.06.24,1.46.16.4.39.7.68.9.29.2.64.31,1.03.31s.76-.1,1.05-.31c.29-.2.51-.5.66-.9.15-.4.23-.88.23-1.46v-.47Z" style="fill: #211e1e; stroke-width: 0px;"/>
        <path d="M81.28,116.02h-.96v-7.2h.96v7.2ZM80.77,116.02v-.77h1.5c.51,0,.94-.11,1.28-.32.34-.22.6-.52.77-.91.17-.39.26-.85.26-1.38v-.44c0-.55-.09-1.02-.26-1.4-.17-.39-.43-.68-.76-.88-.33-.2-.74-.31-1.21-.31h-1.62v-.78h1.62c.63,0,1.19.14,1.66.41.48.28.85.67,1.11,1.17s.4,1.1.4,1.8v.43c0,.7-.13,1.29-.4,1.8-.27.5-.64.89-1.13,1.17s-1.06.41-1.73.41h-1.5Z" style="fill: #211e1e; stroke-width: 0px;"/>
        <path d="M87.92,116.02h-.96v-7.2h.96v7.2ZM91.49,109.6h-3.75v-.78h3.75v.78ZM91.03,112.69h-3.3v-.77h3.3v.77ZM91.54,116.02h-3.8v-.77h3.8v.77Z" style="fill: #211e1e; stroke-width: 0px;"/>
      </g>
      <g>
        <path d="M230.49,38.46v-.99l7.2,2.75v.63h-.63s-6.56-2.39-6.56-2.39ZM237.05,40.44h.63s0,.62,0,.62l-7.2,2.75v-.98l6.56-2.39ZM232.37,42.71v-4.05h.78v4.05h-.78Z" style="fill: #211e1e; stroke-width: 0px;"/>
        <path d="M233.86,65.61h.76s0,1.64,0,1.64c0,.41.1.74.31.99s.49.38.86.38c.39,0,.68-.11.86-.34s.27-.58.27-1.05v-1.4h-6.42v-.96h7.2v2.36c0,.73-.15,1.31-.46,1.72s-.79.62-1.46.62c-.3,0-.56-.08-.8-.23-.24-.15-.43-.36-.58-.64-.15-.27-.25-.59-.29-.95l-.23-.34v-1.82ZM230.49,65.23l.77.55v1.61c0,.45.12.8.35,1.05.23.25.55.37.94.37.27,0,.5-.05.69-.14s.35-.24.45-.44c.11-.2.16-.46.16-.79v-1.36h.76v1.87l-.28.2c-.03.35-.13.64-.29.88-.16.24-.38.42-.63.55-.26.13-.54.19-.85.19-.67,0-1.19-.22-1.54-.65s-.53-1.01-.53-1.73v-2.15Z" style="fill: #211e1e; stroke-width: 0px;"/>
        <path d="M232.77,96.55c-.45-.05-.86-.18-1.22-.39-.36-.21-.65-.51-.85-.89-.21-.39-.31-.87-.31-1.45s.14-1.06.41-1.48c.28-.42.66-.75,1.16-.98s1.09-.35,1.75-.35h.73c.67,0,1.26.12,1.76.35s.89.57,1.16,1.01c.28.43.42.95.42,1.54,0,.54-.1,1-.3,1.38-.2.38-.49.67-.85.88-.36.21-.78.34-1.25.39v-.96c.5-.07.9-.23,1.19-.48.29-.25.44-.65.44-1.2,0-.42-.11-.78-.32-1.07-.21-.29-.51-.5-.89-.65-.38-.15-.83-.22-1.34-.22h-.74c-.47,0-.9.07-1.29.2-.39.13-.7.33-.93.61-.23.27-.35.62-.35,1.04s.06.73.19.97c.13.24.31.42.55.54.24.12.53.21.87.26v.96Z" style="fill: #211e1e; stroke-width: 0px;"/>
      </g>
      <g>
        <path d="M27.62,45.19l-1.45.35v-.99l9.59-3.54v1.39l-8.14,2.79ZM35.76,47.84v1.39l-9.59-3.55v-.99l1.45.33,8.14,2.82Z" style="fill: #211e1e; stroke-width: 0px;"/>
        <path d="M27.13,53.83v-1.23h6.98v1.23h-6.98ZM30.17,56.5v-6.58h1.14v6.58h-1.14Z" style="fill: #211e1e; stroke-width: 0px;"/>
      </g>
      <g>
        <path d="M27.62,83.76l-1.45.35v-.99l9.59-3.54v1.39l-8.14,2.79ZM35.76,86.41v1.39l-9.59-3.55v-.99l1.45.33,8.14,2.82Z" style="fill: #211e1e; stroke-width: 0px;"/>
        <path d="M29.75,90.49v-3.22h.99v3.22h-.99Z" style="fill: #211e1e; stroke-width: 0px;"/>
      </g>
      <polyline points="35.74 10.79 11.07 10.79 8.02 13.43 8.02 19.99 21.22 19.99 21.1 117.17 8.02 117.17 8.02 123.39 10.62 125.95 35.74 125.95" style="fill: #e5e5e5; stroke-width: 0px;"/>
      <polyline points="35.74 10.79 11.07 10.79 8.02 13.43 8.02 19.99 21.22 19.99 21.1 117.17 8.02 117.17 8.02 123.39 10.62 125.95 35.74 125.95" style="fill: none; stroke: #211e1e; stroke-miterlimit: 10; stroke-width: .18px;"/>
      <g>
        <path d="M27.62,45.19l-1.45.35v-.99l9.59-3.54v1.39l-8.14,2.79ZM35.76,47.84v1.39l-9.59-3.55v-.99l1.45.33,8.14,2.82Z" style="fill: #211e1e; stroke-width: 0px;"/>
        <path d="M27.13,53.83v-1.23h6.98v1.23h-6.98ZM30.17,56.5v-6.58h1.14v6.58h-1.14Z" style="fill: #211e1e; stroke-width: 0px;"/>
      </g>
      <g>
        <path d="M27.62,83.76l-1.45.35v-.99l9.59-3.54v1.39l-8.14,2.79ZM35.76,86.41v1.39l-9.59-3.55v-.99l1.45.33,8.14,2.82Z" style="fill: #211e1e; stroke-width: 0px;"/>
        <path d="M29.75,90.49v-3.22h.99v3.22h-.99Z" style="fill: #211e1e; stroke-width: 0px;"/>
      </g>
    </g>
  </g>
</svg>