<?xml version="1.0" encoding="UTF-8"?>
<svg id="Layer_2" data-name="Layer 2" xmlns="http://www.w3.org/2000/svg" width="134.04" height="107.66" viewBox="0 0 134.04 107.66">
  <g id="Layer_1-2" data-name="Layer 1">
    <g>
      <polygon points="17.61 104.23 19.89 107.28 29.32 107.28 29.32 104.23 17.61 104.23" style="fill: #333132; stroke: #2d2a2b; stroke-linejoin: round; stroke-width: .75px;"/>
      <polygon points="116.78 104.23 114.44 107.28 104.72 107.28 104.72 104.23 116.78 104.23" style="fill: #333132; stroke: #2d2a2b; stroke-linejoin: round; stroke-width: .75px;"/>
      <polygon points="34.57 1.36 34.57 8.57 35.09 9.01 49.33 9.01 49.76 8.66 49.76 1.36 48.5 0 35.87 0 34.57 1.36" style="fill: #808285; stroke-width: 0px;"/>
      <rect x="36.01" y="9.01" width="12.28" height="1.57" style="fill: #6d6e71; stroke-width: 0px;"/>
      <g>
        <polygon points="25.13 14.25 26.79 10.75 57.46 10.67 59.2 14.25 25.13 14.25" style="fill: #363436; stroke-width: 0px;"/>
        <path d="M59.44,14.4H24.89l1.8-3.8,30.86-.09,1.89,3.88ZM25.37,14.1h33.59l-1.6-3.28-30.48.09-1.52,3.19Z" style="fill: #333132; stroke-width: 0px;"/>
      </g>
      <g>
        <polygon points="19.1 22.18 22.07 13.8 99.48 13.71 111.68 23.32 19.1 22.18" style="fill: #3e3e3f; stroke-width: 0px;"/>
        <path d="M112.12,23.48h-.44s-92.79-1.14-92.79-1.14l3.08-8.69h.11l77.46-.09.04.03,12.55,9.89ZM19.31,22.04l91.92,1.13-11.81-9.3-77.25.09-2.86,8.09Z" style="fill: #3b3b3c; stroke-width: 0px;"/>
      </g>
      <g>
        <path d="M17.88,23.67l-.09,11.36H.23s0,6.99,0,6.99l17.56-.44-.17,62.65h11.71s0,3.06,0,3.06h75.4v-3.06h11.97s-.35-62.65-.35-62.65l17.47.44v-6.99h-17.47s0-10.88,0-10.88c-24.87-4.89-49.28-6.73-74.18-6.95-4.89-.05-14.55,1.27-21.76,4.37-1.13.52-2.53,1.22-2.53,2.1Z" style="fill: #414042; stroke-width: 0px;"/>
        <path d="M104.72,107.51H29.32c-.13,0-.23-.1-.23-.23v-2.83h-11.48c-.06,0-.12-.02-.16-.07s-.07-.1-.07-.16l.17-62.41-17.33.43c-.08,0-.12-.02-.16-.06s-.07-.1-.07-.16v-6.99c0-.06.02-.12.07-.16s.1-.07.16-.07h17.34s.09-11.13.09-11.13c0-.99,1.38-1.71,2.67-2.3,7.62-3.28,17.45-4.44,21.85-4.39,27.78.24,51.36,2.45,74.22,6.95.11.02.18.11.18.22v10.65h17.25c.13,0,.23.1.23.23v6.99c0,.06-.02.12-.07.16s-.08.07-.16.06l-17.24-.43.35,62.41c0,.06-.02.12-.07.16-.04.04-.1.07-.16.07h-11.74v2.83c0,.13-.1.23-.23.23ZM29.55,107.06h74.95v-2.83c0-.13.1-.23.23-.23h11.74l-.35-62.42c0-.06.02-.12.07-.16.04-.04.09-.06.16-.06l17.24.43v-6.53h-17.25c-.13,0-.23-.1-.23-.23v-10.69c-22.77-4.47-46.28-6.66-73.95-6.91-4.38-.04-14.11,1.1-21.66,4.35-.77.36-2.4,1.1-2.4,1.89h0s-.09,11.36-.09,11.36c0,.12-.1.22-.23.22H.45s0,6.53,0,6.53l17.33-.43c.09,0,.12.02.16.06.04.04.07.1.07.16l-.17,62.42h11.48c.13,0,.23.1.23.23v2.83ZM17.88,23.67h0,0Z" style="fill: #3b3b3c; stroke-width: 0px;"/>
      </g>
      <path d="M21.02,104.44c-.12,0-.21-.1-.21-.21V21.32c0-.12.1-.21.21-.21s.21.1.21.21v82.91c0,.12-.1.21-.21.21Z" style="fill: #3b3b3c; stroke-width: 0px;"/>
      <path d="M113.5,104.44c-.12,0-.21-.1-.21-.21l-.31-80.56c0-.12.09-.21.21-.21h0c.12,0,.21.1.21.21l.31,80.56c0,.12-.09.21-.21.21h0Z" style="fill: #3b3b3c; stroke-width: 0px;"/>
      <line x1="116.56" y1="91.38" x2="17.65" y2="91.38" style="fill: none; stroke: #3b3b3c; stroke-linecap: round; stroke-linejoin: round; stroke-width: .71px;"/>
      <path d="M116.34,41.79H17.79c-.12,0-.21-.1-.21-.21s.1-.21.21-.21h98.56c.12,0,.21.1.21.21s-.1.21-.21.21Z" style="fill: #3b3b3c; stroke-width: 0px;"/>
      <line x1="42.17" y1="17.21" x2="42.18" y2="13.76" style="fill: none; stroke: #3b3b3c; stroke-linejoin: round; stroke-width: .71px;"/>
      <rect x="24.18" y="45.28" width="85.96" height="42.4" rx="7.2" ry="7.2" style="fill: #333132; stroke-width: 0px;"/>
      <g>
        <path d="M70.48,49.48s.04.1.07.14c.73,1.27,1.47,2.53,2.2,3.8.03.05.07.11.09.16-.03.04-.06.03-.09.03-.28,0-.56,0-.83,0-1.21,0-2.42,0-3.63,0-.06,0-.12,0-.18,0-.11.18-.22.37-.32.55-.1.18-.21.36-.31.54-.11.18-.21.37-.32.56-.1.18-.21.36-.31.54-.1.18-.22.36-.31.55.02.01.02.02.03.02,0,0,0,0,.02,0,.01,0,.02,0,.03,0,.02,0,.03,0,.05,0,2.59,0,5.19,0,7.78,0,0,0,.01,0,.02,0,.05.03.07.09.1.14.46.79.91,1.57,1.36,2.36.09.16.18.31.27.47.02.03.03.06.05.09-.02.04-.05.03-.07.03-.05,0-.11,0-.16,0-3.68,0-7.37,0-11.05,0h-.2s-.02.01-.02.01c0,0,0,0-.01.01-.02.03-.04.06-.06.09-.5.87-1,1.73-1.5,2.6,0,0,0,.01,0,.02,0,0,0,0,0,.01,0,0,0,0,0,.01,0,0,.01,0,.02,0,.02,0,.04,0,.06,0,4.86,0,9.72,0,14.58,0,0,0,.01,0,.02,0,0,0,.01,0,.01,0,0,0,0,0,.01.01.03.04.05.08.08.12.75,1.3,1.51,2.61,2.26,3.91,0,0,0,.02.01.03,0,0,0,.01,0,.02-.01.03-.04.02-.07.02-.05,0-.1,0-.14,0-7.94,0-15.87,0-23.81,0h-.19c-.03-.06,0-.09.03-.12.22-.38.43-.75.65-1.12,2.4-4.16,4.8-8.31,7.21-12.47.03-.05.05-.09.08-.14,0-.06-.04-.11-.07-.16-.52-.9-1.04-1.8-1.56-2.71-.03-.05-.05-.11-.08-.17,2.75,0,5.5,0,8.25,0Z" style="fill: #fff; stroke-width: 0px;"/>
        <path d="M58.48,49.48c.17.29.33.58.5.87.38.67.77,1.33,1.15,2,.03.05.05.09.07.13,0,.02,0,.02,0,.03,0,0,0,.01,0,.02-1.41,2.44-2.82,4.88-4.23,7.33-.02.04-.04.07-.07.11,0,0-.01.02-.03.03h-2.55c-.03.06,0,.09.03.12.25.43.5.86.74,1.29.14.24.27.47.41.71.03.05.05.09.08.14-.79,1.37-1.58,2.73-2.37,4.09-.07,0-.07-.05-.09-.09-.33-.56-.65-1.13-.98-1.69-1.44-2.49-2.88-4.98-4.32-7.48-.03-.05-.06-.1-.09-.15-.06.04-.07.09-.1.13-.65,1.13-1.3,2.26-1.96,3.38-1.11,1.91-2.21,3.83-3.32,5.74-.03.05-.06.1-.09.15-.06-.05-.09-.11-.12-.16-.49-.85-.98-1.7-1.48-2.55-.24-.41-.47-.81-.71-1.22-.02-.04-.05-.08-.07-.12-.01-.01-.04-.02-.06-.02,0-.01,0-.02,0-.03.07-.03.09-.09.12-.15.6-1.03,1.2-2.07,1.79-3.1,1.17-2.02,2.34-4.05,3.51-6.07.03-.05.05-.09.07-.14-.03-.05-.05-.09-.07-.13-.52-.9-1.04-1.79-1.55-2.69-.07-.12-.14-.25-.22-.37-.02-.03-.04-.07-.02-.11,5.34,0,10.67,0,16.01,0ZM52.91,56.89c.03-.05.06-.1.09-.14.22-.38.44-.77.67-1.15.35-.61.71-1.22,1.06-1.83.03-.04.07-.08.06-.14h-6.13c-.03.05-.06.1-.09.15-.36.61-.71,1.23-1.07,1.84-.22.38-.44.77-.66,1.15-.02.03-.06.07-.03.12h6.12Z" style="fill: #fff; stroke-width: 0px;"/>
        <path d="M93.72,49.51c-.29.5-.58,1.01-.87,1.51-2.92,5.05-5.84,10.11-8.76,15.16-.03.06-.06.11-.1.17-.06-.02-.07-.07-.09-.11-.42-.73-.85-1.46-1.27-2.19-2.77-4.79-5.54-9.59-8.31-14.38-.03-.06-.09-.11-.08-.19,1.58,0,3.17,0,4.75,0,.03.05.05.09.08.14,1.03,1.79,2.07,3.58,3.1,5.37.57.99,1.14,1.98,1.72,2.97.03.05.05.1.1.14.03-.05.06-.1.09-.14.54-.93,1.08-1.87,1.62-2.8,1.09-1.89,2.18-3.78,3.28-5.67,1.57,0,3.14,0,4.72,0,.02,0,.02,0,.03.03Z" style="fill: #fff; stroke-width: 0px;"/>
        <path d="M49.66,74.32c-.05-.05-.13-.06-.19-.06-.63-.09-1.31-.53-1.49-1.42-.13-.64.03-1.21.51-1.66.22-.2.48-.34.76-.42.64-.17,1.23-.07,1.76.33.35.26.57.61.64,1.04.15.95-.34,1.9-1.42,2.13-.1.02-.2.02-.29.08h-.29ZM48.84,72.45c0,.5.37,1,.98,1,.62,0,.98-.51.97-1.04,0-.49-.47-.91-1-.89-.49.01-.97.43-.94.94Z" style="fill: #e45333; stroke-width: 0px;"/>
        <path d="M64.16,74.32c-.06-.05-.14-.05-.21-.07-.74-.11-1.35-.66-1.49-1.45-.05-.28-.05-.56.03-.84.14-.48.45-.83.89-1.06.32-.17.66-.25,1.02-.22.59.04,1.08.27,1.45.75.27.36.37.77.32,1.22-.03.24-.09.47-.2.69-.28.52-.71.81-1.28.92-.08.01-.16.01-.23.07h-.29ZM65.27,72.44c.02-.5-.46-.93-.97-.93-.51,0-.97.41-.98.9,0,.51.35,1.02.96,1.03.6,0,.98-.48.98-1Z" style="fill: #e45333; stroke-width: 0px;"/>
        <path d="M55.84,74.16c-.02-.16-.02-3.2,0-3.34.03,0,.07-.02.1-.02.41,0,.82,0,1.23,0,.13,0,.27.02.39.06.28.1.44.29.49.58.03.14.03.29,0,.43-.03.18-.12.33-.27.44-.02.01-.04.03-.07.06.05.02.08.03.12.04.32.08.49.29.54.6.02.14.03.27,0,.41-.05.27-.19.46-.42.59-.16.09-.33.14-.5.15-.17.01-.34.02-.51.02-.31,0-.62,0-.93,0-.06,0-.12.01-.18-.02ZM57.07,72.1s.04-.02.06-.03c.13-.09.18-.21.15-.35-.03-.14-.12-.22-.28-.25-.06,0-.13-.02-.19-.02-.04,0-.07,0-.11.01-.03.06-.02.12-.02.18,0,.46,0,.93,0,1.39,0,.12,0,.25,0,.37,0,.04.01.07.02.1.11.03.22.02.33,0,.09-.01.19-.03.28-.06.11-.04.18-.11.2-.23.04-.21-.04-.37-.24-.42-.04,0-.07-.02-.11-.03-.03,0-.06-.01-.09-.02-.03-.13-.03-.46-.01-.66Z" style="fill: #e45333; stroke-width: 0px;"/>
        <path d="M42.56,72.3c.06-.02.1-.04.14-.06.11-.05.17-.14.19-.26.05-.25-.06-.43-.31-.5-.12-.03-.25-.05-.38-.02,0,.03-.02.06-.02.09,0,.05,0,.11,0,.16,0,.75,0,1.51,0,2.26,0,.06,0,.13-.02.19-.03,0-.05.02-.08.02-.24,0-.47,0-.71,0-.01,0-.03-.01-.05-.02,0-.02-.01-.04-.01-.06,0-1.09,0-2.18,0-3.27.04,0,.06-.02.09-.02.47,0,.94,0,1.41,0,.12,0,.23.03.34.07.38.14.59.41.63.81.02.18,0,.36-.06.54-.1.26-.27.44-.54.53-.04.01-.08.03-.12.05.07.13.17.23.25.34.09.12.18.23.26.34.08.11.17.22.25.33.08.11.17.22.26.34-.04.01-.06.03-.08.03-.29,0-.59,0-.88,0-.07,0-.11-.03-.14-.08-.13-.21-.27-.42-.4-.64-.03-.05-.05-.09-.05-.15,0-.32,0-.63,0-.95,0-.02,0-.04.01-.07Z" style="fill: #e45333; stroke-width: 0px;"/>
        <path d="M90.47,70.96c.02.16.02.67,0,.8-.04.02-.07-.02-.1-.04-.13-.1-.28-.18-.43-.24-.13-.05-.27-.06-.41-.06-.08,0-.16.03-.22.08-.15.11-.16.29-.02.4.06.05.14.08.21.11.1.04.21.07.32.1.14.04.28.1.41.17.19.12.33.27.38.49.07.33.03.66-.14.96-.09.15-.22.26-.38.34-.19.1-.39.16-.61.17-.41.03-.78-.06-1.14-.26-.01,0-.03-.02-.04-.02,0,0-.02-.01-.02-.02-.02-.11-.03-.58-.01-.81,0-.02,0-.04.02-.07.03.02.05.03.07.05.07.06.14.12.21.17.24.17.5.26.79.24.08,0,.16-.03.23-.07.21-.13.22-.38.02-.51-.07-.05-.15-.08-.23-.11-.13-.05-.27-.08-.4-.12-.11-.04-.21-.08-.31-.13-.21-.11-.33-.3-.36-.53-.03-.19-.02-.37.03-.56.11-.4.38-.64.78-.75.19-.05.38-.05.57-.03.24.03.47.09.69.19.03.02.06.04.1.06Z" style="fill: #e45333; stroke-width: 0px;"/>
        <path d="M84.02,70.88v.96s-.06-.02-.08-.04c-.18-.17-.4-.25-.64-.26-.49-.02-.86.29-.94.76-.03.18-.02.35.03.52.11.31.33.5.65.58.31.07.59,0,.85-.19.04-.03.07-.06.11-.08.01.01.02.02.02.03.01.26,0,.82-.01.95-.17.07-.35.12-.53.14-.57.06-1.07-.1-1.49-.48-.29-.26-.46-.58-.52-.97-.05-.29-.03-.57.06-.84.22-.67.68-1.07,1.36-1.22.37-.08.73-.03,1.08.11.02,0,.04.02.06.04Z" style="fill: #e45333; stroke-width: 0px;"/>
        <path d="M70.06,70.81c.15-.02,2.15-.02,2.3,0,.04.11.02.23.02.34,0,.12.01.23-.01.36-.12.03-.23,0-.35.01-.11,0-.22,0-.34,0,0,.04-.02.08-.02.11,0,.05,0,.1,0,.14,0,.73,0,1.45,0,2.18,0,.06,0,.13,0,.19-.04,0-.07.02-.1.02-.28.01-.62,0-.74-.02-.03-.04-.02-.1-.02-.15,0-.41,0-.82,0-1.23,0-.35,0-.7,0-1.06,0-.06,0-.11,0-.18-.24-.03-.47,0-.7-.02-.05-.11-.02-.23-.03-.35,0-.12-.01-.23.01-.36Z" style="fill: #e45333; stroke-width: 0px;"/>
        <path d="M76.44,70.81c.15-.02.67-.02.83,0,0,.03.02.05.03.08,0,.05,0,.1,0,.14,0,.97,0,1.94,0,2.91,0,.07.01.14-.02.21-.02,0-.04.02-.06.02-.23,0-.47,0-.71,0-.02,0-.04,0-.07-.02,0-.05,0-.09,0-.14,0-.33,0-.66,0-.99,0-.68,0-1.36,0-2.03,0-.06,0-.12,0-.18Z" style="fill: #e45333; stroke-width: 0px;"/>
      </g>
      <g>
        <path d="M41.03,81.97c0-.18-.06-.31-.19-.41-.12-.1-.35-.19-.68-.29-.33-.1-.58-.21-.78-.33-.37-.23-.55-.53-.55-.9,0-.33.13-.59.4-.8s.61-.32,1.03-.32c.28,0,.53.05.75.16.22.1.39.25.52.44s.19.4.19.64h-.7c0-.21-.07-.38-.2-.5s-.32-.18-.57-.18c-.23,0-.41.05-.53.15-.13.1-.19.24-.19.41,0,.15.07.27.21.37.14.1.36.2.68.29.31.09.57.2.76.32s.33.26.42.41c.09.15.13.34.13.54,0,.34-.13.6-.39.8-.26.2-.61.3-1.05.3-.29,0-.56-.05-.81-.16s-.44-.26-.57-.45c-.14-.19-.2-.41-.2-.67h.7c0,.23.08.41.23.53.15.13.37.19.65.19.24,0,.43-.05.55-.15.12-.1.18-.23.18-.39Z" style="fill: #fff; stroke-width: 0px;"/>
        <path d="M43.26,78.97l1.17,3.1,1.16-3.1h.91v4.04h-.7v-1.33l.07-1.78-1.19,3.11h-.5l-1.19-3.11.07,1.78v1.33h-.7v-4.04h.91Z" style="fill: #fff; stroke-width: 0px;"/>
        <path d="M49.64,82.07h-1.56l-.33.94h-.73l1.53-4.04h.63l1.53,4.04h-.73l-.33-.94ZM48.27,81.51h1.17l-.59-1.68-.59,1.68Z" style="fill: #fff; stroke-width: 0px;"/>
        <path d="M52.64,81.46h-.78v1.55h-.7v-4.04h1.42c.47,0,.83.1,1.08.31.25.21.38.51.38.91,0,.27-.07.5-.2.68-.13.18-.31.32-.55.42l.91,1.68v.04h-.75l-.81-1.55ZM51.86,80.89h.72c.24,0,.42-.06.55-.18s.2-.28.2-.49-.06-.38-.18-.5c-.12-.12-.31-.18-.55-.18h-.74v1.35Z" style="fill: #fff; stroke-width: 0px;"/>
        <path d="M57.49,79.54h-1.26v3.47h-.7v-3.47h-1.25v-.57h3.2v.57Z" style="fill: #fff; stroke-width: 0px;"/>
        <path d="M60.75,81.46h-.78v1.55h-.7v-4.04h1.42c.47,0,.83.1,1.08.31.25.21.38.51.38.91,0,.27-.07.5-.2.68-.13.18-.31.32-.55.42l.91,1.68v.04h-.75l-.81-1.55ZM59.97,80.89h.72c.24,0,.42-.06.55-.18s.2-.28.2-.49-.06-.38-.18-.5c-.12-.12-.31-.18-.55-.18h-.74v1.35Z" style="fill: #fff; stroke-width: 0px;"/>
        <path d="M66.03,81.1c0,.4-.07.74-.21,1.04-.14.3-.33.53-.59.69-.25.16-.55.24-.88.24s-.62-.08-.88-.24c-.26-.16-.45-.39-.59-.68-.14-.3-.21-.64-.21-1.02v-.23c0-.39.07-.74.21-1.04.14-.3.34-.53.59-.69.25-.16.55-.24.88-.24s.62.08.88.24.45.39.59.68.21.64.21,1.04v.22ZM65.33,80.89c0-.45-.08-.79-.25-1.03s-.41-.36-.72-.36-.54.12-.71.36c-.17.24-.26.57-.26,1.01v.23c0,.44.09.79.26,1.03.17.24.41.36.72.36s.55-.12.72-.36c.17-.24.25-.58.25-1.04v-.21Z" style="fill: #fff; stroke-width: 0px;"/>
        <path d="M66.73,83.01v-4.04h1.38c.46,0,.8.09,1.04.27s.36.46.36.82c0,.19-.05.35-.15.5-.1.15-.25.26-.44.34.22.06.39.17.51.33s.18.36.18.59c0,.38-.12.67-.36.87-.24.2-.59.31-1.04.31h-1.47ZM67.44,80.67h.69c.22,0,.39-.05.51-.15.12-.1.18-.24.18-.42,0-.2-.06-.34-.17-.43s-.29-.13-.53-.13h-.68v1.13ZM67.44,81.19v1.26h.78c.22,0,.39-.05.52-.16.12-.11.19-.26.19-.46,0-.42-.21-.63-.64-.64h-.84Z" style="fill: #fff; stroke-width: 0px;"/>
        <path d="M73.54,81.1c0,.4-.07.74-.21,1.04-.14.3-.33.53-.59.69-.25.16-.55.24-.88.24s-.62-.08-.88-.24c-.26-.16-.45-.39-.59-.68-.14-.3-.21-.64-.21-1.02v-.23c0-.39.07-.74.21-1.04.14-.3.34-.53.59-.69.25-.16.55-.24.88-.24s.62.08.88.24.45.39.59.68.21.64.21,1.04v.22ZM72.84,80.89c0-.45-.08-.79-.25-1.03s-.41-.36-.72-.36-.54.12-.71.36c-.17.24-.26.57-.26,1.01v.23c0,.44.09.79.26,1.03.17.24.41.36.72.36s.55-.12.72-.36c.17-.24.25-.58.25-1.04v-.21Z" style="fill: #fff; stroke-width: 0px;"/>
        <path d="M76.92,79.54h-1.26v3.47h-.7v-3.47h-1.25v-.57h3.2v.57Z" style="fill: #fff; stroke-width: 0px;"/>
        <path d="M80.81,81.97c0-.18-.06-.31-.19-.41-.12-.1-.35-.19-.68-.29-.33-.1-.58-.21-.78-.33-.37-.23-.55-.53-.55-.9,0-.33.13-.59.4-.8s.61-.32,1.03-.32c.28,0,.53.05.75.16.22.1.39.25.52.44s.19.4.19.64h-.7c0-.21-.07-.38-.2-.5s-.32-.18-.57-.18c-.23,0-.41.05-.53.15-.13.1-.19.24-.19.41,0,.15.07.27.21.37.14.1.36.2.68.29.31.09.57.2.76.32s.33.26.42.41c.09.15.13.34.13.54,0,.34-.13.6-.39.8-.26.2-.61.3-1.05.3-.29,0-.56-.05-.81-.16s-.44-.26-.57-.45c-.14-.19-.2-.41-.2-.67h.7c0,.23.08.41.23.53.15.13.37.19.65.19.24,0,.43-.05.55-.15.12-.1.18-.23.18-.39Z" style="fill: #fff; stroke-width: 0px;"/>
        <path d="M84.49,81.21h-1.66v1.24h1.94v.56h-2.64v-4.04h2.62v.57h-1.92v1.12h1.66v.55Z" style="fill: #fff; stroke-width: 0px;"/>
        <path d="M86.83,81.46h-.78v1.55h-.7v-4.04h1.42c.47,0,.83.1,1.08.31.25.21.38.51.38.91,0,.27-.07.5-.2.68-.13.18-.31.32-.55.42l.91,1.68v.04h-.75l-.81-1.55ZM86.05,80.89h.72c.24,0,.42-.06.55-.18s.2-.28.2-.49-.06-.38-.18-.5c-.12-.12-.31-.18-.55-.18h-.74v1.35Z" style="fill: #fff; stroke-width: 0px;"/>
        <path d="M90.26,82.13l1.03-3.16h.77l-1.45,4.04h-.68l-1.45-4.04h.77l1.02,3.16Z" style="fill: #fff; stroke-width: 0px;"/>
        <path d="M95.7,81.1c0,.4-.07.74-.21,1.04-.14.3-.33.53-.59.69-.25.16-.55.24-.88.24s-.62-.08-.88-.24c-.26-.16-.45-.39-.59-.68-.14-.3-.21-.64-.21-1.02v-.23c0-.39.07-.74.21-1.04.14-.3.34-.53.59-.69.25-.16.55-.24.88-.24s.62.08.88.24.45.39.59.68.21.64.21,1.04v.22ZM95,80.89c0-.45-.08-.79-.25-1.03s-.41-.36-.72-.36-.54.12-.71.36c-.17.24-.26.57-.26,1.01v.23c0,.44.09.79.26,1.03.17.24.41.36.72.36s.55-.12.72-.36c.17-.24.25-.58.25-1.04v-.21Z" style="fill: #fff; stroke-width: 0px;"/>
      </g>
    </g>
  </g>
</svg>