<?xml version="1.0" encoding="UTF-8"?>
<svg id="Layer_2" data-name="Layer 2" xmlns="http://www.w3.org/2000/svg" width="390.05" height="145.74" viewBox="0 0 390.05 145.74">
  <g id="Layer_1-2" data-name="Layer 1">
    <g>
      <path d="M39.64,1.66l-2.02,2.02c-.51.43-.71,1.02-.64,1.76v14.21l1.49,1.49v63.45l-1.49,1.49v11.18c-.07.6-.28,1.14-.64,1.6l-2.13,2.02c-.33.39-.86.64-1.6.75h-16.29c-.6-.07-1.14.14-1.6.64l-13.09,12.99c-.35.46-.57.99-.64,1.6v12.56c.07.6.28,1.14.64,1.6l13.09,12.99c.46.46.99.71,1.6.75h357.38c.75-.04,1.28-.28,1.6-.75l13.09-12.99c.5-.46.71-.99.64-1.6v-12.56c.07-.6-.14-1.14-.64-1.6l-13.09-12.99c-.41-.56-.96-.72-1.6-.64h-16.29c-.6-.04-1.14-.28-1.6-.75l-2.02-2.02c-.48-.42-.68-.95-.64-1.6v-11.18l-1.6-1.49V21.14l1.6-1.49V5.28c-.08-.66-.31-1.18-.64-1.6l-2.13-2.02c-.4-.49-.96-.65-1.6-.64H41.24c-.54-.1-1.07.16-1.6.64ZM378.09,123.32c0,5.8-4.7,10.49-10.49,10.49s-10.49-4.7-10.49-10.49,4.7-10.49,10.49-10.49,10.49,4.7,10.49,10.49ZM33.05,123.32c0,5.8-4.7,10.49-10.49,10.49s-10.49-4.7-10.49-10.49,4.7-10.49,10.49-10.49,10.49,4.7,10.49,10.49Z" style="fill: #1a1a1a; stroke: #383739; stroke-miterlimit: 10; stroke-width: 2px;"/>
      <polygon points="348.27 94.6 349.86 93.96 351.99 91.94 352.63 90.34 351.46 89.06 351.46 6.56 350.82 5.38 348.8 3.36 347.1 2.62 42.94 2.62 41.35 3.36 39.33 5.38 38.69 6.98 38.69 89.06 37.41 90.34 38.15 91.94 40.18 93.9 41.83 94.6 44.65 94.6 348.27 94.6" style="fill: #212121; stroke-width: 0px;"/>
      <polygon points="340.5 144.74 342.63 143.57 344.75 141.33 345.5 139.74 345.5 94.6 344.75 94.17 266.08 93.75 264.48 93.11 262.36 90.98 261.72 89.38 261.72 6.66 262.36 5.07 264.18 3.15 265.98 2.3 265.98 1.02 123.91 1 124.07 2.3 125.66 2.94 127.79 5.07 128.32 6.66 128.32 89.38 127.69 90.98 125.66 93.11 124.07 93.75 45.39 94.17 44.65 94.6 44.65 139.74 45.29 141.33 47.42 143.57 48.59 144.21 48.37 144.74 340.5 144.74" style="fill: #212121; stroke: #010101; stroke-miterlimit: 10;"/>
      <polygon points="38.47 84.16 36.98 82.67 36.98 23.06 38.47 21.46 38.47 84.16" style="fill: #121212; stroke-width: 0px;"/>
      <polygon points="351.57 21.46 353.16 23.06 353.16 82.67 351.57 84.16 351.57 21.46" style="fill: none; stroke: #010101; stroke-linecap: round; stroke-linejoin: round; stroke-width: .8px;"/>
      <rect x="283.02" y="98.51" width="59.7" height="42.01" rx="1.23" ry="1.23" transform="translate(625.74 239.04) rotate(180)" style="fill: #1a1a1a; stroke-width: 0px;"/>
      <g>
        <rect x="286.2" y="115.95" width="53.26" height="15.76" transform="translate(625.67 247.66) rotate(180)" style="fill: #ef413e; stroke-width: 0px;"/>
        <rect x="286.2" y="131.52" width="53.26" height="6.62" transform="translate(625.67 269.66) rotate(180)" style="fill: #d93b37; stroke-width: 0px;"/>
        <path d="M324.69,130.27c7.32-1.5,7.95-10.8-.13-12.76-2.07-.96-2.75.91-4.28,2.84l-5.23.15c-2.84,1.2-3.19,5.21-.1,6.79h5.02c1.99,2.27,2.21,3.57,4.73,2.99Z" style="fill: #a7a9ac; stroke-width: 0px;"/>
        <polygon points="307.35 131.69 307.35 120.03 295.69 120.03 307.35 131.69" style="fill: #d93b37; stroke-width: 0px;"/>
        <polygon points="295.06 120.66 306.09 131.69 295.06 131.69 295.06 120.66" style="fill: #d93b37; stroke-width: 0px;"/>
        <rect x="286.2" y="100.33" width="53.26" height="15.76" transform="translate(625.67 216.42) rotate(180)" style="fill: #323031; stroke-width: 0px;"/>
        <path d="M324.69,114.67c7.32-1.5,7.95-10.8-.13-12.76-2.07-.96-2.75.91-4.28,2.84l-5.23.15c-2.84,1.2-3.19,5.21-.1,6.79h5.02c1.99,2.27,2.21,3.57,4.73,2.99Z" style="fill: #a7a9ac; stroke-width: 0px;"/>
        <polygon points="307.35 116.09 307.35 104.43 295.69 104.43 307.35 116.09" style="fill: #2c292a; stroke-width: 0px;"/>
        <polygon points="295.06 105.06 306.09 116.09 295.06 116.09 295.06 105.06" style="fill: #2c292a; stroke-width: 0px;"/>
      </g>
      <g>
        <path d="M162.03,69.31s.07-.03.1-.05c.93-.54,1.86-1.07,2.78-1.61.04-.02.08-.05.12-.06.03.02.02.05.02.07,0,.2,0,.41,0,.61,0,.89,0,1.77,0,2.66,0,.04,0,.09,0,.13.13.08.27.16.4.24.13.08.26.15.4.23.14.08.27.16.41.23.13.08.26.15.4.23.13.08.27.16.4.23,0-.01.01-.02.01-.02,0,0,0,0,0-.01,0,0,0-.02,0-.02,0-.01,0-.02,0-.04,0-1.9,0-3.8,0-5.7,0,0,0,0,0-.01.02-.04.06-.05.1-.07.58-.33,1.15-.67,1.73-1,.12-.07.23-.13.35-.2.02-.01.05-.02.07-.03.03.01.02.04.02.05,0,.04,0,.08,0,.12,0,2.7,0,5.4,0,8.1v.14s0,.01.01.02c0,0,0,0,0,0,.02.01.05.03.07.04.63.37,1.27.73,1.9,1.1,0,0,0,0,.01,0,0,0,0,0,.01,0,0,0,0,0,0,0,0,0,0,0,0-.01,0-.02,0-.03,0-.05,0-3.56,0-7.12,0-10.68,0,0,0,0,0-.01,0,0,0,0,0-.01,0,0,0,0,0,0,.03-.02.06-.04.09-.06.96-.55,1.91-1.1,2.87-1.66,0,0,.01,0,.02,0,0,0,0,0,.01,0,.02,0,.02.03.02.05,0,.04,0,.07,0,.11,0,5.81,0,11.63,0,17.44v.14s-.06,0-.09-.02c-.27-.16-.55-.32-.82-.48-3.05-1.76-6.09-3.52-9.14-5.28-.03-.02-.07-.04-.1-.06-.05,0-.08.03-.12.05-.66.38-1.32.76-1.98,1.14-.04.02-.08.04-.13.06,0-2.01,0-4.03,0-6.04Z" style="fill: #e8e8e8; stroke-width: 0px;"/>
        <path d="M162.03,78.1c.21-.12.43-.24.64-.37.49-.28.98-.56,1.46-.85.03-.02.07-.04.1-.05.01,0,.01,0,.02,0,0,0,0,0,.01,0,1.79,1.03,3.58,2.07,5.37,3.1.03.02.05.03.08.05,0,0,.01.01.02.02v1.87s.07,0,.09-.02c.32-.18.63-.36.95-.55.17-.1.35-.2.52-.3.03-.02.07-.04.1-.06,1,.58,2,1.16,3,1.73,0,.05-.04.05-.06.07-.41.24-.83.48-1.24.72-1.83,1.06-3.65,2.11-5.48,3.17-.04.02-.07.04-.11.07.03.04.06.05.1.07.83.48,1.65.96,2.48,1.43,1.4.81,2.81,1.62,4.21,2.43.04.02.07.04.11.07-.03.05-.08.06-.12.09-.62.36-1.25.72-1.87,1.08-.3.17-.6.34-.89.52-.03.02-.06.03-.09.05-.01,0-.01.03-.02.04,0,0-.02,0-.02,0-.02-.05-.07-.06-.11-.09-.76-.44-1.52-.88-2.27-1.31-1.48-.86-2.97-1.71-4.45-2.57-.03-.02-.07-.04-.1-.05-.04.02-.07.04-.1.05-.66.38-1.31.76-1.97,1.14-.09.05-.18.11-.27.16-.02.01-.05.03-.08.02,0-3.91,0-7.82,0-11.73ZM167.46,82.19s-.07-.04-.1-.06c-.28-.16-.56-.33-.84-.49-.45-.26-.89-.52-1.34-.77-.03-.02-.06-.05-.11-.04v4.49s.07.05.11.07c.45.26.9.52,1.35.78.28.16.56.33.84.49.03.01.05.04.09.02v-4.49Z" style="fill: #e8e8e8; stroke-width: 0px;"/>
        <path d="M162.05,52.29c.37.21.74.42,1.11.64,3.7,2.14,7.4,4.28,11.11,6.42.04.02.08.05.12.07-.02.04-.05.05-.08.07-.53.31-1.07.62-1.61.93-3.51,2.03-7.03,4.06-10.54,6.09-.04.02-.08.06-.14.06,0-1.16,0-2.32,0-3.48.03-.02.07-.04.1-.06,1.31-.76,2.62-1.51,3.93-2.27.72-.42,1.45-.84,2.17-1.26.04-.02.08-.03.11-.07-.04-.02-.07-.04-.11-.06-.68-.4-1.37-.79-2.05-1.19-1.39-.8-2.77-1.6-4.16-2.4,0-1.15,0-2.3,0-3.46,0-.02,0-.02.02-.02Z" style="fill: #e8e8e8; stroke-width: 0px;"/>
        <path d="M180.23,84.57s-.04.09-.05.14c-.07.46-.39.96-1.04,1.09-.47.1-.88-.02-1.22-.38-.15-.16-.25-.35-.31-.56-.13-.47-.05-.9.24-1.29.19-.25.44-.42.76-.47.7-.11,1.39.25,1.56,1.04.02.07.01.15.06.21v.21ZM178.86,85.17c.37,0,.73-.27.73-.71,0-.45-.38-.72-.76-.71-.36,0-.66.35-.66.73,0,.36.32.71.69.69Z" style="fill: #e8e8e8; stroke-width: 0px;"/>
        <path d="M180.23,73.94s-.04.1-.05.16c-.08.55-.48.99-1.06,1.09-.21.04-.41.04-.62-.02-.35-.1-.61-.33-.78-.65-.12-.23-.18-.48-.16-.75.03-.43.2-.79.55-1.06.26-.2.57-.27.9-.23.18.02.35.06.5.15.38.2.59.52.67.94.01.06,0,.12.05.16v.21ZM178.85,73.13c-.37-.01-.68.34-.68.71,0,.37.3.71.66.72.37,0,.75-.25.75-.71,0-.44-.35-.72-.74-.72Z" style="fill: #e8e8e8; stroke-width: 0px;"/>
        <path d="M180.11,80.04c-.11.01-2.35.01-2.45,0,0-.02-.01-.05-.01-.08,0-.3,0-.6,0-.9,0-.1.01-.19.05-.29.07-.2.21-.32.42-.36.1-.02.21-.02.31,0,.13.02.24.08.32.2.01.02.02.03.04.05.01-.03.02-.06.03-.08.06-.23.21-.36.44-.4.1-.02.2-.02.3,0,.2.03.34.14.43.31.06.11.1.24.11.37.01.12.02.25.02.38,0,.23,0,.45,0,.68,0,.04,0,.09-.02.13ZM178.6,79.14s-.02-.03-.02-.04c-.06-.1-.15-.14-.26-.11-.1.02-.16.09-.18.2,0,.05-.01.09-.01.14,0,.03,0,.05.01.08.05.02.09.02.13.02.34,0,.68,0,1.02,0,.09,0,.18,0,.27,0,.03,0,.05-.01.08-.02.02-.08.02-.16,0-.24,0-.07-.02-.14-.04-.21-.03-.08-.08-.13-.17-.15-.15-.03-.27.03-.31.18,0,.03-.01.05-.02.08,0,.02,0,.04-.01.06-.09.02-.33.02-.48,0Z" style="fill: #e8e8e8; stroke-width: 0px;"/>
        <path d="M178.75,89.77s-.03-.07-.04-.11c-.04-.08-.1-.13-.19-.14-.18-.04-.32.04-.36.22-.02.09-.04.18-.02.28.02,0,.05.01.07.01.04,0,.08,0,.12,0,.55,0,1.1,0,1.65,0,.05,0,.09,0,.14.01,0,.02.01.04.01.06,0,.17,0,.34,0,.52,0,.01,0,.02-.01.03-.01,0-.03,0-.04,0-.8,0-1.6,0-2.4,0,0-.03-.02-.05-.02-.07,0-.34,0-.69,0-1.03,0-.09.02-.17.05-.25.1-.28.3-.43.59-.46.13-.02.27,0,.39.04.19.07.32.2.39.4,0,.03.02.06.03.09.1-.05.17-.12.25-.18.09-.06.17-.13.25-.19.08-.06.16-.12.24-.19.08-.06.16-.12.25-.19,0,.03.02.04.02.06,0,.22,0,.43,0,.65,0,.05-.02.08-.06.1-.16.1-.31.2-.47.3-.03.02-.07.04-.11.04-.23,0-.46,0-.69,0-.02,0-.03,0-.05,0Z" style="fill: #e8e8e8; stroke-width: 0px;"/>
        <path d="M177.77,54.67c.12-.01.49-.01.58,0,.01.03-.01.05-.03.07-.07.1-.13.2-.17.32-.03.1-.05.2-.04.3,0,.06.02.12.06.16.08.11.21.12.3.01.03-.05.06-.1.08-.15.03-.08.05-.16.07-.23.03-.1.07-.21.13-.3.08-.14.2-.24.36-.28.25-.05.48-.03.7.11.11.07.19.16.25.28.07.14.11.29.13.45.02.3-.04.58-.19.83,0,.01-.01.02-.02.03,0,0,0,.01-.01.02-.08.01-.42.02-.6.01-.01,0-.03,0-.05-.01.01-.02.02-.04.03-.05.04-.05.09-.1.12-.16.13-.17.19-.37.18-.58,0-.06-.02-.12-.05-.17-.09-.15-.28-.16-.38-.01-.03.05-.06.11-.08.17-.03.1-.06.19-.09.29-.03.08-.06.15-.1.23-.08.16-.22.24-.39.27-.14.02-.27.02-.41-.02-.29-.08-.47-.28-.55-.57-.04-.14-.04-.28-.02-.42.02-.18.07-.35.14-.51.01-.02.03-.05.04-.07Z" style="fill: #e8e8e8; stroke-width: 0px;"/>
        <path d="M177.71,59.4h.7s-.01.04-.03.06c-.12.13-.19.29-.19.47-.01.36.21.63.56.69.13.02.26.02.38-.02.23-.08.37-.24.43-.48.05-.23,0-.43-.14-.62-.02-.03-.04-.05-.06-.08.01,0,.02-.02.02-.02.19-.01.6,0,.7,0,.05.12.09.26.1.39.04.42-.07.78-.35,1.09-.19.21-.43.34-.71.38-.21.03-.41.02-.61-.04-.49-.16-.78-.5-.89-1-.06-.27-.02-.54.08-.79,0-.01.02-.03.03-.04Z" style="fill: #e8e8e8; stroke-width: 0px;"/>
        <path d="M177.66,69.62c-.02-.11-.02-1.58,0-1.68.08-.03.17-.01.25-.01.09,0,.17-.01.26,0,.02.09,0,.17.01.26,0,.08,0,.16,0,.25.03,0,.06.01.08.02.04,0,.07,0,.11,0,.53,0,1.06,0,1.6,0,.05,0,.09,0,.14,0,0,.03.02.05.02.07.01.21,0,.46-.01.54-.03.02-.07.01-.11.01-.3,0-.6,0-.9,0-.26,0-.52,0-.77,0-.04,0-.08,0-.13,0-.02.17,0,.34-.02.51-.08.04-.17.02-.25.02-.09,0-.17,0-.26,0Z" style="fill: #e8e8e8; stroke-width: 0px;"/>
        <path d="M177.66,64.95c-.02-.11-.02-.49,0-.61.02,0,.04-.02.06-.02.03,0,.07,0,.11,0,.71,0,1.42,0,2.14,0,.05,0,.1,0,.15.01,0,.01.01.03.01.04,0,.17,0,.34,0,.52,0,.01,0,.03-.01.05-.04,0-.07,0-.1,0-.24,0-.48,0-.73,0-.5,0-.99,0-1.49,0-.04,0-.08,0-.13,0Z" style="fill: #e8e8e8; stroke-width: 0px;"/>
      </g>
      <g>
        <path d="M258.63,123.46v1.03h-4.8l.49,1.47h-.86l-.86-2.37v-.13h6.03Z" style="fill: #bababa; stroke-width: 0px;"/>
        <path d="M258.63,117.35v4.05h-.71l-2.13-1.96c-.24-.21-.44-.38-.62-.51-.17-.12-.33-.21-.47-.26-.14-.05-.27-.07-.41-.07-.28,0-.51.08-.68.23-.18.15-.27.37-.27.65,0,.22.05.41.14.56s.22.26.39.34.36.11.57.11v1.02c-.35,0-.67-.08-.97-.24-.29-.16-.52-.39-.7-.7-.17-.3-.26-.67-.26-1.1,0-.61.15-1.07.45-1.4.3-.33.7-.5,1.21-.5.25,0,.5.05.75.16.25.11.49.25.73.44.24.19.49.4.75.64l1.38,1.28v-2.76h.82Z" style="fill: #bababa; stroke-width: 0px;"/>
        <path d="M252.62,112.8v-1.18l6.01,2.15v.8l-1.13-.2-4.88-1.56ZM257.49,114.25l1.13-.21v.8l-6.01,2.14v-1.17l4.88-1.55Z" style="fill: #bababa; stroke-width: 0px;"/>
        <path d="M266.14,129.62v1.06h-6.01v-1.06h6.01Z" style="fill: #bababa; stroke-width: 0px;"/>
        <path d="M266.14,123.57v1.07l-4.24,2.65h4.24v1.07h-6.01v-1.07l4.24-2.66h-4.24v-1.06h6.01Z" style="fill: #bababa; stroke-width: 0px;"/>
        <path d="M263.93,121.61h-.86v-1.55c0-.27-.04-.49-.13-.65s-.2-.28-.36-.36-.32-.12-.52-.12-.36.04-.52.12-.29.2-.4.36-.15.38-.15.65v1.23h5.15v1.07h-6.01v-2.29c0-.47.08-.87.25-1.19s.39-.58.68-.75c.29-.17.62-.26.99-.26s.72.09,1,.26.49.42.64.75c.15.33.22.73.22,1.19v1.55Z" style="fill: #bababa; stroke-width: 0px;"/>
        <path d="M260.13,112.52h4c.46,0,.84.1,1.15.3.31.2.54.47.7.81.16.34.24.72.24,1.14s-.08.82-.24,1.16c-.16.34-.39.61-.7.8-.31.19-.69.29-1.15.29h-4v-1.06h4c.28,0,.52-.05.7-.14s.32-.23.4-.41c.09-.18.13-.39.13-.63s-.04-.46-.13-.64c-.09-.18-.22-.31-.4-.41-.18-.1-.41-.14-.7-.14h-4v-1.06Z" style="fill: #bababa; stroke-width: 0px;"/>
        <path d="M260.99,107.04v4.79h-.86v-4.79h.86ZM266.14,108.92v1.06h-6.01v-1.06h6.01Z" style="fill: #bababa; stroke-width: 0px;"/>
      </g>
      <g>
        <path d="M188.27,87.28c0-.71.11-1.32.32-1.82.21-.5.53-.89.95-1.15.42-.27.93-.4,1.54-.4.47,0,.88.08,1.23.25.35.17.65.41.89.73.24.31.43.68.56,1.11l.25.5v2.94h-1.32s0-2.17,0-2.17c0-.38-.07-.7-.2-.95-.13-.25-.31-.44-.54-.57-.23-.13-.49-.19-.79-.19-.48,0-.86.14-1.14.41-.28.27-.42.71-.42,1.31v1.65h7.97v1.65h-9.3v-3.3ZM193.4,87.47v-1.73s4.09-2.2,4.09-2.2h.08v1.76l-4.17,2.17Z" style="fill: #bababa; stroke-width: 0px;"/>
        <path d="M189.59,79.18l-1.32.12v-1.11l9.3-3.51v1.73l-7.98,2.77ZM197.57,81.46v1.73l-9.3-3.5v-1.1l1.32.11,7.98,2.76ZM195.44,76.52v5.06h-1.33v-5.06h1.33Z" style="fill: #bababa; stroke-width: 0px;"/>
        <path d="M197.57,72.92h-1.32v-1.98c0-.57-.12-1.05-.37-1.43-.25-.38-.6-.67-1.06-.87-.46-.2-1.01-.29-1.66-.29h-.49c-.66,0-1.22.1-1.67.29-.46.19-.8.48-1.04.86-.24.38-.36.84-.36,1.39v2.08h-1.33v-2.08c0-.83.18-1.56.55-2.19.37-.63.88-1.12,1.54-1.47.66-.35,1.43-.53,2.32-.53h.47c.89,0,1.67.18,2.33.53s1.17.85,1.54,1.48c.36.64.55,1.38.55,2.23v1.98ZM197.57,72v1.65h-9.3v-1.65h9.3Z" style="fill: #bababa; stroke-width: 0px;"/>
        <path d="M197.57,63.36v1.64h-9.3v-1.64h9.3Z" style="fill: #bababa; stroke-width: 0px;"/>
        <path d="M193.16,53.95c.94,0,1.75.16,2.43.49.68.32,1.2.77,1.56,1.35s.55,1.25.55,2.03-.18,1.43-.55,2.02c-.36.58-.88,1.04-1.56,1.37s-1.49.5-2.43.5h-.48c-.94,0-1.75-.16-2.43-.49-.68-.33-1.2-.78-1.57-1.37-.36-.58-.55-1.25-.55-2.01s.18-1.45.55-2.03c.36-.58.89-1.03,1.57-1.36.68-.33,1.49-.49,2.43-.49h.48ZM192.67,55.6c-.69,0-1.26.09-1.73.26-.47.17-.83.43-1.07.76-.24.33-.36.73-.36,1.2s.12.86.36,1.18c.24.33.6.58,1.07.76.47.18,1.05.26,1.73.26h.49c.69,0,1.26-.09,1.74-.27.47-.18.83-.43,1.07-.77.24-.33.36-.73.36-1.19s-.12-.87-.36-1.2c-.24-.33-.6-.58-1.07-.75-.47-.17-1.05-.26-1.74-.26h-.49Z" style="fill: #bababa; stroke-width: 0px;"/>
        <path d="M207.29,92.59h-1.33v-2.4c0-.42-.07-.75-.2-1.01s-.32-.44-.55-.56c-.23-.12-.5-.18-.8-.18s-.56.06-.81.18-.46.31-.61.56c-.16.25-.24.59-.24,1.01v1.9h7.97v1.65h-9.3v-3.55c0-.72.13-1.34.38-1.85.26-.51.61-.89,1.05-1.16.45-.27.96-.4,1.54-.4s1.12.13,1.55.4c.43.27.76.65,1,1.16.23.51.35,1.12.35,1.85v2.4Z" style="fill: #bababa; stroke-width: 0px;"/>
        <path d="M206.31,77.92c.94,0,1.75.16,2.43.49.68.32,1.2.77,1.56,1.35.36.58.55,1.25.55,2.03s-.18,1.43-.55,2.02c-.36.58-.88,1.04-1.56,1.37-.68.33-1.49.5-2.43.5h-.48c-.94,0-1.75-.16-2.43-.49-.68-.33-1.2-.78-1.57-1.37-.36-.58-.55-1.25-.55-2.01s.18-1.45.55-2.03c.36-.58.89-1.03,1.57-1.36.68-.33,1.49-.49,2.43-.49h.48ZM205.82,79.58c-.69,0-1.26.09-1.73.26-.47.17-.83.43-1.07.76-.24.33-.36.73-.36,1.2s.12.86.36,1.18c.24.33.6.58,1.07.76.47.18,1.05.26,1.73.26h.49c.69,0,1.26-.09,1.74-.27.47-.18.83-.43,1.07-.77s.36-.73.36-1.19-.12-.87-.36-1.2c-.24-.33-.6-.58-1.07-.75s-1.05-.26-1.74-.26h-.49Z" style="fill: #bababa; stroke-width: 0px;"/>
        <path d="M201.42,67.65v-1.64l9.3,2.13v1.11l-2.04-.13-7.26-1.46ZM208.77,68.97l1.95-.25v1.03l-7.54,1.94-1.76.08v-.98l7.35-1.82ZM201.42,72.17v-1l1.76.09,7.54,1.97v1.03l-1.97-.27-7.33-1.83ZM208.7,73.85l2.02-.11v1.1l-9.3,2.14v-1.64l7.28-1.49Z" style="fill: #bababa; stroke-width: 0px;"/>
        <path d="M202.75,58.77v4.88h-1.33v-4.88h1.33ZM210.72,63.19v1.65h-9.3v-1.65h9.3ZM206.58,59.38v4.27h-1.3v-4.27h1.3ZM210.72,58.74v4.91h-1.32v-4.91h1.32Z" style="fill: #bababa; stroke-width: 0px;"/>
        <path d="M201.42,54.14c0-.71.11-1.32.32-1.82.21-.5.53-.89.95-1.15.42-.27.93-.4,1.54-.4.47,0,.88.08,1.23.25.35.17.65.41.89.73.24.31.43.68.56,1.11l.25.5v2.94h-1.32s0-2.17,0-2.17c0-.38-.07-.7-.2-.95-.13-.25-.31-.44-.54-.57-.23-.13-.49-.19-.79-.19-.48,0-.86.14-1.14.41-.28.27-.42.71-.42,1.31v1.65h7.97v1.65h-9.3v-3.3ZM206.54,54.34v-1.73s4.09-2.2,4.09-2.2h.08v1.76l-4.17,2.17Z" style="fill: #bababa; stroke-width: 0px;"/>
        <path d="M214.57,87.92h9.3v1.65h-2.98l-6.32-.25v-1.4ZM214.57,95.35l7.09-2.64-7.09-2.64v-1.47l9.3,3.53v1.16l-9.3,3.53v-1.46ZM214.57,96.09l6.32-.24h2.98v1.64h-9.3v-1.4Z" style="fill: #bababa; stroke-width: 0px;"/>
        <path d="M219.46,78.6c.94,0,1.75.16,2.43.49.68.32,1.2.77,1.56,1.35.36.58.55,1.25.55,2.03s-.18,1.43-.55,2.02c-.36.58-.88,1.04-1.56,1.37-.68.33-1.49.5-2.43.5h-.48c-.94,0-1.75-.16-2.43-.49-.68-.33-1.2-.78-1.56-1.37-.36-.58-.55-1.25-.55-2.01s.18-1.45.55-2.03.89-1.03,1.56-1.36c.68-.33,1.49-.49,2.43-.49h.48ZM218.97,80.25c-.69,0-1.26.09-1.73.26-.47.17-.83.43-1.07.76s-.36.73-.36,1.2.12.86.36,1.18c.24.33.6.58,1.07.76.47.18,1.05.26,1.73.26h.49c.69,0,1.26-.09,1.74-.27.47-.18.83-.43,1.07-.77s.36-.73.36-1.19-.12-.87-.36-1.2c-.24-.33-.6-.58-1.07-.75s-1.05-.26-1.74-.26h-.49Z" style="fill: #bababa; stroke-width: 0px;"/>
        <path d="M223.87,76.29h-1.32v-1.98c0-.57-.12-1.05-.37-1.43-.25-.38-.6-.67-1.06-.87-.46-.2-1.01-.29-1.66-.29h-.49c-.66,0-1.22.1-1.67.29-.46.19-.8.48-1.04.86-.24.38-.36.84-.36,1.39v2.08h-1.33v-2.08c0-.83.18-1.56.55-2.19.37-.63.88-1.12,1.54-1.47.66-.35,1.44-.53,2.33-.53h.47c.89,0,1.67.18,2.33.53s1.17.85,1.54,1.48c.36.64.55,1.38.55,2.23v1.98ZM223.87,75.37v1.65h-9.3v-1.65h9.3Z" style="fill: #bababa; stroke-width: 0px;"/>
        <path d="M214.57,61.64h6.2c.71,0,1.31.15,1.78.46.48.31.84.73,1.08,1.25.24.53.36,1.12.36,1.77s-.12,1.27-.36,1.79c-.24.53-.6.94-1.08,1.24-.48.3-1.07.45-1.78.45h-6.2v-1.64h6.2c.44,0,.8-.07,1.08-.22.28-.15.49-.36.63-.64.14-.28.2-.6.2-.98s-.07-.71-.2-.98c-.14-.27-.34-.48-.63-.63s-.64-.22-1.08-.22h-6.2v-1.65Z" style="fill: #bababa; stroke-width: 0px;"/>
        <path d="M223.87,58.28v1.65h-9.3v-1.65h9.3ZM223.87,54.07v4.66h-1.32v-4.66h1.32Z" style="fill: #bababa; stroke-width: 0px;"/>
        <path d="M215.9,46.79v4.88h-1.33v-4.88h1.33ZM223.87,51.21v1.65h-9.3v-1.65h9.3ZM219.73,47.4v4.27h-1.3v-4.27h1.3ZM223.87,46.75v4.91h-1.32v-4.91h1.32Z" style="fill: #bababa; stroke-width: 0px;"/>
      </g>
      <path d="M275.23,126.53v1.21h-5.35v-1.21h5.35ZM273.06,124.62v5.04h-1.14v-5.04h1.14Z" style="fill: #bababa; stroke-width: 0px;"/>
      <path d="M273.13,109.1v4.61h-.98v-4.61h.98Z" style="fill: #bababa; stroke-width: 0px;"/>
      <g>
        <path d="M96.8,123.48v1.03h-4.8l.49,1.47h-.86l-.86-2.37v-.13h6.03Z" style="fill: #bababa; stroke-width: 0px;"/>
        <path d="M92.37,117.6c.3,0,.57.08.8.24.23.16.42.38.55.66.13.28.2.59.2.95s-.07.68-.2.96c-.13.28-.32.5-.55.66-.23.16-.5.24-.8.24-.36,0-.66-.08-.91-.24-.25-.16-.44-.38-.57-.66-.13-.28-.19-.6-.19-.96s.06-.68.19-.96c.13-.28.32-.5.57-.66.25-.16.55-.24.91-.24ZM92.41,118.63c-.17,0-.33.03-.46.1s-.24.16-.31.29c-.08.12-.11.27-.11.44s.04.32.11.44c.07.12.17.22.31.28.13.07.29.1.47.1s.34-.03.47-.1c.13-.07.24-.16.31-.29.07-.12.11-.27.11-.44s-.04-.32-.11-.44c-.07-.12-.18-.21-.31-.28-.13-.07-.29-.1-.47-.1ZM95.15,117.47c.38,0,.69.09.95.26s.45.41.58.71c.13.3.2.63.2,1.01s-.07.72-.2,1.02c-.13.3-.33.54-.58.71-.26.17-.57.26-.95.26-.33,0-.62-.09-.87-.26-.25-.17-.45-.41-.58-.7-.14-.3-.21-.64-.21-1.02s.07-.72.21-1.02c.14-.3.33-.54.58-.71.25-.17.54-.26.87-.26ZM95.1,118.5c-.2,0-.37.04-.52.12s-.26.19-.34.34c-.08.14-.12.31-.12.5s.04.36.12.5c.08.14.2.25.34.33s.32.12.52.12.37-.04.51-.12c.14-.08.25-.19.33-.33.08-.14.12-.31.12-.51s-.04-.36-.12-.51c-.08-.14-.19-.25-.33-.33-.14-.08-.31-.12-.51-.12Z" style="fill: #bababa; stroke-width: 0px;"/>
        <path d="M90.79,112.81v-1.18l6.01,2.15v.8l-1.14-.2-4.88-1.56ZM95.66,114.26l1.14-.21v.8l-6.01,2.14v-1.17l4.88-1.55Z" style="fill: #bababa; stroke-width: 0px;"/>
        <path d="M101.46,130.01c.61,0,1.13.1,1.57.31.44.21.77.5,1.01.87.24.37.35.81.35,1.31s-.12.92-.35,1.3c-.24.38-.57.67-1.01.89s-.96.32-1.57.32h-.31c-.61,0-1.13-.11-1.57-.32-.44-.21-.78-.51-1.01-.88-.24-.38-.35-.81-.35-1.3s.12-.94.35-1.31.57-.67,1.01-.88c.44-.21.96-.32,1.57-.32h.31ZM101.14,131.08c-.44,0-.82.06-1.12.17-.3.11-.53.28-.69.49s-.23.47-.23.78.08.55.23.77.39.38.69.49.68.17,1.12.17h.32c.44,0,.82-.06,1.12-.17s.54-.28.69-.5.24-.47.24-.77-.08-.56-.24-.78c-.16-.21-.39-.38-.69-.49s-.68-.17-1.12-.17h-.32Z" style="fill: #bababa; stroke-width: 0px;"/>
        <path d="M98.3,124.57h4c.46,0,.84.1,1.15.3.31.2.54.47.7.81.16.34.24.72.24,1.14s-.08.82-.24,1.16c-.16.34-.39.61-.7.8-.31.19-.69.29-1.15.29h-4v-1.06h4c.28,0,.52-.05.7-.14s.32-.23.4-.41c.09-.18.13-.39.13-.63s-.04-.46-.13-.64c-.09-.18-.22-.31-.4-.41-.18-.1-.41-.14-.7-.14h-4v-1.06Z" style="fill: #bababa; stroke-width: 0px;"/>
        <path d="M99.16,119.09v4.79h-.86v-4.79h.86ZM104.31,120.97v1.06h-6.01v-1.06h6.01Z" style="fill: #bababa; stroke-width: 0px;"/>
        <path d="M102.09,117.56h-.86v-1.55c0-.27-.04-.49-.13-.65-.09-.16-.2-.28-.36-.36s-.32-.12-.52-.12-.36.04-.52.12c-.16.08-.29.2-.4.36s-.15.38-.15.65v1.23h5.15v1.07h-6.01v-2.29c0-.47.08-.87.25-1.19s.39-.58.68-.75.62-.26,1-.26.72.09,1,.26.49.42.64.75c.15.33.23.73.23,1.19v1.55Z" style="fill: #bababa; stroke-width: 0px;"/>
        <path d="M98.3,108.48h4c.46,0,.84.1,1.15.3.31.2.54.47.7.81.16.34.24.72.24,1.14s-.08.82-.24,1.16c-.16.34-.39.61-.7.8-.31.19-.69.29-1.15.29h-4v-1.06h4c.28,0,.52-.05.7-.14s.32-.23.4-.41c.09-.18.13-.39.13-.63s-.04-.46-.13-.64c-.09-.18-.22-.31-.4-.41-.18-.1-.41-.14-.7-.14h-4v-1.06Z" style="fill: #bababa; stroke-width: 0px;"/>
        <path d="M99.16,103v4.79h-.86v-4.79h.86ZM104.31,104.87v1.06h-6.01v-1.06h6.01Z" style="fill: #bababa; stroke-width: 0px;"/>
      </g>
      <g>
        <path d="M111.54,131.53h-.68v-1.23c0-.21-.03-.39-.1-.52-.07-.13-.16-.23-.28-.29s-.26-.09-.41-.09-.29.03-.42.09-.23.16-.31.29-.12.3-.12.52v.98h4.09v.85h-4.77v-1.82c0-.37.07-.69.2-.95.13-.26.31-.46.54-.59.23-.14.49-.2.79-.2s.57.07.79.2c.22.14.39.33.51.59.12.26.18.58.18.95v1.23Z" style="fill: #bababa; stroke-width: 0px;"/>
        <path d="M109.21,126.19l-.68.06v-.57l4.77-1.8v.89l-4.09,1.42ZM113.3,127.36v.89l-4.77-1.8v-.56l.68.06,4.09,1.42ZM112.21,124.83v2.6h-.68v-2.6h.68Z" style="fill: #bababa; stroke-width: 0px;"/>
        <path d="M112.07,120.86c-.13,0-.24.03-.33.08s-.17.15-.25.3c-.08.15-.16.36-.24.63-.07.22-.14.43-.23.62-.09.19-.19.36-.3.5-.12.14-.25.25-.4.33-.15.08-.33.12-.53.12-.26,0-.49-.07-.69-.22-.2-.14-.35-.34-.46-.6s-.17-.55-.17-.89c0-.36.06-.67.19-.92s.31-.46.53-.59.47-.21.74-.21v.85c-.15,0-.29.03-.4.1-.12.06-.21.16-.28.29-.07.13-.1.3-.1.5,0,.19.03.35.08.47.06.13.13.22.23.28.1.06.21.09.33.09.12,0,.22-.04.31-.11s.17-.19.24-.34c.07-.15.14-.34.21-.56.1-.35.22-.65.36-.88.14-.23.3-.41.49-.52.19-.11.41-.17.67-.17s.5.07.7.21c.2.14.35.34.45.59.1.26.16.56.16.9,0,.23-.03.46-.09.68-.06.22-.16.42-.28.61-.13.18-.28.32-.47.43-.19.11-.41.16-.67.16v-.85c.15,0,.28-.03.39-.08.11-.05.2-.12.26-.22.07-.09.12-.2.15-.33.03-.12.05-.26.05-.4,0-.19-.03-.35-.08-.48-.05-.13-.13-.22-.22-.29s-.2-.1-.32-.1Z" style="fill: #bababa; stroke-width: 0px;"/>
        <path d="M112.07,116.79c-.13,0-.24.03-.33.08s-.17.15-.25.3c-.08.15-.16.36-.24.63-.07.22-.14.43-.23.62-.09.19-.19.36-.3.5-.12.14-.25.25-.4.33-.15.08-.33.12-.53.12-.26,0-.49-.07-.69-.22-.2-.14-.35-.34-.46-.6s-.17-.55-.17-.89c0-.36.06-.67.19-.92s.31-.46.53-.59.47-.21.74-.21v.85c-.15,0-.29.03-.4.1-.12.06-.21.16-.28.29-.07.13-.1.3-.1.5,0,.19.03.35.08.47.06.13.13.22.23.28.1.06.21.09.33.09.12,0,.22-.04.31-.11s.17-.19.24-.34c.07-.15.14-.34.21-.56.1-.35.22-.65.36-.88.14-.23.3-.41.49-.52.19-.11.41-.17.67-.17s.5.07.7.21c.2.14.35.34.45.59.1.26.16.56.16.9,0,.23-.03.46-.09.68-.06.22-.16.42-.28.61-.13.18-.28.32-.47.43-.19.11-.41.16-.67.16v-.85c.15,0,.28-.03.39-.08.11-.05.2-.12.26-.22.07-.09.12-.2.15-.33.03-.12.05-.26.05-.4,0-.19-.03-.35-.08-.48-.05-.13-.13-.22-.22-.29s-.2-.1-.32-.1Z" style="fill: #bababa; stroke-width: 0px;"/>
        <path d="M113.3,114.32v.84h-4.77v-.84h4.77Z" style="fill: #bababa; stroke-width: 0px;"/>
        <path d="M108.53,110.43v-.93l4.77,1.7v.63l-.9-.16-3.87-1.24ZM112.4,111.57l.9-.17v.63l-4.77,1.7v-.93l3.87-1.23Z" style="fill: #bababa; stroke-width: 0px;"/>
        <path d="M109.21,105.85v2.5h-.68v-2.5h.68ZM113.3,108.12v.85h-4.77v-.85h4.77ZM111.18,106.17v2.19h-.67v-2.19h.67ZM113.3,105.84v2.52h-.68v-2.52h.68Z" style="fill: #bababa; stroke-width: 0px;"/>
        <path d="M118.12,124.41h-.68v-1.23c0-.21-.03-.39-.1-.52-.07-.13-.16-.23-.28-.29s-.26-.09-.41-.09-.29.03-.42.09-.23.16-.31.29-.12.3-.12.52v.98h4.09v.85h-4.77v-1.82c0-.37.07-.69.2-.95.13-.26.31-.46.54-.59.23-.14.49-.2.79-.2s.57.07.79.2c.22.14.39.33.51.59.12.26.18.58.18.95v1.23Z" style="fill: #bababa; stroke-width: 0px;"/>
        <path d="M117.61,116.89c.48,0,.9.08,1.25.25.35.17.62.4.8.69s.28.64.28,1.04-.09.73-.28,1.03c-.19.3-.45.54-.8.71-.35.17-.76.25-1.25.25h-.25c-.48,0-.9-.08-1.25-.25-.35-.17-.62-.4-.8-.7-.19-.3-.28-.64-.28-1.03s.09-.75.28-1.04c.19-.3.45-.53.8-.7s.76-.25,1.25-.25h.25ZM117.36,117.74c-.35,0-.65.04-.89.13s-.42.22-.55.39c-.12.17-.18.38-.18.62s.06.44.18.61c.12.17.31.3.55.39s.54.14.89.14h.25c.35,0,.65-.05.89-.14s.43-.22.55-.39c.12-.17.19-.37.19-.61s-.06-.45-.19-.62c-.12-.17-.31-.3-.55-.38-.24-.09-.54-.13-.89-.13h-.25Z" style="fill: #bababa; stroke-width: 0px;"/>
        <path d="M115.79,112.97v2.5h-.68v-2.5h.68ZM119.88,115.23v.85h-4.77v-.85h4.77ZM117.75,113.28v2.19h-.67v-2.19h.67ZM119.88,112.95v2.52h-.68v-2.52h.68Z" style="fill: #bababa; stroke-width: 0px;"/>
      </g>
      <g>
        <path d="M282.98,46.9v1.56l-6.16,3.86h6.16v1.55h-8.74v-1.55l6.17-3.87h-6.17v-1.54h8.74Z" style="fill: #bababa; stroke-width: 0px;"/>
        <path d="M282.98,43.49v1.54h-8.74v-1.54h8.74Z" style="fill: #bababa; stroke-width: 0px;"/>
        <path d="M289.13,66.92c-.02.09-.03.19-.04.29,0,.1-.01.2-.01.3,0,.33.06.6.18.82.12.22.29.38.5.5.22.11.48.18.77.2v.34c-.54,0-1.03-.07-1.47-.22-.44-.14-.78-.36-1.04-.65-.26-.29-.38-.65-.38-1.08,0-.08,0-.18.02-.28.02-.1.03-.18.05-.23h1.41ZM294.26,68.88v1.49h-6.5v-1.42l1.27-.07h5.22Z" style="fill: #bababa; stroke-width: 0px;"/>
        <path d="M290.95,66.28c-.63,0-1.2-.12-1.69-.36-.5-.24-.89-.59-1.18-1.04-.29-.45-.44-.99-.44-1.62s.15-1.19.44-1.64c.29-.45.68-.8,1.18-1.04.5-.24,1.06-.36,1.69-.36h.13c.63,0,1.19.12,1.69.36.5.24.89.58,1.18,1.03.29.45.43.99.43,1.63s-.14,1.18-.43,1.63c-.29.45-.68.8-1.18,1.04-.5.24-1.06.36-1.69.36h-.13ZM291.07,64.8c.38,0,.74-.05,1.05-.16.32-.11.57-.27.77-.5s.29-.52.29-.88-.1-.65-.29-.87c-.19-.23-.45-.39-.77-.5-.32-.11-.67-.16-1.05-.16h-.13c-.38,0-.73.05-1.05.16-.32.11-.58.27-.77.5-.19.23-.29.52-.29.88s.1.65.29.87.45.39.77.5c.32.11.67.16,1.05.16h.13Z" style="fill: #bababa; stroke-width: 0px;"/>
        <path d="M285.03,57.54h7.82l1.41.14v1.35h-9.22v-1.49ZM291.07,53.31c.64,0,1.21.1,1.71.29.5.19.89.47,1.17.85.29.38.43.84.43,1.4s-.14.99-.41,1.34c-.27.35-.65.63-1.13.82s-1.03.33-1.65.4h-.35c-.63-.07-1.18-.21-1.66-.4-.48-.19-.85-.47-1.13-.82-.27-.35-.41-.8-.41-1.33s.14-1.03.42-1.41c.28-.38.67-.66,1.17-.85.5-.19,1.07-.29,1.72-.29h.13ZM290.95,54.8c-.38,0-.73.04-1.04.13-.32.09-.57.23-.76.44-.19.21-.29.49-.29.86,0,.25.04.47.13.65.08.18.2.33.35.45.15.12.32.22.52.29.2.07.42.11.65.14h1.02c.3-.04.57-.11.82-.22.25-.11.45-.28.59-.49.15-.22.22-.49.22-.82,0-.36-.09-.64-.28-.84-.18-.21-.43-.35-.75-.44-.31-.09-.67-.13-1.06-.13h-.13Z" style="fill: #bababa; stroke-width: 0px;"/>
        <path d="M290.95,52.38c-.63,0-1.2-.12-1.69-.36-.5-.24-.89-.59-1.18-1.04-.29-.45-.44-.99-.44-1.62s.15-1.19.44-1.64c.29-.45.68-.8,1.18-1.04.5-.24,1.06-.36,1.69-.36h.13c.63,0,1.19.12,1.69.36.5.24.89.58,1.18,1.03.29.45.43.99.43,1.63s-.14,1.18-.43,1.63c-.29.45-.68.8-1.18,1.04-.5.24-1.06.36-1.69.36h-.13ZM291.07,50.89c.38,0,.74-.05,1.05-.16.32-.11.57-.27.77-.5s.29-.52.29-.88-.1-.65-.29-.87c-.19-.23-.45-.39-.77-.5-.32-.11-.67-.16-1.05-.16h-.13c-.38,0-.73.05-1.05.16-.32.11-.58.27-.77.5-.19.23-.29.52-.29.88s.1.65.29.87.45.39.77.5c.32.11.67.16,1.05.16h.13Z" style="fill: #bababa; stroke-width: 0px;"/>
        <path d="M285.51,41.88c0-.67.1-1.24.3-1.71.2-.47.5-.83.89-1.08s.88-.38,1.45-.38c.44,0,.83.08,1.16.24s.61.39.84.68c.23.29.4.64.53,1.04l.24.47v2.77h-1.24s0-2.04,0-2.04c0-.36-.06-.65-.19-.89s-.29-.42-.51-.53c-.22-.12-.46-.18-.74-.18-.45,0-.81.13-1.07.39-.27.26-.4.67-.4,1.23v1.56h7.5v1.55h-8.74v-3.1ZM290.33,42.06v-1.63s3.84-2.07,3.84-2.07h.08v1.66l-3.92,2.04Z" style="fill: #bababa; stroke-width: 0px;"/>
        <path d="M294.26,35.6v1.54h-8.74v-1.54h8.74Z" style="fill: #bababa; stroke-width: 0px;"/>
        <path d="M290.11,26.75c.88,0,1.65.15,2.28.46.64.3,1.13.73,1.47,1.27.34.54.51,1.18.51,1.91s-.17,1.34-.51,1.89c-.34.55-.83.98-1.47,1.29-.64.31-1.4.46-2.28.46h-.45c-.88,0-1.65-.15-2.29-.46-.64-.31-1.13-.74-1.47-1.29-.34-.55-.51-1.18-.51-1.89s.17-1.37.51-1.91.83-.97,1.47-1.28c.64-.31,1.4-.46,2.29-.46h.45ZM289.65,28.31c-.64,0-1.19.08-1.63.25s-.78.4-1,.71c-.23.31-.34.69-.34,1.13s.11.8.34,1.11c.23.31.56.55,1,.71s.99.25,1.63.25h.46c.64,0,1.19-.08,1.63-.25.45-.17.78-.41,1.01-.72.23-.31.34-.68.34-1.12s-.11-.82-.34-1.13c-.23-.31-.56-.54-1.01-.71-.44-.16-.99-.24-1.63-.24h-.46Z" style="fill: #bababa; stroke-width: 0px;"/>
      </g>
      <g>
        <path d="M92.59,51.11v-1.54l8.74,2.01v1.04l-1.92-.13-6.83-1.38ZM99.51,52.36l1.83-.24v.97l-7.09,1.83-1.65.07v-.92l6.91-1.71ZM92.59,55.37v-.94l1.65.08,7.09,1.86v.97l-1.86-.25-6.89-1.72ZM99.44,56.95l1.9-.1v1.03l-8.74,2.01v-1.54l6.85-1.4Z" style="fill: #bababa; stroke-width: 0px;"/>
        <path d="M93.14,48.61c-.23,0-.42-.07-.57-.22-.15-.15-.22-.35-.22-.62s.08-.47.22-.62c.15-.15.34-.23.57-.23s.41.08.56.23c.15.15.22.36.22.62s-.08.47-.22.62c-.15.15-.34.22-.56.22ZM101.34,47.02v1.49h-6.5v-1.49h6.5Z" style="fill: #bababa; stroke-width: 0px;"/>
        <path d="M93.84,39.73v4.42h-1.25v-4.42h1.25ZM101.34,43.77v1.55h-8.74v-1.55h8.74ZM97.64,40.24v3.92h-1.24v-3.92h1.24Z" style="fill: #bababa; stroke-width: 0px;"/>
        <path d="M93.14,38.7c-.23,0-.42-.07-.57-.22-.15-.15-.22-.35-.22-.62s.08-.47.22-.62c.15-.15.34-.23.57-.23s.41.08.56.23c.15.15.22.36.22.62s-.08.47-.22.62c-.15.15-.34.22-.56.22ZM101.34,37.11v1.49h-6.5v-1.49h6.5Z" style="fill: #bababa; stroke-width: 0px;"/>
        <path d="M103.87,62.21c0-.67.1-1.24.3-1.71.2-.47.5-.83.89-1.08s.88-.38,1.45-.38c.44,0,.83.08,1.16.24s.61.39.84.68c.23.29.4.64.53,1.04l.24.47v2.77h-1.24s0-2.04,0-2.04c0-.36-.06-.65-.19-.89s-.29-.42-.51-.53c-.22-.12-.46-.18-.74-.18-.45,0-.81.13-1.07.39-.27.26-.4.67-.4,1.23v1.56h7.49v1.55h-8.74v-3.1ZM108.69,62.39v-1.63s3.84-2.07,3.84-2.07h.08v1.66l-3.92,2.04Z" style="fill: #bababa; stroke-width: 0px;"/>
        <path d="M105.11,54.59l-1.24.11v-1.04l8.74-3.3v1.63l-7.5,2.6ZM112.61,56.73v1.63l-8.74-3.29v-1.03l1.24.1,7.5,2.59ZM110.61,52.09v4.76h-1.25v-4.76h1.25Z" style="fill: #bababa; stroke-width: 0px;"/>
        <path d="M112.61,48.71h-1.24v-1.86c0-.54-.12-.99-.35-1.35-.23-.36-.57-.63-1-.82s-.95-.28-1.56-.28h-.46c-.62,0-1.15.09-1.57.27-.43.18-.75.45-.98.81s-.34.79-.34,1.3v1.95h-1.25v-1.95c0-.78.17-1.47.52-2.06.34-.59.83-1.05,1.45-1.38.62-.33,1.35-.5,2.19-.5h.44c.84,0,1.57.17,2.19.5.62.33,1.1.8,1.44,1.4.34.6.51,1.3.51,2.1v1.86ZM112.61,47.84v1.55h-8.74v-1.55h8.74Z" style="fill: #bababa; stroke-width: 0px;"/>
        <path d="M112.61,39.72v1.54h-8.74v-1.54h8.74Z" style="fill: #bababa; stroke-width: 0px;"/>
        <path d="M108.47,30.87c.88,0,1.65.15,2.28.46.64.3,1.13.73,1.47,1.27.34.54.51,1.18.51,1.91s-.17,1.34-.51,1.89c-.34.55-.83.98-1.47,1.29-.64.31-1.4.46-2.28.46h-.45c-.88,0-1.65-.15-2.29-.46-.64-.31-1.13-.74-1.47-1.29-.34-.55-.51-1.18-.51-1.89s.17-1.37.51-1.91c.34-.54.83-.97,1.47-1.28.64-.31,1.4-.46,2.29-.46h.45ZM108,32.42c-.64,0-1.19.08-1.63.25s-.78.4-1,.71c-.23.31-.34.69-.34,1.13s.11.8.34,1.11c.23.31.56.55,1,.71s.99.25,1.63.25h.46c.64,0,1.19-.08,1.63-.25s.78-.41,1.01-.72.34-.68.34-1.12-.11-.82-.34-1.13-.56-.54-1.01-.71c-.44-.16-.99-.24-1.63-.24h-.46Z" style="fill: #bababa; stroke-width: 0px;"/>
      </g>
      <rect x="302.73" y="45.32" width="75.8" height="4.95" transform="translate(292.83 388.43) rotate(-90)" style="fill: #175c94; stroke-width: 0px;"/>
      <rect x="9.85" y="45.32" width="75.8" height="4.95" transform="translate(-.05 95.54) rotate(-90)" style="fill: #dbd560; stroke-width: 0px;"/>
      <circle cx="82.15" cy="130.41" r="3.62" style="fill: #60b356; stroke: #cfd0d3; stroke-miterlimit: 10; stroke-width: .75px;"/>
      <g>
        <rect x="302.03" y="34.74" width="27.11" height="27.11" rx="3.19" ry="3.19" transform="translate(267.29 363.88) rotate(-90)" style="fill: #bababa; stroke: #909295; stroke-miterlimit: 10;"/>
        <rect x="315.32" y="51.44" width="3.86" height="16.96" rx=".95" ry=".95" transform="translate(257.33 377.17) rotate(-90)" style="fill: none; stroke: #909295; stroke-miterlimit: 10;"/>
        <rect x="315.32" y="28.39" width="3.86" height="16.96" rx=".95" ry=".95" transform="translate(280.38 354.12) rotate(-90)" style="fill: none; stroke: #909295; stroke-miterlimit: 10;"/>
        <rect x="297.61" y="45.8" width="13.91" height="4.99" rx=".98" ry=".98" transform="translate(256.27 352.86) rotate(-90)" style="fill: none; stroke: #909295; stroke-miterlimit: 10;"/>
        <rect x="320.69" y="46.67" width="13.46" height="3.44" rx=".8" ry=".8" transform="translate(279.03 375.82) rotate(-90)" style="fill: none; stroke: #909295; stroke-miterlimit: 10;"/>
        <rect x="318.7" y="47.36" width="9.37" height="1.87" rx=".49" ry=".49" transform="translate(275.09 371.68) rotate(-90)" style="fill: none; stroke: #909295; stroke-miterlimit: 10;"/>
        <rect x="302.23" y="41.18" width="4.67" height="4.99" rx=".57" ry=".57" transform="translate(260.89 348.24) rotate(-90)" style="fill: #175c94; stroke: #909295; stroke-miterlimit: 10;"/>
      </g>
      <rect x="61.75" y="36.11" width="19.16" height="24.56" rx="5.4" ry="5.4" transform="translate(22.95 119.72) rotate(-90)" style="fill: #bababa; stroke-width: 0px;"/>
      <circle cx="81.64" cy="52.6" r=".82" style="fill: none; stroke: #414142; stroke-miterlimit: 10; stroke-width: .5px;"/>
      <circle cx="81.64" cy="49.79" r=".82" style="fill: none; stroke: #414142; stroke-miterlimit: 10; stroke-width: .5px;"/>
      <circle cx="81.64" cy="46.99" r=".82" style="fill: none; stroke: #414142; stroke-miterlimit: 10; stroke-width: .5px;"/>
      <circle cx="81.64" cy="44.17" r=".82" style="fill: none; stroke: #414142; stroke-miterlimit: 10; stroke-width: .5px;"/>
      <path d="M67.8,52.97c-1.78-3.02-1.74-6.08,0-9.17" style="fill: none; stroke: #414142; stroke-linecap: round; stroke-linejoin: round;"/>
      <path d="M69.24,44.72c-1.27,2.67-1.26,5.14.11,7.4" style="fill: none; stroke: #414142; stroke-linecap: round; stroke-linejoin: round;"/>
      <path d="M70.62,45.63c-1,1.89-.97,3.77.11,5.64" style="fill: none; stroke: #414142; stroke-linecap: round; stroke-linejoin: round;"/>
      <path d="M72.27,46.68c-.72,1.18-.7,2.38,0,3.58" style="fill: none; stroke: #414142; stroke-linecap: round; stroke-linejoin: round;"/>
      <circle cx="74.35" cy="48.39" r="1.03" style="fill: none; stroke: #414142; stroke-miterlimit: 10; stroke-width: .63px;"/>
      <line x1="69.9" y1="144.74" x2="69.9" y2="94.6" style="fill: #121212; stroke: #383739; stroke-miterlimit: 10; stroke-width: 2px;"/>
    </g>
  </g>
</svg>