<?xml version="1.0" encoding="UTF-8"?>
<svg id="Layer_2" data-name="Layer 2" xmlns="http://www.w3.org/2000/svg" width="504" height="496.51" viewBox="0 0 504 496.51">
  <g id="Layer_1-2" data-name="Layer 1">
    <g>
      <path d="M473.74,496.51H30.26c-16.71,0-30.26-13.55-30.26-30.26V30.26C0,13.55,13.55,0,30.26,0h443.48c16.71,0,30.26,13.55,30.26,30.26v435.99c0,16.71-13.55,30.26-30.26,30.26" style="fill: #4e4e50; stroke-width: 0px;"/>
      <path d="M352.29,83.87h-200.73c-6.92,0-12.53-5.61-12.53-12.53V19.59c0-6.92,5.61-12.53,12.53-12.53h200.73c6.92,0,12.53,5.61,12.53,12.53v51.75c0,6.92-5.61,12.53-12.53,12.53" style="fill: #595a5c; stroke-width: 0px;"/>
      <rect x="197.86" y="7.03" width="29.54" height="76.81" style="fill: #6e6f71; stroke-width: 0px;"/>
      <rect x="227.29" y="7.03" width="64.67" height="76.81" style="fill: #636467; stroke-width: 0px;"/>
      <rect x="161.21" y="331.4" width="179.76" height="33.13" style="fill: #323130; stroke-width: 0px;"/>
      <rect x="13.22" y="178.48" width="28.95" height="23.26" style="fill: #323130; stroke-width: 0px;"/>
      <path d="M29.45,190.11c0,.96-.79,1.75-1.75,1.75s-1.75-.79-1.75-1.75.78-1.75,1.75-1.75,1.75.78,1.75,1.75" style="fill: #6a5f27; stroke-width: 0px;"/>
      <path d="M21.61,190.11c0,.96-.79,1.75-1.75,1.75s-1.75-.79-1.75-1.75.79-1.75,1.75-1.75,1.75.78,1.75,1.75" style="fill: #6a5f27; stroke-width: 0px;"/>
      <path d="M37.6,190.11c0,.96-.79,1.75-1.75,1.75s-1.75-.79-1.75-1.75.78-1.75,1.75-1.75,1.75.78,1.75,1.75" style="fill: #6a5f27; stroke-width: 0px;"/>
      <rect x="13.22" y="341.27" width="28.95" height="23.26" style="fill: #323130; stroke-width: 0px;"/>
      <path d="M29.45,352.9c0,.96-.79,1.75-1.75,1.75s-1.75-.79-1.75-1.75.78-1.75,1.75-1.75,1.75.79,1.75,1.75" style="fill: #6a5f27; stroke-width: 0px;"/>
      <path d="M21.61,352.9c0,.96-.79,1.75-1.75,1.75s-1.75-.79-1.75-1.75.79-1.75,1.75-1.75,1.75.79,1.75,1.75" style="fill: #6a5f27; stroke-width: 0px;"/>
      <path d="M37.6,352.9c0,.96-.79,1.75-1.75,1.75s-1.75-.79-1.75-1.75.78-1.75,1.75-1.75,1.75.79,1.75,1.75" style="fill: #6a5f27; stroke-width: 0px;"/>
      <rect x="13.22" y="271.5" width="28.95" height="23.26" style="fill: #323130; stroke-width: 0px;"/>
      <path d="M29.45,283.13c0,.97-.79,1.75-1.75,1.75s-1.75-.78-1.75-1.75.78-1.75,1.75-1.75,1.75.78,1.75,1.75" style="fill: #6a5f27; stroke-width: 0px;"/>
      <path d="M21.61,283.13c0,.97-.79,1.75-1.75,1.75s-1.75-.78-1.75-1.75.79-1.75,1.75-1.75,1.75.78,1.75,1.75" style="fill: #6a5f27; stroke-width: 0px;"/>
      <path d="M37.6,283.13c0,.97-.79,1.75-1.75,1.75s-1.75-.78-1.75-1.75.78-1.75,1.75-1.75,1.75.78,1.75,1.75" style="fill: #6a5f27; stroke-width: 0px;"/>
      <rect x="13.22" y="318.02" width="28.95" height="23.26" style="fill: #323130; stroke-width: 0px;"/>
      <path d="M29.45,329.65c0,.96-.79,1.75-1.75,1.75s-1.75-.79-1.75-1.75.78-1.75,1.75-1.75,1.75.78,1.75,1.75" style="fill: #6a5f27; stroke-width: 0px;"/>
      <path d="M21.61,329.65c0,.96-.79,1.75-1.75,1.75s-1.75-.79-1.75-1.75.79-1.75,1.75-1.75,1.75.78,1.75,1.75" style="fill: #6a5f27; stroke-width: 0px;"/>
      <path d="M37.6,329.65c0,.96-.79,1.75-1.75,1.75s-1.75-.79-1.75-1.75.78-1.75,1.75-1.75,1.75.78,1.75,1.75" style="fill: #6a5f27; stroke-width: 0px;"/>
      <rect x="13.22" y="294.76" width="28.95" height="23.26" style="fill: #323130; stroke-width: 0px;"/>
      <path d="M29.45,306.39c0,.96-.79,1.75-1.75,1.75s-1.75-.79-1.75-1.75.78-1.75,1.75-1.75,1.75.78,1.75,1.75" style="fill: #6a5f27; stroke-width: 0px;"/>
      <path d="M21.61,306.39c0,.96-.79,1.75-1.75,1.75s-1.75-.79-1.75-1.75.79-1.75,1.75-1.75,1.75.78,1.75,1.75" style="fill: #6a5f27; stroke-width: 0px;"/>
      <path d="M37.6,306.39c0,.96-.79,1.75-1.75,1.75s-1.75-.79-1.75-1.75.78-1.75,1.75-1.75,1.75.78,1.75,1.75" style="fill: #6a5f27; stroke-width: 0px;"/>
      <rect x="13.22" y="248.25" width="28.95" height="23.26" style="fill: #323130; stroke-width: 0px;"/>
      <path d="M29.45,259.88c0,.97-.79,1.75-1.75,1.75s-1.75-.78-1.75-1.75.78-1.75,1.75-1.75,1.75.79,1.75,1.75" style="fill: #6a5f27; stroke-width: 0px;"/>
      <path d="M21.61,259.88c0,.97-.79,1.75-1.75,1.75s-1.75-.78-1.75-1.75.79-1.75,1.75-1.75,1.75.79,1.75,1.75" style="fill: #6a5f27; stroke-width: 0px;"/>
      <path d="M37.6,259.88c0,.97-.79,1.75-1.75,1.75s-1.75-.78-1.75-1.75.78-1.75,1.75-1.75,1.75.79,1.75,1.75" style="fill: #6a5f27; stroke-width: 0px;"/>
      <rect x="13.22" y="201.74" width="28.95" height="23.26" style="fill: #323130; stroke-width: 0px;"/>
      <path d="M29.45,213.37c0,.96-.79,1.75-1.75,1.75s-1.75-.79-1.75-1.75.78-1.75,1.75-1.75,1.75.79,1.75,1.75" style="fill: #6a5f27; stroke-width: 0px;"/>
      <path d="M21.61,213.37c0,.96-.79,1.75-1.75,1.75s-1.75-.79-1.75-1.75.79-1.75,1.75-1.75,1.75.79,1.75,1.75" style="fill: #6a5f27; stroke-width: 0px;"/>
      <path d="M37.6,213.37c0,.96-.79,1.75-1.75,1.75s-1.75-.79-1.75-1.75.78-1.75,1.75-1.75,1.75.79,1.75,1.75" style="fill: #6a5f27; stroke-width: 0px;"/>
      <rect x="13.22" y="224.99" width="28.95" height="23.26" style="fill: #323130; stroke-width: 0px;"/>
      <path d="M29.45,236.62c0,.97-.79,1.75-1.75,1.75s-1.75-.78-1.75-1.75.78-1.75,1.75-1.75,1.75.79,1.75,1.75" style="fill: #6a5f27; stroke-width: 0px;"/>
      <path d="M21.61,236.62c0,.97-.79,1.75-1.75,1.75s-1.75-.78-1.75-1.75.79-1.75,1.75-1.75,1.75.79,1.75,1.75" style="fill: #6a5f27; stroke-width: 0px;"/>
      <path d="M37.6,236.62c0,.97-.79,1.75-1.75,1.75s-1.75-.78-1.75-1.75.78-1.75,1.75-1.75,1.75.79,1.75,1.75" style="fill: #6a5f27; stroke-width: 0px;"/>
      <rect x="13.22" y="387.79" width="28.95" height="23.26" style="fill: #323130; stroke-width: 0px;"/>
      <path d="M29.45,399.41c0,.97-.79,1.75-1.75,1.75s-1.75-.78-1.75-1.75.78-1.75,1.75-1.75,1.75.79,1.75,1.75" style="fill: #6a5f27; stroke-width: 0px;"/>
      <path d="M21.61,399.41c0,.97-.79,1.75-1.75,1.75s-1.75-.78-1.75-1.75.79-1.75,1.75-1.75,1.75.79,1.75,1.75" style="fill: #6a5f27; stroke-width: 0px;"/>
      <path d="M37.6,399.41c0,.97-.79,1.75-1.75,1.75s-1.75-.78-1.75-1.75.78-1.75,1.75-1.75,1.75.79,1.75,1.75" style="fill: #6a5f27; stroke-width: 0px;"/>
      <rect x="13.22" y="364.53" width="28.95" height="23.26" style="fill: #323130; stroke-width: 0px;"/>
      <path d="M29.45,376.16c0,.97-.79,1.75-1.75,1.75s-1.75-.78-1.75-1.75.78-1.75,1.75-1.75,1.75.79,1.75,1.75" style="fill: #6a5f27; stroke-width: 0px;"/>
      <path d="M21.61,376.16c0,.97-.79,1.75-1.75,1.75s-1.75-.78-1.75-1.75.79-1.75,1.75-1.75,1.75.79,1.75,1.75" style="fill: #6a5f27; stroke-width: 0px;"/>
      <path d="M37.6,376.16c0,.97-.79,1.75-1.75,1.75s-1.75-.78-1.75-1.75.78-1.75,1.75-1.75,1.75.79,1.75,1.75" style="fill: #6a5f27; stroke-width: 0px;"/>
      <rect x="13.22" y="416.17" width="28.95" height="23.26" style="fill: #323130; stroke-width: 0px;"/>
      <path d="M29.45,427.8c0,.97-.79,1.75-1.75,1.75s-1.75-.78-1.75-1.75.78-1.75,1.75-1.75,1.75.79,1.75,1.75" style="fill: #6a5f27; stroke-width: 0px;"/>
      <path d="M21.61,427.8c0,.97-.79,1.75-1.75,1.75s-1.75-.78-1.75-1.75.79-1.75,1.75-1.75,1.75.79,1.75,1.75" style="fill: #6a5f27; stroke-width: 0px;"/>
      <path d="M37.6,427.8c0,.97-.79,1.75-1.75,1.75s-1.75-.78-1.75-1.75.78-1.75,1.75-1.75,1.75.79,1.75,1.75" style="fill: #6a5f27; stroke-width: 0px;"/>
      <rect x="13.22" y="140.27" width="28.95" height="23.26" style="fill: #323130; stroke-width: 0px;"/>
      <path d="M29.45,151.9c0,.97-.79,1.75-1.75,1.75s-1.75-.78-1.75-1.75.78-1.75,1.75-1.75,1.75.79,1.75,1.75" style="fill: #6a5f27; stroke-width: 0px;"/>
      <path d="M21.61,151.9c0,.97-.79,1.75-1.75,1.75s-1.75-.78-1.75-1.75.79-1.75,1.75-1.75,1.75.79,1.75,1.75" style="fill: #6a5f27; stroke-width: 0px;"/>
      <path d="M37.6,151.9c0,.97-.79,1.75-1.75,1.75s-1.75-.78-1.75-1.75.78-1.75,1.75-1.75,1.75.79,1.75,1.75" style="fill: #6a5f27; stroke-width: 0px;"/>
      <rect x="13.22" y="99.52" width="38.98" height="25.09" style="fill: #323130; stroke-width: 0px;"/>
      <path d="M30.26,112.07c0,.97-.78,1.75-1.75,1.75s-1.75-.78-1.75-1.75.79-1.75,1.75-1.75,1.75.79,1.75,1.75" style="fill: #6a5f27; stroke-width: 0px;"/>
      <path d="M22.43,112.07c0,.97-.78,1.75-1.75,1.75s-1.75-.78-1.75-1.75.78-1.75,1.75-1.75,1.75.79,1.75,1.75" style="fill: #6a5f27; stroke-width: 0px;"/>
      <path d="M38.41,112.07c0,.97-.78,1.75-1.75,1.75s-1.75-.78-1.75-1.75.79-1.75,1.75-1.75,1.75.79,1.75,1.75" style="fill: #6a5f27; stroke-width: 0px;"/>
      <path d="M46.49,112.07c0,.97-.78,1.75-1.75,1.75s-1.75-.78-1.75-1.75.79-1.75,1.75-1.75,1.75.79,1.75,1.75" style="fill: #6a5f27; stroke-width: 0px;"/>
      <rect x="461.1" y="173.74" width="28.95" height="23.26" style="fill: #323130; stroke-width: 0px;"/>
      <path d="M477.32,185.36c0,.97-.79,1.75-1.75,1.75s-1.75-.78-1.75-1.75.79-1.75,1.75-1.75,1.75.79,1.75,1.75" style="fill: #6a5f27; stroke-width: 0px;"/>
      <path d="M469.49,185.36c0,.97-.78,1.75-1.75,1.75s-1.75-.78-1.75-1.75.79-1.75,1.75-1.75,1.75.79,1.75,1.75" style="fill: #6a5f27; stroke-width: 0px;"/>
      <path d="M485.47,185.36c0,.97-.79,1.75-1.75,1.75s-1.75-.78-1.75-1.75.79-1.75,1.75-1.75,1.75.79,1.75,1.75" style="fill: #6a5f27; stroke-width: 0px;"/>
      <rect x="461.1" y="336.53" width="28.95" height="23.26" style="fill: #323130; stroke-width: 0px;"/>
      <path d="M477.32,348.16c0,.96-.79,1.75-1.75,1.75s-1.75-.79-1.75-1.75.79-1.75,1.75-1.75,1.75.78,1.75,1.75" style="fill: #6a5f27; stroke-width: 0px;"/>
      <path d="M469.49,348.16c0,.96-.78,1.75-1.75,1.75s-1.75-.79-1.75-1.75.79-1.75,1.75-1.75,1.75.78,1.75,1.75" style="fill: #6a5f27; stroke-width: 0px;"/>
      <path d="M485.47,348.16c0,.96-.79,1.75-1.75,1.75s-1.75-.79-1.75-1.75.79-1.75,1.75-1.75,1.75.78,1.75,1.75" style="fill: #6a5f27; stroke-width: 0px;"/>
      <rect x="461.1" y="266.76" width="28.95" height="23.26" style="fill: #323130; stroke-width: 0px;"/>
      <path d="M477.32,278.39c0,.97-.79,1.75-1.75,1.75s-1.75-.78-1.75-1.75.79-1.75,1.75-1.75,1.75.79,1.75,1.75" style="fill: #6a5f27; stroke-width: 0px;"/>
      <path d="M469.49,278.39c0,.97-.78,1.75-1.75,1.75s-1.75-.78-1.75-1.75.79-1.75,1.75-1.75,1.75.79,1.75,1.75" style="fill: #6a5f27; stroke-width: 0px;"/>
      <path d="M485.47,278.39c0,.97-.79,1.75-1.75,1.75s-1.75-.78-1.75-1.75.79-1.75,1.75-1.75,1.75.79,1.75,1.75" style="fill: #6a5f27; stroke-width: 0px;"/>
      <rect x="461.1" y="313.27" width="28.95" height="23.26" style="fill: #323130; stroke-width: 0px;"/>
      <path d="M477.32,324.9c0,.97-.79,1.75-1.75,1.75s-1.75-.78-1.75-1.75.79-1.75,1.75-1.75,1.75.78,1.75,1.75" style="fill: #6a5f27; stroke-width: 0px;"/>
      <path d="M469.49,324.9c0,.97-.78,1.75-1.75,1.75s-1.75-.78-1.75-1.75.79-1.75,1.75-1.75,1.75.78,1.75,1.75" style="fill: #6a5f27; stroke-width: 0px;"/>
      <path d="M485.47,324.9c0,.97-.79,1.75-1.75,1.75s-1.75-.78-1.75-1.75.79-1.75,1.75-1.75,1.75.78,1.75,1.75" style="fill: #6a5f27; stroke-width: 0px;"/>
      <rect x="461.1" y="290.02" width="28.95" height="23.26" style="fill: #323130; stroke-width: 0px;"/>
      <path d="M477.32,301.64c0,.97-.79,1.75-1.75,1.75s-1.75-.78-1.75-1.75.79-1.75,1.75-1.75,1.75.79,1.75,1.75" style="fill: #6a5f27; stroke-width: 0px;"/>
      <path d="M469.49,301.64c0,.97-.78,1.75-1.75,1.75s-1.75-.78-1.75-1.75.79-1.75,1.75-1.75,1.75.79,1.75,1.75" style="fill: #6a5f27; stroke-width: 0px;"/>
      <path d="M485.47,301.64c0,.97-.79,1.75-1.75,1.75s-1.75-.78-1.75-1.75.79-1.75,1.75-1.75,1.75.79,1.75,1.75" style="fill: #6a5f27; stroke-width: 0px;"/>
      <rect x="461.1" y="243.51" width="28.95" height="23.26" style="fill: #323130; stroke-width: 0px;"/>
      <path d="M477.32,255.13c0,.96-.79,1.75-1.75,1.75s-1.75-.79-1.75-1.75.79-1.75,1.75-1.75,1.75.79,1.75,1.75" style="fill: #6a5f27; stroke-width: 0px;"/>
      <path d="M469.49,255.13c0,.96-.78,1.75-1.75,1.75s-1.75-.79-1.75-1.75.79-1.75,1.75-1.75,1.75.79,1.75,1.75" style="fill: #6a5f27; stroke-width: 0px;"/>
      <path d="M485.47,255.13c0,.96-.79,1.75-1.75,1.75s-1.75-.79-1.75-1.75.79-1.75,1.75-1.75,1.75.79,1.75,1.75" style="fill: #6a5f27; stroke-width: 0px;"/>
      <rect x="461.1" y="196.99" width="28.95" height="23.26" style="fill: #323130; stroke-width: 0px;"/>
      <path d="M477.32,208.62c0,.96-.79,1.75-1.75,1.75s-1.75-.78-1.75-1.75.79-1.75,1.75-1.75,1.75.78,1.75,1.75" style="fill: #6a5f27; stroke-width: 0px;"/>
      <path d="M469.49,208.62c0,.96-.78,1.75-1.75,1.75s-1.75-.78-1.75-1.75.79-1.75,1.75-1.75,1.75.78,1.75,1.75" style="fill: #6a5f27; stroke-width: 0px;"/>
      <path d="M485.47,208.62c0,.96-.79,1.75-1.75,1.75s-1.75-.78-1.75-1.75.79-1.75,1.75-1.75,1.75.78,1.75,1.75" style="fill: #6a5f27; stroke-width: 0px;"/>
      <rect x="461.1" y="220.25" width="28.95" height="23.26" style="fill: #323130; stroke-width: 0px;"/>
      <path d="M477.32,231.88c0,.96-.79,1.75-1.75,1.75s-1.75-.79-1.75-1.75.79-1.75,1.75-1.75,1.75.78,1.75,1.75" style="fill: #6a5f27; stroke-width: 0px;"/>
      <path d="M469.49,231.88c0,.96-.78,1.75-1.75,1.75s-1.75-.79-1.75-1.75.79-1.75,1.75-1.75,1.75.78,1.75,1.75" style="fill: #6a5f27; stroke-width: 0px;"/>
      <path d="M485.47,231.88c0,.96-.79,1.75-1.75,1.75s-1.75-.79-1.75-1.75.79-1.75,1.75-1.75,1.75.78,1.75,1.75" style="fill: #6a5f27; stroke-width: 0px;"/>
      <rect x="461.1" y="383.04" width="28.95" height="23.26" style="fill: #323130; stroke-width: 0px;"/>
      <path d="M477.32,394.67c0,.96-.79,1.75-1.75,1.75s-1.75-.79-1.75-1.75.79-1.75,1.75-1.75,1.75.79,1.75,1.75" style="fill: #6a5f27; stroke-width: 0px;"/>
      <path d="M469.49,394.67c0,.96-.78,1.75-1.75,1.75s-1.75-.79-1.75-1.75.79-1.75,1.75-1.75,1.75.79,1.75,1.75" style="fill: #6a5f27; stroke-width: 0px;"/>
      <path d="M485.47,394.67c0,.96-.79,1.75-1.75,1.75s-1.75-.79-1.75-1.75.79-1.75,1.75-1.75,1.75.79,1.75,1.75" style="fill: #6a5f27; stroke-width: 0px;"/>
      <rect x="461.1" y="359.79" width="28.95" height="23.26" style="fill: #323130; stroke-width: 0px;"/>
      <path d="M477.32,371.41c0,.96-.79,1.75-1.75,1.75s-1.75-.79-1.75-1.75.79-1.75,1.75-1.75,1.75.78,1.75,1.75" style="fill: #6a5f27; stroke-width: 0px;"/>
      <path d="M469.49,371.41c0,.96-.78,1.75-1.75,1.75s-1.75-.79-1.75-1.75.79-1.75,1.75-1.75,1.75.78,1.75,1.75" style="fill: #6a5f27; stroke-width: 0px;"/>
      <path d="M485.47,371.41c0,.96-.79,1.75-1.75,1.75s-1.75-.79-1.75-1.75.79-1.75,1.75-1.75,1.75.78,1.75,1.75" style="fill: #6a5f27; stroke-width: 0px;"/>
      <rect x="461.1" y="404.54" width="28.95" height="23.26" style="fill: #323130; stroke-width: 0px;"/>
      <path d="M477.32,416.17c0,.97-.79,1.75-1.75,1.75s-1.75-.78-1.75-1.75.79-1.75,1.75-1.75,1.75.79,1.75,1.75" style="fill: #6a5f27; stroke-width: 0px;"/>
      <path d="M469.49,416.17c0,.97-.78,1.75-1.75,1.75s-1.75-.78-1.75-1.75.79-1.75,1.75-1.75,1.75.79,1.75,1.75" style="fill: #6a5f27; stroke-width: 0px;"/>
      <path d="M485.47,416.17c0,.97-.79,1.75-1.75,1.75s-1.75-.78-1.75-1.75.79-1.75,1.75-1.75,1.75.79,1.75,1.75" style="fill: #6a5f27; stroke-width: 0px;"/>
      <rect x="142.51" y="452.89" width="101.85" height="28.95" style="fill: #323130; stroke-width: 0px;"/>
      <path d="M154.14,465.61c.96,0,1.75.78,1.75,1.75s-.79,1.75-1.75,1.75-1.75-.79-1.75-1.75.79-1.75,1.75-1.75" style="fill: #6a5f27; stroke-width: 0px;"/>
      <path d="M154.14,473.45c.96,0,1.75.78,1.75,1.75s-.79,1.75-1.75,1.75-1.75-.78-1.75-1.75.79-1.75,1.75-1.75" style="fill: #6a5f27; stroke-width: 0px;"/>
      <path d="M154.14,457.46c.96,0,1.75.78,1.75,1.75s-.79,1.75-1.75,1.75-1.75-.79-1.75-1.75.79-1.75,1.75-1.75" style="fill: #6a5f27; stroke-width: 0px;"/>
      <rect x="168.51" y="452.89" width="23.26" height="28.95" style="fill: #323130; stroke-width: 0px;"/>
      <path d="M180.13,465.61c.97,0,1.75.78,1.75,1.75s-.78,1.75-1.75,1.75-1.75-.79-1.75-1.75.79-1.75,1.75-1.75" style="fill: #6a5f27; stroke-width: 0px;"/>
      <path d="M180.13,473.45c.97,0,1.75.78,1.75,1.75s-.78,1.75-1.75,1.75-1.75-.78-1.75-1.75.79-1.75,1.75-1.75" style="fill: #6a5f27; stroke-width: 0px;"/>
      <path d="M180.13,457.46c.97,0,1.75.78,1.75,1.75s-.78,1.75-1.75,1.75-1.75-.79-1.75-1.75.79-1.75,1.75-1.75" style="fill: #6a5f27; stroke-width: 0px;"/>
      <rect x="221.1" y="452.89" width="23.26" height="28.95" style="fill: #323130; stroke-width: 0px;"/>
      <path d="M232.73,465.61c.96,0,1.75.78,1.75,1.75s-.79,1.75-1.75,1.75-1.75-.79-1.75-1.75.78-1.75,1.75-1.75" style="fill: #6a5f27; stroke-width: 0px;"/>
      <path d="M232.73,473.45c.96,0,1.75.78,1.75,1.75s-.79,1.75-1.75,1.75-1.75-.78-1.75-1.75.78-1.75,1.75-1.75" style="fill: #6a5f27; stroke-width: 0px;"/>
      <path d="M232.73,457.46c.96,0,1.75.78,1.75,1.75s-.79,1.75-1.75,1.75-1.75-.79-1.75-1.75.78-1.75,1.75-1.75" style="fill: #6a5f27; stroke-width: 0px;"/>
      <rect x="194.81" y="452.89" width="23.26" height="28.95" style="fill: #323130; stroke-width: 0px;"/>
      <path d="M206.44,465.61c.97,0,1.75.78,1.75,1.75s-.78,1.75-1.75,1.75-1.75-.79-1.75-1.75.78-1.75,1.75-1.75" style="fill: #6a5f27; stroke-width: 0px;"/>
      <path d="M206.44,473.45c.97,0,1.75.78,1.75,1.75s-.78,1.75-1.75,1.75-1.75-.78-1.75-1.75.78-1.75,1.75-1.75" style="fill: #6a5f27; stroke-width: 0px;"/>
      <path d="M206.44,457.46c.97,0,1.75.78,1.75,1.75s-.78,1.75-1.75,1.75-1.75-.79-1.75-1.75.78-1.75,1.75-1.75" style="fill: #6a5f27; stroke-width: 0px;"/>
      <rect x="257.89" y="452.89" width="101.85" height="28.95" style="fill: #323130; stroke-width: 0px;"/>
      <path d="M269.52,465.61c.96,0,1.75.78,1.75,1.75s-.78,1.75-1.75,1.75-1.75-.79-1.75-1.75.78-1.75,1.75-1.75" style="fill: #6a5f27; stroke-width: 0px;"/>
      <path d="M269.52,473.45c.96,0,1.75.78,1.75,1.75s-.78,1.75-1.75,1.75-1.75-.78-1.75-1.75.78-1.75,1.75-1.75" style="fill: #6a5f27; stroke-width: 0px;"/>
      <path d="M269.52,457.46c.96,0,1.75.78,1.75,1.75s-.78,1.75-1.75,1.75-1.75-.79-1.75-1.75.78-1.75,1.75-1.75" style="fill: #6a5f27; stroke-width: 0px;"/>
      <rect x="283.89" y="452.89" width="23.26" height="28.95" style="fill: #323130; stroke-width: 0px;"/>
      <path d="M295.52,465.61c.96,0,1.75.78,1.75,1.75s-.79,1.75-1.75,1.75-1.75-.79-1.75-1.75.78-1.75,1.75-1.75" style="fill: #6a5f27; stroke-width: 0px;"/>
      <path d="M295.52,473.45c.96,0,1.75.78,1.75,1.75s-.79,1.75-1.75,1.75-1.75-.78-1.75-1.75.78-1.75,1.75-1.75" style="fill: #6a5f27; stroke-width: 0px;"/>
      <path d="M295.52,457.46c.96,0,1.75.78,1.75,1.75s-.79,1.75-1.75,1.75-1.75-.79-1.75-1.75.78-1.75,1.75-1.75" style="fill: #6a5f27; stroke-width: 0px;"/>
      <rect x="336.48" y="452.89" width="23.26" height="28.95" style="fill: #323130; stroke-width: 0px;"/>
      <path d="M348.11,465.61c.97,0,1.75.78,1.75,1.75s-.78,1.75-1.75,1.75-1.75-.79-1.75-1.75.79-1.75,1.75-1.75" style="fill: #6a5f27; stroke-width: 0px;"/>
      <path d="M348.11,473.45c.97,0,1.75.78,1.75,1.75s-.78,1.75-1.75,1.75-1.75-.78-1.75-1.75.79-1.75,1.75-1.75" style="fill: #6a5f27; stroke-width: 0px;"/>
      <path d="M348.11,457.46c.97,0,1.75.78,1.75,1.75s-.78,1.75-1.75,1.75-1.75-.79-1.75-1.75.79-1.75,1.75-1.75" style="fill: #6a5f27; stroke-width: 0px;"/>
      <rect x="310.2" y="452.89" width="23.26" height="28.95" style="fill: #323130; stroke-width: 0px;"/>
      <path d="M321.83,465.61c.96,0,1.75.78,1.75,1.75s-.79,1.75-1.75,1.75-1.75-.79-1.75-1.75.78-1.75,1.75-1.75" style="fill: #6a5f27; stroke-width: 0px;"/>
      <path d="M321.83,473.45c.96,0,1.75.78,1.75,1.75s-.79,1.75-1.75,1.75-1.75-.78-1.75-1.75.78-1.75,1.75-1.75" style="fill: #6a5f27; stroke-width: 0px;"/>
      <path d="M321.83,457.46c.96,0,1.75.78,1.75,1.75s-.79,1.75-1.75,1.75-1.75-.79-1.75-1.75.78-1.75,1.75-1.75" style="fill: #6a5f27; stroke-width: 0px;"/>
      <rect x="104.74" y="460.96" width="25.68" height="20.87" style="fill: #323130; stroke-width: 0px;"/>
      <path d="M117.57,465.73c.97,0,1.75.79,1.75,1.75s-.78,1.75-1.75,1.75-1.75-.79-1.75-1.75.78-1.75,1.75-1.75" style="fill: #6a5f27; stroke-width: 0px;"/>
      <path d="M117.57,473.57c.97,0,1.75.79,1.75,1.75s-.78,1.75-1.75,1.75-1.75-.79-1.75-1.75.78-1.75,1.75-1.75" style="fill: #6a5f27; stroke-width: 0px;"/>
      <rect x="16.28" y="51.97" width="27.96" height="15.95" style="fill: #5b5a5d; stroke-width: 0px;"/>
      <rect x="22.57" y="54.96" width="17.94" height="9.47" style="fill: #f2f2f2; stroke-width: 0px;"/>
      <path d="M30.91,59.95c0,3.48-2.82,6.3-6.29,6.3s-6.29-2.82-6.29-6.3,2.82-6.29,6.29-6.29,6.29,2.82,6.29,6.29" style="fill: #211e1e; stroke-width: 0px;"/>
      <rect x="16.28" y="67.92" width="27.96" height="15.95" style="fill: #5b5a5d; stroke-width: 0px;"/>
      <rect x="22.57" y="70.91" width="17.94" height="9.47" style="fill: #f2f2f2; stroke-width: 0px;"/>
      <path d="M30.91,75.9c0,3.47-2.82,6.29-6.29,6.29s-6.29-2.82-6.29-6.29,2.82-6.3,6.29-6.3,6.29,2.82,6.29,6.3" style="fill: #211e1e; stroke-width: 0px;"/>
      <polygon points="89.54 12.04 89.54 33.37 84.8 33.37 84.8 59.7 89.54 59.7 89.54 75.9 112.33 75.9 112.33 59.7 122.29 59.7 122.29 32.93 113.16 32.87 113.27 12.04 89.54 12.04" style="fill: #323130; stroke-width: 0px;"/>
      <path d="M107.23,21.77c0,3.48-2.82,6.29-6.29,6.29s-6.29-2.82-6.29-6.29,2.82-6.29,6.29-6.29,6.29,2.82,6.29,6.29" style="fill: #211e1e; stroke-width: 0px;"/>
      <path d="M107.23,66.1c0,3.47-2.82,6.29-6.29,6.29s-6.29-2.82-6.29-6.29,2.82-6.3,6.29-6.3,6.29,2.82,6.29,6.3" style="fill: #211e1e; stroke-width: 0px;"/>
      <rect x="103.55" y="36.66" width="16.37" height="6.64" style="fill: #211e1e; stroke-width: 0px;"/>
      <rect x="103.55" y="48.53" width="16.37" height="6.64" style="fill: #211e1e; stroke-width: 0px;"/>
      <rect x="168.38" y="337.82" width="167.23" height="20.88" style="fill: #323130; stroke-width: 0px;"/>
      <path d="M180.43,350.23c.7,0,1.26.56,1.26,1.26s-.56,1.26-1.26,1.26-1.26-.57-1.26-1.26.57-1.26,1.26-1.26" style="fill: #6a5f27; stroke-width: 0px;"/>
      <path d="M180.43,343.75c.7,0,1.26.56,1.26,1.26s-.56,1.26-1.26,1.26-1.26-.57-1.26-1.26.57-1.26,1.26-1.26" style="fill: #6a5f27; stroke-width: 0px;"/>
      <path d="M188.2,350.23c.7,0,1.26.56,1.26,1.26s-.56,1.26-1.26,1.26-1.26-.57-1.26-1.26.56-1.26,1.26-1.26" style="fill: #6a5f27; stroke-width: 0px;"/>
      <path d="M188.2,343.75c.7,0,1.26.56,1.26,1.26s-.56,1.26-1.26,1.26-1.26-.57-1.26-1.26.56-1.26,1.26-1.26" style="fill: #6a5f27; stroke-width: 0px;"/>
      <path d="M197.82,350.22c.7,0,1.26.56,1.26,1.26s-.56,1.26-1.26,1.26-1.26-.57-1.26-1.26.57-1.26,1.26-1.26" style="fill: #6a5f27; stroke-width: 0px;"/>
      <path d="M197.82,343.75c.7,0,1.26.56,1.26,1.26s-.56,1.26-1.26,1.26-1.26-.57-1.26-1.26.57-1.26,1.26-1.26" style="fill: #6a5f27; stroke-width: 0px;"/>
      <path d="M205.58,350.22c.7,0,1.26.56,1.26,1.26s-.56,1.26-1.26,1.26-1.26-.57-1.26-1.26.56-1.26,1.26-1.26" style="fill: #6a5f27; stroke-width: 0px;"/>
      <path d="M205.58,343.75c.7,0,1.26.56,1.26,1.26s-.56,1.26-1.26,1.26-1.26-.57-1.26-1.26.56-1.26,1.26-1.26" style="fill: #6a5f27; stroke-width: 0px;"/>
      <path d="M215.62,350.22c.7,0,1.26.56,1.26,1.26s-.57,1.26-1.26,1.26-1.26-.57-1.26-1.26.56-1.26,1.26-1.26" style="fill: #6a5f27; stroke-width: 0px;"/>
      <path d="M215.62,343.75c.7,0,1.26.56,1.26,1.26s-.57,1.26-1.26,1.26-1.26-.57-1.26-1.26.56-1.26,1.26-1.26" style="fill: #6a5f27; stroke-width: 0px;"/>
      <path d="M223.39,350.22c.7,0,1.26.56,1.26,1.26s-.56,1.26-1.26,1.26-1.26-.57-1.26-1.26.57-1.26,1.26-1.26" style="fill: #6a5f27; stroke-width: 0px;"/>
      <path d="M223.39,343.75c.7,0,1.26.56,1.26,1.26s-.56,1.26-1.26,1.26-1.26-.57-1.26-1.26.57-1.26,1.26-1.26" style="fill: #6a5f27; stroke-width: 0px;"/>
      <path d="M233.16,350.22c.7,0,1.26.56,1.26,1.26s-.57,1.26-1.26,1.26-1.26-.57-1.26-1.26.56-1.26,1.26-1.26" style="fill: #6a5f27; stroke-width: 0px;"/>
      <path d="M233.16,343.75c.7,0,1.26.56,1.26,1.26s-.57,1.26-1.26,1.26-1.26-.57-1.26-1.26.56-1.26,1.26-1.26" style="fill: #6a5f27; stroke-width: 0px;"/>
      <path d="M242.55,350.22c.7,0,1.26.56,1.26,1.26s-.56,1.26-1.26,1.26-1.26-.57-1.26-1.26.56-1.26,1.26-1.26" style="fill: #6a5f27; stroke-width: 0px;"/>
      <path d="M242.55,343.75c.7,0,1.26.56,1.26,1.26s-.56,1.26-1.26,1.26-1.26-.57-1.26-1.26.56-1.26,1.26-1.26" style="fill: #6a5f27; stroke-width: 0px;"/>
      <path d="M251.83,350.22c.7,0,1.26.56,1.26,1.26s-.56,1.26-1.26,1.26-1.26-.57-1.26-1.26.56-1.26,1.26-1.26" style="fill: #6a5f27; stroke-width: 0px;"/>
      <path d="M251.83,343.75c.7,0,1.26.56,1.26,1.26s-.56,1.26-1.26,1.26-1.26-.57-1.26-1.26.56-1.26,1.26-1.26" style="fill: #6a5f27; stroke-width: 0px;"/>
      <path d="M260.13,350.22c.7,0,1.26.56,1.26,1.26s-.56,1.26-1.26,1.26-1.26-.57-1.26-1.26.56-1.26,1.26-1.26" style="fill: #6a5f27; stroke-width: 0px;"/>
      <path d="M260.13,343.75c.7,0,1.26.56,1.26,1.26s-.56,1.26-1.26,1.26-1.26-.57-1.26-1.26.56-1.26,1.26-1.26" style="fill: #6a5f27; stroke-width: 0px;"/>
      <path d="M268.62,350.22c.7,0,1.26.56,1.26,1.26s-.56,1.26-1.26,1.26-1.26-.57-1.26-1.26.57-1.26,1.26-1.26" style="fill: #6a5f27; stroke-width: 0px;"/>
      <path d="M268.62,343.75c.7,0,1.26.56,1.26,1.26s-.56,1.26-1.26,1.26-1.26-.57-1.26-1.26.57-1.26,1.26-1.26" style="fill: #6a5f27; stroke-width: 0px;"/>
      <path d="M276.99,350.22c.7,0,1.26.56,1.26,1.26s-.56,1.26-1.26,1.26-1.26-.57-1.26-1.26.56-1.26,1.26-1.26" style="fill: #6a5f27; stroke-width: 0px;"/>
      <path d="M276.99,343.75c.7,0,1.26.56,1.26,1.26s-.56,1.26-1.26,1.26-1.26-.57-1.26-1.26.56-1.26,1.26-1.26" style="fill: #6a5f27; stroke-width: 0px;"/>
      <path d="M286.56,350.22c.7,0,1.26.56,1.26,1.26s-.57,1.26-1.26,1.26-1.26-.57-1.26-1.26.56-1.26,1.26-1.26" style="fill: #6a5f27; stroke-width: 0px;"/>
      <path d="M286.56,343.75c.7,0,1.26.56,1.26,1.26s-.57,1.26-1.26,1.26-1.26-.57-1.26-1.26.56-1.26,1.26-1.26" style="fill: #6a5f27; stroke-width: 0px;"/>
      <path d="M295.02,350.22c.7,0,1.26.56,1.26,1.26s-.56,1.26-1.26,1.26-1.26-.57-1.26-1.26.57-1.26,1.26-1.26" style="fill: #6a5f27; stroke-width: 0px;"/>
      <path d="M295.02,343.75c.7,0,1.26.56,1.26,1.26s-.56,1.26-1.26,1.26-1.26-.57-1.26-1.26.57-1.26,1.26-1.26" style="fill: #6a5f27; stroke-width: 0px;"/>
      <path d="M303.37,350.22c.7,0,1.26.56,1.26,1.26s-.56,1.26-1.26,1.26-1.26-.57-1.26-1.26.56-1.26,1.26-1.26" style="fill: #6a5f27; stroke-width: 0px;"/>
      <path d="M303.37,343.75c.7,0,1.26.56,1.26,1.26s-.56,1.26-1.26,1.26-1.26-.57-1.26-1.26.56-1.26,1.26-1.26" style="fill: #6a5f27; stroke-width: 0px;"/>
      <path d="M312.4,350.22c.7,0,1.26.56,1.26,1.26s-.56,1.26-1.26,1.26-1.26-.57-1.26-1.26.56-1.26,1.26-1.26" style="fill: #6a5f27; stroke-width: 0px;"/>
      <path d="M312.4,343.75c.7,0,1.26.56,1.26,1.26s-.56,1.26-1.26,1.26-1.26-.57-1.26-1.26.56-1.26,1.26-1.26" style="fill: #6a5f27; stroke-width: 0px;"/>
      <path d="M320.69,350.22c.7,0,1.26.56,1.26,1.26s-.56,1.26-1.26,1.26-1.26-.57-1.26-1.26.57-1.26,1.26-1.26" style="fill: #6a5f27; stroke-width: 0px;"/>
      <path d="M320.69,343.75c.7,0,1.26.56,1.26,1.26s-.56,1.26-1.26,1.26-1.26-.57-1.26-1.26.57-1.26,1.26-1.26" style="fill: #6a5f27; stroke-width: 0px;"/>
      <polyline points="241.52 335.61 166.08 335.61 166.08 360.88 335.86 360.88 335.86 335.61 261.68 335.61" style="fill: none; stroke: #5b5a5d; stroke-miterlimit: 10;"/>
      <path d="M171.65,112.87c0,3.33-2.7,6.03-6.02,6.03s-6.03-2.7-6.03-6.03,2.7-6.03,6.03-6.03,6.02,2.7,6.02,6.03" style="fill: #6a5f27; stroke-width: 0px;"/>
      <path d="M169.1,112.87c0,1.92-1.56,3.48-3.48,3.48s-3.48-1.56-3.48-3.48,1.56-3.48,3.48-3.48,3.48,1.56,3.48,3.48" style="fill: #211e1e; stroke-width: 0px;"/>
      <path d="M343.16,107.77c2.35,2.35,2.35,6.17,0,8.52-2.36,2.35-6.17,2.35-8.52,0-2.36-2.36-2.36-6.17,0-8.52,2.35-2.36,6.17-2.36,8.52,0" style="fill: #6a5f27; stroke-width: 0px;"/>
      <path d="M342.38,112.04c0,1.92-1.56,3.48-3.48,3.48s-3.48-1.56-3.48-3.48,1.56-3.48,3.48-3.48,3.48,1.56,3.48,3.48" style="fill: #211e1e; stroke-width: 0px;"/>
      <rect x="387" y="11.44" width="33.14" height="72.44" style="fill: #323130; stroke-width: 0px;"/>
      <rect x="393.41" y="13.59" width="20.88" height="67.39" style="fill: #323130; stroke-width: 0px;"/>
      <polyline points="390.01 51.3 390.01 80.98 417.45 80.98 417.45 14.19 390.01 14.19 390.01 43.37" style="fill: none; stroke: #414142; stroke-miterlimit: 10; stroke-width: 4px;"/>
      <g>
        <path d="M51.69,144.89c.56,0,1.03.08,1.42.25.39.17.68.42.88.75.2.33.3.74.3,1.22,0,.34-.07.65-.21.93-.14.28-.34.52-.59.71-.26.2-.57.34-.92.44l-.28.11h-2.3v-.8s1.72,0,1.72,0c.35,0,.65-.06.88-.19.23-.13.41-.29.53-.5.12-.21.18-.44.18-.7,0-.43-.13-.78-.38-1.04-.25-.26-.67-.39-1.23-.39h-1.47v6.62h-.99v-7.42h2.46ZM51.76,148.95h1.04l1.83,3.3v.06h-1.06l-1.8-3.36Z" style="fill: #fff; stroke-width: 0px;"/>
        <path d="M59.61,150.44c0-.23-.05-.43-.15-.6s-.28-.31-.53-.44c-.25-.13-.62-.27-1.09-.4-.37-.11-.7-.23-.99-.36-.29-.13-.55-.29-.76-.46s-.37-.37-.48-.6-.17-.48-.17-.77c0-.39.1-.73.31-1.04.21-.3.5-.54.88-.72.38-.17.82-.26,1.33-.26.56,0,1.04.11,1.43.32s.69.49.89.83c.2.34.31.71.31,1.09h-.99c0-.28-.06-.53-.18-.74-.12-.22-.3-.39-.54-.51s-.55-.19-.92-.19c-.35,0-.63.05-.86.16-.23.11-.39.25-.5.43s-.16.39-.16.62c0,.21.06.39.18.55s.31.31.56.44c.25.13.58.25.99.37.56.16,1.02.34,1.38.55.36.21.63.45.8.73.17.28.26.62.26,1s-.11.75-.32,1.05c-.21.3-.51.53-.9.69-.39.16-.84.24-1.37.24-.34,0-.68-.05-1.01-.14-.33-.09-.63-.24-.9-.43-.27-.19-.49-.43-.65-.71-.16-.28-.24-.61-.24-.98h.99c0,.25.05.47.15.66s.23.33.4.45c.17.12.36.21.58.26.22.06.45.08.68.08.34,0,.63-.05.87-.15.24-.1.42-.23.54-.41s.19-.39.19-.63Z" style="fill: #fff; stroke-width: 0px;"/>
        <path d="M63.68,149.54h-2.49v-.77h2.49v.77Z" style="fill: #fff; stroke-width: 0px;"/>
        <path d="M69.36,152.31h-4.87v-.67l2.43-2.71c.3-.33.54-.62.7-.85s.28-.44.34-.63c.06-.19.1-.38.1-.57,0-.37-.11-.68-.33-.94-.22-.26-.54-.39-.95-.39-.33,0-.61.06-.83.19-.22.13-.38.31-.49.54-.11.23-.16.49-.16.79h-.95c0-.42.09-.8.27-1.15s.46-.62.82-.83c.36-.21.81-.31,1.34-.31.7,0,1.25.18,1.64.55.4.36.59.84.59,1.44,0,.29-.06.59-.19.88-.13.3-.29.59-.5.88-.21.29-.44.57-.7.85l-1.99,2.17h3.72v.76Z" style="fill: #fff; stroke-width: 0px;"/>
        <path d="M71.74,148.35h.81c.47,0,.86.06,1.17.17s.55.26.73.45c.18.19.3.39.38.61.07.22.11.45.11.67,0,.46-.1.85-.31,1.18-.21.32-.49.57-.84.74-.35.17-.75.25-1.2.25-.32,0-.63-.05-.91-.14-.29-.09-.54-.23-.75-.4-.22-.17-.38-.39-.51-.65-.12-.26-.18-.55-.18-.88h.95c0,.26.06.49.17.68s.28.35.48.46c.21.11.46.16.75.16.43,0,.77-.12,1.02-.35.25-.23.37-.58.37-1.04,0-.31-.06-.56-.19-.77-.13-.2-.31-.35-.55-.45-.23-.1-.51-.15-.83-.15h-.67v-.56ZM72.41,148.14c.33,0,.6-.06.81-.17.22-.11.38-.26.48-.46s.16-.41.16-.66c0-.28-.05-.52-.14-.72-.09-.2-.24-.34-.43-.44-.19-.1-.43-.15-.72-.15-.27,0-.5.05-.7.16-.2.11-.36.25-.47.44s-.17.42-.17.68h-.95c0-.38.09-.72.29-1.03s.46-.55.8-.74c.34-.18.74-.28,1.2-.28s.84.08,1.18.24c.34.16.6.39.79.7.19.31.28.7.28,1.15,0,.19-.04.39-.13.6-.09.21-.22.41-.4.59-.18.19-.42.34-.71.45s-.64.18-1.04.18h-.81v-.57h.67Z" style="fill: #fff; stroke-width: 0px;"/>
        <path d="M81.1,152.31h-4.87v-.67l2.43-2.71c.3-.33.54-.62.7-.85s.28-.44.34-.63c.06-.19.1-.38.1-.57,0-.37-.11-.68-.33-.94-.22-.26-.54-.39-.95-.39-.33,0-.61.06-.83.19-.22.13-.38.31-.49.54-.11.23-.16.49-.16.79h-.95c0-.42.09-.8.27-1.15s.46-.62.82-.83c.36-.21.81-.31,1.34-.31.7,0,1.25.18,1.64.55.4.36.59.84.59,1.44,0,.29-.06.59-.19.88-.13.3-.29.59-.5.88-.21.29-.44.57-.7.85l-1.99,2.17h3.72v.76Z" style="fill: #fff; stroke-width: 0px;"/>
      </g>
      <g>
        <path d="M61.27,113.08v-.8h1.98c.38,0,.69-.06.93-.19s.41-.29.52-.51c.11-.22.17-.47.17-.74,0-.25-.06-.49-.17-.72s-.28-.41-.52-.55c-.24-.14-.55-.21-.93-.21h-1.75v6.62h-.99v-7.42h2.74c.56,0,1.04.1,1.42.29.39.19.68.46.88.8.2.34.3.73.3,1.17,0,.48-.1.88-.3,1.22-.2.34-.5.59-.88.77-.39.18-.86.26-1.42.26h-1.98Z" style="fill: #fff; stroke-width: 0px;"/>
        <path d="M72.56,113.63c-.05.47-.19.88-.4,1.26-.22.37-.52.67-.92.88-.4.21-.9.32-1.49.32s-1.09-.14-1.52-.43c-.44-.28-.77-.68-1.01-1.2s-.36-1.12-.36-1.81v-.75c0-.69.12-1.3.37-1.81.24-.52.59-.92,1.04-1.2.45-.29.98-.43,1.59-.43.56,0,1.04.1,1.42.31.39.21.69.5.91.87.22.37.35.81.4,1.29h-.99c-.08-.52-.24-.93-.5-1.23s-.67-.45-1.24-.45c-.44,0-.81.11-1.1.33s-.52.53-.67.92c-.15.39-.23.85-.23,1.38v.76c0,.49.07.93.2,1.33s.34.72.62.96.64.36,1.08.36.75-.07,1-.2c.25-.13.43-.32.56-.57.13-.25.22-.55.27-.89h.99Z" style="fill: #fff; stroke-width: 0px;"/>
      </g>
      <g>
        <path d="M26.22,44.29c-.05.47-.19.88-.4,1.26-.22.37-.52.67-.92.88-.4.21-.9.32-1.49.32s-1.09-.14-1.52-.43c-.44-.28-.77-.68-1.01-1.2s-.36-1.12-.36-1.81v-.75c0-.69.12-1.3.37-1.81.24-.52.59-.92,1.04-1.2.45-.29.98-.43,1.59-.43.56,0,1.04.1,1.42.31.39.21.69.5.91.87.22.37.35.81.4,1.29h-.99c-.08-.52-.24-.93-.5-1.23s-.67-.45-1.24-.45c-.44,0-.81.11-1.1.33s-.52.53-.67.92c-.15.39-.23.85-.23,1.38v.76c0,.49.07.93.2,1.33s.34.72.62.96.64.36,1.08.36.75-.07,1-.2c.25-.13.43-.32.56-.57.13-.25.22-.55.27-.89h.99Z" style="fill: #fff; stroke-width: 0px;"/>
        <path d="M27.86,46.65h-1.02l2.83-7.42h.65l-.02.65-2.45,6.77ZM32.24,44.7h-4.18v-.8h4.18v.8ZM29.9,39.88v-.65s.64,0,.64,0l2.84,7.42h-1.01l-2.46-6.77Z" style="fill: #fff; stroke-width: 0px;"/>
        <path d="M40.09,46.65h-.99l-3.73-5.74v5.74h-.99v-7.42h.99l3.74,5.76v-5.76h.98v7.42Z" style="fill: #fff; stroke-width: 0px;"/>
      </g>
      <path d="M55.08,60.19h-.66v-4.95h.66v4.95ZM57.65,57.9h-2.67v-.53h2.67v.53ZM58.23,60.19h-.66v-4.95h.66v4.95Z" style="fill: #fff; stroke-width: 0px;"/>
      <path d="M55.08,78.05h-.66v-4.95h.66v4.95ZM57.43,78.05h-2.47v-.53h2.47v.53Z" style="fill: #fff; stroke-width: 0px;"/>
      <g>
        <path d="M57.49,301.64v-.99h7.42v.99h-7.42ZM57.49,301.11h.79v1.55c0,.53.11.97.33,1.32s.54.62.94.8c.4.18.88.27,1.42.27h.46c.57,0,1.05-.09,1.45-.27.4-.18.7-.44.91-.78s.32-.76.32-1.25v-1.67h.8v1.67c0,.65-.14,1.22-.43,1.72-.28.49-.69.87-1.21,1.15s-1.14.41-1.85.41h-.45c-.72,0-1.34-.14-1.86-.41-.52-.28-.92-.66-1.21-1.17-.28-.5-.43-1.1-.43-1.78v-1.55Z" style="fill: #fff; stroke-width: 0px;"/>
        <path d="M57.49,308.56v-.99h7.42v.99h-7.42Z" style="fill: #fff; stroke-width: 0px;"/>
        <path d="M60.96,316.06c-.74,0-1.38-.12-1.91-.37-.53-.25-.94-.59-1.23-1.04s-.43-.97-.43-1.58.14-1.1.43-1.56.7-.81,1.23-1.06c.53-.25,1.17-.38,1.91-.38h.47c.74,0,1.38.13,1.91.38.54.25.95.6,1.23,1.06.29.45.43.97.43,1.55s-.14,1.13-.43,1.58c-.29.45-.7.79-1.23,1.04-.54.25-1.17.37-1.91.37h-.47ZM61.45,315.08c.59,0,1.09-.08,1.5-.24.41-.16.71-.39.92-.69.21-.3.32-.66.32-1.08s-.11-.76-.32-1.06-.52-.53-.92-.7c-.41-.17-.91-.25-1.5-.25h-.48c-.59,0-1.1.08-1.5.25-.41.17-.72.4-.93.7-.21.3-.32.66-.32,1.06,0,.42.11.79.32,1.08s.52.52.93.68c.41.16.91.23,1.5.23h.48Z" style="fill: #fff; stroke-width: 0px;"/>
      </g>
      <polyline points="53.98 188.36 61.19 188.36 61.19 294.76" style="fill: none; stroke: #fff; stroke-miterlimit: 10; stroke-width: .5px;"/>
      <polyline points="61.19 323.86 61.19 427.8 53.98 427.8" style="fill: none; stroke: #fff; stroke-miterlimit: 10; stroke-width: .5px;"/>
      <g>
        <path d="M184.69,428.45c.56,0,1.03.08,1.42.25.39.17.68.42.88.75.2.33.3.74.3,1.22,0,.34-.07.65-.21.93-.14.28-.34.52-.59.71-.26.2-.57.34-.92.44l-.28.11h-2.3v-.8s1.72,0,1.72,0c.35,0,.65-.06.88-.19.23-.13.41-.29.53-.5.12-.21.18-.44.18-.7,0-.43-.13-.78-.38-1.04-.25-.26-.67-.39-1.23-.39h-1.47v6.62h-.99v-7.42h2.46ZM184.76,432.51h1.04l1.83,3.3v.06h-1.06l-1.8-3.36Z" style="fill: #fff; stroke-width: 0px;"/>
        <path d="M189.65,435.88h-.99v-7.42h.99v7.42ZM193.32,429.25h-3.87v-.8h3.87v.8ZM192.85,432.44h-3.4v-.79h3.4v.79ZM193.37,435.88h-3.92v-.79h3.92v.79Z" style="fill: #fff; stroke-width: 0px;"/>
        <path d="M195.58,435.88h-.99v-7.42h.99v7.42ZM199.1,435.88h-3.71v-.79h3.71v.79Z" style="fill: #fff; stroke-width: 0px;"/>
        <path d="M200.61,435.88h-1.02l2.83-7.42h.65l-.02.65-2.45,6.77ZM205,433.93h-4.18v-.8h4.18v.8ZM202.66,429.1v-.65s.64,0,.64,0l2.84,7.42h-1.01l-2.46-6.77Z" style="fill: #fff; stroke-width: 0px;"/>
        <path d="M208.81,432.18l1.93-3.73h1.12l-2.55,4.65v2.77h-.99v-2.77l-2.55-4.65h1.13l1.92,3.73Z" style="fill: #fff; stroke-width: 0px;"/>
      </g>
      <polyline points="155 439.41 155 433.71 174.74 433.71" style="fill: none; stroke: #fff; stroke-miterlimit: 10; stroke-width: .5px;"/>
      <polyline points="215.95 433.71 233.85 433.71 233.85 440.12" style="fill: none; stroke: #fff; stroke-miterlimit: 10; stroke-width: .5px;"/>
      <g>
        <path d="M284.3,435.88h-1.02l2.83-7.42h.65l-.02.65-2.45,6.77ZM288.68,433.93h-4.18v-.8h4.18v.8ZM286.34,429.11v-.65s.64,0,.64,0l2.84,7.42h-1.01l-2.46-6.77Z" style="fill: #fff; stroke-width: 0px;"/>
        <path d="M296.53,435.88h-.99l-3.73-5.74v5.74h-.99v-7.42h.99l3.74,5.76v-5.76h.98v7.42Z" style="fill: #fff; stroke-width: 0px;"/>
        <path d="M298.57,435.88h-1.02l2.83-7.42h.65l-.02.65-2.45,6.77ZM302.96,433.93h-4.18v-.8h4.18v.8ZM300.62,429.11v-.65s.64,0,.64,0l2.84,7.42h-1.01l-2.46-6.77Z" style="fill: #fff; stroke-width: 0px;"/>
        <path d="M306.08,435.88h-.99v-7.42h.99v7.42ZM309.6,435.88h-3.71v-.79h3.71v.79Z" style="fill: #fff; stroke-width: 0px;"/>
        <path d="M316.11,432.41c0,.74-.12,1.38-.37,1.91-.25.53-.59.94-1.04,1.23s-.97.43-1.58.43-1.1-.14-1.55-.43c-.45-.29-.81-.7-1.06-1.23-.25-.53-.38-1.17-.38-1.91v-.47c0-.74.13-1.38.38-1.91.25-.54.6-.95,1.06-1.23.45-.29.97-.43,1.55-.43s1.13.14,1.58.43.79.7,1.04,1.23c.25.54.37,1.17.37,1.91v.47ZM315.13,431.92c0-.59-.08-1.09-.24-1.5s-.39-.71-.69-.93c-.3-.21-.66-.32-1.08-.32s-.76.11-1.06.32c-.3.21-.53.52-.7.93s-.25.9-.25,1.5v.48c0,.6.08,1.1.25,1.5.17.41.4.72.7.93s.66.32,1.06.32c.42,0,.79-.11,1.08-.32.3-.21.52-.52.68-.93.16-.41.23-.91.23-1.5v-.48Z" style="fill: #fff; stroke-width: 0px;"/>
        <path d="M323.07,434.9c-.09.13-.24.28-.44.45-.2.17-.47.31-.83.44-.35.12-.81.19-1.36.19-.6,0-1.14-.14-1.6-.42-.47-.28-.83-.68-1.1-1.21-.26-.53-.4-1.16-.4-1.9v-.59c0-.74.12-1.37.35-1.89.23-.52.57-.93,1.01-1.21s.99-.42,1.62-.42c.57,0,1.04.1,1.43.29.38.2.68.46.9.81s.35.73.42,1.17h-.99c-.04-.27-.13-.51-.26-.74s-.32-.4-.56-.54c-.24-.13-.55-.2-.93-.2-.46,0-.83.11-1.13.33s-.51.53-.65.94c-.14.4-.21.89-.21,1.44v.6c0,.57.09,1.06.26,1.47s.42.72.74.94c.32.22.69.33,1.11.33.35,0,.63-.03.85-.09s.38-.13.51-.21c.12-.08.22-.16.28-.24v-1.67h-1.71v-.79h2.7v2.72Z" style="fill: #fff; stroke-width: 0px;"/>
        <path d="M328.34,435.88h-.99v-7.42h.99v7.42Z" style="fill: #fff; stroke-width: 0px;"/>
        <path d="M335.84,435.88h-.99l-3.73-5.74v5.74h-.99v-7.42h.99l3.74,5.76v-5.76h.98v7.42Z" style="fill: #fff; stroke-width: 0px;"/>
      </g>
      <polyline points="268.38 439.37 268.38 434.06 277.39 434.06" style="fill: none; stroke: #fff; stroke-miterlimit: 10; stroke-width: .5px;"/>
      <polyline points="340.91 433.35 349.86 433.35 349.86 440.12" style="fill: none; stroke: #fff; stroke-miterlimit: 10; stroke-width: .5px;"/>
      <g>
        <path d="M113.79,450.03c.56,0,1.03.08,1.42.25s.68.42.88.75c.2.33.3.74.3,1.22,0,.34-.07.65-.21.93-.14.28-.34.52-.59.71-.26.2-.57.34-.92.44l-.28.11h-2.3v-.8s1.72,0,1.72,0c.35,0,.65-.06.88-.19s.41-.29.53-.5c.12-.21.18-.44.18-.7,0-.43-.13-.78-.38-1.04-.25-.26-.67-.39-1.23-.39h-1.47v6.62h-.99v-7.42h2.46ZM113.86,454.08h1.04l1.83,3.3v.06h-1.06l-1.8-3.37Z" style="fill: #fff; stroke-width: 0px;"/>
        <path d="M121.71,455.57c0-.23-.05-.43-.15-.6s-.28-.31-.53-.44c-.25-.13-.62-.27-1.09-.4-.37-.11-.7-.22-.99-.36-.29-.13-.55-.29-.76-.46-.21-.17-.37-.37-.48-.6s-.17-.48-.17-.77c0-.39.1-.73.31-1.04.21-.3.5-.54.88-.72.38-.17.82-.26,1.33-.26.56,0,1.04.11,1.43.32.39.21.69.49.89.83.2.34.31.71.31,1.09h-.99c0-.28-.06-.53-.18-.74-.12-.22-.3-.39-.54-.51-.24-.12-.55-.19-.92-.19-.35,0-.63.05-.86.16-.23.11-.39.25-.5.43-.11.18-.16.39-.16.62,0,.21.06.39.18.55.12.16.31.31.56.44s.58.25.99.37c.56.16,1.02.34,1.38.54.36.21.63.45.8.73.17.28.26.62.26,1s-.11.75-.32,1.05c-.21.3-.51.53-.9.69-.39.16-.84.24-1.37.24-.34,0-.68-.05-1.01-.14-.33-.09-.63-.24-.9-.43s-.49-.43-.65-.71c-.16-.28-.24-.61-.24-.98h.99c0,.25.05.47.15.66s.23.33.4.45c.17.12.36.21.58.26.22.06.45.08.68.08.34,0,.63-.05.87-.15s.42-.23.54-.41.19-.39.19-.63Z" style="fill: #fff; stroke-width: 0px;"/>
        <path d="M124.95,457.45h-.99v-7.42h.99v7.42ZM128.47,457.45h-3.71v-.79h3.71v.79Z" style="fill: #fff; stroke-width: 0px;"/>
      </g>
      <g>
        <path d="M444.58,313.8h-.79v-1.98c0-.38-.06-.69-.19-.93-.12-.24-.29-.41-.51-.52-.22-.11-.46-.17-.74-.17-.25,0-.49.06-.72.17-.22.11-.41.28-.55.52-.14.24-.21.55-.21.93v1.75h6.62v.99h-7.42v-2.74c0-.56.1-1.04.29-1.42.19-.39.46-.68.8-.88.34-.2.73-.3,1.17-.3.48,0,.88.1,1.22.3.34.2.59.49.77.88.17.39.26.86.26,1.42v1.98Z" style="fill: #fff; stroke-width: 0px;"/>
        <path d="M440.07,300.78v-.99l7.42,1.79v.71l-2.34-.37-5.08-1.14ZM445.25,302.29l2.24-.52v.72l-5.42,1.52-2,.41v-.71l5.18-1.43ZM440.07,304.55v-.72l2,.42,5.42,1.58v.72l-2.24-.53-5.18-1.47ZM445.15,306.36l2.33-.35v.71l-7.42,1.79v-.99l5.09-1.17Z" style="fill: #fff; stroke-width: 0px;"/>
        <path d="M440.07,291.31h7.42v.98h-2.9l-4.52-.14v-.85ZM440.07,297.43l6.07-2.42-6.07-2.42v-.96l7.42,3.01v.75l-7.42,3.01v-.96ZM440.07,297.86l4.52-.14h2.9v.98h-7.42v-.85Z" style="fill: #fff; stroke-width: 0px;"/>
      </g>
      <polyline points="450.33 424.36 443.13 424.36 443.13 317.96" style="fill: none; stroke: #fff; stroke-miterlimit: 10; stroke-width: .5px;"/>
      <polyline points="443.13 288.86 443.13 184.92 450.33 184.92" style="fill: none; stroke: #fff; stroke-miterlimit: 10; stroke-width: .5px;"/>
      <rect x="148.44" y="20.43" width="42.71" height="34.31" style="fill: #99999a; stroke-width: 0px;"/>
      <polygon points="159.71 23.94 179.76 23.94 184.63 28.92 184.63 51.23 154.97 51.23 154.97 29.04 159.71 23.94" style="fill: #171717; stroke-width: 0px;"/>
      <path d="M165.91,40.58c.7,0,1.26.56,1.26,1.26s-.56,1.27-1.26,1.27-1.26-.57-1.26-1.27.56-1.26,1.26-1.26" style="fill: #6a5f27; stroke-width: 0px;"/>
      <path d="M165.91,34.1c.7,0,1.26.56,1.26,1.26s-.56,1.27-1.26,1.27-1.26-.57-1.26-1.27.56-1.26,1.26-1.26" style="fill: #6a5f27; stroke-width: 0px;"/>
      <path d="M173.68,40.58c.7,0,1.26.56,1.26,1.26s-.56,1.27-1.26,1.27-1.26-.57-1.26-1.27.56-1.26,1.26-1.26" style="fill: #6a5f27; stroke-width: 0px;"/>
      <path d="M173.68,34.1c.7,0,1.26.56,1.26,1.26s-.56,1.27-1.26,1.27-1.26-.57-1.26-1.27.56-1.26,1.26-1.26" style="fill: #6a5f27; stroke-width: 0px;"/>
      <rect x="299.5" y="13.44" width="56" height="59.33" style="fill: #c6c7c9; stroke-width: 0px;"/>
      <rect x="306.44" y="37.13" width="42.12" height="24.53" style="fill: #171717; stroke-width: 0px;"/>
      <rect x="315.82" y="61.67" width="23.13" height="5.69" style="fill: #171717; stroke-width: 0px;"/>
      <rect x="319.97" y="67.36" width="14.95" height="4.75" style="fill: #171717; stroke-width: 0px;"/>
      <rect x="300.74" y="61.67" width="15.07" height="8.54" style="fill: #f1e902; stroke-width: 0px;"/>
      <rect x="338.95" y="61.67" width="15.07" height="8.54" style="fill: #7cc244; stroke-width: 0px;"/>
      <rect x="233.79" y="43.11" width="48.45" height="21.4" style="fill: #99999a; stroke-width: 0px;"/>
      <rect x="235.07" y="43.97" width="45.92" height="19.33" style="fill: #171717; stroke-width: 0px;"/>
      <rect x="233.81" y="13.24" width="48.45" height="21.4" style="fill: #99999a; stroke-width: 0px;"/>
      <rect x="235.09" y="14.1" width="45.92" height="19.33" style="fill: #171717; stroke-width: 0px;"/>
      <g>
        <path d="M88.18,86.04h-.99v-7.42h.99v7.42Z" style="fill: #fff; stroke-width: 0px;"/>
        <path d="M95.67,86.04h-.99l-3.73-5.74v5.74h-.99v-7.42h.99l3.74,5.76v-5.76h.98v7.42Z" style="fill: #fff; stroke-width: 0px;"/>
        <path d="M98.17,83.13v-.8h1.98c.38,0,.69-.06.93-.19s.41-.29.52-.51c.11-.22.17-.47.17-.74,0-.25-.06-.49-.17-.72s-.28-.41-.52-.55c-.24-.14-.55-.21-.93-.21h-1.75v6.62h-.99v-7.42h2.74c.56,0,1.04.1,1.42.29.39.19.68.46.88.8.2.34.3.73.3,1.17,0,.48-.1.88-.3,1.22-.2.34-.5.59-.88.77-.39.18-.86.26-1.42.26h-1.98Z" style="fill: #fff; stroke-width: 0px;"/>
        <path d="M109.23,78.62v5.02c0,.56-.12,1.02-.38,1.39-.25.37-.58.65-.99.83-.41.19-.85.28-1.33.28-.5,0-.96-.09-1.36-.28-.41-.19-.73-.46-.96-.83-.24-.37-.35-.83-.35-1.39v-5.02h.98v5.02c0,.39.07.71.21.96.14.25.34.44.6.56s.55.19.89.19.64-.06.9-.19.45-.31.59-.56.21-.57.21-.96v-5.02h.99Z" style="fill: #fff; stroke-width: 0px;"/>
        <path d="M115.9,79.42h-5.74v-.8h5.74v.8ZM113.52,86.04h-.98v-7.42h.98v7.42Z" style="fill: #fff; stroke-width: 0px;"/>
      </g>
      <g>
        <path d="M400.96,95.48c0-.23-.05-.43-.15-.6s-.28-.31-.53-.44c-.25-.13-.62-.27-1.09-.4-.37-.11-.7-.23-.99-.36-.29-.13-.55-.29-.76-.46s-.37-.37-.48-.6-.17-.48-.17-.77c0-.39.1-.73.31-1.04.21-.3.5-.54.88-.72.38-.17.82-.26,1.33-.26.56,0,1.04.11,1.43.32s.69.49.89.83c.2.34.31.71.31,1.09h-.99c0-.28-.06-.53-.18-.74-.12-.22-.3-.39-.54-.51s-.55-.19-.92-.19c-.35,0-.63.05-.86.16-.23.11-.39.25-.5.43s-.16.39-.16.62c0,.21.06.39.18.55s.31.31.56.44c.25.13.58.25.99.37.56.16,1.02.34,1.38.55.36.21.63.45.8.73.17.28.26.62.26,1s-.11.75-.32,1.05c-.21.3-.51.53-.9.69-.39.16-.84.24-1.37.24-.34,0-.68-.05-1.01-.14-.33-.09-.63-.24-.9-.43-.27-.19-.49-.43-.65-.71-.16-.28-.24-.61-.24-.98h.99c0,.25.05.47.15.66s.23.33.4.45c.17.12.36.21.58.26.22.06.45.08.68.08.34,0,.63-.05.87-.15.24-.1.42-.23.54-.41s.19-.39.19-.63Z" style="fill: #fff; stroke-width: 0px;"/>
        <path d="M403.97,94.45v-.8h1.98c.38,0,.69-.06.93-.19s.41-.29.52-.51c.11-.22.17-.47.17-.74,0-.25-.06-.49-.17-.72s-.28-.41-.52-.55c-.24-.14-.55-.21-.93-.21h-1.75v6.62h-.99v-7.42h2.74c.56,0,1.04.1,1.42.29.39.19.68.46.88.8.2.34.3.73.3,1.17,0,.48-.1.88-.3,1.22-.2.34-.5.59-.88.77-.39.18-.86.26-1.42.26h-1.98Z" style="fill: #fff; stroke-width: 0px;"/>
        <path d="M410.86,97.36h-.99v-7.42h.99v7.42Z" style="fill: #fff; stroke-width: 0px;"/>
      </g>
      <g>
        <path d="M211.19,387.79h-1.46v-8.45h1.42l.04,1.33v7.12ZM213.83,380.62c-.12-.03-.24-.04-.35-.05s-.23-.01-.36-.01c-.44,0-.82.09-1.12.27-.3.18-.54.43-.71.75s-.27.69-.31,1.1l-.41.23c0-.68.09-1.31.27-1.87.18-.56.47-1.02.86-1.36.39-.34.89-.51,1.5-.51.1,0,.22.01.36.04s.23.05.29.07v1.34Z" style="fill: #fff; stroke-width: 0px;"/>
        <path d="M214.57,383.47c0-.82.16-1.55.47-2.2.31-.65.75-1.16,1.33-1.54.57-.38,1.25-.57,2.04-.57s1.48.19,2.06.57c.58.38,1.02.89,1.33,1.54.31.65.46,1.38.46,2.2v.18c0,.81-.16,1.54-.46,2.19s-.75,1.16-1.33,1.54-1.26.56-2.05.56-1.48-.19-2.05-.56-1.02-.89-1.33-1.54-.47-1.38-.47-2.19v-.18ZM216.03,383.65c0,.56.09,1.07.27,1.55.18.47.44.85.79,1.14.35.29.8.43,1.33.43s.97-.14,1.32-.43c.35-.29.62-.67.79-1.14.18-.47.27-.99.27-1.55v-.18c0-.56-.09-1.07-.27-1.55-.18-.47-.44-.86-.8-1.14s-.8-.43-1.34-.43-.97.14-1.32.43-.62.67-.79,1.14c-.17.47-.26.99-.26,1.55v.18Z" style="fill: #fff; stroke-width: 0px;"/>
        <path d="M225.54,375.79v10.36l-.12,1.64h-1.34v-12h1.46ZM231.24,383.65c0,.82-.13,1.56-.38,2.2-.25.65-.63,1.16-1.12,1.53-.49.37-1.08.56-1.78.56s-1.32-.16-1.8-.49c-.48-.33-.85-.79-1.12-1.38-.27-.6-.44-1.3-.52-2.12v-.76c.08-.83.26-1.54.52-2.14.27-.6.64-1.06,1.11-1.39.48-.33,1.07-.49,1.79-.49s1.31.18,1.8.54.86.86,1.12,1.51.38,1.4.38,2.26v.16ZM229.78,383.49c0-.56-.07-1.08-.21-1.55-.14-.47-.37-.85-.69-1.13s-.75-.42-1.3-.42c-.36,0-.67.06-.94.19s-.5.29-.68.5-.34.45-.46.72c-.12.27-.2.55-.26.83v1.9c.08.36.22.71.41,1.05s.44.61.76.82c.32.21.72.32,1.19.32.52,0,.94-.14,1.26-.42.32-.28.55-.65.7-1.11.15-.46.22-.98.22-1.54v-.16Z" style="fill: #fff; stroke-width: 0px;"/>
        <path d="M232.69,383.47c0-.82.16-1.55.47-2.2.31-.65.75-1.16,1.33-1.54.57-.38,1.25-.57,2.04-.57s1.48.19,2.06.57c.58.38,1.02.89,1.33,1.54.31.65.46,1.38.46,2.2v.18c0,.81-.16,1.54-.46,2.19s-.75,1.16-1.33,1.54-1.26.56-2.05.56-1.48-.19-2.05-.56-1.02-.89-1.33-1.54-.47-1.38-.47-2.19v-.18ZM234.15,383.65c0,.56.09,1.07.27,1.55.18.47.44.85.79,1.14.35.29.8.43,1.33.43s.97-.14,1.32-.43c.35-.29.62-.67.79-1.14.18-.47.27-.99.27-1.55v-.18c0-.56-.09-1.07-.27-1.55-.18-.47-.44-.86-.8-1.14s-.8-.43-1.34-.43-.97.14-1.32.43-.62.67-.79,1.14c-.17.47-.26.99-.26,1.55v.18Z" style="fill: #fff; stroke-width: 0px;"/>
        <path d="M246.19,376.41c.85,0,1.58.13,2.17.39.59.26,1.05.64,1.36,1.15s.46,1.13.46,1.87c0,.52-.11,1-.32,1.42-.21.43-.51.79-.91,1.09-.4.3-.87.53-1.41.67l-.42.16h-3.53l-.02-1.22h2.66c.54,0,.99-.1,1.35-.29.36-.19.63-.45.81-.77.18-.32.27-.68.27-1.07,0-.66-.2-1.19-.59-1.59s-1.02-.6-1.88-.6h-2.25v10.15h-1.52v-11.38h3.77ZM246.3,382.63h1.59l2.8,5.06v.09h-1.62l-2.76-5.16Z" style="fill: #fff; stroke-width: 0px;"/>
        <path d="M253.9,387.79h-1.52v-11.38h1.52v11.38Z" style="fill: #fff; stroke-width: 0px;"/>
        <path d="M265.39,382.47c0,1.14-.19,2.11-.56,2.93-.38.82-.9,1.45-1.59,1.89-.68.44-1.49.66-2.41.66s-1.69-.22-2.38-.66c-.69-.44-1.23-1.07-1.62-1.89-.39-.82-.59-1.79-.59-2.93v-.73c0-1.14.19-2.11.58-2.93s.93-1.45,1.62-1.89c.69-.44,1.48-.66,2.38-.66s1.73.22,2.42.66c.68.44,1.22,1.07,1.59,1.89s.57,1.8.57,2.93v.73ZM263.89,381.72c0-.91-.12-1.67-.37-2.29-.25-.62-.6-1.09-1.05-1.42-.46-.32-1.01-.48-1.66-.48s-1.16.16-1.62.48c-.46.32-.82.8-1.07,1.42-.25.62-.38,1.39-.38,2.29v.74c0,.91.13,1.68.38,2.3s.61,1.1,1.08,1.42c.46.32,1,.48,1.62.48.65,0,1.2-.16,1.66-.48.46-.32.8-.8,1.04-1.42s.36-1.39.36-2.3v-.74Z" style="fill: #fff; stroke-width: 0px;"/>
        <path d="M278.7,387.79h-7.46v-1.03l3.73-4.15c.46-.51.82-.94,1.07-1.3.25-.36.43-.68.53-.96.1-.29.15-.58.15-.88,0-.56-.17-1.04-.51-1.44s-.83-.6-1.46-.6c-.51,0-.93.1-1.27.3-.34.2-.59.47-.75.82-.16.35-.25.75-.25,1.21h-1.46c0-.64.14-1.23.42-1.76s.7-.95,1.25-1.27c.55-.31,1.24-.47,2.05-.47,1.07,0,1.91.28,2.52.84.61.56.91,1.29.91,2.2,0,.45-.1.9-.29,1.35s-.45.9-.77,1.35-.68.88-1.07,1.3l-3.05,3.32h5.7v1.17Z" style="fill: #fff; stroke-width: 0px;"/>
        <path d="M280.41,387.03c0-.24.08-.45.23-.62.15-.17.38-.25.67-.25s.52.08.68.25c.15.17.23.38.23.62s-.08.44-.23.6-.38.24-.68.24-.51-.08-.67-.24-.23-.36-.23-.6Z" style="fill: #fff; stroke-width: 0px;"/>
        <path d="M291.6,382.93c0,1.23-.14,2.22-.43,2.95-.29.73-.7,1.26-1.24,1.58s-1.17.48-1.91.48-1.36-.16-1.9-.48-.96-.85-1.26-1.58c-.3-.73-.45-1.71-.45-2.95v-1.74c0-1.24.15-2.22.44-2.94s.71-1.23,1.25-1.54c.54-.31,1.17-.46,1.9-.46s1.37.15,1.91.46c.54.31.95.82,1.25,1.54s.44,1.7.44,2.94v1.74ZM290.14,380.95c0-.85-.08-1.54-.24-2.05s-.4-.89-.72-1.12c-.32-.23-.71-.35-1.17-.35s-.85.12-1.16.35c-.32.23-.56.61-.72,1.12s-.25,1.2-.25,2.05v2.21c0,.85.08,1.54.25,2.07s.41.92.73,1.17c.32.25.71.37,1.17.37s.86-.12,1.17-.37c.31-.25.55-.64.71-1.17s.24-1.22.24-2.07v-2.21Z" style="fill: #fff; stroke-width: 0px;"/>
      </g>
      <rect x="12.94" y="371.92" width="28.95" height="11.98" style="fill: #211e1e; stroke-width: 0px;"/>
      <rect x="111.11" y="461.67" width="11.98" height="18.63" style="fill: #211e1e; stroke-width: 0px;"/>
      <rect x="237.01" y="46.06" width="42" height="7.58" style="fill: #5b5a5d; stroke-width: 0px;"/>
      <rect x="237.01" y="16.19" width="42" height="7.58" style="fill: #5b5a5d; stroke-width: 0px;"/>
      <path d="M106.71,467.36h10.86-10.86Z" style="fill: none; stroke: #211e1e; stroke-miterlimit: 10; stroke-width: 2.02px;"/>
      <rect x="235.05" y="14.27" width="45.92" height="19.33" style="fill: #323130; stroke-width: 0px;"/>
      <path d="M353.26,69.65h-51.52c-.48,0-.88-.39-.88-.88v-35.09c0-.48.4-.88.88-.88h51.52c.49,0,.88.39.88.88v35.09c0,.49-.39.88-.88.88" style="fill: #272660; stroke-width: 0px;"/>
      <rect x="461.1" y="295.66" width="28.95" height="11.98" style="fill: #211e1e; stroke-width: 0px;"/>
      <rect x="461.1" y="365.42" width="28.95" height="11.98" style="fill: #211e1e; stroke-width: 0px;"/>
      <rect x="12.94" y="394.56" width="28.95" height="11.98" style="fill: #211e1e; stroke-width: 0px;"/>
      <g>
        <path d="M230.49,230.08h17.59c.42.21.88.15,1.31.18,3.61.19,6.27,2.13,8.53,4.68,2.95,3.32,4.16,7.26,4.13,11.69-.06,9.37,0,18.74-.04,28.11,0,.67.27,1.49-.56,1.95-5.15,0-10.31.07-15.46-.04-.58-.36-.46-.96-.47-1.49-.04-2.34-.02-4.68-.02-7.02,0-6.5,0-13,0-19.51,0-.41,0-.83-.02-1.24-.05-.82-.5-1.25-1.32-1.29-1.03-.04-2.07-.02-3.1-.02-2.96,0-5.92,0-8.89,0-.55,0-1.11,0-1.62-.24-.12-.06-.22-.16-.3-.27-.26-.47-.27-.99-.27-1.51-.01-4.12-.02-8.25,0-12.37,0-.58-.05-1.19.49-1.61Z" style="fill: #f2f2f2; stroke-width: 0px;"/>
        <path d="M270.64,230.08c4.86,0,9.71.03,14.57-.03.9-.01.98.25.98,1.03-.03,15.17-.02,30.34-.02,45.51-3.6.36-6.86-.46-9.71-2.73-4.21-3.34-6.34-7.66-6.32-13.06.03-9.57,0-19.14.02-28.71,0-.7-.17-1.47.49-2.02Z" style="fill: #f2f2f2; stroke-width: 0px;"/>
        <path d="M230.47,245.57c0,7.55.02,15.11.03,22.66,0,2.78-.01,5.56-.02,8.34-.17.15-.39.12-.59.12-4.78,0-9.55,0-14.33,0-.2,0-.42.03-.6-.1v-31.01c.33-.44.82-.48,1.3-.48,4.31-.03,8.62-.03,12.93,0,.49,0,.97.06,1.3.49l-.03-.02Z" style="fill: #f2f2f2; stroke-width: 0px;"/>
      </g>
      <rect x="208.47" y="16.53" width="8.3" height="57.87" style="fill: #99999a; stroke-width: 0px;"/>
      <rect x="209.22" y="17.29" width="6.83" height="56.29" style="fill: #171717; stroke-width: 0px;"/>
      <path d="M93.26,41.82l.18.75h-.51l-1.83-4.95h.72l1.44,4.2ZM94.63,37.62h.72l-1.83,4.95h-.51l.17-.75,1.46-4.2Z" style="fill: #a4a7a9; stroke-width: 0px;"/>
      <path d="M95.32,52.98c-.03.31-.12.59-.27.84-.14.25-.35.44-.62.59-.26.14-.6.21-1,.21s-.73-.09-1.02-.28c-.29-.19-.52-.46-.68-.8-.16-.34-.24-.75-.24-1.21v-.5c0-.46.08-.86.24-1.21s.39-.61.69-.8c.3-.19.65-.29,1.06-.29.37,0,.69.07.95.21.26.14.46.33.6.58.14.25.23.54.27.86h-.66c-.05-.35-.16-.62-.33-.82-.17-.2-.45-.3-.83-.3-.29,0-.54.07-.73.22-.2.15-.35.35-.45.61-.1.26-.15.57-.15.92v.51c0,.32.04.62.14.89s.23.48.42.64c.19.16.43.24.72.24s.5-.04.66-.13.29-.22.37-.38c.08-.17.15-.36.18-.59h.66Z" style="fill: #a4a7a9; stroke-width: 0px;"/>
      <path d="M37.17,59.7c0,.52-.42.93-.93.93s-.93-.42-.93-.93.42-.93.93-.93.93.42.93.93" style="fill: #211e1e; stroke-width: 0px;"/>
      <path d="M37.17,75.9c0,.52-.42.93-.93.93s-.93-.42-.93-.93.42-.93.93-.93.93.42.93.93" style="fill: #211e1e; stroke-width: 0px;"/>
      <rect x="487.09" y="50.28" width="16.81" height="9" style="fill: #7bc044; stroke-width: 0px;"/>
      <rect x="487.09" y="68.15" width="16.81" height="9" style="fill: #7bc044; stroke-width: 0px;"/>
      <rect x="487.09" y="92.59" width="16.81" height="9" style="fill: #7bc044; stroke-width: 0px;"/>
      <rect x="487.09" y="109.55" width="16.81" height="9" style="fill: #7bc044; stroke-width: 0px;"/>
      <rect x="487.09" y="126.51" width="16.81" height="9" style="fill: #323130; stroke-width: 0px;"/>
      <rect x="487.09" y="153.38" width="16.81" height="9" style="fill: #7bc044; stroke-width: 0px;"/>
      <g>
        <path d="M450.16,56.29v-.8h1.98c.38,0,.69-.06.93-.19s.41-.29.52-.51c.11-.22.17-.47.17-.74,0-.25-.06-.49-.17-.72s-.28-.41-.52-.55c-.24-.14-.55-.21-.93-.21h-1.75v6.62h-.99v-7.42h2.74c.56,0,1.04.1,1.42.29.39.19.68.46.88.8.2.34.3.73.3,1.17,0,.48-.1.88-.3,1.22-.2.34-.5.59-.88.77-.39.18-.86.26-1.42.26h-1.98Z" style="fill: #fff; stroke-width: 0px;"/>
        <path d="M461.7,55.73c0,.74-.12,1.38-.37,1.91-.25.53-.59.94-1.04,1.23-.45.29-.97.43-1.58.43s-1.1-.14-1.55-.43c-.45-.29-.81-.7-1.06-1.23s-.38-1.17-.38-1.91v-.47c0-.74.13-1.38.38-1.91.25-.54.6-.95,1.06-1.23.45-.29.97-.43,1.55-.43s1.13.14,1.58.43.79.7,1.04,1.23c.25.54.37,1.17.37,1.91v.47ZM460.72,55.25c0-.59-.08-1.09-.24-1.5s-.39-.71-.69-.93c-.3-.21-.66-.32-1.08-.32s-.76.11-1.06.32c-.3.21-.53.52-.7.93s-.25.9-.25,1.5v.48c0,.6.08,1.1.25,1.5.17.41.4.72.7.93s.66.32,1.06.32c.42,0,.79-.1,1.08-.32.3-.21.52-.52.68-.93.16-.41.23-.91.23-1.5v-.48Z" style="fill: #fff; stroke-width: 0px;"/>
        <path d="M464.78,56.87l.35,2.33h-.71l-1.79-7.42h.99l1.17,5.09ZM466.59,51.78h.72l-.42,2-1.58,5.42h-.72l.53-2.24,1.47-5.19ZM468.85,56.97l.52,2.24h-.72l-1.52-5.42-.41-2h.71l1.43,5.19ZM470.36,51.78h.99l-1.79,7.42h-.71l.37-2.34,1.14-5.08Z" style="fill: #fff; stroke-width: 0px;"/>
        <path d="M473.42,59.21h-.99v-7.42h.99v7.42ZM477.1,52.58h-3.87v-.8h3.87v.8ZM476.63,55.77h-3.4v-.79h3.4v.79ZM477.15,59.21h-3.92v-.8h3.92v.8Z" style="fill: #fff; stroke-width: 0px;"/>
        <path d="M480.83,51.78c.56,0,1.03.08,1.42.25.39.17.68.42.88.75.2.33.3.74.3,1.22,0,.34-.07.65-.21.93-.14.28-.34.52-.59.71-.26.2-.57.34-.92.44l-.28.11h-2.3v-.8s1.72,0,1.72,0c.35,0,.65-.06.88-.19.23-.13.41-.29.53-.5.12-.21.18-.44.18-.7,0-.43-.13-.78-.38-1.04-.25-.26-.67-.39-1.23-.39h-1.47v6.62h-.99v-7.42h2.46ZM480.9,55.84h1.04l1.83,3.3v.06h-1.06l-1.8-3.36Z" style="fill: #fff; stroke-width: 0px;"/>
      </g>
      <g>
        <path d="M450.32,75.27c0-.23-.05-.43-.15-.6s-.28-.31-.53-.44c-.25-.13-.62-.27-1.09-.4-.37-.11-.7-.23-.99-.36-.29-.13-.55-.29-.76-.46s-.37-.37-.48-.6-.17-.48-.17-.77c0-.39.1-.73.31-1.04.21-.3.5-.54.88-.72.38-.17.82-.26,1.33-.26.56,0,1.04.11,1.43.32s.69.49.89.83c.2.34.31.71.31,1.09h-.99c0-.28-.06-.53-.18-.74-.12-.22-.3-.39-.54-.51s-.55-.19-.92-.19c-.35,0-.63.05-.86.16-.23.11-.39.25-.5.43s-.16.39-.16.62c0,.21.06.39.18.55s.31.31.56.44c.25.13.58.25.99.37.56.16,1.02.34,1.38.55.36.21.63.45.8.73.17.28.26.62.26,1s-.11.75-.32,1.05c-.21.3-.51.53-.9.69-.39.16-.84.24-1.37.24-.34,0-.68-.05-1.01-.14-.33-.09-.63-.24-.9-.43-.27-.19-.49-.43-.65-.71-.16-.28-.24-.61-.24-.98h.99c0,.25.05.47.15.66s.23.33.4.45c.17.12.36.21.58.26.22.06.45.08.68.08.34,0,.63-.05.87-.15.24-.1.42-.23.54-.41s.19-.39.19-.63Z" style="fill: #fff; stroke-width: 0px;"/>
        <path d="M457.7,70.53h-5.74v-.8h5.74v.8ZM455.32,77.15h-.98v-7.42h.98v7.42Z" style="fill: #fff; stroke-width: 0px;"/>
        <path d="M459.1,77.15h-1.02l2.83-7.42h.65l-.02.65-2.45,6.77ZM463.48,75.21h-4.18v-.8h4.18v.8ZM461.14,70.38v-.65s.64,0,.64,0l2.84,7.42h-1.01l-2.46-6.77Z" style="fill: #fff; stroke-width: 0px;"/>
        <path d="M470.75,70.53h-5.74v-.8h5.74v.8ZM468.37,77.15h-.98v-7.42h.98v7.42Z" style="fill: #fff; stroke-width: 0px;"/>
        <path d="M477.08,69.73v5.02c0,.56-.12,1.02-.38,1.39-.25.37-.58.65-.99.83-.41.19-.85.28-1.33.28-.5,0-.96-.09-1.36-.28-.41-.19-.73-.46-.96-.83-.24-.37-.35-.83-.35-1.39v-5.02h.98v5.02c0,.39.07.71.21.96.14.25.34.44.6.56s.55.19.89.19.64-.06.9-.19.45-.31.59-.56.21-.57.21-.96v-5.02h.99Z" style="fill: #fff; stroke-width: 0px;"/>
        <path d="M482.57,75.27c0-.23-.05-.43-.15-.6s-.28-.31-.53-.44c-.25-.13-.62-.27-1.09-.4-.37-.11-.7-.23-.99-.36-.29-.13-.55-.29-.76-.46s-.37-.37-.48-.6-.17-.48-.17-.77c0-.39.1-.73.31-1.04.21-.3.5-.54.88-.72.38-.17.82-.26,1.33-.26.56,0,1.04.11,1.43.32s.69.49.89.83c.2.34.31.71.31,1.09h-.99c0-.28-.06-.53-.18-.74-.12-.22-.3-.39-.54-.51s-.55-.19-.92-.19c-.35,0-.63.05-.86.16-.23.11-.39.25-.5.43s-.16.39-.16.62c0,.21.06.39.18.55s.31.31.56.44c.25.13.58.25.99.37.56.16,1.02.34,1.38.55.36.21.63.45.8.73.17.28.26.62.26,1s-.11.75-.32,1.05c-.21.3-.51.53-.9.69-.39.16-.84.24-1.37.24-.34,0-.68-.05-1.01-.14-.33-.09-.63-.24-.9-.43-.27-.19-.49-.43-.65-.71-.16-.28-.24-.61-.24-.98h.99c0,.25.05.47.15.66s.23.33.4.45c.17.12.36.21.58.26.22.06.45.08.68.08.34,0,.63-.05.87-.15.24-.1.42-.23.54-.41s.19-.39.19-.63Z" style="fill: #fff; stroke-width: 0px;"/>
      </g>
      <g>
        <path d="M456.13,127.55l.14,4.52v2.9h-.98v-7.42h.85ZM456.56,127.55l2.42,6.07,2.42-6.07h.96l-3.01,7.42h-.75l-3.01-7.42h.96ZM462.68,127.55v7.42h-.98v-2.9l.14-4.52h.85Z" style="fill: #fff; stroke-width: 0px;"/>
        <path d="M470.13,131.5c0,.74-.12,1.38-.37,1.91-.25.53-.59.94-1.04,1.23-.45.29-.97.43-1.58.43s-1.1-.14-1.55-.43c-.45-.29-.81-.7-1.06-1.23s-.38-1.17-.38-1.91v-.47c0-.74.13-1.38.38-1.91.25-.54.6-.95,1.06-1.23.45-.29.97-.43,1.55-.43s1.13.14,1.58.43.79.7,1.04,1.23c.25.54.37,1.17.37,1.91v.47ZM469.15,131.02c0-.59-.08-1.09-.24-1.5s-.39-.71-.69-.93c-.3-.21-.66-.32-1.08-.32s-.76.11-1.06.32c-.3.21-.53.52-.7.93s-.25.9-.25,1.5v.48c0,.6.08,1.1.25,1.5.17.41.4.72.7.93s.66.32,1.06.32c.42,0,.79-.1,1.08-.32.3-.21.52-.52.68-.93.16-.41.23-.91.23-1.5v-.48Z" style="fill: #fff; stroke-width: 0px;"/>
        <path d="M472.59,134.98h-.99v-7.42h.99v7.42ZM472.06,134.98v-.8h1.55c.53,0,.97-.11,1.32-.33s.62-.54.8-.94c.18-.4.27-.88.27-1.42v-.46c0-.57-.09-1.05-.27-1.45-.18-.4-.44-.7-.78-.91s-.76-.32-1.25-.32h-1.67v-.8h1.67c.65,0,1.22.14,1.72.43s.87.69,1.15,1.21c.28.52.41,1.14.41,1.85v.45c0,.72-.14,1.34-.41,1.86s-.66.92-1.17,1.21c-.5.28-1.1.43-1.79.43h-1.55Z" style="fill: #fff; stroke-width: 0px;"/>
        <path d="M479.44,134.98h-.99v-7.42h.99v7.42ZM483.12,128.35h-3.87v-.8h3.87v.8ZM482.65,131.54h-3.4v-.79h3.4v.79ZM483.17,134.98h-3.92v-.8h3.92v.8Z" style="fill: #fff; stroke-width: 0px;"/>
      </g>
      <g>
        <path d="M457.84,115.71c-.05.47-.19.88-.4,1.26-.22.37-.52.67-.92.88-.4.21-.9.32-1.49.32s-1.09-.14-1.52-.43c-.44-.28-.77-.68-1.01-1.2s-.36-1.12-.36-1.81v-.75c0-.69.12-1.3.37-1.81.24-.52.59-.92,1.04-1.2.45-.29.98-.43,1.59-.43.56,0,1.04.1,1.42.31.39.21.69.5.91.87.22.37.35.81.4,1.29h-.99c-.08-.52-.24-.93-.5-1.23s-.67-.45-1.24-.45c-.44,0-.81.11-1.1.33s-.52.53-.67.92c-.15.39-.23.85-.23,1.38v.76c0,.49.07.93.2,1.33s.34.72.62.96.64.36,1.08.36.75-.07,1-.2c.25-.13.43-.32.56-.57.13-.25.22-.55.27-.89h.99Z" style="fill: #fff; stroke-width: 0px;"/>
        <path d="M464.89,114.59c0,.74-.12,1.38-.37,1.91-.25.53-.59.94-1.04,1.23-.45.29-.97.43-1.58.43s-1.1-.14-1.55-.43c-.45-.29-.81-.7-1.06-1.23s-.38-1.17-.38-1.91v-.47c0-.74.13-1.38.38-1.91.25-.54.6-.95,1.06-1.23.45-.29.97-.43,1.55-.43s1.13.14,1.58.43.79.7,1.04,1.23c.25.54.37,1.17.37,1.91v.47ZM463.91,114.11c0-.59-.08-1.09-.24-1.5s-.39-.71-.69-.93c-.3-.21-.66-.32-1.08-.32s-.76.11-1.06.32c-.3.21-.53.52-.7.93s-.25.9-.25,1.5v.48c0,.6.08,1.1.25,1.5.17.41.4.72.7.93s.66.32,1.06.32c.42,0,.79-.1,1.08-.32.3-.21.52-.52.68-.93.16-.41.23-.91.23-1.5v-.48Z" style="fill: #fff; stroke-width: 0px;"/>
        <path d="M467.21,110.64l.14,4.52v2.9h-.98v-7.42h.85ZM467.63,110.64l2.42,6.07,2.42-6.07h.96l-3.01,7.42h-.75l-3.01-7.42h.96ZM473.75,110.64v7.42h-.98v-2.9l.14-4.52h.85Z" style="fill: #fff; stroke-width: 0px;"/>
        <path d="M476.33,110.64l.14,4.52v2.9h-.98v-7.42h.85ZM476.76,110.64l2.42,6.07,2.42-6.07h.96l-3.01,7.42h-.75l-3.01-7.42h.96ZM482.87,110.64v7.42h-.98v-2.9l.14-4.52h.85Z" style="fill: #fff; stroke-width: 0px;"/>
      </g>
      <g>
        <path d="M457.24,94.17c.56,0,1.03.08,1.42.25.39.17.68.42.88.75.2.33.3.74.3,1.22,0,.34-.07.65-.21.93-.14.28-.34.52-.59.71-.26.2-.57.34-.92.44l-.28.11h-2.3v-.8s1.72,0,1.72,0c.35,0,.65-.06.88-.19.23-.13.41-.29.53-.5.12-.21.18-.44.18-.7,0-.43-.13-.78-.38-1.04-.25-.26-.67-.39-1.23-.39h-1.47v6.62h-.99v-7.42h2.46ZM457.31,98.23h1.04l1.83,3.3v.06h-1.06l-1.8-3.36Z" style="fill: #fff; stroke-width: 0px;"/>
        <path d="M461.51,101.59h-1.02l2.83-7.42h.65l-.02.65-2.45,6.77ZM465.9,99.65h-4.18v-.8h4.18v.8ZM463.56,94.82v-.65s.64,0,.64,0l2.84,7.42h-1.01l-2.46-6.77Z" style="fill: #fff; stroke-width: 0px;"/>
        <path d="M469.02,101.59h-.99v-7.42h.99v7.42ZM468.49,101.59v-.8h1.55c.53,0,.97-.11,1.32-.33s.62-.54.8-.94c.18-.4.27-.88.27-1.42v-.46c0-.57-.09-1.05-.27-1.45-.18-.4-.44-.7-.78-.91s-.76-.32-1.25-.32h-1.67v-.8h1.67c.65,0,1.22.14,1.72.43s.87.69,1.15,1.21c.28.52.41,1.14.41,1.85v.45c0,.72-.14,1.34-.41,1.86s-.66.92-1.17,1.21c-.5.28-1.1.43-1.79.43h-1.55Z" style="fill: #fff; stroke-width: 0px;"/>
        <path d="M475.95,101.59h-.99v-7.42h.99v7.42Z" style="fill: #fff; stroke-width: 0px;"/>
        <path d="M483.45,98.12c0,.74-.12,1.38-.37,1.91-.25.53-.59.94-1.04,1.23-.45.29-.97.43-1.58.43s-1.1-.14-1.55-.43c-.45-.29-.81-.7-1.06-1.23s-.38-1.17-.38-1.91v-.47c0-.74.13-1.38.38-1.91.25-.54.6-.95,1.06-1.23.45-.29.97-.43,1.55-.43s1.13.14,1.58.43.79.7,1.04,1.23c.25.54.37,1.17.37,1.91v.47ZM482.47,97.64c0-.59-.08-1.09-.24-1.5s-.39-.71-.69-.93c-.3-.21-.66-.32-1.08-.32s-.76.11-1.06.32c-.3.21-.53.52-.7.93s-.25.9-.25,1.5v.48c0,.6.08,1.1.25,1.5.17.41.4.72.7.93s.66.32,1.06.32c.42,0,.79-.1,1.08-.32.3-.21.52-.52.68-.93.16-.41.23-.91.23-1.5v-.48Z" style="fill: #fff; stroke-width: 0px;"/>
      </g>
      <g>
        <path d="M468.51,154.96c.56,0,1.03.08,1.42.25.39.17.68.42.88.75.2.33.3.74.3,1.22,0,.34-.07.65-.21.93-.14.28-.34.52-.59.71-.26.2-.57.34-.92.44l-.28.11h-2.3v-.8s1.72,0,1.72,0c.35,0,.65-.06.88-.19.23-.13.41-.29.53-.5.12-.21.18-.44.18-.7,0-.43-.13-.78-.38-1.04-.25-.26-.67-.39-1.23-.39h-1.47v6.62h-.99v-7.42h2.46ZM468.58,159.02h1.04l1.83,3.3v.06h-1.06l-1.8-3.36Z" style="fill: #fff; stroke-width: 0px;"/>
        <path d="M476.43,160.51c0-.23-.05-.43-.15-.6s-.28-.31-.53-.44c-.25-.13-.62-.27-1.09-.4-.37-.11-.7-.23-.99-.36-.29-.13-.55-.29-.76-.46s-.37-.37-.48-.6-.17-.48-.17-.77c0-.39.1-.73.31-1.04.21-.3.5-.54.88-.72.38-.17.82-.26,1.33-.26.56,0,1.04.11,1.43.32s.69.49.89.83c.2.34.31.71.31,1.09h-.99c0-.28-.06-.53-.18-.74-.12-.22-.3-.39-.54-.51s-.55-.19-.92-.19c-.35,0-.63.05-.86.16-.23.11-.39.25-.5.43s-.16.39-.16.62c0,.21.06.39.18.55s.31.31.56.44c.25.13.58.25.99.37.56.16,1.02.34,1.38.55.36.21.63.45.8.73.17.28.26.62.26,1s-.11.75-.32,1.05c-.21.3-.51.53-.9.69-.39.16-.84.24-1.37.24-.34,0-.68-.05-1.01-.14-.33-.09-.63-.24-.9-.43-.27-.19-.49-.43-.65-.71-.16-.28-.24-.61-.24-.98h.99c0,.25.05.47.15.66s.23.33.4.45c.17.12.36.21.58.26.22.06.45.08.68.08.34,0,.63-.05.87-.15.24-.1.42-.23.54-.41s.19-.39.19-.63Z" style="fill: #fff; stroke-width: 0px;"/>
        <path d="M479.67,162.38h-.99v-7.42h.99v7.42ZM483.19,162.38h-3.71v-.8h3.71v.8Z" style="fill: #fff; stroke-width: 0px;"/>
      </g>
      <rect x="385.71" y="450.54" width="68.86" height="35.42" rx="5.52" ry="5.52" style="fill: #595a5c; stroke-width: 0px;"/>
      <circle cx="402.57" cy="468.25" r="9.86" style="fill: #314b6c; stroke-width: 0px;"/>
      <circle cx="437.7" cy="468.25" r="9.86" style="fill: #314b6c; stroke-width: 0px;"/>
      <g>
        <path d="M432.51,439.92v3.85c0,.43-.1.78-.29,1.07-.19.28-.44.5-.76.64-.31.14-.65.21-1.02.21-.39,0-.73-.07-1.04-.21-.31-.14-.56-.35-.74-.64-.18-.28-.27-.64-.27-1.07v-3.85h.75v3.85c0,.3.05.54.16.73.11.19.26.34.46.43.2.1.42.14.68.14s.49-.05.69-.14c.2-.09.35-.24.46-.43.11-.19.16-.44.16-.73v-3.85h.76Z" style="fill: #fff; stroke-width: 0px;"/>
        <path d="M436.72,444.17c0-.18-.04-.33-.11-.46s-.21-.24-.41-.34-.47-.2-.83-.31c-.28-.08-.53-.17-.76-.28-.23-.1-.42-.22-.58-.35s-.29-.29-.37-.46-.13-.37-.13-.59c0-.3.08-.56.24-.79.16-.23.38-.42.67-.55.29-.13.63-.2,1.02-.2.43,0,.79.08,1.09.24.3.16.53.38.68.64s.23.54.23.84h-.76c0-.21-.04-.4-.13-.57-.09-.17-.23-.3-.41-.39-.18-.09-.42-.14-.7-.14-.27,0-.49.04-.66.12-.17.08-.3.19-.38.33-.08.14-.12.3-.12.47,0,.16.05.3.14.42.09.12.23.24.43.33.2.1.45.19.76.28.43.12.78.26,1.06.42.28.16.48.35.61.56.13.22.2.47.2.77s-.08.58-.25.8c-.16.23-.39.41-.69.53s-.65.19-1.05.19c-.26,0-.52-.04-.78-.11-.25-.07-.48-.18-.69-.33-.21-.15-.37-.33-.5-.54s-.19-.46-.19-.75h.76c0,.2.04.36.11.5s.18.26.31.35c.13.09.28.16.45.2s.34.06.52.06c.26,0,.49-.04.67-.11s.32-.18.41-.31c.09-.13.14-.29.14-.48Z" style="fill: #fff; stroke-width: 0px;"/>
        <path d="M439.2,445.61h-.76v-5.69h.76v5.69ZM442.02,440.53h-2.96v-.61h2.96v.61ZM441.66,442.98h-2.61v-.61h2.61v.61ZM442.05,445.61h-3v-.61h3v.61Z" style="fill: #fff; stroke-width: 0px;"/>
        <path d="M444.87,439.92c.43,0,.79.07,1.09.2.3.13.52.32.68.58s.23.57.23.94c0,.26-.05.5-.16.71-.11.21-.26.4-.46.55-.2.15-.43.26-.71.34l-.21.08h-1.77v-.61s1.32,0,1.32,0c.27,0,.5-.05.68-.14.18-.1.31-.22.4-.39.09-.16.13-.34.13-.54,0-.33-.1-.6-.29-.79s-.51-.3-.94-.3h-1.12v5.07h-.76v-5.69h1.88ZM444.93,443.03h.79l1.4,2.53v.05h-.81l-1.38-2.58Z" style="fill: #fff; stroke-width: 0px;"/>
      </g>
      <g>
        <path d="M392.78,439.92c.43,0,.79.06,1.09.2.3.13.52.32.68.58s.23.57.23.94c0,.26-.05.5-.16.71-.11.21-.26.4-.46.55-.2.15-.43.26-.71.34l-.21.08h-1.77v-.61s1.32,0,1.32,0c.27,0,.5-.05.68-.14.18-.1.31-.23.4-.39.09-.16.13-.34.13-.54,0-.33-.1-.6-.29-.79s-.51-.3-.94-.3h-1.12v5.07h-.76v-5.69h1.88ZM392.84,443.03h.79l1.4,2.53v.05h-.81l-1.38-2.58Z" style="fill: #fff; stroke-width: 0px;"/>
        <path d="M396.59,445.61h-.76v-5.69h.76v5.69ZM399.4,440.53h-2.96v-.61h2.96v.61ZM399.04,442.98h-2.61v-.61h2.61v.61ZM399.44,445.61h-3v-.61h3v.61Z" style="fill: #fff; stroke-width: 0px;"/>
        <path d="M403.4,444.17c0-.18-.04-.33-.11-.46s-.21-.24-.41-.34-.47-.21-.83-.31c-.28-.08-.53-.17-.76-.28-.23-.1-.42-.22-.58-.35s-.29-.29-.37-.46-.13-.37-.13-.59c0-.3.08-.56.24-.79.16-.23.38-.42.67-.55.29-.13.63-.2,1.02-.2.43,0,.79.08,1.09.24.3.16.53.38.68.64s.23.54.23.84h-.76c0-.21-.04-.4-.13-.57-.09-.17-.23-.3-.41-.39-.18-.1-.42-.14-.7-.14-.27,0-.49.04-.66.12-.17.08-.3.19-.38.33-.08.14-.12.29-.12.47,0,.16.05.3.14.42.09.12.23.23.43.33.2.1.45.19.76.28.43.12.78.26,1.06.42.28.16.48.35.61.56.13.22.2.47.2.77s-.08.58-.25.8c-.16.23-.39.41-.69.53s-.65.19-1.05.19c-.26,0-.52-.04-.78-.11-.25-.07-.48-.18-.69-.33-.21-.15-.37-.33-.5-.54s-.19-.46-.19-.75h.76c0,.2.04.36.11.5s.18.26.31.35c.13.09.28.16.45.2s.34.06.52.06c.26,0,.49-.04.67-.11s.32-.18.41-.31c.09-.14.14-.3.14-.48Z" style="fill: #fff; stroke-width: 0px;"/>
        <path d="M405.88,445.61h-.76v-5.69h.76v5.69ZM408.7,440.53h-2.96v-.61h2.96v.61ZM408.34,442.98h-2.61v-.61h2.61v.61ZM408.74,445.61h-3v-.61h3v.61Z" style="fill: #fff; stroke-width: 0px;"/>
        <path d="M413.6,440.53h-4.39v-.61h4.39v.61ZM411.78,445.61h-.75v-5.69h.75v5.69Z" style="fill: #fff; stroke-width: 0px;"/>
      </g>
      <circle cx="408.41" cy="29.35" r="1.86" style="fill: #6a5f27; stroke-width: 0px;"/>
      <circle cx="408.41" cy="38.15" r="1.86" style="fill: #6a5f27; stroke-width: 0px;"/>
      <circle cx="408.41" cy="46.95" r="1.86" style="fill: #6a5f27; stroke-width: 0px;"/>
      <circle cx="408.41" cy="55.74" r="1.86" style="fill: #6a5f27; stroke-width: 0px;"/>
      <circle cx="398.73" cy="64.54" r="1.86" style="fill: #6a5f27; stroke-width: 0px;"/>
      <circle cx="408.41" cy="64.54" r="1.86" style="fill: #6a5f27; stroke-width: 0px;"/>
      <circle cx="398.73" cy="29.37" r="1.86" style="fill: #6a5f27; stroke-width: 0px;"/>
      <circle cx="398.73" cy="38.17" r="1.86" style="fill: #6a5f27; stroke-width: 0px;"/>
      <circle cx="398.73" cy="46.96" r="1.86" style="fill: #6a5f27; stroke-width: 0px;"/>
      <circle cx="398.73" cy="55.76" r="1.86" style="fill: #6a5f27; stroke-width: 0px;"/>
    </g>
  </g>
</svg>