<?xml version="1.0" encoding="UTF-8"?>
<svg id="Layer_2" data-name="Layer 2" xmlns="http://www.w3.org/2000/svg" width="185.49" height="153.66" xmlns:xlink="http://www.w3.org/1999/xlink" viewBox="0 0 185.49 153.66">
  <defs>
    <clipPath id="clippath">
      <path d="M138.73,21.31l.23,109.2,8.42.03,35.6-19.64c1.25-.69,2.2-1.62,2.51-3l-.14-63.63c-.37-1.44-1.18-2.79-2.81-3.96l-35-19h-8.81Z" style="fill: none; stroke-width: 0px;"/>
    </clipPath>
  </defs>
  <g id="Layer_1-2" data-name="Layer 1">
    <g>
      <rect x=".79" y="57.5" width="23.39" height="37.33" transform="translate(-.16 .03) rotate(-.12)" style="fill: #363435; stroke-width: 0px;"/>
      <polyline points="138.72 21.31 84.4 21.42 84.63 130.66 138.95 130.5" style="fill: #2b2929; stroke-width: 0px;"/>
      <polyline points="84.42 30.91 80.35 30.92 80.54 121.18 84.61 121.17" style="fill: #505052; stroke-width: 0px;"/>
      <polygon points="130.44 130.56 130.21 21.33 138.73 21.31 138.96 130.5 130.44 130.56" style="fill: #955f25; stroke-width: 0px;"/>
      <g style="clip-path: url(#clippath);">
        <path d="M138.72,21.31l8.81-.02,35,19c1.63,1.18,2.45,2.52,2.82,3.96l.14,63.62c-.32,1.38-1.26,2.31-2.51,3.01l-35.6,19.64-8.43-.02-.23-109.2Z" style="fill: #f59222; stroke-width: 0px;"/>
        <polygon points="147.81 28.02 145.41 28.02 144.22 30.1 145.42 32.18 147.82 32.17 149.01 30.09 147.81 28.02" style="fill: none; stroke: #ab6b29; stroke-miterlimit: 10; stroke-width: .25px;"/>
        <polygon points="147.82 35.07 145.42 35.08 144.23 37.15 145.43 39.23 147.83 39.23 149.03 37.14 147.82 35.07" style="fill: none; stroke: #ab6b29; stroke-miterlimit: 10; stroke-width: .25px;"/>
        <polygon points="147.84 42.18 145.44 42.19 144.25 44.26 145.45 46.34 147.85 46.34 149.04 44.26 147.84 42.18" style="fill: none; stroke: #ab6b29; stroke-miterlimit: 10; stroke-width: .25px;"/>
        <polygon points="147.85 49.23 145.46 49.24 144.26 51.32 145.46 53.39 147.86 53.39 149.06 51.3 147.85 49.23" style="fill: none; stroke: #ab6b29; stroke-miterlimit: 10; stroke-width: .25px;"/>
        <polygon points="147.81 28.02 145.41 28.02 144.22 30.1 145.42 32.18 147.82 32.17 149.01 30.09 147.81 28.02" style="fill: none; stroke: #ab6b29; stroke-miterlimit: 10; stroke-width: .25px;"/>
        <polygon points="147.82 35.07 145.42 35.08 144.23 37.15 145.43 39.23 147.83 39.23 149.03 37.14 147.82 35.07" style="fill: none; stroke: #ab6b29; stroke-miterlimit: 10; stroke-width: .25px;"/>
        <polygon points="147.84 42.18 145.44 42.19 144.25 44.26 145.45 46.34 147.85 46.34 149.04 44.26 147.84 42.18" style="fill: none; stroke: #ab6b29; stroke-miterlimit: 10; stroke-width: .25px;"/>
        <polygon points="147.85 49.23 145.46 49.24 144.26 51.32 145.46 53.39 147.86 53.39 149.06 51.3 147.85 49.23" style="fill: none; stroke: #ab6b29; stroke-miterlimit: 10; stroke-width: .25px;"/>
        <polygon points="147.87 56.21 145.47 56.21 144.28 58.29 145.48 60.36 147.88 60.36 149.07 58.28 147.87 56.21" style="fill: none; stroke: #ab6b29; stroke-miterlimit: 10; stroke-width: .25px;"/>
        <polygon points="147.88 63.25 145.48 63.26 144.29 65.34 145.5 67.41 147.89 67.41 149.09 65.33 147.88 63.25" style="fill: none; stroke: #ab6b29; stroke-miterlimit: 10; stroke-width: .25px;"/>
        <polygon points="147.9 70.37 145.5 70.37 144.3 72.45 145.51 74.53 147.91 74.52 149.1 72.44 147.9 70.37" style="fill: none; stroke: #ab6b29; stroke-miterlimit: 10; stroke-width: .25px;"/>
        <polygon points="147.91 77.42 145.52 77.42 144.32 79.5 145.52 81.58 147.92 81.57 149.11 79.49 147.91 77.42" style="fill: none; stroke: #ab6b29; stroke-miterlimit: 10; stroke-width: .25px;"/>
        <polygon points="147.93 84.1 145.53 84.1 144.34 86.18 145.54 88.26 147.93 88.25 149.13 86.17 147.93 84.1" style="fill: none; stroke: #ab6b29; stroke-miterlimit: 10; stroke-width: .25px;"/>
        <polygon points="147.94 91.15 145.55 91.15 144.35 93.23 145.55 95.31 147.95 95.3 149.14 93.22 147.94 91.15" style="fill: none; stroke: #ab6b29; stroke-miterlimit: 10; stroke-width: .25px;"/>
        <polygon points="147.96 98.26 145.56 98.27 144.37 100.34 145.57 102.42 147.97 102.42 149.16 100.33 147.96 98.26" style="fill: none; stroke: #ab6b29; stroke-miterlimit: 10; stroke-width: .25px;"/>
        <polygon points="147.97 105.31 145.57 105.32 144.38 107.4 145.58 109.47 147.98 109.47 149.18 107.39 147.97 105.31" style="fill: none; stroke: #ab6b29; stroke-miterlimit: 10; stroke-width: .25px;"/>
        <polygon points="147.98 111.91 145.59 111.91 144.39 113.99 145.6 116.06 148 116.06 149.19 113.98 147.98 111.91" style="fill: none; stroke: #ab6b29; stroke-miterlimit: 10; stroke-width: .25px;"/>
        <polygon points="148 118.95 145.6 118.96 144.41 121.04 145.61 123.11 148.01 123.11 149.2 121.03 148 118.95" style="fill: none; stroke: #ab6b29; stroke-miterlimit: 10; stroke-width: .25px;"/>
        <polygon points="148.02 126.07 145.62 126.07 144.43 128.15 145.63 130.23 148.02 130.22 149.22 128.14 148.02 126.07" style="fill: none; stroke: #ab6b29; stroke-miterlimit: 10; stroke-width: .25px;"/>
        <polygon points="148.03 133.12 145.63 133.12 144.44 135.2 145.64 137.28 148.04 137.27 149.23 135.19 148.03 133.12" style="fill: none; stroke: #ab6b29; stroke-miterlimit: 10; stroke-width: .25px;"/>
        <polygon points="147.75 .13 145.35 .13 144.16 2.21 145.36 4.29 147.76 4.28 148.95 2.2 147.75 .13" style="fill: none; stroke: #ab6b29; stroke-miterlimit: 10; stroke-width: .25px;"/>
        <polygon points="147.76 7.18 145.37 7.18 144.17 9.26 145.37 11.34 147.77 11.33 148.97 9.25 147.76 7.18" style="fill: none; stroke: #ab6b29; stroke-miterlimit: 10; stroke-width: .25px;"/>
        <polygon points="147.78 14.29 145.38 14.29 144.19 16.37 145.39 18.45 147.79 18.44 148.98 16.36 147.78 14.29" style="fill: none; stroke: #ab6b29; stroke-miterlimit: 10; stroke-width: .25px;"/>
        <polygon points="147.8 21.34 145.4 21.34 144.2 23.42 145.41 25.5 147.8 25.49 149 23.41 147.8 21.34" style="fill: none; stroke: #ab6b29; stroke-miterlimit: 10; stroke-width: .25px;"/>
        <polygon points="141.9 43.85 139.5 43.85 138.31 45.93 139.51 48.01 141.91 48 143.1 45.92 141.9 43.85" style="fill: none; stroke: #ab6b29; stroke-miterlimit: 10; stroke-width: .25px;"/>
        <polygon points="141.92 50.9 139.52 50.91 138.33 52.98 139.53 55.06 141.92 55.06 143.12 52.97 141.92 50.9" style="fill: none; stroke: #ab6b29; stroke-miterlimit: 10; stroke-width: .25px;"/>
        <polygon points="141.93 58.01 139.54 58.02 138.34 60.1 139.54 62.17 141.94 62.17 143.13 60.09 141.93 58.01" style="fill: none; stroke: #ab6b29; stroke-miterlimit: 10; stroke-width: .25px;"/>
        <polygon points="141.95 65.06 139.55 65.07 138.36 67.14 139.56 69.22 141.96 69.22 143.15 67.13 141.95 65.06" style="fill: none; stroke: #ab6b29; stroke-miterlimit: 10; stroke-width: .25px;"/>
        <polygon points="141.9 43.85 139.5 43.85 138.31 45.93 139.51 48.01 141.91 48 143.1 45.92 141.9 43.85" style="fill: none; stroke: #ab6b29; stroke-miterlimit: 10; stroke-width: .25px;"/>
        <polygon points="141.92 50.9 139.52 50.91 138.33 52.98 139.53 55.06 141.92 55.06 143.12 52.97 141.92 50.9" style="fill: none; stroke: #ab6b29; stroke-miterlimit: 10; stroke-width: .25px;"/>
        <polygon points="141.93 58.01 139.54 58.02 138.34 60.1 139.54 62.17 141.94 62.17 143.13 60.09 141.93 58.01" style="fill: none; stroke: #ab6b29; stroke-miterlimit: 10; stroke-width: .25px;"/>
        <polygon points="141.95 65.06 139.55 65.07 138.36 67.14 139.56 69.22 141.96 69.22 143.15 67.13 141.95 65.06" style="fill: none; stroke: #ab6b29; stroke-miterlimit: 10; stroke-width: .25px;"/>
        <polygon points="141.96 72.04 139.56 72.04 138.37 74.12 139.57 76.19 141.97 76.19 143.17 74.11 141.96 72.04" style="fill: none; stroke: #ab6b29; stroke-miterlimit: 10; stroke-width: .25px;"/>
        <polygon points="141.98 79.08 139.58 79.09 138.38 81.17 139.59 83.24 141.98 83.24 143.18 81.16 141.98 79.08" style="fill: none; stroke: #ab6b29; stroke-miterlimit: 10; stroke-width: .25px;"/>
        <polygon points="141.99 86.2 139.6 86.2 138.4 88.28 139.6 90.36 142 90.35 143.19 88.27 141.99 86.2" style="fill: none; stroke: #ab6b29; stroke-miterlimit: 10; stroke-width: .25px;"/>
        <polygon points="142.01 93.25 139.61 93.25 138.42 95.33 139.62 97.41 142.01 97.4 143.21 95.32 142.01 93.25" style="fill: none; stroke: #ab6b29; stroke-miterlimit: 10; stroke-width: .25px;"/>
        <polygon points="142.02 99.93 139.62 99.93 138.43 102.01 139.63 104.09 142.03 104.08 143.22 102 142.02 99.93" style="fill: none; stroke: #ab6b29; stroke-miterlimit: 10; stroke-width: .25px;"/>
        <polygon points="142.03 106.98 139.64 106.98 138.44 109.06 139.65 111.14 142.05 111.13 143.24 109.05 142.03 106.98" style="fill: none; stroke: #ab6b29; stroke-miterlimit: 10; stroke-width: .25px;"/>
        <polygon points="142.05 114.09 139.65 114.1 138.46 116.17 139.66 118.25 142.06 118.24 143.25 116.16 142.05 114.09" style="fill: none; stroke: #ab6b29; stroke-miterlimit: 10; stroke-width: .25px;"/>
        <polygon points="142.07 121.14 139.67 121.15 138.47 123.23 139.68 125.3 142.07 125.3 143.27 123.21 142.07 121.14" style="fill: none; stroke: #ab6b29; stroke-miterlimit: 10; stroke-width: .25px;"/>
        <polygon points="142.08 127.73 139.68 127.74 138.49 129.82 139.69 131.89 142.09 131.89 143.28 129.81 142.08 127.73" style="fill: none; stroke: #ab6b29; stroke-miterlimit: 10; stroke-width: .25px;"/>
        <polygon points="142.1 134.78 139.7 134.79 138.5 136.87 139.71 138.94 142.1 138.94 143.3 136.86 142.1 134.78" style="fill: none; stroke: #ab6b29; stroke-miterlimit: 10; stroke-width: .25px;"/>
        <polygon points="142.11 141.9 139.71 141.9 138.52 143.98 139.72 146.06 142.12 146.05 143.31 143.97 142.11 141.9" style="fill: none; stroke: #ab6b29; stroke-miterlimit: 10; stroke-width: .25px;"/>
        <polygon points="142.12 148.95 139.73 148.95 138.53 151.03 139.73 153.11 142.13 153.1 143.33 151.02 142.12 148.95" style="fill: none; stroke: #ab6b29; stroke-miterlimit: 10; stroke-width: .25px;"/>
        <polygon points="141.84 15.95 139.45 15.96 138.25 18.04 139.45 20.11 141.85 20.11 143.05 18.03 141.84 15.95" style="fill: none; stroke: #ab6b29; stroke-miterlimit: 10; stroke-width: .25px;"/>
        <polygon points="141.86 23.01 139.46 23.01 138.27 25.09 139.47 27.17 141.87 27.16 143.06 25.08 141.86 23.01" style="fill: none; stroke: #ab6b29; stroke-miterlimit: 10; stroke-width: .25px;"/>
        <polygon points="141.87 30.12 139.47 30.12 138.28 32.2 139.49 34.28 141.88 34.27 143.08 32.19 141.87 30.12" style="fill: none; stroke: #ab6b29; stroke-miterlimit: 10; stroke-width: .25px;"/>
        <polygon points="141.89 37.17 139.49 37.17 138.3 39.25 139.5 41.33 141.9 41.32 143.09 39.24 141.89 37.17" style="fill: none; stroke: #ab6b29; stroke-miterlimit: 10; stroke-width: .25px;"/>
        <polygon points="159.69 28.33 157.29 28.33 156.1 30.41 157.3 32.49 159.7 32.48 160.89 30.4 159.69 28.33" style="fill: none; stroke: #ab6b29; stroke-miterlimit: 10; stroke-width: .25px;"/>
        <polygon points="159.7 35.38 157.31 35.38 156.11 37.46 157.32 39.54 159.71 39.53 160.91 37.45 159.7 35.38" style="fill: none; stroke: #ab6b29; stroke-miterlimit: 10; stroke-width: .25px;"/>
        <polygon points="159.72 42.49 157.32 42.5 156.13 44.57 157.33 46.65 159.73 46.64 160.92 44.56 159.72 42.49" style="fill: none; stroke: #ab6b29; stroke-miterlimit: 10; stroke-width: .25px;"/>
        <polygon points="159.73 49.54 157.34 49.54 156.14 51.62 157.34 53.7 159.74 53.69 160.93 51.61 159.73 49.54" style="fill: none; stroke: #ab6b29; stroke-miterlimit: 10; stroke-width: .25px;"/>
        <polygon points="159.69 28.33 157.29 28.33 156.1 30.41 157.3 32.49 159.7 32.48 160.89 30.4 159.69 28.33" style="fill: none; stroke: #ab6b29; stroke-miterlimit: 10; stroke-width: .25px;"/>
        <polygon points="159.7 35.38 157.31 35.38 156.11 37.46 157.32 39.54 159.71 39.53 160.91 37.45 159.7 35.38" style="fill: none; stroke: #ab6b29; stroke-miterlimit: 10; stroke-width: .25px;"/>
        <polygon points="159.72 42.49 157.32 42.5 156.13 44.57 157.33 46.65 159.73 46.64 160.92 44.56 159.72 42.49" style="fill: none; stroke: #ab6b29; stroke-miterlimit: 10; stroke-width: .25px;"/>
        <polygon points="159.73 49.54 157.34 49.54 156.14 51.62 157.34 53.7 159.74 53.69 160.93 51.61 159.73 49.54" style="fill: none; stroke: #ab6b29; stroke-miterlimit: 10; stroke-width: .25px;"/>
        <polygon points="159.75 56.51 157.35 56.52 156.16 58.59 157.36 60.67 159.75 60.67 160.95 58.58 159.75 56.51" style="fill: none; stroke: #ab6b29; stroke-miterlimit: 10; stroke-width: .25px;"/>
        <polygon points="159.76 63.56 157.37 63.57 156.17 65.65 157.37 67.72 159.77 67.72 160.97 65.64 159.76 63.56" style="fill: none; stroke: #ab6b29; stroke-miterlimit: 10; stroke-width: .25px;"/>
        <polygon points="159.78 70.67 157.38 70.68 156.19 72.76 157.39 74.83 159.79 74.83 160.98 72.75 159.78 70.67" style="fill: none; stroke: #ab6b29; stroke-miterlimit: 10; stroke-width: .25px;"/>
        <polygon points="159.79 77.72 157.39 77.73 156.2 79.81 157.4 81.88 159.8 81.88 161 79.8 159.79 77.72" style="fill: none; stroke: #ab6b29; stroke-miterlimit: 10; stroke-width: .25px;"/>
        <polygon points="159.81 84.41 157.41 84.41 156.21 86.49 157.42 88.57 159.82 88.56 161.01 86.48 159.81 84.41" style="fill: none; stroke: #ab6b29; stroke-miterlimit: 10; stroke-width: .25px;"/>
        <polygon points="159.82 91.46 157.42 91.46 156.23 93.54 157.43 95.62 159.83 95.61 161.02 93.53 159.82 91.46" style="fill: none; stroke: #ab6b29; stroke-miterlimit: 10; stroke-width: .25px;"/>
        <polygon points="159.84 98.57 157.44 98.57 156.25 100.65 157.45 102.73 159.84 102.72 161.04 100.64 159.84 98.57" style="fill: none; stroke: #ab6b29; stroke-miterlimit: 10; stroke-width: .25px;"/>
        <polygon points="159.85 105.62 157.46 105.62 156.26 107.7 157.46 109.78 159.86 109.77 161.05 107.69 159.85 105.62" style="fill: none; stroke: #ab6b29; stroke-miterlimit: 10; stroke-width: .25px;"/>
        <polygon points="159.87 112.21 157.47 112.22 156.28 114.29 157.48 116.37 159.87 116.36 161.07 114.28 159.87 112.21" style="fill: none; stroke: #ab6b29; stroke-miterlimit: 10; stroke-width: .25px;"/>
        <polygon points="159.88 119.26 157.48 119.27 156.29 121.35 157.49 123.42 159.89 123.42 161.08 121.33 159.88 119.26" style="fill: none; stroke: #ab6b29; stroke-miterlimit: 10; stroke-width: .25px;"/>
        <polygon points="159.89 126.37 157.5 126.38 156.3 128.46 157.51 130.53 159.9 130.53 161.1 128.45 159.89 126.37" style="fill: none; stroke: #ab6b29; stroke-miterlimit: 10; stroke-width: .25px;"/>
        <polygon points="159.91 133.42 157.51 133.43 156.32 135.51 157.52 137.58 159.92 137.58 161.11 135.5 159.91 133.42" style="fill: none; stroke: #ab6b29; stroke-miterlimit: 10; stroke-width: .25px;"/>
        <polygon points="159.63 .43 157.23 .44 156.04 2.52 157.24 4.59 159.64 4.59 160.83 2.51 159.63 .43" style="fill: none; stroke: #ab6b29; stroke-miterlimit: 10; stroke-width: .25px;"/>
        <polygon points="159.64 7.48 157.25 7.49 156.05 9.57 157.26 11.64 159.65 11.64 160.85 9.56 159.64 7.48" style="fill: none; stroke: #ab6b29; stroke-miterlimit: 10; stroke-width: .25px;"/>
        <polygon points="159.66 14.6 157.26 14.6 156.07 16.68 157.27 18.76 159.67 18.75 160.86 16.67 159.66 14.6" style="fill: none; stroke: #ab6b29; stroke-miterlimit: 10; stroke-width: .25px;"/>
        <polygon points="159.67 21.65 157.28 21.65 156.08 23.73 157.28 25.81 159.68 25.8 160.88 23.72 159.67 21.65" style="fill: none; stroke: #ab6b29; stroke-miterlimit: 10; stroke-width: .25px;"/>
        <polygon points="153.78 44.16 151.38 44.16 150.19 46.24 151.4 48.32 153.79 48.31 154.99 46.23 153.78 44.16" style="fill: none; stroke: #ab6b29; stroke-miterlimit: 10; stroke-width: .25px;"/>
        <polygon points="153.8 51.21 151.4 51.21 150.2 53.29 151.41 55.37 153.81 55.36 155 53.28 153.8 51.21" style="fill: none; stroke: #ab6b29; stroke-miterlimit: 10; stroke-width: .25px;"/>
        <polygon points="153.81 58.32 151.42 58.33 150.22 60.4 151.42 62.48 153.82 62.47 155.01 60.39 153.81 58.32" style="fill: none; stroke: #ab6b29; stroke-miterlimit: 10; stroke-width: .25px;"/>
        <polygon points="153.83 65.37 151.43 65.38 150.24 67.45 151.44 69.53 153.83 69.53 155.03 67.44 153.83 65.37" style="fill: none; stroke: #ab6b29; stroke-miterlimit: 10; stroke-width: .25px;"/>
        <polygon points="153.78 44.16 151.38 44.16 150.19 46.24 151.4 48.32 153.79 48.31 154.99 46.23 153.78 44.16" style="fill: none; stroke: #ab6b29; stroke-miterlimit: 10; stroke-width: .25px;"/>
        <polygon points="153.8 51.21 151.4 51.21 150.2 53.29 151.41 55.37 153.81 55.36 155 53.28 153.8 51.21" style="fill: none; stroke: #ab6b29; stroke-miterlimit: 10; stroke-width: .25px;"/>
        <polygon points="153.81 58.32 151.42 58.33 150.22 60.4 151.42 62.48 153.82 62.47 155.01 60.39 153.81 58.32" style="fill: none; stroke: #ab6b29; stroke-miterlimit: 10; stroke-width: .25px;"/>
        <polygon points="153.83 65.37 151.43 65.38 150.24 67.45 151.44 69.53 153.83 69.53 155.03 67.44 153.83 65.37" style="fill: none; stroke: #ab6b29; stroke-miterlimit: 10; stroke-width: .25px;"/>
        <polygon points="153.84 72.34 151.44 72.35 150.25 74.42 151.45 76.5 153.85 76.5 155.04 74.41 153.84 72.34" style="fill: none; stroke: #ab6b29; stroke-miterlimit: 10; stroke-width: .25px;"/>
        <polygon points="153.86 79.39 151.46 79.4 150.27 81.48 151.47 83.55 153.87 83.55 155.06 81.47 153.86 79.39" style="fill: none; stroke: #ab6b29; stroke-miterlimit: 10; stroke-width: .25px;"/>
        <polygon points="153.87 86.5 151.47 86.51 150.28 88.59 151.48 90.66 153.88 90.66 155.07 88.58 153.87 86.5" style="fill: none; stroke: #ab6b29; stroke-miterlimit: 10; stroke-width: .25px;"/>
        <polygon points="153.89 93.55 151.49 93.56 150.29 95.64 151.5 97.71 153.89 97.71 155.09 95.63 153.89 93.55" style="fill: none; stroke: #ab6b29; stroke-miterlimit: 10; stroke-width: .25px;"/>
        <polygon points="153.9 100.23 151.5 100.24 150.31 102.32 151.51 104.39 153.91 104.39 155.1 102.31 153.9 100.23" style="fill: none; stroke: #ab6b29; stroke-miterlimit: 10; stroke-width: .25px;"/>
        <polygon points="153.92 107.29 151.52 107.29 150.33 109.37 151.53 111.45 153.92 111.44 155.12 109.36 153.92 107.29" style="fill: none; stroke: #ab6b29; stroke-miterlimit: 10; stroke-width: .25px;"/>
        <polygon points="153.93 114.4 151.53 114.4 150.34 116.48 151.54 118.55 153.94 118.55 155.13 116.47 153.93 114.4" style="fill: none; stroke: #ab6b29; stroke-miterlimit: 10; stroke-width: .25px;"/>
        <polygon points="153.94 121.45 151.55 121.45 150.35 123.53 151.56 125.61 153.96 125.6 155.15 123.52 153.94 121.45" style="fill: none; stroke: #ab6b29; stroke-miterlimit: 10; stroke-width: .25px;"/>
        <polygon points="153.96 128.04 151.56 128.05 150.37 130.12 151.57 132.2 153.97 132.19 155.16 130.11 153.96 128.04" style="fill: none; stroke: #ab6b29; stroke-miterlimit: 10; stroke-width: .25px;"/>
        <polygon points="153.97 135.09 151.58 135.1 150.38 137.18 151.58 139.25 153.98 139.25 155.18 137.16 153.97 135.09" style="fill: none; stroke: #ab6b29; stroke-miterlimit: 10; stroke-width: .25px;"/>
        <polygon points="153.99 142.2 151.59 142.21 150.4 144.29 151.6 146.36 154 146.36 155.19 144.28 153.99 142.2" style="fill: none; stroke: #ab6b29; stroke-miterlimit: 10; stroke-width: .25px;"/>
        <polygon points="154.01 149.25 151.61 149.26 150.41 151.34 151.62 153.41 154.01 153.41 155.21 151.33 154.01 149.25" style="fill: none; stroke: #ab6b29; stroke-miterlimit: 10; stroke-width: .25px;"/>
        <polygon points="153.72 16.26 151.33 16.27 150.13 18.35 151.33 20.42 153.73 20.42 154.92 18.34 153.72 16.26" style="fill: none; stroke: #ab6b29; stroke-miterlimit: 10; stroke-width: .25px;"/>
        <polygon points="153.74 23.31 151.34 23.32 150.15 25.4 151.35 27.47 153.75 27.47 154.94 25.39 153.74 23.31" style="fill: none; stroke: #ab6b29; stroke-miterlimit: 10; stroke-width: .25px;"/>
        <polygon points="153.75 30.43 151.36 30.43 150.16 32.51 151.36 34.59 153.76 34.58 154.96 32.5 153.75 30.43" style="fill: none; stroke: #ab6b29; stroke-miterlimit: 10; stroke-width: .25px;"/>
        <polygon points="153.77 37.48 151.37 37.48 150.18 39.56 151.38 41.64 153.78 41.63 154.97 39.55 153.77 37.48" style="fill: none; stroke: #ab6b29; stroke-miterlimit: 10; stroke-width: .25px;"/>
        <polygon points="171.57 28.14 169.17 28.14 167.97 30.22 169.18 32.3 171.58 32.29 172.77 30.21 171.57 28.14" style="fill: none; stroke: #ab6b29; stroke-miterlimit: 10; stroke-width: .25px;"/>
        <polygon points="171.58 35.19 169.19 35.19 167.99 37.27 169.19 39.35 171.59 39.34 172.78 37.26 171.58 35.19" style="fill: none; stroke: #ab6b29; stroke-miterlimit: 10; stroke-width: .25px;"/>
        <polygon points="171.6 42.3 169.2 42.3 168.01 44.38 169.21 46.46 171.61 46.45 172.8 44.37 171.6 42.3" style="fill: none; stroke: #ab6b29; stroke-miterlimit: 10; stroke-width: .25px;"/>
        <polygon points="171.61 49.35 169.21 49.35 168.02 51.43 169.22 53.51 171.62 53.5 172.82 51.42 171.61 49.35" style="fill: none; stroke: #ab6b29; stroke-miterlimit: 10; stroke-width: .25px;"/>
        <polygon points="171.57 28.14 169.17 28.14 167.97 30.22 169.18 32.3 171.58 32.29 172.77 30.21 171.57 28.14" style="fill: none; stroke: #ab6b29; stroke-miterlimit: 10; stroke-width: .25px;"/>
        <polygon points="171.58 35.19 169.19 35.19 167.99 37.27 169.19 39.35 171.59 39.34 172.78 37.26 171.58 35.19" style="fill: none; stroke: #ab6b29; stroke-miterlimit: 10; stroke-width: .25px;"/>
        <polygon points="171.6 42.3 169.2 42.3 168.01 44.38 169.21 46.46 171.61 46.45 172.8 44.37 171.6 42.3" style="fill: none; stroke: #ab6b29; stroke-miterlimit: 10; stroke-width: .25px;"/>
        <polygon points="171.61 49.35 169.21 49.35 168.02 51.43 169.22 53.51 171.62 53.5 172.82 51.42 171.61 49.35" style="fill: none; stroke: #ab6b29; stroke-miterlimit: 10; stroke-width: .25px;"/>
        <polygon points="171.63 56.32 169.23 56.32 168.03 58.4 169.24 60.48 171.64 60.47 172.83 58.4 171.63 56.32" style="fill: none; stroke: #ab6b29; stroke-miterlimit: 10; stroke-width: .25px;"/>
        <polygon points="171.64 63.37 169.24 63.38 168.05 65.45 169.25 67.53 171.65 67.52 172.84 65.44 171.64 63.37" style="fill: none; stroke: #ab6b29; stroke-miterlimit: 10; stroke-width: .25px;"/>
        <polygon points="171.66 70.48 169.26 70.49 168.07 72.57 169.27 74.64 171.66 74.64 172.86 72.56 171.66 70.48" style="fill: none; stroke: #ab6b29; stroke-miterlimit: 10; stroke-width: .25px;"/>
        <polygon points="171.67 77.53 169.28 77.54 168.08 79.62 169.28 81.69 171.68 81.69 172.87 79.61 171.67 77.53" style="fill: none; stroke: #ab6b29; stroke-miterlimit: 10; stroke-width: .25px;"/>
        <polygon points="171.69 84.21 169.29 84.22 168.1 86.3 169.3 88.37 171.69 88.37 172.89 86.29 171.69 84.21" style="fill: none; stroke: #ab6b29; stroke-miterlimit: 10; stroke-width: .25px;"/>
        <polygon points="171.7 91.26 169.3 91.27 168.11 93.35 169.31 95.42 171.71 95.42 172.9 93.34 171.7 91.26" style="fill: none; stroke: #ab6b29; stroke-miterlimit: 10; stroke-width: .25px;"/>
        <polygon points="171.71 98.38 169.32 98.38 168.12 100.46 169.33 102.54 171.73 102.53 172.92 100.45 171.71 98.38" style="fill: none; stroke: #ab6b29; stroke-miterlimit: 10; stroke-width: .25px;"/>
        <polygon points="171.73 105.43 169.33 105.43 168.14 107.51 169.34 109.59 171.74 109.58 172.93 107.5 171.73 105.43" style="fill: none; stroke: #ab6b29; stroke-miterlimit: 10; stroke-width: .25px;"/>
        <polygon points="171.74 112.02 169.35 112.03 168.15 114.1 169.36 116.18 171.75 116.18 172.95 114.09 171.74 112.02" style="fill: none; stroke: #ab6b29; stroke-miterlimit: 10; stroke-width: .25px;"/>
        <polygon points="171.76 119.07 169.36 119.07 168.17 121.15 169.37 123.23 171.77 123.22 172.96 121.14 171.76 119.07" style="fill: none; stroke: #ab6b29; stroke-miterlimit: 10; stroke-width: .25px;"/>
        <polygon points="171.77 126.18 169.38 126.19 168.18 128.27 169.39 130.34 171.78 130.34 172.98 128.25 171.77 126.18" style="fill: none; stroke: #ab6b29; stroke-miterlimit: 10; stroke-width: .25px;"/>
        <polygon points="171.79 133.23 169.39 133.24 168.2 135.32 169.4 137.39 171.8 137.39 172.99 135.31 171.79 133.23" style="fill: none; stroke: #ab6b29; stroke-miterlimit: 10; stroke-width: .25px;"/>
        <polygon points="171.51 .24 169.11 .25 167.92 2.33 169.12 4.4 171.52 4.4 172.71 2.31 171.51 .24" style="fill: none; stroke: #ab6b29; stroke-miterlimit: 10; stroke-width: .25px;"/>
        <polygon points="171.52 7.29 169.13 7.3 167.93 9.38 169.13 11.45 171.53 11.45 172.73 9.37 171.52 7.29" style="fill: none; stroke: #ab6b29; stroke-miterlimit: 10; stroke-width: .25px;"/>
        <polygon points="171.54 14.4 169.14 14.41 167.95 16.49 169.15 18.56 171.55 18.56 172.74 16.48 171.54 14.4" style="fill: none; stroke: #ab6b29; stroke-miterlimit: 10; stroke-width: .25px;"/>
        <polygon points="171.55 21.45 169.15 21.46 167.96 23.54 169.17 25.62 171.56 25.61 172.76 23.53 171.55 21.45" style="fill: none; stroke: #ab6b29; stroke-miterlimit: 10; stroke-width: .25px;"/>
        <polygon points="165.66 43.97 163.27 43.97 162.07 46.05 163.27 48.13 165.67 48.12 166.86 46.04 165.66 43.97" style="fill: none; stroke: #ab6b29; stroke-miterlimit: 10; stroke-width: .25px;"/>
        <polygon points="165.68 51.02 163.28 51.02 162.09 53.1 163.29 55.18 165.68 55.17 166.88 53.09 165.68 51.02" style="fill: none; stroke: #ab6b29; stroke-miterlimit: 10; stroke-width: .25px;"/>
        <polygon points="165.69 58.13 163.29 58.13 162.1 60.21 163.3 62.29 165.7 62.28 166.9 60.2 165.69 58.13" style="fill: none; stroke: #ab6b29; stroke-miterlimit: 10; stroke-width: .25px;"/>
        <polygon points="165.7 65.18 163.31 65.18 162.11 67.26 163.32 69.34 165.72 69.33 166.91 67.25 165.7 65.18" style="fill: none; stroke: #ab6b29; stroke-miterlimit: 10; stroke-width: .25px;"/>
        <polygon points="165.66 43.97 163.27 43.97 162.07 46.05 163.27 48.13 165.67 48.12 166.86 46.04 165.66 43.97" style="fill: none; stroke: #ab6b29; stroke-miterlimit: 10; stroke-width: .25px;"/>
        <polygon points="165.68 51.02 163.28 51.02 162.09 53.1 163.29 55.18 165.68 55.17 166.88 53.09 165.68 51.02" style="fill: none; stroke: #ab6b29; stroke-miterlimit: 10; stroke-width: .25px;"/>
        <polygon points="165.69 58.13 163.29 58.13 162.1 60.21 163.3 62.29 165.7 62.28 166.9 60.2 165.69 58.13" style="fill: none; stroke: #ab6b29; stroke-miterlimit: 10; stroke-width: .25px;"/>
        <polygon points="165.7 65.18 163.31 65.18 162.11 67.26 163.32 69.34 165.72 69.33 166.91 67.25 165.7 65.18" style="fill: none; stroke: #ab6b29; stroke-miterlimit: 10; stroke-width: .25px;"/>
        <polygon points="165.72 72.15 163.32 72.16 162.13 74.23 163.33 76.31 165.73 76.31 166.92 74.22 165.72 72.15" style="fill: none; stroke: #ab6b29; stroke-miterlimit: 10; stroke-width: .25px;"/>
        <polygon points="165.74 79.2 163.34 79.2 162.14 81.28 163.35 83.36 165.74 83.35 166.94 81.27 165.74 79.2" style="fill: none; stroke: #ab6b29; stroke-miterlimit: 10; stroke-width: .25px;"/>
        <polygon points="165.75 86.31 163.35 86.32 162.16 88.4 163.36 90.47 165.76 90.47 166.95 88.38 165.75 86.31" style="fill: none; stroke: #ab6b29; stroke-miterlimit: 10; stroke-width: .25px;"/>
        <polygon points="165.76 93.36 163.37 93.37 162.17 95.45 163.38 97.52 165.78 97.52 166.97 95.44 165.76 93.36" style="fill: none; stroke: #ab6b29; stroke-miterlimit: 10; stroke-width: .25px;"/>
        <polygon points="165.78 100.04 163.38 100.05 162.19 102.13 163.39 104.2 165.79 104.2 166.98 102.12 165.78 100.04" style="fill: none; stroke: #ab6b29; stroke-miterlimit: 10; stroke-width: .25px;"/>
        <polygon points="165.79 107.09 163.4 107.1 162.2 109.18 163.4 111.25 165.8 111.25 167 109.17 165.79 107.09" style="fill: none; stroke: #ab6b29; stroke-miterlimit: 10; stroke-width: .25px;"/>
        <polygon points="165.81 114.21 163.41 114.21 162.22 116.29 163.42 118.37 165.82 118.36 167.01 116.28 165.81 114.21" style="fill: none; stroke: #ab6b29; stroke-miterlimit: 10; stroke-width: .25px;"/>
        <polygon points="165.83 121.26 163.43 121.26 162.23 123.34 163.44 125.42 165.83 125.41 167.03 123.33 165.83 121.26" style="fill: none; stroke: #ab6b29; stroke-miterlimit: 10; stroke-width: .25px;"/>
        <polygon points="165.84 127.85 163.44 127.86 162.25 129.93 163.45 132.01 165.85 132.01 167.04 129.92 165.84 127.85" style="fill: none; stroke: #ab6b29; stroke-miterlimit: 10; stroke-width: .25px;"/>
        <polygon points="165.85 134.9 163.45 134.9 162.26 136.98 163.47 139.06 165.86 139.05 167.06 136.97 165.85 134.9" style="fill: none; stroke: #ab6b29; stroke-miterlimit: 10; stroke-width: .25px;"/>
        <polygon points="165.87 142.01 163.47 142.02 162.28 144.09 163.48 146.17 165.88 146.17 167.07 144.08 165.87 142.01" style="fill: none; stroke: #ab6b29; stroke-miterlimit: 10; stroke-width: .25px;"/>
        <polygon points="165.88 149.06 163.49 149.07 162.29 151.15 163.49 153.22 165.89 153.22 167.09 151.14 165.88 149.06" style="fill: none; stroke: #ab6b29; stroke-miterlimit: 10; stroke-width: .25px;"/>
        <polygon points="165.6 16.07 163.2 16.08 162.01 18.15 163.21 20.23 165.61 20.23 166.81 18.14 165.6 16.07" style="fill: none; stroke: #ab6b29; stroke-miterlimit: 10; stroke-width: .25px;"/>
        <polygon points="165.62 23.12 163.22 23.13 162.02 25.21 163.23 27.28 165.63 27.28 166.82 25.19 165.62 23.12" style="fill: none; stroke: #ab6b29; stroke-miterlimit: 10; stroke-width: .25px;"/>
        <polygon points="165.63 30.23 163.23 30.24 162.04 32.32 163.24 34.39 165.64 34.39 166.83 32.31 165.63 30.23" style="fill: none; stroke: #ab6b29; stroke-miterlimit: 10; stroke-width: .25px;"/>
        <polygon points="165.65 37.28 163.25 37.29 162.06 39.37 163.26 41.44 165.65 41.44 166.85 39.36 165.65 37.28" style="fill: none; stroke: #ab6b29; stroke-miterlimit: 10; stroke-width: .25px;"/>
        <polygon points="183.45 28.44 181.05 28.45 179.86 30.53 181.06 32.6 183.46 32.6 184.65 30.52 183.45 28.44" style="fill: none; stroke: #ab6b29; stroke-miterlimit: 10; stroke-width: .25px;"/>
        <polygon points="183.46 35.49 181.06 35.5 179.87 37.58 181.07 39.65 183.47 39.65 184.66 37.56 183.46 35.49" style="fill: none; stroke: #ab6b29; stroke-miterlimit: 10; stroke-width: .25px;"/>
        <polygon points="183.48 42.61 181.08 42.61 179.89 44.69 181.09 46.77 183.48 46.76 184.68 44.68 183.48 42.61" style="fill: none; stroke: #ab6b29; stroke-miterlimit: 10; stroke-width: .25px;"/>
        <polygon points="183.49 49.66 181.1 49.66 179.9 51.74 181.1 53.81 183.5 53.81 184.69 51.73 183.49 49.66" style="fill: none; stroke: #ab6b29; stroke-miterlimit: 10; stroke-width: .25px;"/>
        <polygon points="183.45 28.44 181.05 28.45 179.86 30.53 181.06 32.6 183.46 32.6 184.65 30.52 183.45 28.44" style="fill: none; stroke: #ab6b29; stroke-miterlimit: 10; stroke-width: .25px;"/>
        <polygon points="183.46 35.49 181.06 35.5 179.87 37.58 181.07 39.65 183.47 39.65 184.66 37.56 183.46 35.49" style="fill: none; stroke: #ab6b29; stroke-miterlimit: 10; stroke-width: .25px;"/>
        <polygon points="183.48 42.61 181.08 42.61 179.89 44.69 181.09 46.77 183.48 46.76 184.68 44.68 183.48 42.61" style="fill: none; stroke: #ab6b29; stroke-miterlimit: 10; stroke-width: .25px;"/>
        <polygon points="183.49 49.66 181.1 49.66 179.9 51.74 181.1 53.81 183.5 53.81 184.69 51.73 183.49 49.66" style="fill: none; stroke: #ab6b29; stroke-miterlimit: 10; stroke-width: .25px;"/>
        <polygon points="183.51 56.63 181.11 56.63 179.92 58.71 181.12 60.79 183.52 60.78 184.71 58.7 183.51 56.63" style="fill: none; stroke: #ab6b29; stroke-miterlimit: 10; stroke-width: .25px;"/>
        <polygon points="183.52 63.68 181.12 63.68 179.93 65.76 181.13 67.84 183.53 67.83 184.73 65.75 183.52 63.68" style="fill: none; stroke: #ab6b29; stroke-miterlimit: 10; stroke-width: .25px;"/>
        <polygon points="183.53 70.79 181.14 70.79 179.94 72.87 181.15 74.95 183.55 74.94 184.74 72.86 183.53 70.79" style="fill: none; stroke: #ab6b29; stroke-miterlimit: 10; stroke-width: .25px;"/>
        <polygon points="183.55 77.84 181.15 77.85 179.96 79.92 181.16 82 183.56 82 184.75 79.91 183.55 77.84" style="fill: none; stroke: #ab6b29; stroke-miterlimit: 10; stroke-width: .25px;"/>
        <polygon points="183.57 84.52 181.17 84.53 179.97 86.61 181.18 88.68 183.57 88.68 184.77 86.59 183.57 84.52" style="fill: none; stroke: #ab6b29; stroke-miterlimit: 10; stroke-width: .25px;"/>
        <polygon points="183.58 91.57 181.19 91.58 179.99 93.66 181.19 95.73 183.59 95.73 184.78 93.65 183.58 91.57" style="fill: none; stroke: #ab6b29; stroke-miterlimit: 10; stroke-width: .25px;"/>
        <polygon points="183.6 98.68 181.2 98.69 180 100.77 181.21 102.84 183.6 102.84 184.8 100.76 183.6 98.68" style="fill: none; stroke: #ab6b29; stroke-miterlimit: 10; stroke-width: .25px;"/>
        <polygon points="183.61 105.73 181.21 105.74 180.02 107.82 181.22 109.9 183.62 109.89 184.81 107.81 183.61 105.73" style="fill: none; stroke: #ab6b29; stroke-miterlimit: 10; stroke-width: .25px;"/>
        <polygon points="183.62 112.33 181.23 112.33 180.03 114.41 181.23 116.49 183.63 116.48 184.83 114.4 183.62 112.33" style="fill: none; stroke: #ab6b29; stroke-miterlimit: 10; stroke-width: .25px;"/>
        <polygon points="183.64 119.38 181.24 119.38 180.05 121.46 181.25 123.54 183.65 123.53 184.84 121.45 183.64 119.38" style="fill: none; stroke: #ab6b29; stroke-miterlimit: 10; stroke-width: .25px;"/>
        <polygon points="183.66 126.49 181.26 126.49 180.06 128.57 181.27 130.65 183.66 130.64 184.86 128.56 183.66 126.49" style="fill: none; stroke: #ab6b29; stroke-miterlimit: 10; stroke-width: .25px;"/>
        <polygon points="183.67 133.54 181.27 133.55 180.08 135.62 181.28 137.7 183.68 137.69 184.87 135.61 183.67 133.54" style="fill: none; stroke: #ab6b29; stroke-miterlimit: 10; stroke-width: .25px;"/>
        <polygon points="183.39 .55 180.99 .55 179.8 2.63 181 4.71 183.4 4.7 184.59 2.62 183.39 .55" style="fill: none; stroke: #ab6b29; stroke-miterlimit: 10; stroke-width: .25px;"/>
        <polygon points="183.4 7.6 181.01 7.6 179.81 9.68 181.01 11.76 183.41 11.75 184.6 9.67 183.4 7.6" style="fill: none; stroke: #ab6b29; stroke-miterlimit: 10; stroke-width: .25px;"/>
        <polygon points="183.42 14.71 181.02 14.72 179.83 16.8 181.03 18.87 183.43 18.87 184.62 16.78 183.42 14.71" style="fill: none; stroke: #ab6b29; stroke-miterlimit: 10; stroke-width: .25px;"/>
        <polygon points="183.43 21.76 181.04 21.77 179.84 23.85 181.05 25.92 183.44 25.92 184.64 23.84 183.43 21.76" style="fill: none; stroke: #ab6b29; stroke-miterlimit: 10; stroke-width: .25px;"/>
        <polygon points="177.54 44.27 175.14 44.28 173.95 46.36 175.15 48.43 177.55 48.43 178.74 46.35 177.54 44.27" style="fill: none; stroke: #ab6b29; stroke-miterlimit: 10; stroke-width: .25px;"/>
        <polygon points="177.56 51.32 175.16 51.33 173.96 53.41 175.17 55.48 177.56 55.48 178.76 53.4 177.56 51.32" style="fill: none; stroke: #ab6b29; stroke-miterlimit: 10; stroke-width: .25px;"/>
        <polygon points="177.57 58.44 175.17 58.44 173.98 60.52 175.18 62.6 177.58 62.59 178.77 60.51 177.57 58.44" style="fill: none; stroke: #ab6b29; stroke-miterlimit: 10; stroke-width: .25px;"/>
        <polygon points="177.59 65.49 175.19 65.49 173.99 67.57 175.2 69.64 177.6 69.64 178.79 67.56 177.59 65.49" style="fill: none; stroke: #ab6b29; stroke-miterlimit: 10; stroke-width: .25px;"/>
        <polygon points="177.54 44.27 175.14 44.28 173.95 46.36 175.15 48.43 177.55 48.43 178.74 46.35 177.54 44.27" style="fill: none; stroke: #ab6b29; stroke-miterlimit: 10; stroke-width: .25px;"/>
        <polygon points="177.56 51.32 175.16 51.33 173.96 53.41 175.17 55.48 177.56 55.48 178.76 53.4 177.56 51.32" style="fill: none; stroke: #ab6b29; stroke-miterlimit: 10; stroke-width: .25px;"/>
        <polygon points="177.57 58.44 175.17 58.44 173.98 60.52 175.18 62.6 177.58 62.59 178.77 60.51 177.57 58.44" style="fill: none; stroke: #ab6b29; stroke-miterlimit: 10; stroke-width: .25px;"/>
        <polygon points="177.59 65.49 175.19 65.49 173.99 67.57 175.2 69.64 177.6 69.64 178.79 67.56 177.59 65.49" style="fill: none; stroke: #ab6b29; stroke-miterlimit: 10; stroke-width: .25px;"/>
        <polygon points="177.6 72.46 175.2 72.46 174.01 74.54 175.21 76.62 177.61 76.61 178.8 74.53 177.6 72.46" style="fill: none; stroke: #ab6b29; stroke-miterlimit: 10; stroke-width: .25px;"/>
        <polygon points="177.61 79.51 175.22 79.51 174.02 81.59 175.23 83.67 177.62 83.66 178.82 81.58 177.61 79.51" style="fill: none; stroke: #ab6b29; stroke-miterlimit: 10; stroke-width: .25px;"/>
        <polygon points="177.63 86.62 175.23 86.62 174.04 88.7 175.24 90.78 177.64 90.77 178.83 88.69 177.63 86.62" style="fill: none; stroke: #ab6b29; stroke-miterlimit: 10; stroke-width: .25px;"/>
        <polygon points="177.65 93.67 175.25 93.68 174.06 95.75 175.26 97.83 177.65 97.82 178.85 95.74 177.65 93.67" style="fill: none; stroke: #ab6b29; stroke-miterlimit: 10; stroke-width: .25px;"/>
        <polygon points="177.66 100.35 175.26 100.36 174.07 102.43 175.27 104.51 177.67 104.51 178.86 102.42 177.66 100.35" style="fill: none; stroke: #ab6b29; stroke-miterlimit: 10; stroke-width: .25px;"/>
        <polygon points="177.67 107.4 175.28 107.41 174.08 109.49 175.29 111.56 177.68 111.56 178.88 109.48 177.67 107.4" style="fill: none; stroke: #ab6b29; stroke-miterlimit: 10; stroke-width: .25px;"/>
        <polygon points="177.69 114.51 175.29 114.52 174.1 116.59 175.3 118.67 177.7 118.67 178.89 116.59 177.69 114.51" style="fill: none; stroke: #ab6b29; stroke-miterlimit: 10; stroke-width: .25px;"/>
        <polygon points="177.7 121.56 175.31 121.57 174.11 123.65 175.32 125.72 177.71 125.72 178.91 123.64 177.7 121.56" style="fill: none; stroke: #ab6b29; stroke-miterlimit: 10; stroke-width: .25px;"/>
        <polygon points="177.72 128.16 175.32 128.16 174.13 130.24 175.33 132.32 177.73 132.31 178.92 130.23 177.72 128.16" style="fill: none; stroke: #ab6b29; stroke-miterlimit: 10; stroke-width: .25px;"/>
        <polygon points="177.73 135.21 175.34 135.21 174.14 137.29 175.35 139.37 177.74 139.36 178.94 137.28 177.73 135.21" style="fill: none; stroke: #ab6b29; stroke-miterlimit: 10; stroke-width: .25px;"/>
        <polygon points="177.75 142.32 175.35 142.32 174.16 144.4 175.36 146.48 177.76 146.47 178.95 144.39 177.75 142.32" style="fill: none; stroke: #ab6b29; stroke-miterlimit: 10; stroke-width: .25px;"/>
        <polygon points="177.76 149.37 175.37 149.37 174.17 151.45 175.37 153.53 177.77 153.52 178.97 151.44 177.76 149.37" style="fill: none; stroke: #ab6b29; stroke-miterlimit: 10; stroke-width: .25px;"/>
        <polygon points="177.48 16.38 175.09 16.38 173.89 18.46 175.09 20.54 177.49 20.53 178.68 18.45 177.48 16.38" style="fill: none; stroke: #ab6b29; stroke-miterlimit: 10; stroke-width: .25px;"/>
        <polygon points="177.5 23.43 175.1 23.43 173.91 25.51 175.11 27.59 177.51 27.58 178.7 25.5 177.5 23.43" style="fill: none; stroke: #ab6b29; stroke-miterlimit: 10; stroke-width: .25px;"/>
        <polygon points="177.51 30.54 175.11 30.55 173.92 32.63 175.13 34.7 177.52 34.7 178.72 32.61 177.51 30.54" style="fill: none; stroke: #ab6b29; stroke-miterlimit: 10; stroke-width: .25px;"/>
        <polygon points="177.53 37.59 175.13 37.6 173.93 39.68 175.14 41.75 177.54 41.75 178.73 39.67 177.53 37.59" style="fill: none; stroke: #ab6b29; stroke-miterlimit: 10; stroke-width: .25px;"/>
      </g>
      <rect x="39.29" y="49.17" width="40.77" height="52.3" transform="translate(-.16 .13) rotate(-.12)" style="fill: #2b2929; stroke-width: 0px;"/>
      <rect x="58.75" y="40.55" width="9.3" height="70.74" transform="translate(-.16 .13) rotate(-.12)" style="fill: #505052; stroke-width: 0px;"/>
      <rect x="48" y="42.46" width="10.75" height="66.97" transform="translate(-.16 .11) rotate(-.12)" style="fill: #363435; stroke-width: 0px;"/>
      <rect x="24.18" y="50.64" width="15.11" height="50.89" transform="translate(-.16 .07) rotate(-.12)" style="fill: #9a9ba0; stroke-width: 0px;"/>
      <path d="M13.98,67.82c-2.45,0-4.43-1.98-4.44-4.42,0-2.45,1.97-4.43,4.42-4.44,2.45,0,4.44,1.98,4.44,4.42,0,2.45-1.98,4.43-4.42,4.44" style="fill: #bc984b; stroke-width: 0px;"/>
      <path d="M13.98,67.86c-2.45,0-4.43-1.98-4.44-4.42,0-2.45,1.97-4.43,4.42-4.44,2.45,0,4.44,1.97,4.44,4.42,0,2.45-1.97,4.44-4.42,4.44" style="fill: #857133; stroke-width: 0px;"/>
      <polygon points="8.96 65.09 10.14 66.93 18.4 61.68 17.24 59.84 8.96 65.09" style="fill: none; stroke-width: 0px;"/>
      <path d="M14.01,80.43c-2.45,0-4.43-1.97-4.44-4.42,0-2.45,1.98-4.44,4.42-4.44,2.45,0,4.43,1.97,4.44,4.42,0,2.45-1.97,4.44-4.42,4.44" style="fill: #bc984b; stroke-width: 0px;"/>
      <path d="M14.01,80.47c-2.45,0-4.43-1.97-4.44-4.42,0-2.45,1.98-4.43,4.42-4.44,2.45,0,4.43,1.98,4.44,4.42,0,2.45-1.97,4.43-4.42,4.44" style="fill: #857133; stroke-width: 0px;"/>
      <rect x="8.81" y="74.91" width="9.79" height="2.18" transform="translate(-38.6 19.19) rotate(-32.41)" style="fill: none; stroke-width: 0px;"/>
      <path d="M14.33,93.26c-2.45,0-4.43-1.97-4.44-4.42,0-2.45,1.98-4.43,4.42-4.44,2.45,0,4.43,1.98,4.44,4.42,0,2.45-1.98,4.43-4.42,4.44" style="fill: #bc984b; stroke-width: 0px;"/>
      <path d="M14.33,93.31c-2.45,0-4.43-1.98-4.44-4.42,0-2.45,1.98-4.43,4.42-4.44,2.45,0,4.43,1.98,4.44,4.42,0,2.45-1.98,4.43-4.42,4.44" style="fill: #857133; stroke-width: 0px;"/>
      <polygon points="9.31 90.54 10.48 92.37 18.75 87.12 17.58 85.29 9.31 90.54" style="fill: none; stroke-width: 0px;"/>
      <line x1="7.07" y1="57.52" x2="7.15" y2="94.85" style="fill: #808083; stroke-width: 0px;"/>
      <line x1="7.07" y1="57.52" x2="7.15" y2="94.85" style="fill: none; stroke: #5b5a5d; stroke-miterlimit: 10; stroke-width: .25px;"/>
      <line x1="21.75" y1="57.48" x2="21.83" y2="94.82" style="fill: #808083; stroke-width: 0px;"/>
      <line x1="21.75" y1="57.48" x2="21.83" y2="94.82" style="fill: none; stroke: #5b5a5d; stroke-miterlimit: 10; stroke-width: .25px;"/>
      <g>
        <path d="M3.37,65.01v-.52c0-.29-.05-.52-.14-.68-.09-.16-.23-.24-.42-.24-.14,0-.27.05-.37.15s-.15.24-.15.43c0,.16.03.3.1.42s.15.22.25.29c.1.07.19.11.28.11l-.25.22c-.08-.01-.16-.05-.26-.1-.09-.06-.18-.13-.27-.23-.09-.09-.16-.21-.21-.34-.06-.13-.09-.28-.09-.44,0-.2.04-.38.12-.53.08-.15.18-.27.32-.36s.29-.13.45-.13c.32,0,.57.12.74.37.17.24.25.57.25.98v.59s-.36,0-.36,0ZM3.97,64.91c.18,0,.32-.05.43-.16.11-.11.16-.26.16-.47,0-.13-.02-.24-.07-.34-.05-.1-.1-.17-.18-.22-.07-.05-.15-.08-.24-.08v-.52c.14,0,.28.05.42.15s.25.24.34.41c.09.18.13.39.13.63,0,.22-.04.41-.11.58-.07.17-.19.3-.33.4s-.33.14-.56.14h-1.4c-.1,0-.21.01-.32.03-.11.02-.21.04-.29.08h-.04v-.54c.06-.03.14-.05.24-.06.1-.01.19-.02.28-.02h1.54Z" style="fill: #9a9ba0; stroke-width: 0px;"/>
        <path d="M1.91,60.78v-.54s4.04,0,4.04,0v.54s-4.04,0-4.04,0ZM1.91,62.69v-2.02s.43,0,.43,0v2.02s-.43,0-.43,0Z" style="fill: #9a9ba0; stroke-width: 0px;"/>
      </g>
      <path d="M1.94,77.13v-.54s3.12-2.04,3.12-2.04H1.94s0-.53,0-.53h4.04s0,.53,0,.53l-3.13,2.04h3.13s0,.53,0,.53H1.94Z" style="fill: #9a9ba0; stroke-width: 0px;"/>
      <g>
        <path d="M3.44,91.09c-.29,0-.55-.04-.78-.14-.23-.09-.41-.22-.54-.39-.13-.17-.2-.38-.2-.63,0-.25.06-.47.17-.64.11-.17.28-.3.49-.4.21-.1.46-.16.75-.19h.27c.29.03.55.09.76.18.21.09.38.22.49.39.12.17.17.38.17.63,0,.25-.06.46-.19.64-.13.17-.31.31-.54.4-.23.09-.5.14-.8.14h-.06ZM6.23,89.06h-3.68s-.58-.04-.58-.04v-.47s4.26,0,4.26,0v.52ZM3.49,90.57c.2,0,.38-.03.55-.08.17-.05.3-.13.4-.25.1-.11.15-.27.15-.46,0-.13-.02-.24-.07-.33-.04-.1-.1-.17-.18-.24-.08-.07-.16-.12-.26-.16-.09-.04-.19-.07-.29-.09h-.67c-.13.03-.25.08-.37.15-.12.07-.22.16-.29.27-.08.11-.11.25-.11.42,0,.18.05.33.15.45.1.11.23.2.4.25.17.05.35.08.55.08h.06Z" style="fill: #9a9ba0; stroke-width: 0px;"/>
        <path d="M1.96,86.17v-.54s4.04,0,4.04,0v.54s-4.04,0-4.04,0ZM1.96,88.08v-2.02s.43,0,.43,0v2.02s-.43,0-.43,0Z" style="fill: #9a9ba0; stroke-width: 0px;"/>
      </g>
    </g>
  </g>
</svg>