<?xml version="1.0" encoding="UTF-8"?>
<svg id="Layer_2" data-name="Layer 2" xmlns="http://www.w3.org/2000/svg" width="188.14" height="123.73" viewBox="0 0 188.14 123.73">
  <g id="Layer_1-2" data-name="Layer 1">
    <g>
      <polygon points=".09 98.09 .09 116.27 8.07 123.61 180.4 123.61 188.06 116.59 188.06 98.09 176.25 79.82 176.57 43.61 188.06 23.73 188.06 6.5 181.04 .11 6.79 .11 .09 6.18 .09 24.69 11.38 43.61 11.38 79.82 .09 98.09" style="fill: #f2f2f2; stroke-width: 0px;"/>
      <polygon points=".09 98.09 .09 116.27 8.07 123.61 180.4 123.61 188.06 116.59 188.06 98.09 176.25 79.82 176.57 43.61 188.06 23.73 188.06 6.5 181.04 .11 6.79 .11 .09 6.18 .09 24.69 11.38 43.61 11.38 79.82 .09 98.09" style="fill: none; stroke: #211e1e; stroke-miterlimit: 10; stroke-width: .18px;"/>
      <polyline points="57.85 63.94 25.3 63.94 25.3 59.47 59.45 59.47" style="fill: none; stroke: #211e1e; stroke-miterlimit: 10; stroke-width: .22px;"/>
      <polyline points="131.3 64 164.76 64 164.76 60.19 129.66 60.19" style="fill: none; stroke: #211e1e; stroke-miterlimit: 10; stroke-width: .22px;"/>
      <rect x="30.07" y="69.03" width="21.39" height="21.39" style="fill: #a5a5a9; stroke-width: 0px;"/>
      <rect x="30.46" y="33.38" width="21.39" height="21.39" style="fill: #a5a5a9; stroke-width: 0px;"/>
      <rect x="135.93" y="69" width="21.39" height="21.39" style="fill: #a5a5a9; stroke-width: 0px;"/>
      <rect x="136.33" y="33.34" width="21.39" height="21.39" style="fill: #a5a5a9; stroke-width: 0px;"/>
      <path d="M41.16,71.03c4.86,0,8.79,3.93,8.79,8.79s-3.94,8.79-8.79,8.79-8.8-3.93-8.8-8.79,3.94-8.79,8.8-8.79" style="fill: #846c30; stroke-width: 0px;"/>
      <path d="M41.16,34.81c4.86,0,8.79,3.94,8.79,8.8s-3.94,8.79-8.79,8.79-8.8-3.94-8.8-8.79,3.94-8.8,8.8-8.8" style="fill: #846c30; stroke-width: 0px;"/>
      <path d="M146.83,71.03c4.86,0,8.79,3.93,8.79,8.79s-3.94,8.79-8.79,8.79-8.8-3.93-8.8-8.79,3.94-8.79,8.8-8.79" style="fill: #846c30; stroke-width: 0px;"/>
      <path d="M146.83,34.81c4.86,0,8.79,3.94,8.79,8.8s-3.94,8.79-8.79,8.79-8.8-3.94-8.8-8.79,3.94-8.8,8.8-8.8" style="fill: #846c30; stroke-width: 0px;"/>
      <polyline points="22.11 123.62 22.11 116.6 56.26 116.6" style="fill: none; stroke: #211e1e; stroke-miterlimit: 10; stroke-width: .22px;"/>
      <polyline points="22.11 .11 22.11 6.5 56.26 6.5" style="fill: none; stroke: #211e1e; stroke-miterlimit: 10; stroke-width: .22px;"/>
      <polyline points="131.25 6.49 164.76 6.49 164.76 .11" style="fill: none; stroke: #211e1e; stroke-miterlimit: 10; stroke-width: .22px;"/>
      <polyline points="131.25 116.6 164.76 116.6 164.76 123.61" style="fill: none; stroke: #211e1e; stroke-miterlimit: 10; stroke-width: .22px;"/>
      <rect x="56.26" y=".11" width="74.99" height="123.51" style="fill: #f2f2f2; stroke-width: 0px;"/>
      <rect x="56.26" y=".11" width="74.99" height="123.51" style="fill: none; stroke: #211e1e; stroke-miterlimit: 10; stroke-width: .22px;"/>
      <path d="M12.2,103.95c3.71,0,6.72,3.02,6.72,6.74s-3.01,6.74-6.72,6.74-6.72-3.02-6.72-6.74,3.01-6.74,6.72-6.74" style="fill: #fff; stroke-width: 0px;"/>
      <path d="M12.2,103.95c3.71,0,6.72,3.02,6.72,6.74s-3.01,6.74-6.72,6.74-6.72-3.02-6.72-6.74,3.01-6.74,6.72-6.74Z" style="fill: none; stroke: #211e1e; stroke-miterlimit: 10; stroke-width: .17px;"/>
      <path d="M12.2,5.18c3.71,0,6.72,3.02,6.72,6.74s-3.01,6.74-6.72,6.74-6.72-3.02-6.72-6.74,3.01-6.74,6.72-6.74" style="fill: #fff; stroke-width: 0px;"/>
      <path d="M12.2,5.18c3.71,0,6.72,3.02,6.72,6.74s-3.01,6.74-6.72,6.74-6.72-3.02-6.72-6.74,3.01-6.74,6.72-6.74Z" style="fill: none; stroke: #211e1e; stroke-miterlimit: 10; stroke-width: .17px;"/>
      <path d="M176.23,104.35c3.71,0,6.72,3.02,6.72,6.74s-3,6.74-6.72,6.74-6.72-3.02-6.72-6.74,3.01-6.74,6.72-6.74" style="fill: #fff; stroke-width: 0px;"/>
      <path d="M176.23,104.35c3.71,0,6.72,3.02,6.72,6.74s-3,6.74-6.72,6.74-6.72-3.02-6.72-6.74,3.01-6.74,6.72-6.74Z" style="fill: none; stroke: #211e1e; stroke-miterlimit: 10; stroke-width: .17px;"/>
      <path d="M176.23,5.58c3.71,0,6.72,3.02,6.72,6.74s-3,6.74-6.72,6.74-6.72-3.02-6.72-6.74,3.01-6.74,6.72-6.74" style="fill: #fff; stroke-width: 0px;"/>
      <path d="M176.23,5.58c3.71,0,6.72,3.02,6.72,6.74s-3,6.74-6.72,6.74-6.72-3.02-6.72-6.74,3.01-6.74,6.72-6.74Z" style="fill: none; stroke: #211e1e; stroke-miterlimit: 10; stroke-width: .17px;"/>
      <path d="M40.77,97.38c3.71,0,6.72,3.02,6.72,6.74s-3.01,6.74-6.72,6.74-6.72-3.02-6.72-6.74,3.01-6.74,6.72-6.74" style="fill: #fff; stroke-width: 0px;"/>
      <path d="M40.77,97.38c3.71,0,6.72,3.02,6.72,6.74s-3.01,6.74-6.72,6.74-6.72-3.02-6.72-6.74,3.01-6.74,6.72-6.74Z" style="fill: none; stroke: #211e1e; stroke-miterlimit: 10; stroke-width: .17px;"/>
      <g>
        <path d="M153.79,107.18h3.33v.44h-1.3l-2.03-.06v-.38ZM153.79,109.92l2.72-1.09-2.72-1.09v-.43l3.33,1.35v.34l-3.33,1.35v-.43ZM153.79,110.12l2.03-.06h1.3v.44h-3.33v-.38Z" style="fill: #211e1e; stroke-width: 0px;"/>
        <path d="M155.57,103.84c.33,0,.62.05.86.16s.42.26.55.46.19.44.19.71-.06.49-.19.7-.31.36-.55.48-.53.17-.86.17h-.21c-.33,0-.62-.06-.86-.17s-.42-.27-.55-.47c-.13-.2-.19-.43-.19-.7s.06-.51.19-.71c.13-.2.31-.36.55-.47.24-.11.53-.17.86-.17h.21ZM155.35,104.28c-.27,0-.49.04-.67.11-.18.07-.32.17-.42.31-.09.13-.14.3-.14.48s.05.34.14.47c.09.13.23.24.42.31.18.07.41.11.67.11h.22c.27,0,.49-.04.67-.11.18-.07.32-.18.42-.32.09-.14.14-.29.14-.48s-.05-.35-.14-.49c-.09-.13-.23-.23-.42-.31-.18-.07-.41-.1-.67-.1h-.22Z" style="fill: #211e1e; stroke-width: 0px;"/>
        <path d="M157.12,102.98h-.36v-.69c0-.24-.05-.43-.15-.59-.1-.16-.24-.28-.42-.36s-.39-.12-.64-.12h-.21c-.25,0-.47.04-.65.12-.18.08-.31.2-.41.35-.09.15-.14.34-.14.56v.75h-.36v-.75c0-.29.06-.55.19-.77s.31-.39.54-.52c.23-.12.51-.19.83-.19h.2c.32,0,.6.06.83.19.23.12.41.3.54.52.13.23.19.49.19.8v.69ZM157.12,102.74v.44h-3.33v-.44h3.33Z" style="fill: #211e1e; stroke-width: 0px;"/>
        <path d="M154.15,98.02v1.73h-.36v-1.73h.36ZM157.12,99.67v.44h-3.33v-.44h3.33ZM155.58,98.23v1.52h-.36v-1.52h.36ZM157.12,98v1.76h-.36v-1.76h.36Z" style="fill: #211e1e; stroke-width: 0px;"/>
      </g>
      <path d="M144.52,99.36c2.74,0,4.97,2.23,4.97,4.99s-2.22,4.99-4.97,4.99-4.97-2.24-4.97-4.99,2.22-4.99,4.97-4.99" style="fill: #fff; stroke-width: 0px;"/>
      <path d="M144.52,99.36c2.74,0,4.97,2.23,4.97,4.99s-2.22,4.99-4.97,4.99-4.97-2.24-4.97-4.99,2.22-4.99,4.97-4.99Z" style="fill: none; stroke: #211e1e; stroke-miterlimit: 10; stroke-width: .12px;"/>
      <g>
        <path d="M168.91,26.67h-.36v-.89c0-.17-.03-.31-.08-.42-.06-.11-.13-.18-.23-.23-.1-.05-.21-.07-.33-.07-.11,0-.22.02-.32.07-.1.05-.18.13-.24.23-.06.11-.09.24-.09.42v.79h2.97v.44h-3.33v-1.23c0-.25.04-.46.13-.64s.21-.31.36-.4.33-.13.53-.13c.21,0,.39.04.55.13.15.09.27.22.34.4.08.17.12.39.12.64v.89Z" style="fill: #211e1e; stroke-width: 0px;"/>
        <path d="M166.88,20.84v-.45l3.33.8v.32l-1.05-.16-2.28-.51ZM169.21,21.51l1-.23v.32l-2.43.68-.9.19v-.32l2.33-.64ZM166.88,22.52v-.32l.9.19,2.43.71v.32l-1-.24-2.33-.66ZM169.17,23.34l1.05-.16v.32l-3.33.8v-.44l2.28-.52Z" style="fill: #211e1e; stroke-width: 0px;"/>
        <path d="M166.88,16.59h3.33v.44h-1.3l-2.03-.06v-.38ZM166.88,19.33l2.72-1.09-2.72-1.09v-.43l3.33,1.35v.34l-3.33,1.35v-.43ZM166.88,19.53l2.03-.06h1.3v.44h-3.33v-.38Z" style="fill: #211e1e; stroke-width: 0px;"/>
      </g>
      <path d="M170.39,75.76v1.57h-2.61v-1.57c0-.33.06-.6.18-.82.12-.22.28-.38.48-.48.2-.1.42-.15.66-.15.4,0,.71.12.95.35.23.24.34.6.34,1.1ZM167.07,75.76v2.46h6.66v-.89h-2.61v-1.57c0-.5-.08-.93-.24-1.27-.16-.35-.38-.61-.69-.79-.3-.18-.67-.27-1.09-.27-.4,0-.75.09-1.06.27-.3.18-.54.45-.71.8-.17.35-.26.77-.26,1.26Z" style="fill: none; stroke: #211e1e; stroke-miterlimit: 10; stroke-width: .1px;"/>
      <path d="M170.17,68.06h.43c.8,0,1.41.16,1.83.47.42.31.63.75.63,1.32,0,.36-.1.69-.29.95-.19.28-.47.48-.84.63-.37.15-.82.23-1.34.23h-.43c-.52,0-.96-.07-1.33-.22-.37-.14-.65-.36-.84-.62-.19-.27-.28-.59-.28-.95,0-.38.09-.7.28-.97.19-.27.47-.47.83-.61s.81-.21,1.33-.21ZM170.61,67.18h-.42c-.66,0-1.23.11-1.71.33-.48.22-.85.53-1.11.94-.26.41-.39.87-.39,1.42s.13.99.39,1.39c.26.41.63.72,1.12.95.48.23,1.05.34,1.71.34h.42c.65,0,1.22-.12,1.7-.34.48-.23.86-.54,1.12-.95.26-.41.39-.87.39-1.39s-.13-1.01-.38-1.41c-.26-.4-.63-.71-1.11-.93-.48-.22-1.05-.33-1.71-.33Z" style="fill: none; stroke: #211e1e; stroke-miterlimit: 10; stroke-width: .1px;"/>
      <polygon points="167.07 59.42 171.62 60.44 172.51 60.59 171.71 60.77 167.07 62.05 167.07 62.14 167.07 62.8 171.71 64.11 172.5 64.29 171.63 64.42 167.07 65.47 167.07 66.36 173.72 64.75 173.72 64.58 173.72 63.94 168.86 62.52 168.36 62.42 168.86 62.31 173.72 60.95 173.72 60.78 173.72 60.14 167.07 58.53 167.07 59.42" style="fill: none; stroke: #211e1e; stroke-miterlimit: 10; stroke-width: .1px;"/>
      <polygon points="173.01 56.67 170.64 56.67 170.64 53.79 169.93 53.79 169.93 56.67 167.78 56.67 167.78 53.37 167.06 53.37 167.06 56.67 167.06 57.56 173.72 57.56 173.72 56.84 173.72 53.33 173.01 53.33 173.01 56.67" style="fill: none; stroke: #211e1e; stroke-miterlimit: 10; stroke-width: .1px;"/>
      <path d="M170.31,51.35h-2.53v-1.32c0-.49.11-.85.34-1.09.23-.24.54-.36.94-.36.24,0,.45.05.64.16.19.11.34.27.45.48.11.22.17.47.17.78v1.34ZM170.84,48.97c-.16-.4-.39-.71-.7-.94-.31-.22-.67-.33-1.08-.33-.65,0-1.14.2-1.48.6-.34.4-.51.98-.51,1.73v2.2h6.65v-.89h-2.69v-1.55l2.69-1.44v-.95h-.05l-2.82,1.56Z" style="fill: none; stroke: #211e1e; stroke-miterlimit: 10; stroke-width: .1px;"/>
      <polygon points="20.66 53.54 20.66 52.4 15.22 50.23 20.66 48.05 20.66 47.67 20.66 46.91 14 46.91 14 47.8 16.6 47.8 19.38 47.72 14 49.89 14 50.56 19.38 52.74 16.6 52.66 14 52.66 14 53.54 20.66 53.54" style="fill: none; stroke: #211e1e; stroke-miterlimit: 10; stroke-width: .1px;"/>
      <path d="M17.55,59.33h-.43c-.8,0-1.41-.16-1.83-.47-.42-.31-.63-.75-.63-1.32,0-.36.1-.69.29-.95.19-.28.47-.48.84-.63.37-.15.82-.23,1.34-.23h.43c.52,0,.96.07,1.33.22.37.14.65.36.84.62.19.27.28.59.28.95,0,.38-.09.7-.28.97-.19.27-.47.47-.83.61s-.81.21-1.33.21ZM17.12,60.21h.42c.66,0,1.23-.11,1.71-.33.48-.22.85-.53,1.11-.94.26-.41.39-.87.39-1.42s-.13-.99-.39-1.39c-.26-.41-.63-.72-1.12-.95-.48-.23-1.05-.34-1.71-.34h-.42c-.65,0-1.22.12-1.7.34-.48.23-.86.54-1.12.95-.26.41-.39.87-.39,1.39s.13,1.01.38,1.41c.26.4.63.71,1.11.93.48.22,1.05.33,1.71.33Z" style="fill: none; stroke: #211e1e; stroke-miterlimit: 10; stroke-width: .1px;"/>
      <polygon points="20.66 65.77 20.66 63.64 20.66 60.62 19.94 60.62 19.94 62.75 14 62.75 14 63.64 19.94 63.64 19.94 65.77 20.66 65.77" style="fill: none; stroke: #211e1e; stroke-miterlimit: 10; stroke-width: .1px;"/>
      <path d="M17.55,70.87h-.43c-.8,0-1.41-.16-1.83-.47-.42-.31-.63-.75-.63-1.32,0-.36.1-.69.29-.95.19-.28.47-.48.84-.63.37-.15.82-.23,1.34-.23h.43c.52,0,.96.07,1.33.22.37.14.65.36.84.62.19.27.28.59.28.95,0,.38-.09.7-.28.97-.19.27-.47.47-.83.61s-.81.21-1.33.21ZM17.12,71.75h.42c.66,0,1.23-.11,1.71-.33.48-.22.85-.53,1.11-.94.26-.41.39-.87.39-1.42s-.13-.99-.39-1.39c-.26-.41-.63-.72-1.12-.95-.48-.23-1.05-.34-1.71-.34h-.42c-.65,0-1.22.12-1.7.34-.48.23-.86.54-1.12.95-.26.41-.39.87-.39,1.39s.13,1.01.38,1.41c.26.4.63.71,1.11.93.48.22,1.05.33,1.71.33Z" style="fill: none; stroke: #211e1e; stroke-miterlimit: 10; stroke-width: .1px;"/>
      <path d="M17.41,73.96h2.53v1.32c0,.49-.11.85-.34,1.09-.23.24-.54.36-.94.36-.24,0-.45-.05-.64-.16-.19-.11-.34-.27-.45-.48-.11-.22-.17-.47-.17-.78v-1.34ZM16.88,76.34c.16.4.39.71.7.94.31.22.67.33,1.08.33.65,0,1.14-.2,1.48-.6.34-.4.51-.98.51-1.73v-2.2h-6.65v.89h2.69v1.55l-2.69,1.44v.95h.05l2.82-1.56Z" style="fill: none; stroke: #211e1e; stroke-miterlimit: 10; stroke-width: .1px;"/>
      <g>
        <path d="M24.44,97.93c.11,0,.19-.02.27-.07.07-.04.14-.12.2-.24s.12-.28.18-.49c.05-.16.1-.31.16-.44.06-.13.13-.25.21-.34.08-.09.17-.17.27-.22s.22-.08.35-.08c.17,0,.33.05.46.14.14.09.24.23.32.39.08.17.12.37.12.59,0,.25-.05.46-.14.64-.09.18-.22.31-.37.4-.15.09-.32.14-.49.14v-.45c.12,0,.24-.03.33-.08s.17-.13.23-.24c.06-.11.08-.25.08-.41,0-.16-.02-.28-.07-.39-.05-.1-.11-.18-.19-.23-.08-.05-.17-.07-.28-.07-.09,0-.18.03-.25.08s-.14.14-.2.25c-.06.11-.11.26-.17.44-.07.25-.15.46-.24.62-.09.16-.2.28-.33.36-.13.08-.28.12-.45.12s-.34-.05-.47-.14c-.13-.1-.24-.23-.31-.4-.07-.17-.11-.38-.11-.61,0-.15.02-.3.06-.45.04-.15.11-.28.19-.4.09-.12.19-.22.32-.29.13-.07.27-.11.44-.11v.44c-.11,0-.21.02-.29.07-.08.04-.15.1-.2.18-.05.08-.09.16-.12.26-.03.1-.04.2-.04.31,0,.15.02.28.07.39.04.11.1.19.18.24s.17.08.28.08Z" style="fill: #211e1e; stroke-width: 0px;"/>
        <path d="M23.6,100.17v-.44h3.33v.44h-3.33ZM26.56,101.24v-2.57h.36v2.57h-.36Z" style="fill: #211e1e; stroke-width: 0px;"/>
        <path d="M23.6,101.61v-.46l3.33,1.27v.29h-.29s-3.04-1.11-3.04-1.11ZM26.63,102.52h.29s0,.29,0,.29l-3.33,1.27v-.45l3.04-1.1ZM24.47,103.57v-1.87h.36v1.87h-.36Z" style="fill: #211e1e; stroke-width: 0px;"/>
        <path d="M23.6,105.49v-.44h3.33v.44h-3.33ZM26.56,106.56v-2.57h.36v2.57h-.36Z" style="fill: #211e1e; stroke-width: 0px;"/>
        <path d="M26.92,109.39h-2.25c-.25,0-.46-.06-.62-.17-.17-.11-.29-.26-.37-.44s-.12-.38-.12-.6c0-.23.04-.43.12-.61s.21-.33.37-.43c.17-.11.37-.16.62-.16h2.25v.44h-2.25c-.17,0-.32.03-.43.1-.11.06-.2.15-.25.27s-.08.25-.08.4.03.29.08.4.14.2.25.27c.11.06.26.1.43.1h2.25v.45Z" style="fill: #211e1e; stroke-width: 0px;"/>
        <path d="M24.44,111.86c.11,0,.19-.02.27-.07.07-.04.14-.12.2-.24s.12-.28.18-.49c.05-.16.1-.31.16-.44.06-.13.13-.25.21-.34.08-.09.17-.17.27-.22s.22-.08.35-.08c.17,0,.33.05.46.14.14.09.24.23.32.39.08.17.12.37.12.59,0,.25-.05.46-.14.64-.09.18-.22.31-.37.4-.15.09-.32.14-.49.14v-.45c.12,0,.24-.03.33-.08s.17-.13.23-.24c.06-.11.08-.25.08-.41,0-.16-.02-.28-.07-.39-.05-.1-.11-.18-.19-.23-.08-.05-.17-.07-.28-.07-.09,0-.18.03-.25.08s-.14.14-.2.25c-.06.11-.11.26-.17.44-.07.25-.15.46-.24.62-.09.16-.2.28-.33.36-.13.08-.28.12-.45.12s-.34-.05-.47-.14c-.13-.1-.24-.23-.31-.4-.07-.17-.11-.38-.11-.61,0-.15.02-.3.06-.45.04-.15.11-.28.19-.4.09-.12.19-.22.32-.29.13-.07.27-.11.44-.11v.44c-.11,0-.21.02-.29.07-.08.04-.15.1-.2.18-.05.08-.09.16-.12.26-.03.1-.04.2-.04.31,0,.15.02.28.07.39.04.11.1.19.18.24s.17.08.28.08Z" style="fill: #211e1e; stroke-width: 0px;"/>
      </g>
      <polyline points="131.25 28.99 164.76 28.99 164.76 16.07 131.25 16.07" style="fill: none; stroke: #211e1e; stroke-miterlimit: 10; stroke-width: .17px;"/>
      <rect x="159.65" y="20.54" width="3.19" height="3.19" style="fill: #211e1e; stroke-width: 0px;"/>
      <rect x="159.65" y="20.54" width="3.19" height="3.19" style="fill: none; stroke: #211e1e; stroke-miterlimit: 10; stroke-width: .17px;"/>
      <rect x="135.08" y="18.3" width="22.64" height="8.14" style="fill: #211e1e; stroke-width: 0px;"/>
      <polygon points="52.59 11.92 52.59 18.66 52.59 26.12 30.07 26.12 30.07 19.02 30.07 11.92 52.59 11.92" style="fill: none; stroke: #211e1e; stroke-miterlimit: 10; stroke-width: .22px;"/>
      <line x1="30.07" y1="19.02" x2="52.59" y2="18.66" style="fill: #fff; stroke-width: 0px;"/>
      <line x1="30.07" y1="19.02" x2="52.59" y2="18.66" style="fill: none; stroke: #211e1e; stroke-miterlimit: 10; stroke-width: .17px;"/>
      <line x1="44.61" y1="26.12" x2="44.61" y2="11.92" style="fill: none; stroke: #211e1e; stroke-miterlimit: 10; stroke-width: .17px;"/>
      <line x1="37.27" y1="26.12" x2="37.27" y2="11.92" style="fill: none; stroke: #211e1e; stroke-miterlimit: 10; stroke-width: .17px;"/>
      <g>
        <path d="M23.6,13.23v-.44h3.33v.44h-3.33ZM23.6,14.81v-1.66h.36v1.66h-.36Z" style="fill: #211e1e; stroke-width: 0px;"/>
        <path d="M23.6,15.79v-.44h3.33v.44h-3.33Z" style="fill: #211e1e; stroke-width: 0px;"/>
        <path d="M26.92,16.96l-2.03.06h-1.3v-.44h3.33v.38ZM26.92,17.16l-2.72,1.09,2.72,1.09v.43l-3.33-1.35v-.34l3.33-1.35v.43ZM26.92,19.9h-3.33v-.44h1.3l2.03.06v.38Z" style="fill: #211e1e; stroke-width: 0px;"/>
        <path d="M23.6,21.15v-.44h3.33v.44h-3.33Z" style="fill: #211e1e; stroke-width: 0px;"/>
        <path d="M23.6,23.18v-.44h3.33v.44h-3.33ZM26.56,24.25v-2.57h.36v2.57h-.36Z" style="fill: #211e1e; stroke-width: 0px;"/>
      </g>
      <rect x="62.96" y="7.94" width="61.91" height="108.66" style="fill: #211e1e; stroke-width: 0px;"/>
      <rect x="108.13" y="59.54" width="4.14" height="51.81" style="fill: #fff; stroke-width: 0px;"/>
      <rect x="74.66" y="11.37" width="4.49" height="99.98" style="fill: #fff; stroke-width: 0px;"/>
    </g>
  </g>
</svg>