<?xml version="1.0" encoding="UTF-8"?>
<svg id="Layer_2" data-name="Layer 2" xmlns="http://www.w3.org/2000/svg" width="261.85" height="113.72" viewBox="0 0 261.85 113.72">
  <g id="Layer_1-2" data-name="Layer 1">
    <g>
      <path d="M261.65,3.98v105.76c0,2.09-1.69,3.79-3.79,3.79H3.98c-2.09,0-3.79-1.69-3.79-3.79V3.98C.2,1.89,1.89.2,3.98.2h253.88c2.09,0,3.79,1.69,3.79,3.79" style="fill: #2b2929; stroke-width: 0px;"/>
      <path d="M3.98.2h253.88c2.09,0,3.79,1.7,3.79,3.79v105.76c0,2.09-1.7,3.79-3.79,3.79H3.98c-2.09,0-3.79-1.7-3.79-3.79V3.98C.2,1.89,1.89.2,3.98.2Z" style="fill: none; stroke: #211e1e; stroke-miterlimit: 10; stroke-width: .39px;"/>
      <rect x="70.49" y="83.04" width="22.74" height="16.5" style="fill: #434342; stroke-width: 0px;"/>
      <rect x="70.49" y="14.9" width="21.16" height="15.78" style="fill: #434342; stroke-width: 0px;"/>
      <rect x="103.85" y="86.63" width="16.85" height="12.91" style="fill: #434342; stroke-width: 0px;"/>
      <rect x="2.7" y="45.38" width="17.58" height="22.59" style="fill: none; stroke: #434342; stroke-miterlimit: 10; stroke-width: .56px;"/>
      <path d="M93.23,28.17v60.25c-8.77-7.65-17.55-7.65-26.32,0V28.17c8.77,4.78,17.55,4.78,26.32,0" style="fill: #2b2929; stroke-width: 0px;"/>
      <path d="M93.23,28.17v60.25c-8.77-7.65-17.55-7.65-26.32,0V28.17c8.77,4.78,17.55,4.78,26.32,0Z" style="fill: none; stroke: #434342; stroke-miterlimit: 10; stroke-width: .56px;"/>
      <rect x="75.51" y="38.93" width="10.04" height="39.45" style="fill: #211e1e; stroke-width: 0px;"/>
      <rect x="75.51" y="38.93" width="10.04" height="39.45" style="fill: none; stroke: #211e1e; stroke-miterlimit: 10; stroke-width: .37px;"/>
      <polygon points="20.28 47.14 20.28 65.75 36.39 75.05 52.51 65.75 52.51 47.14 36.39 37.83 20.28 47.14" style="fill: none; stroke: #434342; stroke-miterlimit: 10; stroke-width: .56px;"/>
      <path d="M36.06,48.55c4.36,0,7.89,3.53,7.89,7.89s-3.53,7.89-7.89,7.89-7.89-3.53-7.89-7.89,3.53-7.89,7.89-7.89" style="fill: #fff; stroke-width: 0px;"/>
      <circle cx="36.06" cy="56.44" r="7.89" style="fill: none; stroke: #211e1e; stroke-miterlimit: 10; stroke-width: .37px;"/>
      <polygon points="207.2 47.14 207.2 65.75 223.31 75.05 239.43 65.75 239.43 47.14 223.31 37.83 207.2 47.14" style="fill: none; stroke: #434342; stroke-miterlimit: 10; stroke-width: .56px;"/>
      <polyline points="20.28 65.75 14.54 65.75 14.54 47.18 20.28 47.14" style="fill: none; stroke: #434342; stroke-miterlimit: 10; stroke-width: .56px;"/>
      <path d="M222.98,48.55c4.36,0,7.89,3.53,7.89,7.89s-3.53,7.89-7.89,7.89-7.89-3.53-7.89-7.89,3.53-7.89,7.89-7.89" style="fill: #fff; stroke-width: 0px;"/>
      <circle cx="222.98" cy="56.44" r="7.89" style="fill: none; stroke: #211e1e; stroke-miterlimit: 10; stroke-width: .37px;"/>
      <rect x="43.95" y="75.05" width="22.95" height="11.57" style="fill: none; stroke: #434342; stroke-miterlimit: 10; stroke-width: .56px;"/>
      <rect x="52.51" y="51.48" width="14.39" height="10.4" style="fill: none; stroke: #434342; stroke-miterlimit: 10; stroke-width: .56px;"/>
      <polyline points="66.91 37.84 43.95 37.84 43.95 28.17 66.91 28.17" style="fill: none; stroke: #434342; stroke-miterlimit: 10; stroke-width: .56px;"/>
      <rect x="93.23" y="75.05" width="121.86" height="11.57" style="fill: none; stroke: #434342; stroke-miterlimit: 10; stroke-width: .56px;"/>
      <rect x="93.23" y="51.48" width="113.97" height="10.4" style="fill: none; stroke: #434342; stroke-miterlimit: 10; stroke-width: .56px;"/>
      <rect x="93.23" y="28.17" width="121.86" height="9.66" style="fill: none; stroke: #434342; stroke-miterlimit: 10; stroke-width: .56px;"/>
      <rect x="239.43" y="45.14" width="17.57" height="22.59" style="fill: none; stroke: #434342; stroke-miterlimit: 10; stroke-width: .56px;"/>
      <polyline points="239.43 47.38 245.17 47.38 245.17 65.95 239.43 65.99" style="fill: none; stroke: #434342; stroke-miterlimit: 10; stroke-width: .56px;"/>
      <rect x="124.65" y="99.54" width="10.05" height="10.04" style="fill: #079247; stroke-width: 0px;"/>
      <rect x="124.65" y="4.86" width="10.05" height="10.04" style="fill: #079247; stroke-width: 0px;"/>
      <line x1="25.66" y1="113.53" x2="25.66" y2="68.86" style="fill: none; stroke: #434342; stroke-miterlimit: 10; stroke-width: .56px;"/>
      <line x1="25.66" y1="44.03" x2="25.66" y2=".19" style="fill: none; stroke: #434342; stroke-miterlimit: 10; stroke-width: .56px;"/>
      <line x1="234.39" y1=".19" x2="234.39" y2="44.03" style="fill: none; stroke: #434342; stroke-miterlimit: 10; stroke-width: .56px;"/>
      <path d="M234.39,68.86c-.36,2.71,0,44.67,0,44.67" style="fill: none; stroke: #434342; stroke-miterlimit: 10; stroke-width: .56px;"/>
      <line x1="25.66" y1="99.54" x2="234.23" y2="99.54" style="fill: none; stroke: #434342; stroke-miterlimit: 10; stroke-width: .56px;"/>
      <polyline points="25.66 14.9 215.09 14.9 234.23 14.9" style="fill: none; stroke: #434342; stroke-miterlimit: 10; stroke-width: .56px;"/>
      <line x1="215.09" y1=".19" x2="215.09" y2="14.9" style="fill: none; stroke: #434342; stroke-miterlimit: 10; stroke-width: .56px;"/>
      <line x1="215.09" y1="99.54" x2="215.09" y2="113.53" style="fill: none; stroke: #434342; stroke-miterlimit: 10; stroke-width: .56px;"/>
      <line x1="43.95" y1="113.53" x2="43.95" y2="99.54" style="fill: none; stroke: #434342; stroke-miterlimit: 10; stroke-width: .56px;"/>
      <line x1="43.95" y1="14.9" x2="43.95" y2=".19" style="fill: none; stroke: #434342; stroke-miterlimit: 10; stroke-width: .56px;"/>
    </g>
  </g>
</svg>