<?xml version="1.0" encoding="UTF-8"?>
<svg id="Layer_2" data-name="Layer 2" xmlns="http://www.w3.org/2000/svg" width="239.09" height="110.94" viewBox="0 0 239.09 110.94">
  <g id="Layer_1-2" data-name="Layer 1">
    <g>
      <polyline points="223.14 104.31 223.14 110.42 239.09 110.94 239.04 69.17 235.89 65.82 235.89 48.19 239.04 43.8 239.09 1.31 223.14 1.31 223.14 8.78" style="fill: #271e21; stroke-width: 0px;"/>
      <polyline points="15.56 103 15.56 109.11 0 109.63 .05 67.86 3.11 64.51 3.11 46.88 .05 42.49 0 0 15.56 0 15.56 7.47" style="fill: #271e21; stroke-width: 0px;"/>
      <rect x="7.26" y="8.5" width="222.99" height="93.35" style="fill: #616262; stroke-width: 0px;"/>
      <path d="M33.19,56.24c0,4.01-3.25,7.27-7.27,7.27s-7.27-3.26-7.27-7.27,3.26-7.27,7.27-7.27,7.27,3.26,7.27,7.27" style="fill: #fff; stroke-width: 0px;"/>
      <path d="M33.19,56.24c0,4.01-3.25,7.27-7.27,7.27s-7.27-3.26-7.27-7.27,3.26-7.27,7.27-7.27,7.27,3.26,7.27,7.27Z" style="fill: none; stroke: #211e1e; stroke-miterlimit: 10; stroke-width: .25px;"/>
      <path d="M219.2,54.66c0,4.01-3.25,7.27-7.27,7.27s-7.27-3.26-7.27-7.27,3.26-7.27,7.27-7.27,7.27,3.26,7.27,7.27" style="fill: #fff; stroke-width: 0px;"/>
      <path d="M219.2,54.66c0,4.01-3.25,7.27-7.27,7.27s-7.27-3.26-7.27-7.27,3.26-7.27,7.27-7.27,7.27,3.26,7.27,7.27Z" style="fill: none; stroke: #211e1e; stroke-miterlimit: 10; stroke-width: .25px;"/>
      <path d="M157.65,19.91c0,2.87-2.32,5.19-5.19,5.19s-5.19-2.32-5.19-5.19,2.32-5.19,5.19-5.19,5.19,2.32,5.19,5.19" style="fill: #271e21; stroke-width: 0px;"/>
      <rect x="98.42" y="8.51" width="7.89" height="27.03" style="fill: #271e21; stroke-width: 0px;"/>
      <rect x="115.28" y="8.98" width="7.89" height="27.03" style="fill: #271e21; stroke-width: 0px;"/>
      <rect x="132.52" y="8.47" width="7.89" height="27.03" style="fill: #271e21; stroke-width: 0px;"/>
      <rect x="98.28" y="76.99" width="7.89" height="24.2" style="fill: #271e21; stroke-width: 0px;"/>
      <rect x="115.14" y="77.41" width="7.89" height="24.2" style="fill: #271e21; stroke-width: 0px;"/>
      <rect x="132.38" y="76.96" width="7.89" height="24.2" style="fill: #271e21; stroke-width: 0px;"/>
      <rect x="140.2" y="69.76" width="27.03" height="7.89" style="fill: #271e21; stroke-width: 0px;"/>
      <rect x="140.68" y="52.9" width="27.03" height="7.89" style="fill: #271e21; stroke-width: 0px;"/>
      <rect x="140.17" y="35.66" width="27.03" height="7.89" style="fill: #271e21; stroke-width: 0px;"/>
      <rect x="70.79" y="69.23" width="27.03" height="7.89" style="fill: #271e21; stroke-width: 0px;"/>
      <rect x="71.27" y="52.37" width="27.03" height="7.89" style="fill: #271e21; stroke-width: 0px;"/>
      <rect x="70.76" y="35.13" width="27.03" height="7.89" style="fill: #271e21; stroke-width: 0px;"/>
      <rect x="35.27" width="168.11" height="8.98" style="fill: #271e21; stroke-width: 0px;"/>
      <rect x="112.01" y=".21" width="14" height="8.39" style="fill: #079247; stroke-width: 0px;"/>
      <rect x="35.27" y="101.16" width="168.11" height="8.43" style="fill: #271e21; stroke-width: 0px;"/>
      <rect x="112.02" y="101.74" width="14.52" height="7.26" style="fill: #079247; stroke-width: 0px;"/>
    </g>
  </g>
</svg>