<?xml version="1.0" encoding="UTF-8"?>
<svg id="Layer_2" data-name="Layer 2" xmlns="http://www.w3.org/2000/svg" width="179.3" height="193.72" viewBox="0 0 179.3 193.72">
  <g id="Layer_1-2" data-name="Layer 1">
    <g>
      <path d="M0,184.39V9.32C0,4.18,4.18,0,9.33,0h160.65c5.15,0,9.32,4.18,9.32,9.32v175.07c0,5.15-4.18,9.33-9.32,9.33H9.33C4.18,193.72,0,189.54,0,184.39" style="fill: #323130; stroke-width: 0px;"/>
      <g>
        <path d="M14.34,86.53v-10.45c0-.9.72-1.62,1.62-1.62h39.19c.89,0,1.62.72,1.62,1.62v10.45c0,.89-.72,1.62-1.62,1.62H15.96c-.89,0-1.62-.72-1.62-1.62" style="fill: #819355; stroke-width: 0px;"/>
        <path d="M25.21,84.89c-6,0-10.87-5.51-10.87-12.31s4.87-12.32,10.87-12.32c6,0,10.88,5.51,10.88,12.32,0,6.8-4.87,12.31-10.88,12.31" style="fill: #819355; stroke-width: 0px;"/>
        <polygon points="88.7 134.37 138.46 134.37 141.85 140.52 141.85 190.95 88.7 190.95 88.7 134.37" style="fill: #fff; stroke-width: 0px;"/>
        <polygon points="88.7 134.37 38.94 134.37 35.55 140.52 35.55 190.95 88.7 190.95 88.7 134.37" style="fill: #819355; stroke-width: 0px;"/>
        <path d="M105.76,115.88v-37.93c0-1.03.83-1.86,1.86-1.86h65.04c1.03,0,1.87.84,1.87,1.86v37.93c0,1.03-.83,1.87-1.87,1.87h-65.04c-1.03,0-1.86-.84-1.86-1.87" style="fill: #819355; stroke-width: 0px;"/>
        <rect x="119.74" y="76.09" width="55.3" height="20.86" style="fill: #bc2031; stroke-width: 0px;"/>
        <rect x="119.74" y="96.88" width="55.3" height="20.87" style="fill: #211e1e; stroke-width: 0px;"/>
        <polygon points="88.7 59.55 138.46 59.55 141.85 53.41 141.85 2.96 88.7 2.96 88.7 59.55" style="fill: #fff; stroke-width: 0px;"/>
        <polygon points="88.7 59.55 38.94 59.55 35.55 53.41 35.55 2.96 88.7 2.96 88.7 59.55" style="fill: #819355; stroke-width: 0px;"/>
        <rect x="126.86" y="10.49" width="12.28" height="21.53" style="fill: #5b5a5d; stroke-width: 0px;"/>
        <rect x="129.55" y="15.33" width="7.29" height="13.82" style="fill: #f2f2f2; stroke-width: 0px;"/>
        <path d="M133,21.76c-2.67,0-4.84-2.17-4.84-4.84s2.17-4.85,4.84-4.85c2.67,0,4.85,2.17,4.85,4.85s-2.17,4.84-4.85,4.84" style="fill: #211e1e; stroke-width: 0px;"/>
        <rect x="114.69" y="10.49" width="12.28" height="21.53" style="fill: #5b5a5d; stroke-width: 0px;"/>
        <rect x="117.37" y="15.33" width="7.29" height="13.82" style="fill: #f2f2f2; stroke-width: 0px;"/>
        <path d="M120.83,21.76c-2.67,0-4.84-2.17-4.84-4.84,0-2.68,2.17-4.85,4.84-4.85s4.85,2.17,4.85,4.85-2.17,4.84-4.85,4.84" style="fill: #211e1e; stroke-width: 0px;"/>
        <rect x="102.41" y="10.49" width="12.28" height="21.53" style="fill: #5b5a5d; stroke-width: 0px;"/>
        <rect x="105.09" y="15.33" width="7.29" height="13.82" style="fill: #f2f2f2; stroke-width: 0px;"/>
        <path d="M108.55,21.76c-2.68,0-4.85-2.17-4.85-4.84s2.17-4.85,4.85-4.85c2.67,0,4.84,2.17,4.84,4.85,0,2.67-2.17,4.84-4.84,4.84" style="fill: #211e1e; stroke-width: 0px;"/>
        <rect x="90.12" y="10.49" width="12.28" height="21.53" style="fill: #5b5a5d; stroke-width: 0px;"/>
        <rect x="92.81" y="15.33" width="7.29" height="13.82" style="fill: #f2f2f2; stroke-width: 0px;"/>
        <path d="M96.27,21.76c-2.67,0-4.85-2.17-4.85-4.84s2.17-4.85,4.85-4.85c2.67,0,4.85,2.17,4.85,4.85s-2.17,4.84-4.85,4.84" style="fill: #211e1e; stroke-width: 0px;"/>
        <rect x="78.56" y="10.49" width="12.28" height="21.53" style="fill: #5b5a5d; stroke-width: 0px;"/>
        <rect x="81.24" y="15.33" width="7.29" height="13.82" style="fill: #f2f2f2; stroke-width: 0px;"/>
        <path d="M84.7,21.76c-2.68,0-4.85-2.17-4.85-4.84s2.17-4.85,4.85-4.85c2.67,0,4.84,2.17,4.84,4.85s-2.17,4.84-4.84,4.84" style="fill: #211e1e; stroke-width: 0px;"/>
        <rect x="66.38" y="10.49" width="12.28" height="21.53" style="fill: #5b5a5d; stroke-width: 0px;"/>
        <rect x="69.06" y="15.33" width="7.29" height="13.82" style="fill: #f2f2f2; stroke-width: 0px;"/>
        <path d="M72.52,21.76c-2.68,0-4.85-2.17-4.85-4.84,0-2.68,2.17-4.85,4.85-4.85s4.84,2.17,4.84,4.85c0,2.67-2.17,4.84-4.84,4.84" style="fill: #211e1e; stroke-width: 0px;"/>
        <rect x="54.1" y="10.49" width="12.28" height="21.53" style="fill: #5b5a5d; stroke-width: 0px;"/>
        <rect x="56.79" y="15.33" width="7.29" height="13.82" style="fill: #f2f2f2; stroke-width: 0px;"/>
        <path d="M60.24,21.76c-2.67,0-4.85-2.17-4.85-4.84s2.17-4.85,4.85-4.85c2.67,0,4.85,2.17,4.85,4.85s-2.17,4.84-4.85,4.84" style="fill: #211e1e; stroke-width: 0px;"/>
        <rect x="41.81" y="10.49" width="12.28" height="21.53" style="fill: #5b5a5d; stroke-width: 0px;"/>
        <rect x="44.5" y="15.33" width="7.29" height="13.82" style="fill: #f2f2f2; stroke-width: 0px;"/>
        <path d="M47.96,21.76c-2.67,0-4.84-2.17-4.84-4.84s2.17-4.85,4.84-4.85c2.67,0,4.85,2.17,4.85,4.85,0,2.67-2.17,4.84-4.85,4.84" style="fill: #211e1e; stroke-width: 0px;"/>
        <rect x="146.33" y="95.81" width="21.53" height="12.28" style="fill: #5b5a5d; stroke-width: 0px;"/>
        <rect x="149.2" y="98.5" width="13.82" height="7.29" style="fill: #f2f2f2; stroke-width: 0px;"/>
        <path d="M156.59,101.95c0-2.67,2.17-4.84,4.85-4.84s4.85,2.17,4.85,4.84c0,2.67-2.17,4.85-4.85,4.85s-4.85-2.17-4.85-4.85" style="fill: #211e1e; stroke-width: 0px;"/>
        <rect x="146.33" y="83.63" width="21.53" height="12.28" style="fill: #5b5a5d; stroke-width: 0px;"/>
        <rect x="149.2" y="86.32" width="13.82" height="7.29" style="fill: #f2f2f2; stroke-width: 0px;"/>
        <path d="M156.59,89.77c0-2.67,2.17-4.84,4.85-4.84,2.68,0,4.85,2.17,4.85,4.84s-2.17,4.85-4.85,4.85-4.85-2.17-4.85-4.85" style="fill: #211e1e; stroke-width: 0px;"/>
        <path d="M25.09,81.12c-4.99,0-9.04-4.05-9.04-9.04,0-4.99,4.05-9.04,9.04-9.04,4.99,0,9.04,4.04,9.04,9.04,0,4.99-4.05,9.04-9.04,9.04" style="fill: #079247; stroke-width: 0px;"/>
        <rect x="126.98" y="32.02" width="12.05" height="15.79" style="fill: #bc2031; stroke-width: 0px;"/>
        <rect x="114.7" y="32.02" width="12.28" height="15.79" style="fill: #211e1e; stroke-width: 0px;"/>
        <rect x="102.64" y="32.02" width="12.05" height="15.79" style="fill: #bc2031; stroke-width: 0px;"/>
        <rect x="90.36" y="32.02" width="12.28" height="15.79" style="fill: #211e1e; stroke-width: 0px;"/>
        <rect x="78.31" y="32.02" width="12.05" height="15.79" style="fill: #bc2031; stroke-width: 0px;"/>
        <rect x="66.02" y="32.02" width="12.28" height="15.79" style="fill: #211e1e; stroke-width: 0px;"/>
        <rect x="53.97" y="32.02" width="12.05" height="15.79" style="fill: #bc2031; stroke-width: 0px;"/>
        <rect x="41.69" y="32.02" width="12.28" height="15.79" style="fill: #211e1e; stroke-width: 0px;"/>
        <rect x="126.74" y="2.96" width="12.06" height="7.53" style="fill: #bc2031; stroke-width: 0px;"/>
        <rect x="114.46" y="2.96" width="12.28" height="7.53" style="fill: #211e1e; stroke-width: 0px;"/>
        <rect x="102.41" y="2.96" width="12.06" height="7.53" style="fill: #bc2031; stroke-width: 0px;"/>
        <rect x="90.12" y="2.96" width="12.28" height="7.53" style="fill: #211e1e; stroke-width: 0px;"/>
        <rect x="78.07" y="2.96" width="12.06" height="7.53" style="fill: #bc2031; stroke-width: 0px;"/>
        <rect x="65.79" y="2.96" width="12.28" height="7.53" style="fill: #211e1e; stroke-width: 0px;"/>
        <rect x="53.73" y="2.96" width="12.06" height="7.53" style="fill: #bc2031; stroke-width: 0px;"/>
        <rect x="41.46" y="2.96" width="12.28" height="7.53" style="fill: #211e1e; stroke-width: 0px;"/>
        <rect x="40.35" y="161.89" width="12.28" height="21.53" style="fill: #5b5a5d; stroke-width: 0px;"/>
        <rect x="42.66" y="164.77" width="7.29" height="13.82" style="fill: #f2f2f2; stroke-width: 0px;"/>
        <path d="M46.5,172.15c2.68,0,4.85,2.17,4.85,4.85,0,2.68-2.17,4.85-4.85,4.85-2.67,0-4.84-2.17-4.84-4.85,0-2.67,2.17-4.85,4.84-4.85" style="fill: #211e1e; stroke-width: 0px;"/>
        <rect x="52.53" y="161.89" width="12.28" height="21.53" style="fill: #5b5a5d; stroke-width: 0px;"/>
        <rect x="54.83" y="164.77" width="7.29" height="13.82" style="fill: #f2f2f2; stroke-width: 0px;"/>
        <path d="M58.67,172.15c2.68,0,4.85,2.17,4.85,4.85,0,2.68-2.17,4.85-4.85,4.85-2.67,0-4.84-2.17-4.84-4.85s2.17-4.85,4.84-4.85" style="fill: #211e1e; stroke-width: 0px;"/>
        <rect x="64.81" y="161.89" width="12.28" height="21.53" style="fill: #5b5a5d; stroke-width: 0px;"/>
        <rect x="67.11" y="164.77" width="7.29" height="13.82" style="fill: #f2f2f2; stroke-width: 0px;"/>
        <path d="M70.95,172.15c2.67,0,4.85,2.17,4.85,4.85,0,2.68-2.17,4.85-4.85,4.85s-4.84-2.17-4.84-4.85c0-2.67,2.17-4.85,4.84-4.85" style="fill: #211e1e; stroke-width: 0px;"/>
        <rect x="77.09" y="161.89" width="12.28" height="21.53" style="fill: #5b5a5d; stroke-width: 0px;"/>
        <rect x="79.4" y="164.77" width="7.29" height="13.82" style="fill: #f2f2f2; stroke-width: 0px;"/>
        <path d="M83.24,172.15c2.67,0,4.84,2.17,4.84,4.85s-2.17,4.85-4.84,4.85c-2.67,0-4.85-2.17-4.85-4.85s2.17-4.85,4.85-4.85" style="fill: #211e1e; stroke-width: 0px;"/>
        <rect x="88.66" y="161.89" width="12.28" height="21.53" style="fill: #5b5a5d; stroke-width: 0px;"/>
        <rect x="90.97" y="164.77" width="7.29" height="13.82" style="fill: #f2f2f2; stroke-width: 0px;"/>
        <path d="M94.81,172.15c2.67,0,4.85,2.17,4.85,4.85,0,2.68-2.17,4.85-4.85,4.85s-4.84-2.17-4.84-4.85c0-2.67,2.17-4.85,4.84-4.85" style="fill: #211e1e; stroke-width: 0px;"/>
        <rect x="100.84" y="161.89" width="12.28" height="21.53" style="fill: #5b5a5d; stroke-width: 0px;"/>
        <rect x="103.14" y="164.77" width="7.29" height="13.82" style="fill: #f2f2f2; stroke-width: 0px;"/>
        <path d="M106.98,172.15c2.67,0,4.85,2.17,4.85,4.85,0,2.68-2.17,4.85-4.85,4.85-2.67,0-4.84-2.17-4.84-4.85s2.17-4.85,4.84-4.85" style="fill: #211e1e; stroke-width: 0px;"/>
        <rect x="113.12" y="161.89" width="12.28" height="21.53" style="fill: #5b5a5d; stroke-width: 0px;"/>
        <rect x="115.42" y="164.77" width="7.29" height="13.82" style="fill: #f2f2f2; stroke-width: 0px;"/>
        <path d="M119.26,172.15c2.67,0,4.84,2.17,4.84,4.85s-2.17,4.85-4.84,4.85c-2.67,0-4.85-2.17-4.85-4.85,0-2.67,2.17-4.85,4.85-4.85" style="fill: #211e1e; stroke-width: 0px;"/>
        <rect x="125.4" y="161.89" width="12.28" height="21.53" style="fill: #5b5a5d; stroke-width: 0px;"/>
        <rect x="127.7" y="164.77" width="7.29" height="13.82" style="fill: #f2f2f2; stroke-width: 0px;"/>
        <path d="M131.54,172.15c2.68,0,4.85,2.17,4.85,4.85s-2.17,4.85-4.85,4.85-4.84-2.17-4.84-4.85,2.17-4.85,4.84-4.85" style="fill: #211e1e; stroke-width: 0px;"/>
        <rect x="40.47" y="146.1" width="12.05" height="15.79" style="fill: #bc2031; stroke-width: 0px;"/>
        <rect x="52.52" y="146.1" width="12.28" height="15.79" style="fill: #211e1e; stroke-width: 0px;"/>
        <rect x="64.81" y="146.1" width="12.05" height="15.79" style="fill: #bc2031; stroke-width: 0px;"/>
        <rect x="76.86" y="146.1" width="12.28" height="15.79" style="fill: #211e1e; stroke-width: 0px;"/>
        <rect x="89.14" y="146.1" width="12.05" height="15.79" style="fill: #bc2031; stroke-width: 0px;"/>
        <rect x="101.2" y="146.1" width="12.28" height="15.79" style="fill: #211e1e; stroke-width: 0px;"/>
        <rect x="113.48" y="146.1" width="12.05" height="15.79" style="fill: #bc2031; stroke-width: 0px;"/>
        <rect x="125.53" y="146.1" width="12.28" height="15.79" style="fill: #211e1e; stroke-width: 0px;"/>
        <rect x="40.7" y="183.42" width="12.05" height="7.53" style="fill: #bc2031; stroke-width: 0px;"/>
        <rect x="52.76" y="183.42" width="12.28" height="7.53" style="fill: #211e1e; stroke-width: 0px;"/>
        <rect x="65.04" y="183.42" width="12.05" height="7.53" style="fill: #bc2031; stroke-width: 0px;"/>
        <rect x="77.09" y="183.42" width="12.28" height="7.53" style="fill: #211e1e; stroke-width: 0px;"/>
        <rect x="89.37" y="183.42" width="12.05" height="7.53" style="fill: #bc2031; stroke-width: 0px;"/>
        <rect x="101.43" y="183.42" width="12.28" height="7.53" style="fill: #211e1e; stroke-width: 0px;"/>
        <rect x="113.71" y="183.42" width="12.05" height="7.53" style="fill: #bc2031; stroke-width: 0px;"/>
        <rect x="125.76" y="183.42" width="12.28" height="7.53" style="fill: #211e1e; stroke-width: 0px;"/>
        <path d="M128.13,86.74v-.85h4.83v.85h-4.83ZM130.23,88.58v-4.54h.79v4.54h-.79Z" style="fill: #fff; stroke-width: 0px;"/>
        <path d="M129.94,107.86v-2.23h.69v2.23h-.69Z" style="fill: #fff; stroke-width: 0px;"/>
        <g>
          <path d="M116.87,105.46v.85h-5.62l.62,1.69h-.76l-.91-2.41v-.13h6.67Z" style="fill: #211e1e; stroke-width: 0px;"/>
          <path d="M116.87,98.64v4.35h-.6l-2.42-2.17c-.3-.27-.55-.48-.76-.63-.21-.15-.4-.25-.56-.31s-.34-.09-.51-.09c-.33,0-.61.1-.84.3-.23.2-.35.48-.35.85,0,.3.06.54.17.74.12.2.28.34.48.44.2.09.44.14.71.14v.85c-.37,0-.71-.08-1.02-.25-.31-.16-.56-.41-.74-.73s-.28-.72-.28-1.2c0-.62.16-1.11.49-1.47.32-.35.75-.53,1.28-.53.26,0,.52.06.79.17.26.11.53.26.79.45.26.19.51.4.76.62l1.94,1.78v-3.32h.68Z" style="fill: #211e1e; stroke-width: 0px;"/>
          <path d="M110.24,93.43v-.96l6.63,2.45v.68l-1-.23-5.63-1.95ZM115.87,95.26l1-.24v.68l-6.63,2.45v-.96l5.63-1.93Z" style="fill: #211e1e; stroke-width: 0px;"/>
          <path d="M110.63,91.7c-.13,0-.25-.04-.34-.12-.09-.08-.14-.21-.14-.37s.05-.29.14-.38c.09-.09.21-.13.34-.13s.24.04.33.13.14.21.14.38-.05.29-.14.37c-.09.08-.2.12-.33.12ZM116.87,90.78v.85h-4.93v-.85h4.93Z" style="fill: #211e1e; stroke-width: 0px;"/>
          <path d="M114.21,89.13c-.45,0-.85-.09-1.21-.26s-.63-.4-.84-.7c-.2-.3-.31-.65-.31-1.05,0-.32.06-.6.18-.84s.31-.42.57-.55.61-.19,1.04-.19h3.23v.85h-3.24c-.26,0-.47.04-.62.11s-.27.18-.34.33-.11.32-.11.54.04.4.13.57c.09.17.21.32.36.44.15.12.33.22.53.29.2.07.41.1.63.1v.36ZM116.87,88.58v.85h-4.93v-.81l1.05-.05h3.88Z" style="fill: #211e1e; stroke-width: 0px;"/>
        </g>
        <g>
          <path d="M82.89,51.2h.76v5l1.51-.55v.68l-2.14.81h-.12v-5.93Z" style="fill: #211e1e; stroke-width: 0px;"/>
          <path d="M76.82,51.2h3.87v.53l-1.93,2.15c-.24.26-.42.49-.56.67s-.22.35-.27.5c-.05.15-.08.3-.08.45,0,.29.09.54.27.75.18.21.43.31.75.31.26,0,.48-.05.66-.15s.3-.24.39-.42.13-.39.13-.63h.76c0,.33-.07.63-.22.91s-.36.5-.65.66c-.29.16-.64.25-1.06.25-.56,0-.99-.14-1.31-.43s-.47-.67-.47-1.14c0-.23.05-.46.15-.7.1-.23.23-.47.4-.7.17-.23.35-.46.55-.67l1.58-1.72h-2.96v-.61Z" style="fill: #211e1e; stroke-width: 0px;"/>
          <path d="M72.19,57.09h-.85l2.18-5.89h.61l-.2.89-1.73,5ZM73.83,52.09l-.21-.89h.61l2.18,5.89h-.85l-1.72-5Z" style="fill: #211e1e; stroke-width: 0px;"/>
          <path d="M70.4,54.15l-.3,2.93h-3.02v-.68h2.38l.17-1.62c-.11.06-.24.12-.41.17-.17.05-.36.08-.57.08-.36,0-.67-.08-.94-.24s-.46-.39-.6-.68c-.14-.29-.21-.64-.21-1.04,0-.38.07-.71.2-1.01.14-.29.34-.53.62-.7.27-.17.62-.25,1.04-.25.24,0,.46.03.67.1.21.07.4.17.57.3.17.14.3.31.41.51.11.2.17.44.19.72h-.72c-.05-.33-.17-.59-.36-.76s-.45-.26-.76-.26c-.24,0-.44.05-.6.16s-.29.26-.38.46c-.09.2-.13.44-.13.71,0,.25.05.47.14.67.09.2.22.35.4.47.17.12.39.17.64.17s.44-.03.57-.1c.13-.07.26-.16.39-.28l.61.15Z" style="fill: #211e1e; stroke-width: 0px;"/>
          <path d="M62.37,53.71c0-.64.08-1.15.22-1.53.15-.38.36-.65.64-.82.28-.17.61-.25.99-.25s.7.08.98.25c.28.17.5.44.65.82s.23.89.23,1.53v.9c0,.64-.08,1.15-.23,1.52-.15.37-.37.64-.65.8s-.61.24-.99.24-.71-.08-.99-.24c-.28-.16-.49-.42-.65-.8-.15-.37-.23-.88-.23-1.52v-.9ZM63.13,54.74c0,.44.04.8.13,1.06.08.27.21.46.37.58.17.12.37.18.61.18s.44-.06.6-.18c.17-.12.29-.31.38-.58.08-.27.13-.62.13-1.06v-1.15c0-.44-.04-.8-.13-1.07-.09-.28-.21-.48-.38-.6-.17-.13-.37-.19-.6-.19s-.45.06-.61.19c-.16.13-.28.33-.37.6-.08.28-.12.63-.12,1.07v1.15Z" style="fill: #211e1e; stroke-width: 0px;"/>
          <path d="M57.71,53.71c0-.64.08-1.15.22-1.53.15-.38.36-.65.64-.82.28-.17.61-.25.99-.25s.7.08.98.25c.28.17.5.44.65.82s.23.89.23,1.53v.9c0,.64-.08,1.15-.23,1.52-.15.37-.37.64-.65.8s-.61.24-.99.24-.71-.08-.99-.24c-.28-.16-.49-.42-.65-.8-.15-.37-.23-.88-.23-1.52v-.9ZM58.46,54.74c0,.44.04.8.13,1.06.08.27.21.46.37.58.17.12.37.18.61.18s.44-.06.6-.18c.17-.12.29-.31.38-.58.08-.27.13-.62.13-1.06v-1.15c0-.44-.04-.8-.13-1.07-.09-.28-.21-.48-.38-.6-.17-.13-.37-.19-.6-.19s-.45.06-.61.19c-.16.13-.28.33-.37.6-.08.28-.12.63-.12,1.07v1.15Z" style="fill: #211e1e; stroke-width: 0px;"/>
          <path d="M53.73,53.81c0,.32-.07.62-.2.9-.13.28-.33.51-.59.68-.26.17-.58.26-.95.26-.31,0-.58-.05-.8-.17-.22-.11-.38-.28-.5-.51-.11-.23-.17-.53-.17-.9v-2.88h.76v2.89c0,.25.04.44.12.58.08.14.18.23.32.29.14.06.3.08.49.08.16,0,.31-.03.43-.08.13-.06.23-.13.32-.23.08-.1.15-.21.19-.34.04-.13.07-.26.07-.41l.51-.15ZM56.42,53.57c0,.4-.07.76-.2,1.07-.13.31-.33.56-.6.75-.26.18-.59.27-.98.27s-.75-.12-1.02-.36c-.27-.24-.4-.63-.4-1.18v-2.92h.76v2.88c0,.23.04.41.12.55.08.14.19.24.33.3.14.06.31.09.49.09.22,0,.4-.04.55-.12.15-.08.26-.19.35-.32.09-.14.15-.29.19-.47s.06-.36.06-.56h.35ZM55.91,51.2h.76v4.38h-.72l-.04-.87v-3.51Z" style="fill: #211e1e; stroke-width: 0px;"/>
          <path d="M47.42,56.57v.52s-.51,0-.51,0l-2.25-5.89h.81l1.96,5.38ZM45.56,52.74h3.31v.64h-3.31v-.64ZM49.04,51.2h.81l-2.25,5.89h-.52v-.52s1.96-5.38,1.96-5.38Z" style="fill: #211e1e; stroke-width: 0px;"/>
        </g>
        <g>
          <path d="M122.63,51.2h.76v5l1.51-.55v.68l-2.14.81h-.12v-5.93Z" style="fill: #211e1e; stroke-width: 0px;"/>
          <path d="M116.57,51.2h3.87v.53l-1.93,2.15c-.24.26-.42.49-.56.67s-.22.35-.27.5c-.05.15-.08.3-.08.45,0,.29.09.54.27.75.18.21.43.31.75.31.26,0,.48-.05.66-.15s.3-.24.39-.42.13-.39.13-.63h.76c0,.33-.07.63-.22.91s-.36.5-.65.66c-.29.16-.64.25-1.06.25-.56,0-.99-.14-1.31-.43s-.47-.67-.47-1.14c0-.23.05-.46.15-.7.1-.23.23-.47.4-.7.17-.23.35-.46.55-.67l1.58-1.72h-2.96v-.61Z" style="fill: #211e1e; stroke-width: 0px;"/>
          <path d="M111.94,57.09h-.85l2.18-5.89h.61l-.2.89-1.73,5ZM113.57,52.09l-.21-.89h.61l2.18,5.89h-.85l-1.72-5Z" style="fill: #211e1e; stroke-width: 0px;"/>
          <path d="M104.55,51.2h3.87v.53l-1.93,2.15c-.24.26-.42.49-.56.67s-.22.35-.27.5c-.05.15-.08.3-.08.45,0,.29.09.54.27.75.18.21.43.31.75.31.26,0,.48-.05.66-.15s.3-.24.39-.42.13-.39.13-.63h.76c0,.33-.07.63-.22.91s-.36.5-.65.66c-.29.16-.64.25-1.06.25-.56,0-.99-.14-1.31-.43s-.47-.67-.47-1.14c0-.23.05-.46.15-.7.1-.23.23-.47.4-.7.17-.23.35-.46.55-.67l1.58-1.72h-2.96v-.61Z" style="fill: #211e1e; stroke-width: 0px;"/>
          <path d="M101.69,56.57v.52s-.51,0-.51,0l-2.25-5.89h.81l1.96,5.38ZM99.84,52.74h3.31v.64h-3.31v-.64ZM103.32,51.2h.81l-2.25,5.89h-.52v-.52s1.96-5.38,1.96-5.38Z" style="fill: #211e1e; stroke-width: 0px;"/>
        </g>
        <g>
          <path d="M102.27,140.6l.3-2.93h3.02v.68h-2.38l-.17,1.62c.11-.06.24-.12.41-.17.17-.05.36-.08.57-.08.36,0,.67.08.94.24s.46.39.6.68c.14.29.21.64.21,1.04,0,.38-.07.71-.2,1.01-.14.29-.34.53-.62.7-.27.17-.62.25-1.04.25-.24,0-.46-.03-.67-.1-.21-.07-.4-.17-.57-.3-.17-.14-.3-.31-.41-.51-.11-.2-.17-.44-.19-.72h.72c.05.33.17.59.36.76s.45.26.76.26c.24,0,.44-.05.6-.16s.29-.26.38-.46c.09-.2.13-.44.13-.71,0-.25-.05-.47-.14-.67-.09-.2-.22-.35-.4-.47-.17-.12-.39-.17-.64-.17s-.44.03-.57.1c-.13.07-.26.16-.39.28l-.61-.15Z" style="fill: #211e1e; stroke-width: 0px;"/>
          <path d="M108.79,142.66l.21.89h-.61l-2.18-5.89h.85l1.72,5ZM110.42,137.66h.85l-2.18,5.89h-.61l.2-.89,1.73-5Z" style="fill: #211e1e; stroke-width: 0px;"/>
          <path d="M117.81,143.55h-3.87v-.53l1.93-2.15c.24-.26.42-.49.56-.67s.22-.35.27-.5c.05-.15.08-.3.08-.45,0-.29-.09-.54-.27-.75-.18-.21-.43-.31-.75-.31-.26,0-.48.05-.66.15s-.3.24-.39.42-.13.39-.13.63h-.76c0-.33.07-.63.22-.91s.36-.5.65-.66c.29-.16.64-.25,1.06-.25.56,0,.99.14,1.31.43s.47.67.47,1.14c0,.23-.05.46-.15.7-.1.23-.23.47-.4.7-.17.23-.35.46-.55.67l-1.58,1.72h2.96v.61Z" style="fill: #211e1e; stroke-width: 0px;"/>
          <path d="M119.04,143.55h-.81l2.25-5.89h.52v.52s-1.96,5.38-1.96,5.38ZM122.52,142.01h-3.31v-.64h3.31v.64ZM120.67,138.18v-.52s.51,0,.51,0l2.25,5.89h-.81l-1.96-5.38Z" style="fill: #211e1e; stroke-width: 0px;"/>
        </g>
        <g>
          <path d="M46.97,140.6l.3-2.93h3.02v.68h-2.38l-.17,1.62c.11-.06.24-.12.41-.17.17-.05.36-.08.57-.08.36,0,.67.08.94.24s.46.39.6.68c.14.29.21.64.21,1.04,0,.38-.07.71-.2,1.01-.14.29-.34.53-.62.7-.27.17-.62.25-1.04.25-.24,0-.46-.03-.67-.1-.21-.07-.4-.17-.57-.3-.17-.14-.3-.31-.41-.51-.11-.2-.17-.44-.19-.72h.72c.05.33.17.59.36.76s.45.26.76.26c.24,0,.44-.05.6-.16s.29-.26.38-.46c.09-.2.13-.44.13-.71,0-.25-.05-.47-.14-.67-.09-.2-.22-.35-.4-.47-.17-.12-.39-.17-.64-.17s-.44.03-.57.1c-.13.07-.26.16-.39.28l-.61-.15Z" style="fill: #211e1e; stroke-width: 0px;"/>
          <path d="M53.49,142.66l.21.89h-.61l-2.18-5.89h.85l1.72,5ZM55.12,137.66h.85l-2.18,5.89h-.61l.2-.89,1.73-5Z" style="fill: #211e1e; stroke-width: 0px;"/>
          <path d="M58.99,140.6l.3-2.93h3.02v.68h-2.38l-.17,1.62c.11-.06.24-.12.41-.17.17-.05.36-.08.57-.08.36,0,.67.08.94.24s.46.39.6.68c.14.29.21.64.21,1.04,0,.38-.07.71-.2,1.01-.14.29-.34.53-.62.7-.27.17-.62.25-1.04.25-.24,0-.46-.03-.67-.1-.21-.07-.4-.17-.57-.3-.17-.14-.3-.31-.41-.51-.11-.2-.17-.44-.19-.72h.72c.05.33.17.59.36.76s.45.26.76.26c.24,0,.44-.05.6-.16s.29-.26.38-.46c.09-.2.13-.44.13-.71,0-.25-.05-.47-.14-.67-.09-.2-.22-.35-.4-.47-.17-.12-.39-.17-.64-.17s-.44.03-.57.1c-.13.07-.26.16-.39.28l-.61-.15Z" style="fill: #211e1e; stroke-width: 0px;"/>
          <path d="M67.01,141.04c0,.64-.08,1.15-.22,1.53-.15.38-.36.65-.64.82-.28.17-.61.25-.99.25s-.7-.08-.98-.25c-.28-.17-.5-.44-.65-.82s-.23-.89-.23-1.53v-.9c0-.64.08-1.15.23-1.52.15-.37.37-.64.65-.8s.61-.24.99-.24.71.08.99.24c.28.16.49.42.65.8.15.37.23.88.23,1.52v.9ZM66.25,140.01c0-.44-.04-.8-.13-1.06-.08-.27-.21-.46-.37-.58-.17-.12-.37-.18-.61-.18s-.44.06-.6.18c-.17.12-.29.31-.38.58-.08.27-.13.62-.13,1.06v1.15c0,.44.04.8.13,1.07.09.28.21.48.38.6.17.13.37.19.6.19s.45-.06.61-.19c.16-.13.28-.33.37-.6.08-.28.12-.63.12-1.07v-1.15Z" style="fill: #211e1e; stroke-width: 0px;"/>
          <path d="M71.68,141.04c0,.64-.08,1.15-.22,1.53-.15.38-.36.65-.64.82-.28.17-.61.25-.99.25s-.7-.08-.98-.25c-.28-.17-.5-.44-.65-.82s-.23-.89-.23-1.53v-.9c0-.64.08-1.15.23-1.52.15-.37.37-.64.65-.8s.61-.24.99-.24.71.08.99.24c.28.16.49.42.65.8.15.37.23.88.23,1.52v.9ZM70.92,140.01c0-.44-.04-.8-.13-1.06-.08-.27-.21-.46-.37-.58-.17-.12-.37-.18-.61-.18s-.44.06-.6.18c-.17.12-.29.31-.38.58-.08.27-.13.62-.13,1.06v1.15c0,.44.04.8.13,1.07.09.28.21.48.38.6.17.13.37.19.6.19s.45-.06.61-.19c.16-.13.28-.33.37-.6.08-.28.12-.63.12-1.07v-1.15Z" style="fill: #211e1e; stroke-width: 0px;"/>
          <path d="M73.47,143.55h-.76v-4.38h.72l.04.87v3.51ZM72.97,141.18c0-.4.07-.76.2-1.07.13-.31.33-.56.6-.75.26-.18.59-.27.98-.27s.75.12,1.02.36c.27.24.4.63.4,1.18v2.92h-.76v-2.88c0-.23-.04-.41-.12-.55-.08-.14-.19-.24-.33-.3-.14-.06-.31-.09-.49-.09-.22,0-.4.04-.55.12-.15.08-.26.19-.35.32-.09.14-.15.29-.19.47s-.06.36-.06.56h-.35ZM75.65,140.94c0-.32.07-.62.2-.9.13-.28.33-.51.59-.68.26-.17.58-.26.95-.26.31,0,.58.05.8.17.22.11.38.28.5.51.11.23.17.53.17.9v2.88h-.76v-2.89c0-.25-.04-.44-.12-.58-.08-.14-.18-.23-.32-.29-.14-.06-.3-.08-.49-.08-.16,0-.31.03-.43.08-.13.06-.23.13-.32.23-.08.1-.15.21-.19.34-.04.13-.07.26-.07.41l-.51.15Z" style="fill: #211e1e; stroke-width: 0px;"/>
          <path d="M80.35,143.55h-.81l2.25-5.89h.52v.52s-1.96,5.38-1.96,5.38ZM83.83,142.01h-3.31v-.64h3.31v.64ZM81.97,138.18v-.52s.51,0,.51,0l2.25,5.89h-.81l-1.96-5.38Z" style="fill: #211e1e; stroke-width: 0px;"/>
        </g>
        <g>
          <path d="M50.52,78.51h.76v5l1.51-.55v.68l-2.14.81h-.12v-5.93Z" style="fill: #211e1e; stroke-width: 0px;"/>
          <path d="M44.45,78.51h3.87v.53l-1.93,2.15c-.24.26-.42.49-.56.67s-.22.35-.27.5c-.05.15-.08.3-.08.45,0,.29.09.54.27.75.18.21.43.31.75.31.26,0,.48-.05.66-.15s.3-.24.39-.42.13-.39.13-.63h.76c0,.33-.07.63-.22.91s-.36.5-.65.66c-.29.16-.64.25-1.06.25-.56,0-.99-.14-1.31-.43s-.47-.67-.47-1.14c0-.23.05-.46.15-.7.1-.23.23-.47.4-.7.17-.23.35-.46.55-.67l1.58-1.72h-2.96v-.61Z" style="fill: #211e1e; stroke-width: 0px;"/>
          <path d="M39.82,84.4h-.85l2.18-5.89h.61l-.2.89-1.73,5ZM41.45,79.4l-.21-.89h.61l2.18,5.89h-.85l-1.72-5Z" style="fill: #211e1e; stroke-width: 0px;"/>
        </g>
        <path d="M14.34,106.2v10.45c0,.9.72,1.62,1.62,1.62h39.19c.89,0,1.62-.72,1.62-1.62v-10.45c0-.89-.72-1.62-1.62-1.62H15.95c-.89,0-1.62.72-1.62,1.62" style="fill: #819355; stroke-width: 0px;"/>
        <path d="M25.21,107.83c-6,0-10.87,5.52-10.87,12.32,0,6.8,4.87,12.32,10.87,12.32,6,0,10.88-5.52,10.88-12.32,0-6.8-4.87-12.32-10.88-12.32" style="fill: #819355; stroke-width: 0px;"/>
        <path d="M25.21,129.19c-4.99,0-9.03-4.04-9.03-9.03,0-4.99,4.04-9.04,9.03-9.04,4.99,0,9.04,4.04,9.04,9.04,0,4.99-4.04,9.03-9.04,9.03" style="fill: #079247; stroke-width: 0px;"/>
        <g>
          <path d="M42.28,111.37l.3-2.93h3.02v.68h-2.38l-.17,1.62c.11-.06.24-.12.41-.17.17-.05.36-.08.57-.08.36,0,.67.08.94.24s.46.39.6.68c.14.29.21.64.21,1.04,0,.38-.07.71-.2,1.01-.14.29-.34.53-.62.7-.27.17-.62.25-1.04.25-.24,0-.46-.03-.67-.1-.21-.07-.4-.17-.57-.3-.17-.14-.3-.31-.41-.51-.11-.2-.17-.44-.19-.72h.72c.05.33.17.59.36.76s.45.26.76.26c.24,0,.44-.05.6-.16s.29-.26.38-.46c.09-.2.13-.44.13-.71,0-.25-.05-.47-.14-.67-.09-.2-.22-.35-.4-.47-.17-.12-.39-.17-.64-.17s-.44.03-.57.1c-.13.07-.26.16-.39.28l-.61-.15Z" style="fill: #211e1e; stroke-width: 0px;"/>
          <path d="M48.8,113.44l.21.89h-.61l-2.18-5.89h.85l1.72,5ZM50.43,108.44h.85l-2.18,5.89h-.61l.2-.89,1.73-5Z" style="fill: #211e1e; stroke-width: 0px;"/>
        </g>
        <path d="M92.51,78.5l-1,.24v-.68l6.63-2.45v.96l-5.63,1.93ZM98.14,80.33v.96l-6.63-2.45v-.68l1,.23,5.63,1.95Z" style="fill: #819355; stroke-width: 0px;"/>
        <g>
          <path d="M94.02,81.64c.48,0,.9.09,1.28.27.38.18.67.44.89.77.22.33.33.73.33,1.19s-.11.87-.33,1.2c-.22.34-.52.6-.89.78-.38.18-.8.27-1.28.27h-.1c-.47,0-.9-.09-1.28-.27s-.68-.44-.9-.77c-.22-.34-.33-.73-.33-1.2s.11-.86.33-1.2c.22-.34.52-.59.9-.78.38-.18.8-.27,1.28-.27h.1ZM93.92,82.49c-.33,0-.63.05-.9.15-.28.1-.5.26-.66.46s-.25.46-.25.78.08.57.25.77.39.36.66.46c.28.1.58.16.9.16h.1c.32,0,.62-.05.9-.16.28-.1.5-.26.67-.46.17-.21.25-.47.25-.78s-.08-.56-.25-.77c-.17-.21-.39-.36-.67-.46s-.58-.15-.9-.15h-.1Z" style="fill: #fff; stroke-width: 0px;"/>
          <path d="M91.51,88.11v-.85h6.99v.85h-6.99Z" style="fill: #fff; stroke-width: 0px;"/>
          <path d="M97.63,90.61h-4.9c-.17,0-.3.03-.38.08s-.14.12-.17.2-.04.17-.04.26c0,.07,0,.14.02.22.01.08.02.13.03.17h-.68c-.02-.06-.04-.15-.06-.26s-.03-.24-.03-.39c0-.21.04-.4.12-.57.08-.17.22-.31.41-.41.19-.1.45-.15.78-.15h4.9v.85ZM95.8,91.53v-2.67h.64v2.67h-.64Z" style="fill: #fff; stroke-width: 0px;"/>
          <path d="M93.91,95.57v-.85c0-.48-.08-.85-.23-1.11-.15-.26-.38-.39-.68-.39-.24,0-.44.08-.6.24-.16.16-.25.39-.25.7,0,.26.05.49.16.68s.24.35.41.47c.16.12.32.18.46.19l-.41.36c-.13-.02-.27-.08-.42-.17-.16-.09-.3-.22-.44-.38s-.26-.34-.35-.56-.14-.46-.14-.72c0-.33.06-.63.19-.88.13-.25.3-.44.53-.58.22-.14.47-.21.74-.21.53,0,.93.2,1.21.6.27.4.41.94.41,1.62v.97h-.59ZM94.89,95.41c.29,0,.53-.09.7-.26.17-.17.26-.43.26-.77,0-.21-.04-.39-.11-.55-.07-.16-.17-.28-.29-.37-.12-.09-.25-.13-.39-.13v-.85c.24,0,.47.08.69.24.22.16.41.39.55.68s.22.64.22,1.04c0,.36-.06.68-.18.95s-.3.49-.55.65c-.24.16-.55.24-.92.24h-2.29c-.16,0-.34.01-.52.04-.18.03-.34.07-.48.13h-.07v-.89c.1-.04.23-.08.39-.1.16-.02.31-.04.45-.04h2.54Z" style="fill: #fff; stroke-width: 0px;"/>
          <path d="M96.44,101.56h-4.82c-.43,0-.8-.09-1.11-.27s-.54-.42-.7-.74-.24-.68-.24-1.09c0-.17.03-.37.08-.6.05-.23.14-.45.27-.67.13-.22.29-.41.51-.55l.5.44c-.25.21-.42.42-.52.65-.1.23-.15.45-.15.67,0,.4.11.71.34.95.23.24.55.35.99.35h3.78l1.08.08v.77ZM94.02,97.39c.5,0,.94.08,1.32.24s.67.38.88.67c.21.29.31.64.31,1.04,0,.31-.05.58-.16.81-.11.23-.26.43-.47.59-.2.16-.45.29-.74.39-.29.1-.61.16-.97.2h-.44c-.48-.05-.89-.15-1.24-.3-.35-.16-.62-.37-.81-.65s-.28-.63-.28-1.04c0-.39.11-.74.33-1.03.22-.29.51-.51.89-.67.38-.16.8-.24,1.28-.24h.1ZM93.92,98.25c-.33,0-.63.04-.9.13s-.49.23-.65.42c-.16.19-.24.44-.24.74,0,.28.06.51.18.69.12.18.27.32.47.43.19.11.41.19.63.25h1.11c.17-.04.33-.09.49-.16s.3-.15.42-.26.22-.24.29-.4c.07-.16.11-.34.11-.55,0-.31-.08-.56-.25-.75-.16-.19-.38-.33-.66-.42s-.58-.13-.9-.13h-.1Z" style="fill: #fff; stroke-width: 0px;"/>
          <path d="M91.42,104.88c0-.46.1-.86.31-1.2.21-.34.49-.6.84-.79.36-.19.77-.28,1.23-.28h.2c.53,0,.99.1,1.37.31.38.21.67.47.87.8s.3.68.3,1.04c0,.47-.11.86-.32,1.16s-.5.52-.86.66c-.36.14-.77.21-1.23.21h-.38v-3.68h.68v2.83h.06c.22-.01.43-.06.64-.13.21-.08.38-.2.51-.36.14-.17.2-.4.2-.68,0-.25-.07-.48-.22-.68-.14-.2-.35-.35-.63-.46-.27-.11-.61-.17-1-.17h-.2c-.31,0-.6.06-.85.17s-.46.28-.61.5c-.15.22-.23.48-.23.78s.06.55.18.76c.12.21.28.39.49.54l-.4.51c-.24-.16-.46-.38-.66-.68-.2-.3-.29-.69-.29-1.18Z" style="fill: #fff; stroke-width: 0px;"/>
        </g>
        <path d="M87.38,81.34c0,.5-.08.92-.23,1.27-.15.35-.38.61-.67.79s-.66.27-1.09.27c-.3,0-.58-.06-.83-.18s-.46-.3-.64-.53-.31-.5-.39-.82l-.1-.25v-2.06h.71s0,1.54,0,1.54c0,.32.06.58.17.79.11.21.26.37.45.47.19.1.4.16.62.16.39,0,.69-.11.93-.34s.35-.59.35-1.1v-1.31h-5.92v-.88h6.63v2.19ZM83.75,81.4v.92l-2.95,1.63h-.05v-.95l3-1.61Z" style="fill: #819355; stroke-width: 0px;"/>
        <g>
          <path d="M80.66,86.8c0-.46.1-.86.31-1.2.21-.34.49-.6.84-.79.36-.19.77-.28,1.23-.28h.2c.53,0,.99.1,1.37.31.38.21.67.47.87.8s.3.68.3,1.04c0,.47-.11.86-.32,1.16s-.5.52-.86.66c-.36.14-.77.21-1.23.21h-.38v-3.68h.68v2.83h.06c.22-.01.43-.06.64-.13.21-.08.38-.2.51-.36.14-.17.2-.4.2-.68,0-.25-.07-.48-.22-.68-.14-.2-.35-.35-.63-.46-.27-.11-.61-.17-1-.17h-.2c-.31,0-.6.06-.85.17s-.46.28-.61.5c-.15.22-.23.48-.23.78s.06.55.18.76c.12.21.28.39.49.54l-.4.51c-.24-.16-.46-.38-.66-.68-.2-.3-.29-.69-.29-1.18Z" style="fill: #fff; stroke-width: 0px;"/>
          <path d="M85.68,93.68h-4.82c-.43,0-.8-.09-1.11-.27s-.54-.42-.7-.74-.24-.68-.24-1.09c0-.17.03-.37.08-.6.05-.23.14-.45.27-.67.13-.22.29-.41.51-.55l.5.44c-.25.21-.42.42-.52.65-.1.23-.15.45-.15.67,0,.4.11.71.34.95.23.24.55.35.99.35h3.78l1.08.08v.77ZM83.26,89.51c.5,0,.94.08,1.32.24s.67.38.88.67c.21.29.31.64.31,1.04,0,.31-.05.58-.16.81-.11.23-.26.43-.47.59-.2.16-.45.29-.74.39-.29.1-.61.16-.97.2h-.44c-.48-.05-.89-.15-1.24-.3-.35-.16-.62-.37-.81-.65s-.28-.63-.28-1.04c0-.39.11-.74.33-1.03.22-.29.51-.51.89-.67.38-.16.8-.24,1.28-.24h.1ZM83.16,90.37c-.33,0-.63.04-.9.13s-.49.23-.65.42c-.16.19-.24.44-.24.74,0,.28.06.51.18.69.12.18.27.32.47.43.19.11.41.19.63.25h1.11c.17-.04.33-.09.49-.16s.3-.15.42-.26.22-.24.29-.4c.07-.16.11-.34.11-.55,0-.31-.08-.56-.25-.75-.16-.19-.38-.33-.66-.42s-.58-.13-.9-.13h-.1Z" style="fill: #fff; stroke-width: 0px;"/>
          <path d="M82.94,98.48c-.44,0-.83-.06-1.17-.19-.34-.12-.61-.33-.81-.61-.2-.28-.3-.66-.3-1.13s.14-.87.43-1.17.76-.45,1.41-.45h3.18v.85h-3.19c-.3,0-.53.04-.69.13-.16.09-.28.2-.34.34-.06.14-.09.28-.09.43,0,.36.07.64.21.85.14.21.33.36.56.45.24.09.5.14.79.14v.35ZM85.68,97.97v.85h-4.93v-.81l1.14-.04h3.79Z" style="fill: #fff; stroke-width: 0px;"/>
          <path d="M80.75,101.02v-.85h6.99v.85h-6.99Z" style="fill: #fff; stroke-width: 0px;"/>
          <path d="M83.15,105.42v-.85c0-.48-.08-.85-.23-1.11-.15-.26-.38-.39-.68-.39-.24,0-.44.08-.6.24-.16.16-.25.39-.25.7,0,.26.05.49.16.68s.24.35.41.47c.16.12.32.18.46.19l-.41.36c-.13-.02-.27-.08-.42-.17-.16-.09-.3-.22-.44-.38s-.26-.34-.35-.56-.14-.46-.14-.72c0-.33.06-.63.19-.88.13-.25.3-.44.53-.58.22-.14.47-.21.74-.21.53,0,.93.2,1.21.6.27.4.41.94.41,1.62v.97h-.59ZM84.13,105.27c.29,0,.53-.09.7-.26.17-.17.26-.43.26-.77,0-.21-.04-.39-.11-.55-.07-.16-.17-.28-.29-.37-.12-.09-.25-.13-.39-.13v-.85c.24,0,.47.08.69.24.22.16.41.39.55.68s.22.64.22,1.04c0,.36-.06.68-.18.95s-.3.49-.55.65c-.24.16-.55.24-.92.24h-2.29c-.16,0-.34.01-.52.04-.18.03-.34.07-.48.13h-.07v-.89c.1-.04.23-.08.39-.1.16-.02.31-.04.45-.04h2.54Z" style="fill: #fff; stroke-width: 0px;"/>
          <path d="M86.87,108.59h-4.9c-.17,0-.3.03-.38.08s-.14.12-.17.2-.04.17-.04.26c0,.07,0,.14.02.22.01.08.02.13.03.17h-.68c-.02-.06-.04-.15-.06-.26s-.03-.24-.03-.39c0-.21.04-.4.12-.57.08-.17.22-.31.41-.41.19-.1.45-.15.78-.15h4.9v.85ZM85.04,109.51v-2.67h.64v2.67h-.64Z" style="fill: #fff; stroke-width: 0px;"/>
          <path d="M83.26,110.15c.48,0,.9.09,1.28.27.38.18.67.44.89.77.22.33.33.73.33,1.19s-.11.87-.33,1.2c-.22.34-.52.6-.89.78-.38.18-.8.27-1.28.27h-.1c-.47,0-.9-.09-1.28-.27s-.68-.44-.9-.77c-.22-.34-.33-.73-.33-1.2s.11-.86.33-1.2c.22-.34.52-.59.9-.78.38-.18.8-.27,1.28-.27h.1ZM83.16,111c-.33,0-.63.05-.9.15-.28.1-.5.26-.66.46s-.25.46-.25.78.08.57.25.77.39.36.66.46c.28.1.58.16.9.16h.1c.32,0,.62-.05.9-.16.28-.1.5-.26.67-.46.17-.21.25-.47.25-.78s-.08-.56-.25-.77c-.17-.21-.39-.36-.67-.46s-.58-.15-.9-.15h-.1Z" style="fill: #fff; stroke-width: 0px;"/>
          <path d="M80.75,116.55v-.85h4.93v.83l-.77.02h-4.15ZM84.93,118.08c.01-.07.02-.14.03-.2,0-.06,0-.13,0-.21,0-.26-.05-.48-.16-.65s-.25-.32-.44-.41c-.19-.1-.4-.16-.64-.18l-.14-.24c.4,0,.76.05,1.09.16.33.11.59.27.79.5.2.23.3.52.3.87,0,.06,0,.13-.02.21s-.03.14-.04.17h-.78Z" style="fill: #fff; stroke-width: 0px;"/>
        </g>
        <path d="M76.24,82.05l-4.04.12h-2.59v-.88h6.63v.76ZM76.24,82.44l-5.42,2.16,5.42,2.16v.86l-6.63-2.69v-.67l6.63-2.69v.86ZM76.24,87.9h-6.63v-.88h2.59l4.04.12v.76Z" style="fill: #819355; stroke-width: 0px;"/>
        <g>
          <path d="M72.12,89.1c.48,0,.9.09,1.28.27.38.18.67.44.89.77.22.33.33.73.33,1.19s-.11.87-.33,1.2c-.22.34-.52.6-.89.78-.38.18-.8.27-1.28.27h-.1c-.47,0-.9-.09-1.28-.27s-.68-.44-.9-.77c-.22-.34-.33-.73-.33-1.2s.11-.86.33-1.2c.22-.34.52-.59.9-.78.38-.18.8-.27,1.28-.27h.1ZM72.02,89.95c-.33,0-.63.05-.9.15-.28.1-.5.26-.66.46s-.25.46-.25.78.08.57.25.77.39.36.66.46c.28.1.58.16.9.16h.1c.32,0,.62-.05.9-.16.28-.1.5-.26.67-.46.17-.21.25-.47.25-.78s-.08-.56-.25-.77c-.17-.21-.39-.36-.67-.46s-.58-.15-.9-.15h-.1Z" style="fill: #fff; stroke-width: 0px;"/>
          <path d="M72.11,94.44c.5,0,.94.08,1.32.24.38.16.67.39.88.68.21.29.31.63.31,1.02,0,.41-.09.76-.28,1.03s-.46.49-.81.65c-.35.16-.76.26-1.25.3h-.44c-.48-.05-.89-.15-1.24-.3-.35-.16-.62-.37-.81-.65-.19-.28-.28-.63-.28-1.04,0-.38.11-.72.33-1.01.22-.29.51-.52.89-.68.38-.16.8-.24,1.28-.24h.1ZM76.6,97.75v.85h-6.99v-.78l.96-.07h6.04ZM72.02,95.29c-.33,0-.63.04-.9.13-.27.09-.49.23-.65.42-.16.19-.24.44-.24.74,0,.28.06.51.18.69s.27.33.47.44c.19.11.41.19.63.25h1.11c.17-.04.33-.09.49-.16s.3-.16.42-.26c.12-.11.22-.24.29-.4.07-.16.11-.34.11-.55,0-.31-.08-.56-.25-.75s-.38-.33-.66-.42c-.27-.09-.58-.13-.9-.13h-.1Z" style="fill: #fff; stroke-width: 0px;"/>
          <path d="M71.79,103.44c-.44,0-.83-.06-1.17-.19-.34-.12-.61-.33-.81-.61-.2-.28-.3-.66-.3-1.13s.14-.87.43-1.17.76-.45,1.41-.45h3.18v.85h-3.19c-.3,0-.53.04-.69.13-.16.09-.28.2-.34.34-.06.14-.09.28-.09.43,0,.36.07.64.21.85.14.21.33.36.56.45.24.09.5.14.79.14v.35ZM74.53,102.93v.85h-4.93v-.81l1.14-.04h3.79Z" style="fill: #fff; stroke-width: 0px;"/>
          <path d="M69.61,105.98v-.85h6.99v.85h-6.99Z" style="fill: #fff; stroke-width: 0px;"/>
          <path d="M69.52,109.37c0-.46.1-.86.31-1.2.21-.34.49-.6.84-.79.36-.19.77-.28,1.23-.28h.2c.53,0,.99.1,1.37.31.38.21.67.47.87.8s.3.68.3,1.04c0,.47-.11.86-.32,1.16s-.5.52-.86.66c-.36.14-.77.21-1.23.21h-.38v-3.68h.68v2.83h.06c.22-.01.43-.06.64-.13.21-.08.38-.2.51-.36.14-.17.2-.4.2-.68,0-.25-.07-.48-.22-.68-.14-.2-.35-.35-.63-.46-.27-.11-.61-.17-1-.17h-.2c-.31,0-.6.06-.85.17s-.46.28-.61.5c-.15.22-.23.48-.23.78s.06.55.18.76c.12.21.28.39.49.54l-.4.51c-.24-.16-.46-.38-.66-.68-.2-.3-.29-.69-.29-1.18Z" style="fill: #fff; stroke-width: 0px;"/>
        </g>
        <path d="M162.45,183.33c-3.64,0-6.6-2.95-6.6-6.6,0-3.64,2.95-6.6,6.6-6.6s6.6,2.95,6.6,6.6-2.95,6.6-6.6,6.6" style="fill: #fff; stroke-width: 0px;"/>
        <path d="M14.34,181.85c-3.64,0-6.6-2.95-6.6-6.6s2.96-6.59,6.6-6.59c3.64,0,6.6,2.95,6.6,6.59,0,3.64-2.96,6.6-6.6,6.6" style="fill: #fff; stroke-width: 0px;"/>
        <path d="M160.25,23.68c-3.64,0-6.6-2.95-6.6-6.6s2.96-6.59,6.6-6.59,6.6,2.95,6.6,6.59-2.96,6.6-6.6,6.6" style="fill: #fff; stroke-width: 0px;"/>
        <path d="M17.53,23.68c-3.64,0-6.6-2.95-6.6-6.6,0-3.64,2.96-6.59,6.6-6.59s6.6,2.95,6.6,6.59-2.96,6.6-6.6,6.6" style="fill: #fff; stroke-width: 0px;"/>
      </g>
    </g>
  </g>
</svg>